<svg width="22" height="28" viewBox="0 0 22 28" fill="none" xmlns="http://www.w3.org/2000/svg">
<path d="M19.9465 24C18.8398 25.6533 17.6665 27.2666 15.8798 27.2933C14.0931 27.3333 13.5198 26.24 11.4931 26.24C9.45313 26.24 8.82646 27.2666 7.13313 27.3333C5.38646 27.4 4.06646 25.5733 2.94646 23.96C0.666464 20.6666 -1.0802 14.6 1.26646 10.52C2.42646 8.49329 4.50646 7.21329 6.7598 7.17329C8.46646 7.14663 10.0931 8.33329 11.1465 8.33329C12.1865 8.33329 14.1598 6.90663 16.2265 7.11996C17.0931 7.15996 19.5198 7.46663 21.0798 9.75996C20.9598 9.83996 18.1865 11.4666 18.2131 14.84C18.2531 18.8666 21.7465 20.2133 21.7865 20.2266C21.7465 20.32 21.2265 22.1466 19.9465 24ZM12.3331 2.66663C13.3065 1.55996 14.9198 0.719959 16.2531 0.666626C16.4265 2.22663 15.7998 3.79996 14.8665 4.91996C13.9465 6.05329 12.4265 6.93329 10.9331 6.81329C10.7331 5.27996 11.4798 3.67996 12.3331 2.66663Z" fill="#272559"/>
</svg>
