<svg width="8" height="15" viewBox="0 0 8 15" fill="none" xmlns="http://www.w3.org/2000/svg">
<path d="M1.17032 14.0015C1.31972 14.002 1.46733 13.969 1.60231 13.905C1.73729 13.841 1.85621 13.7475 1.95032 13.6315L6.78032 7.6315C6.92741 7.45256 7.00781 7.22812 7.00781 6.9965C7.00781 6.76487 6.92741 6.54043 6.78032 6.3615L1.78032 0.361497C1.61059 0.15728 1.36667 0.0288554 1.10225 0.00447564C0.837822 -0.0199041 0.574541 0.0617578 0.370325 0.231496C0.166108 0.401235 0.037684 0.645146 0.0133042 0.909573C-0.0110755 1.174 0.0705857 1.43728 0.240324 1.6415L4.71032 7.0015L0.390325 12.3615C0.268042 12.5083 0.190365 12.687 0.166485 12.8766C0.142606 13.0661 0.173522 13.2585 0.255579 13.4311C0.337635 13.6036 0.467394 13.749 0.629505 13.8501C0.791615 13.9512 0.979291 14.0037 1.17032 14.0015Z" fill="#84858E"/>
</svg>
