<svg width="312" height="131" viewBox="0 0 312 131" fill="none" xmlns="http://www.w3.org/2000/svg">
<rect x="0.5" y="0.5" width="311" height="130" rx="15.5" fill="white"/>
<rect x="0.5" y="0.5" width="311" height="130" rx="15.5" stroke="#DBDBE3"/>
<path d="M51.506 25.6719C51.4663 25.2997 51.2987 25.0099 51.0032 24.8026C50.7106 24.5952 50.3299 24.4915 49.8612 24.4915C49.5316 24.4915 49.2489 24.5412 49.0131 24.6406C48.7773 24.7401 48.5969 24.875 48.4719 25.0455C48.3469 25.2159 48.283 25.4105 48.2802 25.6293C48.2802 25.8111 48.3214 25.9687 48.4038 26.1023C48.489 26.2358 48.604 26.3494 48.7489 26.4432C48.8938 26.5341 49.0543 26.6108 49.2305 26.6733C49.4066 26.7358 49.5842 26.7884 49.7631 26.831L50.5813 27.0355C50.9109 27.1122 51.2276 27.2159 51.5316 27.3466C51.8384 27.4773 52.1126 27.642 52.354 27.8409C52.5984 28.0398 52.7915 28.2798 52.9336 28.5611C53.0756 28.8423 53.1467 29.1719 53.1467 29.5497C53.1467 30.0611 53.016 30.5114 52.7546 30.9006C52.4933 31.2869 52.1154 31.5895 51.6211 31.8082C51.1296 32.0241 50.5344 32.1321 49.8356 32.1321C49.1566 32.1321 48.5671 32.027 48.0671 31.8168C47.57 31.6065 47.1808 31.2997 46.8995 30.8963C46.6211 30.4929 46.4705 30.0014 46.4478 29.4219H48.0032C48.0259 29.7259 48.1197 29.9787 48.2844 30.1804C48.4492 30.3821 48.6637 30.5327 48.9279 30.6321C49.195 30.7315 49.4933 30.7812 49.8228 30.7812C50.1665 30.7812 50.4677 30.7301 50.7262 30.6278C50.9876 30.5227 51.1921 30.3778 51.3398 30.1932C51.4876 30.0057 51.5629 29.7869 51.5657 29.5369C51.5629 29.3097 51.4961 29.1222 51.3654 28.9744C51.2347 28.8239 51.0515 28.6989 50.8157 28.5994C50.5827 28.4972 50.31 28.4062 49.9975 28.3267L49.0046 28.071C48.2859 27.8864 47.7177 27.6065 47.3001 27.2315C46.8853 26.8537 46.6779 26.3523 46.6779 25.7273C46.6779 25.2131 46.8171 24.7628 47.0955 24.3764C47.3768 23.9901 47.7589 23.6903 48.2418 23.4773C48.7248 23.2614 49.2717 23.1534 49.8825 23.1534C50.5018 23.1534 51.0444 23.2614 51.5103 23.4773C51.979 23.6903 52.3469 23.9872 52.614 24.3679C52.881 24.7457 53.0188 25.1804 53.0273 25.6719H51.506ZM57.343 32.1278C56.6896 32.1278 56.1286 31.9844 55.6598 31.6974C55.1939 31.4105 54.8345 31.0142 54.5817 30.5085C54.3317 30 54.2067 29.4148 54.2067 28.7528C54.2067 28.0881 54.3345 27.5014 54.5902 26.9929C54.8459 26.4815 55.2067 26.0838 55.6726 25.7997C56.1413 25.5128 56.6953 25.3693 57.3345 25.3693C57.8658 25.3693 58.3359 25.4673 58.745 25.6634C59.157 25.8565 59.4851 26.1307 59.7294 26.4858C59.9737 26.8381 60.1129 27.25 60.147 27.7216H58.6726C58.6129 27.4062 58.4709 27.1435 58.2464 26.9332C58.0249 26.7202 57.728 26.6136 57.3558 26.6136C57.0405 26.6136 56.7635 26.6989 56.5249 26.8693C56.2862 27.0369 56.1001 27.2784 55.9666 27.5938C55.8359 27.9091 55.7706 28.2869 55.7706 28.7273C55.7706 29.1733 55.8359 29.5568 55.9666 29.8778C56.0973 30.196 56.2805 30.4418 56.5163 30.6151C56.755 30.7855 57.0348 30.8707 57.3558 30.8707C57.5831 30.8707 57.7862 30.8281 57.9652 30.7429C58.147 30.6548 58.299 30.5284 58.4212 30.3636C58.5433 30.1989 58.6271 29.9986 58.6726 29.7628H60.147C60.1101 30.2259 59.9737 30.6364 59.7379 30.9943C59.5021 31.3494 59.1811 31.6278 58.7749 31.8295C58.3686 32.0284 57.8913 32.1278 57.343 32.1278ZM63.2972 32.1321C62.8825 32.1321 62.5089 32.0582 62.1765 31.9105C61.8469 31.7599 61.5856 31.5384 61.3924 31.2457C61.2021 30.9531 61.1069 30.5923 61.1069 30.1634C61.1069 29.794 61.1751 29.4886 61.3114 29.2472C61.4478 29.0057 61.6339 28.8125 61.8697 28.6676C62.1055 28.5227 62.3711 28.4134 62.6665 28.3395C62.9648 28.2628 63.2731 28.2074 63.5913 28.1733C63.9748 28.1335 64.2859 28.098 64.5245 28.0668C64.7631 28.0327 64.9364 27.9815 65.0444 27.9134C65.1552 27.8423 65.2106 27.733 65.2106 27.5852V27.5597C65.2106 27.2386 65.1154 26.9901 64.9251 26.8139C64.7347 26.6378 64.4606 26.5497 64.1026 26.5497C63.7248 26.5497 63.4251 26.6321 63.2035 26.7969C62.9847 26.9616 62.837 27.1562 62.7603 27.3807L61.32 27.1761C61.4336 26.7784 61.6211 26.446 61.8825 26.179C62.1438 25.9091 62.4634 25.7074 62.8413 25.5739C63.2191 25.4375 63.6367 25.3693 64.0941 25.3693C64.4094 25.3693 64.7234 25.4062 65.0359 25.4801C65.3484 25.554 65.6339 25.6761 65.8924 25.8466C66.1509 26.0142 66.3583 26.2429 66.5146 26.5327C66.6737 26.8224 66.7532 27.1847 66.7532 27.6193V32H65.2702V31.1009H65.2191C65.1254 31.2827 64.9933 31.4531 64.8228 31.6122C64.6552 31.7685 64.4435 31.8949 64.1879 31.9915C63.935 32.0852 63.6381 32.1321 63.2972 32.1321ZM63.6978 30.9986C64.0075 30.9986 64.2759 30.9375 64.5032 30.8153C64.7305 30.6903 64.9052 30.5256 65.0273 30.321C65.1523 30.1165 65.2148 29.8935 65.2148 29.652V28.8807C65.1665 28.9205 65.0842 28.9574 64.9677 28.9915C64.854 29.0256 64.7262 29.0554 64.5842 29.081C64.4421 29.1065 64.3015 29.1293 64.1623 29.1491C64.0231 29.169 63.9023 29.1861 63.8001 29.2003C63.57 29.2315 63.364 29.2827 63.1822 29.3537C63.0004 29.4247 62.8569 29.5241 62.7518 29.652C62.6467 29.777 62.5941 29.9389 62.5941 30.1378C62.5941 30.4219 62.6978 30.6364 62.9052 30.7812C63.1126 30.9261 63.3768 30.9986 63.6978 30.9986ZM69.8469 28.1648V32H68.3043V25.4545H69.7788V26.5668H69.8555C70.006 26.2003 70.2461 25.9091 70.5756 25.6932C70.908 25.4773 71.3185 25.3693 71.8072 25.3693C72.2589 25.3693 72.6523 25.4659 72.9876 25.6591C73.3256 25.8523 73.587 26.1321 73.7717 26.4986C73.9592 26.8651 74.0515 27.3097 74.0487 27.8324V32H72.506V28.071C72.506 27.6335 72.3924 27.2912 72.1651 27.044C71.9407 26.7969 71.6296 26.6733 71.2319 26.6733C70.962 26.6733 70.7219 26.733 70.5117 26.8523C70.3043 26.9687 70.141 27.1378 70.0217 27.3594C69.9052 27.581 69.8469 27.8494 69.8469 28.1648ZM81.8619 25.4545V26.6477H78.0991V25.4545H81.8619ZM79.0281 23.8864H80.5707V30.0312C80.5707 30.2386 80.6019 30.3977 80.6644 30.5085C80.7298 30.6165 80.815 30.6903 80.9201 30.7301C81.0252 30.7699 81.1417 30.7898 81.2695 30.7898C81.3661 30.7898 81.4542 30.7827 81.5337 30.7685C81.6161 30.7543 81.6786 30.7415 81.7212 30.7301L81.9812 31.9361C81.8988 31.9645 81.7809 31.9957 81.6275 32.0298C81.4769 32.0639 81.2923 32.0838 81.0735 32.0895C80.6871 32.1009 80.3391 32.0426 80.0295 31.9148C79.7198 31.7841 79.4741 31.5824 79.2923 31.3097C79.1133 31.0369 79.0252 30.696 79.0281 30.2869V23.8864ZM84.8352 28.1648V32H83.2926V23.2727H84.8011V26.5668H84.8778C85.0313 26.1974 85.2685 25.9062 85.5895 25.6932C85.9134 25.4773 86.3253 25.3693 86.8253 25.3693C87.2798 25.3693 87.6761 25.4645 88.0142 25.6548C88.3523 25.8452 88.6136 26.1236 88.7983 26.4901C88.9858 26.8565 89.0795 27.304 89.0795 27.8324V32H87.5369V28.071C87.5369 27.6307 87.4233 27.2884 87.196 27.044C86.9716 26.7969 86.6562 26.6733 86.25 26.6733C85.9773 26.6733 85.733 26.733 85.517 26.8523C85.304 26.9687 85.1364 27.1378 85.0142 27.3594C84.8949 27.581 84.8352 27.8494 84.8352 28.1648ZM93.5497 32.1278C92.8935 32.1278 92.3267 31.9915 91.8494 31.7188C91.375 31.4432 91.0099 31.054 90.7543 30.5511C90.4986 30.0455 90.3707 29.4503 90.3707 28.7656C90.3707 28.0923 90.4986 27.5014 90.7543 26.9929C91.0128 26.4815 91.3736 26.0838 91.8366 25.7997C92.2997 25.5128 92.8438 25.3693 93.4688 25.3693C93.8722 25.3693 94.2528 25.4347 94.6108 25.5653C94.9716 25.6932 95.2898 25.892 95.5653 26.1619C95.8438 26.4318 96.0625 26.7756 96.2216 27.1932C96.3807 27.608 96.4602 28.1023 96.4602 28.6761V29.1491H91.0952V28.1094H94.9815C94.9787 27.8139 94.9148 27.5511 94.7898 27.321C94.6648 27.0881 94.4901 26.9048 94.2656 26.7713C94.044 26.6378 93.7855 26.571 93.4901 26.571C93.1747 26.571 92.8977 26.6477 92.6591 26.8011C92.4205 26.9517 92.2344 27.1506 92.1009 27.3977C91.9702 27.642 91.9034 27.9105 91.9006 28.2031V29.1108C91.9006 29.4915 91.9702 29.8182 92.1094 30.0909C92.2486 30.3608 92.4432 30.5682 92.6932 30.7131C92.9432 30.8551 93.2358 30.9261 93.571 30.9261C93.7955 30.9261 93.9986 30.8949 94.1804 30.8324C94.3622 30.767 94.5199 30.6719 94.6534 30.5469C94.7869 30.4219 94.8878 30.267 94.956 30.0824L96.3963 30.2443C96.3054 30.625 96.1321 30.9574 95.8764 31.2415C95.6236 31.5227 95.2997 31.7415 94.9048 31.8977C94.5099 32.0511 94.0582 32.1278 93.5497 32.1278ZM100.81 32V23.2727H102.353V26.5369H102.417C102.496 26.3778 102.608 26.2088 102.753 26.0298C102.898 25.848 103.094 25.6932 103.341 25.5653C103.588 25.4347 103.904 25.3693 104.287 25.3693C104.793 25.3693 105.249 25.4986 105.655 25.7571C106.064 26.0128 106.388 26.392 106.627 26.8949C106.868 27.3949 106.989 28.0085 106.989 28.7358C106.989 29.4545 106.871 30.0653 106.635 30.5682C106.4 31.071 106.078 31.4545 105.672 31.7188C105.266 31.983 104.806 32.1151 104.292 32.1151C103.917 32.1151 103.605 32.0526 103.358 31.9276C103.111 31.8026 102.912 31.652 102.762 31.4759C102.614 31.2969 102.499 31.1278 102.417 30.9688H102.327V32H100.81ZM102.323 28.7273C102.323 29.1506 102.382 29.5213 102.502 29.8395C102.624 30.1577 102.799 30.4062 103.026 30.5852C103.256 30.7614 103.534 30.8494 103.861 30.8494C104.202 30.8494 104.488 30.7585 104.718 30.5767C104.948 30.392 105.121 30.1406 105.238 29.8224C105.357 29.5014 105.417 29.1364 105.417 28.7273C105.417 28.321 105.358 27.9602 105.242 27.6449C105.125 27.3295 104.952 27.0824 104.722 26.9034C104.492 26.7244 104.205 26.6349 103.861 26.6349C103.532 26.6349 103.252 26.7216 103.022 26.8949C102.792 27.0682 102.617 27.3111 102.498 27.6236C102.381 27.9361 102.323 28.304 102.323 28.7273ZM110.184 32.1321C109.769 32.1321 109.396 32.0582 109.063 31.9105C108.734 31.7599 108.472 31.5384 108.279 31.2457C108.089 30.9531 107.994 30.5923 107.994 30.1634C107.994 29.794 108.062 29.4886 108.198 29.2472C108.335 29.0057 108.521 28.8125 108.756 28.6676C108.992 28.5227 109.258 28.4134 109.553 28.3395C109.852 28.2628 110.16 28.2074 110.478 28.1733C110.862 28.1335 111.173 28.098 111.411 28.0668C111.65 28.0327 111.823 27.9815 111.931 27.9134C112.042 27.8423 112.097 27.733 112.097 27.5852V27.5597C112.097 27.2386 112.002 26.9901 111.812 26.8139C111.621 26.6378 111.347 26.5497 110.989 26.5497C110.612 26.5497 110.312 26.6321 110.09 26.7969C109.871 26.9616 109.724 27.1562 109.647 27.3807L108.207 27.1761C108.32 26.7784 108.508 26.446 108.769 26.179C109.031 25.9091 109.35 25.7074 109.728 25.5739C110.106 25.4375 110.523 25.3693 110.981 25.3693C111.296 25.3693 111.61 25.4062 111.923 25.4801C112.235 25.554 112.521 25.6761 112.779 25.8466C113.038 26.0142 113.245 26.2429 113.401 26.5327C113.56 26.8224 113.64 27.1847 113.64 27.6193V32H112.157V31.1009H112.106C112.012 31.2827 111.88 31.4531 111.71 31.6122C111.542 31.7685 111.33 31.8949 111.075 31.9915C110.822 32.0852 110.525 32.1321 110.184 32.1321ZM110.585 30.9986C110.894 30.9986 111.163 30.9375 111.39 30.8153C111.617 30.6903 111.792 30.5256 111.914 30.321C112.039 30.1165 112.102 29.8935 112.102 29.652V28.8807C112.053 28.9205 111.971 28.9574 111.854 28.9915C111.741 29.0256 111.613 29.0554 111.471 29.081C111.329 29.1065 111.188 29.1293 111.049 29.1491C110.91 29.169 110.789 29.1861 110.687 29.2003C110.457 29.2315 110.251 29.2827 110.069 29.3537C109.887 29.4247 109.744 29.5241 109.638 29.652C109.533 29.777 109.481 29.9389 109.481 30.1378C109.481 30.4219 109.585 30.6364 109.792 30.7812C109.999 30.9261 110.263 30.9986 110.585 30.9986ZM115.191 32V25.4545H116.687V26.5455H116.755C116.874 26.1676 117.079 25.8764 117.369 25.6719C117.661 25.4645 117.995 25.3608 118.37 25.3608C118.455 25.3608 118.55 25.3651 118.656 25.3736C118.763 25.3793 118.853 25.3892 118.924 25.4034V26.8224C118.859 26.7997 118.755 26.7798 118.613 26.7628C118.474 26.7429 118.339 26.733 118.208 26.733C117.927 26.733 117.674 26.794 117.45 26.9162C117.228 27.0355 117.053 27.2017 116.925 27.4148C116.798 27.6278 116.734 27.8736 116.734 28.152V32H115.191ZM122.534 32.1278C121.881 32.1278 121.32 31.9844 120.851 31.6974C120.385 31.4105 120.026 31.0142 119.773 30.5085C119.523 30 119.398 29.4148 119.398 28.7528C119.398 28.0881 119.526 27.5014 119.782 26.9929C120.037 26.4815 120.398 26.0838 120.864 25.7997C121.333 25.5128 121.887 25.3693 122.526 25.3693C123.057 25.3693 123.527 25.4673 123.936 25.6634C124.348 25.8565 124.676 26.1307 124.921 26.4858C125.165 26.8381 125.304 27.25 125.338 27.7216H123.864C123.804 27.4062 123.662 27.1435 123.438 26.9332C123.216 26.7202 122.919 26.6136 122.547 26.6136C122.232 26.6136 121.955 26.6989 121.716 26.8693C121.478 27.0369 121.292 27.2784 121.158 27.5938C121.027 27.9091 120.962 28.2869 120.962 28.7273C120.962 29.1733 121.027 29.5568 121.158 29.8778C121.289 30.196 121.472 30.4418 121.708 30.6151C121.946 30.7855 122.226 30.8707 122.547 30.8707C122.775 30.8707 122.978 30.8281 123.157 30.7429C123.338 30.6548 123.49 30.5284 123.613 30.3636C123.735 30.1989 123.819 29.9986 123.864 29.7628H125.338C125.301 30.2259 125.165 30.6364 124.929 30.9943C124.694 31.3494 124.373 31.6278 123.966 31.8295C123.56 32.0284 123.083 32.1278 122.534 32.1278ZM129.46 32.1278C128.821 32.1278 128.267 31.9872 127.798 31.706C127.33 31.4247 126.966 31.0312 126.707 30.5256C126.452 30.0199 126.324 29.429 126.324 28.7528C126.324 28.0767 126.452 27.4844 126.707 26.9759C126.966 26.4673 127.33 26.0724 127.798 25.7912C128.267 25.5099 128.821 25.3693 129.46 25.3693C130.099 25.3693 130.653 25.5099 131.122 25.7912C131.591 26.0724 131.953 26.4673 132.209 26.9759C132.467 27.4844 132.597 28.0767 132.597 28.7528C132.597 29.429 132.467 30.0199 132.209 30.5256C131.953 31.0312 131.591 31.4247 131.122 31.706C130.653 31.9872 130.099 32.1278 129.46 32.1278ZM129.469 30.892C129.815 30.892 130.105 30.7969 130.338 30.6065C130.571 30.4134 130.744 30.1548 130.858 29.831C130.974 29.5071 131.033 29.1463 131.033 28.7486C131.033 28.348 130.974 27.9858 130.858 27.6619C130.744 27.3352 130.571 27.0753 130.338 26.8821C130.105 26.6889 129.815 26.5923 129.469 26.5923C129.114 26.5923 128.818 26.6889 128.582 26.8821C128.349 27.0753 128.175 27.3352 128.058 27.6619C127.945 27.9858 127.888 28.348 127.888 28.7486C127.888 29.1463 127.945 29.5071 128.058 29.831C128.175 30.1548 128.349 30.4134 128.582 30.6065C128.818 30.7969 129.114 30.892 129.469 30.892ZM136.335 32.1151C135.821 32.1151 135.36 31.983 134.954 31.7188C134.548 31.4545 134.227 31.071 133.991 30.5682C133.755 30.0653 133.637 29.4545 133.637 28.7358C133.637 28.0085 133.757 27.3949 133.995 26.8949C134.237 26.392 134.562 26.0128 134.971 25.7571C135.38 25.4986 135.836 25.3693 136.339 25.3693C136.723 25.3693 137.038 25.4347 137.285 25.5653C137.532 25.6932 137.728 25.848 137.873 26.0298C138.018 26.2088 138.13 26.3778 138.21 26.5369H138.274V23.2727H139.821V32H138.304V30.9688H138.21C138.13 31.1278 138.015 31.2969 137.865 31.4759C137.714 31.652 137.515 31.8026 137.268 31.9276C137.021 32.0526 136.71 32.1151 136.335 32.1151ZM136.765 30.8494C137.092 30.8494 137.37 30.7614 137.6 30.5852C137.831 30.4062 138.005 30.1577 138.125 29.8395C138.244 29.5213 138.304 29.1506 138.304 28.7273C138.304 28.304 138.244 27.9361 138.125 27.6236C138.008 27.3111 137.835 27.0682 137.605 26.8949C137.377 26.7216 137.098 26.6349 136.765 26.6349C136.422 26.6349 136.135 26.7244 135.904 26.9034C135.674 27.0824 135.501 27.3295 135.385 27.6449C135.268 27.9602 135.21 28.321 135.21 28.7273C135.21 29.1364 135.268 29.5014 135.385 29.8224C135.504 30.1406 135.679 30.392 135.909 30.5767C136.142 30.7585 136.427 30.8494 136.765 30.8494ZM144.362 32.1278C143.706 32.1278 143.139 31.9915 142.662 31.7188C142.188 31.4432 141.822 31.054 141.567 30.5511C141.311 30.0455 141.183 29.4503 141.183 28.7656C141.183 28.0923 141.311 27.5014 141.567 26.9929C141.825 26.4815 142.186 26.0838 142.649 25.7997C143.112 25.5128 143.656 25.3693 144.281 25.3693C144.685 25.3693 145.065 25.4347 145.423 25.5653C145.784 25.6932 146.102 25.892 146.378 26.1619C146.656 26.4318 146.875 26.7756 147.034 27.1932C147.193 27.608 147.273 28.1023 147.273 28.6761V29.1491H141.908V28.1094H145.794C145.791 27.8139 145.727 27.5511 145.602 27.321C145.477 27.0881 145.303 26.9048 145.078 26.7713C144.857 26.6378 144.598 26.571 144.303 26.571C143.987 26.571 143.71 26.6477 143.472 26.8011C143.233 26.9517 143.047 27.1506 142.913 27.3977C142.783 27.642 142.716 27.9105 142.713 28.2031V29.1108C142.713 29.4915 142.783 29.8182 142.922 30.0909C143.061 30.3608 143.256 30.5682 143.506 30.7131C143.756 30.8551 144.048 30.9261 144.384 30.9261C144.608 30.9261 144.811 30.8949 144.993 30.8324C145.175 30.767 145.332 30.6719 145.466 30.5469C145.599 30.4219 145.7 30.267 145.768 30.0824L147.209 30.2443C147.118 30.625 146.945 30.9574 146.689 31.2415C146.436 31.5227 146.112 31.7415 145.717 31.8977C145.322 32.0511 144.871 32.1278 144.362 32.1278ZM153.438 32.1321C153.023 32.1321 152.65 32.0582 152.317 31.9105C151.988 31.7599 151.726 31.5384 151.533 31.2457C151.343 30.9531 151.248 30.5923 151.248 30.1634C151.248 29.794 151.316 29.4886 151.452 29.2472C151.588 29.0057 151.775 28.8125 152.01 28.6676C152.246 28.5227 152.512 28.4134 152.807 28.3395C153.105 28.2628 153.414 28.2074 153.732 28.1733C154.115 28.1335 154.426 28.098 154.665 28.0668C154.904 28.0327 155.077 27.9815 155.185 27.9134C155.296 27.8423 155.351 27.733 155.351 27.5852V27.5597C155.351 27.2386 155.256 26.9901 155.066 26.8139C154.875 26.6378 154.601 26.5497 154.243 26.5497C153.865 26.5497 153.566 26.6321 153.344 26.7969C153.125 26.9616 152.978 27.1562 152.901 27.3807L151.461 27.1761C151.574 26.7784 151.762 26.446 152.023 26.179C152.284 25.9091 152.604 25.7074 152.982 25.5739C153.36 25.4375 153.777 25.3693 154.235 25.3693C154.55 25.3693 154.864 25.4062 155.176 25.4801C155.489 25.554 155.775 25.6761 156.033 25.8466C156.292 26.0142 156.499 26.2429 156.655 26.5327C156.814 26.8224 156.894 27.1847 156.894 27.6193V32H155.411V31.1009H155.36C155.266 31.2827 155.134 31.4531 154.963 31.6122C154.796 31.7685 154.584 31.8949 154.328 31.9915C154.076 32.0852 153.779 32.1321 153.438 32.1321ZM153.838 30.9986C154.148 30.9986 154.417 30.9375 154.644 30.8153C154.871 30.6903 155.046 30.5256 155.168 30.321C155.293 30.1165 155.355 29.8935 155.355 29.652V28.8807C155.307 28.9205 155.225 28.9574 155.108 28.9915C154.995 29.0256 154.867 29.0554 154.725 29.081C154.583 29.1065 154.442 29.1293 154.303 29.1491C154.164 29.169 154.043 29.1861 153.941 29.2003C153.711 29.2315 153.505 29.2827 153.323 29.3537C153.141 29.4247 152.998 29.5241 152.892 29.652C152.787 29.777 152.735 29.9389 152.735 30.1378C152.735 30.4219 152.838 30.6364 153.046 30.7812C153.253 30.9261 153.517 30.9986 153.838 30.9986ZM159.988 28.1648V32H158.445V25.4545H159.919V26.5668H159.996C160.147 26.2003 160.387 25.9091 160.716 25.6932C161.049 25.4773 161.459 25.3693 161.948 25.3693C162.4 25.3693 162.793 25.4659 163.128 25.6591C163.466 25.8523 163.728 26.1321 163.912 26.4986C164.1 26.8651 164.192 27.3097 164.189 27.8324V32H162.647V28.071C162.647 27.6335 162.533 27.2912 162.306 27.044C162.081 26.7969 161.77 26.6733 161.373 26.6733C161.103 26.6733 160.863 26.733 160.652 26.8523C160.445 26.9687 160.282 27.1378 160.162 27.3594C160.046 27.581 159.988 27.8494 159.988 28.1648ZM168.186 32.1151C167.672 32.1151 167.212 31.983 166.806 31.7188C166.4 31.4545 166.078 31.071 165.843 30.5682C165.607 30.0653 165.489 29.4545 165.489 28.7358C165.489 28.0085 165.608 27.3949 165.847 26.8949C166.088 26.392 166.414 26.0128 166.823 25.7571C167.232 25.4986 167.688 25.3693 168.191 25.3693C168.574 25.3693 168.89 25.4347 169.137 25.5653C169.384 25.6932 169.58 25.848 169.725 26.0298C169.87 26.2088 169.982 26.3778 170.061 26.5369H170.125V23.2727H171.672V32H170.155V30.9688H170.061C169.982 31.1278 169.867 31.2969 169.716 31.4759C169.566 31.652 169.367 31.8026 169.12 31.9276C168.873 32.0526 168.561 32.1151 168.186 32.1151ZM168.617 30.8494C168.944 30.8494 169.222 30.7614 169.452 30.5852C169.682 30.4062 169.857 30.1577 169.976 29.8395C170.096 29.5213 170.155 29.1506 170.155 28.7273C170.155 28.304 170.096 27.9361 169.976 27.6236C169.86 27.3111 169.686 27.0682 169.456 26.8949C169.229 26.7216 168.949 26.6349 168.617 26.6349C168.273 26.6349 167.986 26.7244 167.756 26.9034C167.526 27.0824 167.353 27.3295 167.236 27.6449C167.12 27.9602 167.061 28.321 167.061 28.7273C167.061 29.1364 167.12 29.5014 167.236 29.8224C167.355 30.1406 167.53 30.392 167.76 30.5767C167.993 30.7585 168.279 30.8494 168.617 30.8494ZM176.293 34.4545V25.4545H177.81V26.5369H177.899C177.979 26.3778 178.091 26.2088 178.236 26.0298C178.381 25.848 178.577 25.6932 178.824 25.5653C179.071 25.4347 179.386 25.3693 179.77 25.3693C180.276 25.3693 180.732 25.4986 181.138 25.7571C181.547 26.0128 181.871 26.392 182.109 26.8949C182.351 27.3949 182.472 28.0085 182.472 28.7358C182.472 29.4545 182.354 30.0653 182.118 30.5682C181.882 31.071 181.561 31.4545 181.155 31.7188C180.749 31.983 180.288 32.1151 179.774 32.1151C179.399 32.1151 179.088 32.0526 178.841 31.9276C178.594 31.8026 178.395 31.652 178.244 31.4759C178.097 31.2969 177.982 31.1278 177.899 30.9688H177.835V34.4545H176.293ZM177.805 28.7273C177.805 29.1506 177.865 29.5213 177.984 29.8395C178.107 30.1577 178.281 30.4062 178.509 30.5852C178.739 30.7614 179.017 30.8494 179.344 30.8494C179.685 30.8494 179.97 30.7585 180.2 30.5767C180.43 30.392 180.604 30.1406 180.72 29.8224C180.839 29.5014 180.899 29.1364 180.899 28.7273C180.899 28.321 180.841 27.9602 180.724 27.6449C180.608 27.3295 180.435 27.0824 180.205 26.9034C179.974 26.7244 179.688 26.6349 179.344 26.6349C179.014 26.6349 178.734 26.7216 178.504 26.8949C178.274 27.0682 178.099 27.3111 177.98 27.6236C177.864 27.9361 177.805 28.304 177.805 28.7273ZM185.676 32.1321C185.261 32.1321 184.888 32.0582 184.555 31.9105C184.226 31.7599 183.964 31.5384 183.771 31.2457C183.581 30.9531 183.486 30.5923 183.486 30.1634C183.486 29.794 183.554 29.4886 183.69 29.2472C183.827 29.0057 184.013 28.8125 184.249 28.6676C184.484 28.5227 184.75 28.4134 185.045 28.3395C185.344 28.2628 185.652 28.2074 185.97 28.1733C186.354 28.1335 186.665 28.098 186.903 28.0668C187.142 28.0327 187.315 27.9815 187.423 27.9134C187.534 27.8423 187.589 27.733 187.589 27.5852V27.5597C187.589 27.2386 187.494 26.9901 187.304 26.8139C187.114 26.6378 186.839 26.5497 186.482 26.5497C186.104 26.5497 185.804 26.6321 185.582 26.7969C185.364 26.9616 185.216 27.1562 185.139 27.3807L183.699 27.1761C183.813 26.7784 184 26.446 184.261 26.179C184.523 25.9091 184.842 25.7074 185.22 25.5739C185.598 25.4375 186.016 25.3693 186.473 25.3693C186.788 25.3693 187.102 25.4062 187.415 25.4801C187.727 25.554 188.013 25.6761 188.271 25.8466C188.53 26.0142 188.737 26.2429 188.893 26.5327C189.053 26.8224 189.132 27.1847 189.132 27.6193V32H187.649V31.1009H187.598C187.504 31.2827 187.372 31.4531 187.202 31.6122C187.034 31.7685 186.822 31.8949 186.567 31.9915C186.314 32.0852 186.017 32.1321 185.676 32.1321ZM186.077 30.9986C186.386 30.9986 186.655 30.9375 186.882 30.8153C187.109 30.6903 187.284 30.5256 187.406 30.321C187.531 30.1165 187.594 29.8935 187.594 29.652V28.8807C187.545 28.9205 187.463 28.9574 187.347 28.9915C187.233 29.0256 187.105 29.0554 186.963 29.081C186.821 29.1065 186.68 29.1293 186.541 29.1491C186.402 29.169 186.281 29.1861 186.179 29.2003C185.949 29.2315 185.743 29.2827 185.561 29.3537C185.379 29.4247 185.236 29.5241 185.131 29.652C185.026 29.777 184.973 29.9389 184.973 30.1378C184.973 30.4219 185.077 30.6364 185.284 30.7812C185.491 30.9261 185.756 30.9986 186.077 30.9986ZM191.408 34.4545C191.197 34.4545 191.003 34.4375 190.824 34.4034C190.648 34.3722 190.507 34.3352 190.402 34.2926L190.76 33.0909C190.984 33.1563 191.185 33.1875 191.361 33.1847C191.537 33.1818 191.692 33.1264 191.825 33.0185C191.962 32.9134 192.077 32.7372 192.17 32.4901L192.303 32.1364L189.929 25.4545H191.565L193.074 30.3977H193.142L194.655 25.4545H196.295L193.675 32.7926C193.553 33.1392 193.391 33.4361 193.189 33.6832C192.987 33.9332 192.74 34.1236 192.447 34.2543C192.158 34.3878 191.811 34.4545 191.408 34.4545ZM202.223 32.1321C201.808 32.1321 201.435 32.0582 201.102 31.9105C200.773 31.7599 200.511 31.5384 200.318 31.2457C200.128 30.9531 200.033 30.5923 200.033 30.1634C200.033 29.794 200.101 29.4886 200.237 29.2472C200.374 29.0057 200.56 28.8125 200.795 28.6676C201.031 28.5227 201.297 28.4134 201.592 28.3395C201.891 28.2628 202.199 28.2074 202.517 28.1733C202.901 28.1335 203.212 28.098 203.45 28.0668C203.689 28.0327 203.862 27.9815 203.97 27.9134C204.081 27.8423 204.136 27.733 204.136 27.5852V27.5597C204.136 27.2386 204.041 26.9901 203.851 26.8139C203.661 26.6378 203.386 26.5497 203.028 26.5497C202.651 26.5497 202.351 26.6321 202.129 26.7969C201.911 26.9616 201.763 27.1562 201.686 27.3807L200.246 27.1761C200.359 26.7784 200.547 26.446 200.808 26.179C201.07 25.9091 201.389 25.7074 201.767 25.5739C202.145 25.4375 202.563 25.3693 203.02 25.3693C203.335 25.3693 203.649 25.4062 203.962 25.4801C204.274 25.554 204.56 25.6761 204.818 25.8466C205.077 26.0142 205.284 26.2429 205.44 26.5327C205.599 26.8224 205.679 27.1847 205.679 27.6193V32H204.196V31.1009H204.145C204.051 31.2827 203.919 31.4531 203.749 31.6122C203.581 31.7685 203.369 31.8949 203.114 31.9915C202.861 32.0852 202.564 32.1321 202.223 32.1321ZM202.624 30.9986C202.933 30.9986 203.202 30.9375 203.429 30.8153C203.656 30.6903 203.831 30.5256 203.953 30.321C204.078 30.1165 204.141 29.8935 204.141 29.652V28.8807C204.092 28.9205 204.01 28.9574 203.893 28.9915C203.78 29.0256 203.652 29.0554 203.51 29.081C203.368 29.1065 203.227 29.1293 203.088 29.1491C202.949 29.169 202.828 29.1861 202.726 29.2003C202.496 29.2315 202.29 29.2827 202.108 29.3537C201.926 29.4247 201.783 29.5241 201.678 29.652C201.572 29.777 201.52 29.9389 201.52 30.1378C201.52 30.4219 201.624 30.6364 201.831 30.7812C202.038 30.9261 202.303 30.9986 202.624 30.9986ZM210.499 25.4545V26.6477H206.736V25.4545H210.499ZM207.665 23.8864H209.207V30.0312C209.207 30.2386 209.239 30.3977 209.301 30.5085C209.366 30.6165 209.452 30.6903 209.557 30.7301C209.662 30.7699 209.778 30.7898 209.906 30.7898C210.003 30.7898 210.091 30.7827 210.17 30.7685C210.253 30.7543 210.315 30.7415 210.358 30.7301L210.618 31.9361C210.536 31.9645 210.418 31.9957 210.264 32.0298C210.114 32.0639 209.929 32.0838 209.71 32.0895C209.324 32.1009 208.976 32.0426 208.666 31.9148C208.357 31.7841 208.111 31.5824 207.929 31.3097C207.75 31.0369 207.662 30.696 207.665 30.2869V23.8864ZM218.034 25.4545V26.6477H214.271V25.4545H218.034ZM215.2 23.8864H216.743V30.0312C216.743 30.2386 216.774 30.3977 216.836 30.5085C216.902 30.6165 216.987 30.6903 217.092 30.7301C217.197 30.7699 217.314 30.7898 217.441 30.7898C217.538 30.7898 217.626 30.7827 217.706 30.7685C217.788 30.7543 217.85 30.7415 217.893 30.7301L218.153 31.9361C218.071 31.9645 217.953 31.9957 217.799 32.0298C217.649 32.0639 217.464 32.0838 217.245 32.0895C216.859 32.1009 216.511 32.0426 216.201 31.9148C215.892 31.7841 215.646 31.5824 215.464 31.3097C215.285 31.0369 215.197 30.696 215.2 30.2869V23.8864ZM221.007 28.1648V32H219.464V23.2727H220.973V26.5668H221.05C221.203 26.1974 221.44 25.9062 221.761 25.6932C222.085 25.4773 222.497 25.3693 222.997 25.3693C223.452 25.3693 223.848 25.4645 224.186 25.6548C224.524 25.8452 224.786 26.1236 224.97 26.4901C225.158 26.8565 225.251 27.304 225.251 27.8324V32H223.709V28.071C223.709 27.6307 223.595 27.2884 223.368 27.044C223.143 26.7969 222.828 26.6733 222.422 26.6733C222.149 26.6733 221.905 26.733 221.689 26.8523C221.476 26.9687 221.308 27.1378 221.186 27.3594C221.067 27.581 221.007 27.8494 221.007 28.1648ZM229.722 32.1278C229.065 32.1278 228.499 31.9915 228.021 31.7188C227.547 31.4432 227.182 31.054 226.926 30.5511C226.67 30.0455 226.543 29.4503 226.543 28.7656C226.543 28.0923 226.67 27.5014 226.926 26.9929C227.185 26.4815 227.545 26.0838 228.009 25.7997C228.472 25.5128 229.016 25.3693 229.641 25.3693C230.044 25.3693 230.425 25.4347 230.783 25.5653C231.143 25.6932 231.462 25.892 231.737 26.1619C232.016 26.4318 232.234 26.7756 232.393 27.1932C232.553 27.608 232.632 28.1023 232.632 28.6761V29.1491H227.267V28.1094H231.153C231.151 27.8139 231.087 27.5511 230.962 27.321C230.837 27.0881 230.662 26.9048 230.438 26.7713C230.216 26.6378 229.957 26.571 229.662 26.571C229.347 26.571 229.07 26.6477 228.831 26.8011C228.592 26.9517 228.406 27.1506 228.273 27.3977C228.142 27.642 228.075 27.9105 228.072 28.2031V29.1108C228.072 29.4915 228.142 29.8182 228.281 30.0909C228.42 30.3608 228.615 30.5682 228.865 30.7131C229.115 30.8551 229.408 30.9261 229.743 30.9261C229.967 30.9261 230.17 30.8949 230.352 30.8324C230.534 30.767 230.692 30.6719 230.825 30.5469C230.959 30.4219 231.06 30.267 231.128 30.0824L232.568 30.2443C232.477 30.625 232.304 30.9574 232.048 31.2415C231.795 31.5227 231.472 31.7415 231.077 31.8977C230.682 32.0511 230.23 32.1278 229.722 32.1278ZM242.087 27.1847L240.681 27.3381C240.641 27.196 240.571 27.0625 240.472 26.9375C240.375 26.8125 240.245 26.7116 240.08 26.6349C239.915 26.5582 239.713 26.5199 239.475 26.5199C239.154 26.5199 238.884 26.5895 238.665 26.7287C238.449 26.8679 238.343 27.0483 238.346 27.2699C238.343 27.4602 238.412 27.6151 238.554 27.7344C238.699 27.8537 238.938 27.9517 239.27 28.0284L240.387 28.267C241.006 28.4006 241.466 28.6122 241.767 28.902C242.071 29.1918 242.225 29.571 242.228 30.0398C242.225 30.4517 242.104 30.8153 241.865 31.1307C241.63 31.4432 241.301 31.6875 240.881 31.8636C240.461 32.0398 239.978 32.1278 239.432 32.1278C238.631 32.1278 237.986 31.9602 237.498 31.625C237.009 31.2869 236.718 30.8168 236.624 30.2145L238.128 30.0696C238.196 30.3651 238.341 30.5881 238.563 30.7386C238.784 30.8892 239.073 30.9645 239.428 30.9645C239.794 30.9645 240.088 30.8892 240.31 30.7386C240.534 30.5881 240.647 30.402 240.647 30.1804C240.647 29.9929 240.574 29.8381 240.429 29.7159C240.287 29.5937 240.066 29.5 239.765 29.4347L238.648 29.2003C238.02 29.0696 237.556 28.8494 237.255 28.5398C236.953 28.2273 236.804 27.8324 236.807 27.3551C236.804 26.9517 236.914 26.6023 237.135 26.3068C237.36 26.0085 237.671 25.7784 238.069 25.6165C238.469 25.4517 238.931 25.3693 239.453 25.3693C240.221 25.3693 240.824 25.5327 241.265 25.8594C241.708 26.1861 241.982 26.6278 242.087 27.1847ZM246.768 25.4545V26.6477H243.005V25.4545H246.768ZM243.934 23.8864H245.477V30.0312C245.477 30.2386 245.508 30.3977 245.571 30.5085C245.636 30.6165 245.721 30.6903 245.826 30.7301C245.931 30.7699 246.048 30.7898 246.176 30.7898C246.272 30.7898 246.36 30.7827 246.44 30.7685C246.522 30.7543 246.585 30.7415 246.627 30.7301L246.887 31.9361C246.805 31.9645 246.687 31.9957 246.534 32.0298C246.383 32.0639 246.199 32.0838 245.98 32.0895C245.593 32.1009 245.245 32.0426 244.936 31.9148C244.626 31.7841 244.38 31.5824 244.199 31.3097C244.02 31.0369 243.931 30.696 243.934 30.2869V23.8864ZM250.843 32.1278C250.204 32.1278 249.65 31.9872 249.181 31.706C248.712 31.4247 248.349 31.0312 248.09 30.5256C247.835 30.0199 247.707 29.429 247.707 28.7528C247.707 28.0767 247.835 27.4844 248.09 26.9759C248.349 26.4673 248.712 26.0724 249.181 25.7912C249.65 25.5099 250.204 25.3693 250.843 25.3693C251.482 25.3693 252.036 25.5099 252.505 25.7912C252.974 26.0724 253.336 26.4673 253.592 26.9759C253.85 27.4844 253.979 28.0767 253.979 28.7528C253.979 29.429 253.85 30.0199 253.592 30.5256C253.336 31.0312 252.974 31.4247 252.505 31.706C252.036 31.9872 251.482 32.1278 250.843 32.1278ZM250.852 30.892C251.198 30.892 251.488 30.7969 251.721 30.6065C251.954 30.4134 252.127 30.1548 252.241 29.831C252.357 29.5071 252.415 29.1463 252.415 28.7486C252.415 28.348 252.357 27.9858 252.241 27.6619C252.127 27.3352 251.954 27.0753 251.721 26.8821C251.488 26.6889 251.198 26.5923 250.852 26.5923C250.496 26.5923 250.201 26.6889 249.965 26.8821C249.732 27.0753 249.558 27.3352 249.441 27.6619C249.327 27.9858 249.271 28.348 249.271 28.7486C249.271 29.1463 249.327 29.5071 249.441 29.831C249.558 30.1548 249.732 30.4134 249.965 30.6065C250.201 30.7969 250.496 30.892 250.852 30.892ZM255.289 32V25.4545H256.784V26.5455H256.853C256.972 26.1676 257.176 25.8764 257.466 25.6719C257.759 25.4645 258.093 25.3608 258.468 25.3608C258.553 25.3608 258.648 25.3651 258.753 25.3736C258.861 25.3793 258.951 25.3892 259.022 25.4034V26.8224C258.956 26.7997 258.853 26.7798 258.711 26.7628C258.571 26.7429 258.436 26.733 258.306 26.733C258.025 26.733 257.772 26.794 257.547 26.9162C257.326 27.0355 257.151 27.2017 257.023 27.4148C256.895 27.6278 256.831 27.8736 256.831 28.152V32H255.289ZM262.675 32.1278C262.018 32.1278 261.452 31.9915 260.974 31.7188C260.5 31.4432 260.135 31.054 259.879 30.5511C259.624 30.0455 259.496 29.4503 259.496 28.7656C259.496 28.0923 259.624 27.5014 259.879 26.9929C260.138 26.4815 260.499 26.0838 260.962 25.7997C261.425 25.5128 261.969 25.3693 262.594 25.3693C262.997 25.3693 263.378 25.4347 263.736 25.5653C264.097 25.6932 264.415 25.892 264.69 26.1619C264.969 26.4318 265.188 26.7756 265.347 27.1932C265.506 27.608 265.585 28.1023 265.585 28.6761V29.1491H260.22V28.1094H264.107C264.104 27.8139 264.04 27.5511 263.915 27.321C263.79 27.0881 263.615 26.9048 263.391 26.7713C263.169 26.6378 262.911 26.571 262.615 26.571C262.3 26.571 262.023 26.6477 261.784 26.8011C261.545 26.9517 261.359 27.1506 261.226 27.3977C261.095 27.642 261.028 27.9105 261.026 28.2031V29.1108C261.026 29.4915 261.095 29.8182 261.234 30.0909C261.374 30.3608 261.568 30.5682 261.818 30.7131C262.068 30.8551 262.361 30.9261 262.696 30.9261C262.92 30.9261 263.124 30.8949 263.305 30.8324C263.487 30.767 263.645 30.6719 263.778 30.5469C263.912 30.4219 264.013 30.267 264.081 30.0824L265.521 30.2443C265.43 30.625 265.257 30.9574 265.001 31.2415C264.749 31.5227 264.425 31.7415 264.03 31.8977C263.635 32.0511 263.183 32.1278 262.675 32.1278Z" fill="#515259"/>
<g clip-path="url(#clip0_795_69929)">
<path d="M29.168 48.3359H33.3346V81.6693H29.168V48.3359ZM37.5013 48.3359H39.5846V81.6693H37.5013V48.3359ZM41.668 48.3359H45.8346V81.6693H41.668V48.3359ZM47.918 48.3359H52.0846V81.6693H47.918V48.3359ZM54.168 48.3359H58.3346V81.6693H54.168V48.3359ZM60.418 48.3359H62.5013V81.6693H60.418V48.3359ZM64.5846 48.3359H70.8346V81.6693H64.5846V48.3359Z" fill="#37383F"/>
</g>
<g clip-path="url(#clip1_795_69929)">
<path d="M82.168 48.3359H86.3346V81.6693H82.168V48.3359ZM90.5013 48.3359H92.5846V81.6693H90.5013V48.3359ZM94.668 48.3359H98.8346V81.6693H94.668V48.3359ZM100.918 48.3359H105.085V81.6693H100.918V48.3359ZM107.168 48.3359H111.335V81.6693H107.168V48.3359ZM113.418 48.3359H115.501V81.6693H113.418V48.3359ZM117.585 48.3359H123.835V81.6693H117.585V48.3359Z" fill="#37383F"/>
</g>
<g clip-path="url(#clip2_795_69929)">
<path d="M135.168 48.3359H139.335V81.6693H135.168V48.3359ZM143.501 48.3359H145.585V81.6693H143.501V48.3359ZM147.668 48.3359H151.835V81.6693H147.668V48.3359ZM153.918 48.3359H158.085V81.6693H153.918V48.3359ZM160.168 48.3359H164.335V81.6693H160.168V48.3359ZM166.418 48.3359H168.501V81.6693H166.418V48.3359ZM170.585 48.3359H176.835V81.6693H170.585V48.3359Z" fill="#37383F"/>
</g>
<g clip-path="url(#clip3_795_69929)">
<path d="M188.168 48.3359H192.335V81.6693H188.168V48.3359ZM196.501 48.3359H198.585V81.6693H196.501V48.3359ZM200.668 48.3359H204.835V81.6693H200.668V48.3359ZM206.918 48.3359H211.085V81.6693H206.918V48.3359ZM213.168 48.3359H217.335V81.6693H213.168V48.3359ZM219.418 48.3359H221.501V81.6693H219.418V48.3359ZM223.585 48.3359H229.835V81.6693H223.585V48.3359Z" fill="#37383F"/>
</g>
<g clip-path="url(#clip4_795_69929)">
<path d="M241.168 48.3359H245.335V81.6693H241.168V48.3359ZM249.501 48.3359H251.585V81.6693H249.501V48.3359ZM253.668 48.3359H257.835V81.6693H253.668V48.3359ZM259.918 48.3359H264.085V81.6693H259.918V48.3359ZM266.168 48.3359H270.335V81.6693H266.168V48.3359ZM272.418 48.3359H274.501V81.6693H272.418V48.3359ZM276.585 48.3359H282.835V81.6693H276.585V48.3359Z" fill="#37383F"/>
</g>
<path d="M101.199 107.119C100.614 107.119 100.097 107.016 99.6477 106.808C99.2017 106.598 98.8537 106.31 98.6037 105.943C98.3537 105.574 98.2301 105.153 98.233 104.682C98.2301 104.312 98.3026 103.972 98.4503 103.659C98.598 103.344 98.7997 103.081 99.0554 102.871C99.3139 102.658 99.6023 102.523 99.9205 102.466V102.415C99.5028 102.307 99.1705 102.072 98.9233 101.712C98.6761 101.348 98.554 100.935 98.5568 100.472C98.554 100.028 98.6662 99.6321 98.8935 99.2827C99.1207 98.9332 99.4332 98.6577 99.831 98.456C100.232 98.2543 100.688 98.1534 101.199 98.1534C101.705 98.1534 102.156 98.2543 102.554 98.456C102.952 98.6577 103.264 98.9332 103.491 99.2827C103.722 99.6321 103.838 100.028 103.841 100.472C103.838 100.935 103.712 101.348 103.462 101.712C103.214 102.072 102.886 102.307 102.477 102.415V102.466C102.793 102.523 103.077 102.658 103.33 102.871C103.582 103.081 103.784 103.344 103.935 103.659C104.085 103.972 104.162 104.312 104.165 104.682C104.162 105.153 104.034 105.574 103.781 105.943C103.531 106.31 103.183 106.598 102.737 106.808C102.294 107.016 101.781 107.119 101.199 107.119ZM101.199 106.182C101.594 106.182 101.935 106.118 102.222 105.99C102.509 105.862 102.73 105.682 102.886 105.449C103.043 105.216 103.122 104.943 103.125 104.631C103.122 104.301 103.037 104.01 102.869 103.757C102.702 103.504 102.473 103.305 102.183 103.161C101.896 103.016 101.568 102.943 101.199 102.943C100.827 102.943 100.494 103.016 100.202 103.161C99.9119 103.305 99.6832 103.504 99.5156 103.757C99.3509 104.01 99.2699 104.301 99.2727 104.631C99.2699 104.943 99.3452 105.216 99.4986 105.449C99.6548 105.682 99.8778 105.862 100.168 105.99C100.457 106.118 100.801 106.182 101.199 106.182ZM101.199 102.04C101.511 102.04 101.788 101.977 102.03 101.852C102.274 101.727 102.466 101.553 102.605 101.328C102.744 101.104 102.815 100.841 102.818 100.54C102.815 100.244 102.746 99.9872 102.609 99.7685C102.473 99.5469 102.284 99.3764 102.043 99.2571C101.801 99.1349 101.52 99.0739 101.199 99.0739C100.872 99.0739 100.587 99.1349 100.342 99.2571C100.098 99.3764 99.9091 99.5469 99.7756 99.7685C99.642 99.9872 99.5767 100.244 99.5795 100.54C99.5767 100.841 99.6435 101.104 99.7798 101.328C99.919 101.553 100.111 101.727 100.355 101.852C100.599 101.977 100.881 102.04 101.199 102.04ZM108.645 107.119C108.002 107.119 107.456 106.945 107.004 106.595C106.552 106.243 106.207 105.733 105.968 105.065C105.73 104.395 105.61 103.585 105.61 102.636C105.61 101.693 105.73 100.888 105.968 100.22C106.21 99.5497 106.556 99.0384 107.008 98.6861C107.463 98.331 108.008 98.1534 108.645 98.1534C109.281 98.1534 109.825 98.331 110.277 98.6861C110.731 99.0384 111.078 99.5497 111.316 100.22C111.558 100.888 111.679 101.693 111.679 102.636C111.679 103.585 111.559 104.395 111.321 105.065C111.082 105.733 110.737 106.243 110.285 106.595C109.833 106.945 109.287 107.119 108.645 107.119ZM108.645 106.182C109.281 106.182 109.775 105.875 110.127 105.261C110.48 104.648 110.656 103.773 110.656 102.636C110.656 101.881 110.575 101.237 110.413 100.706C110.254 100.175 110.024 99.7699 109.723 99.4915C109.424 99.2131 109.065 99.0739 108.645 99.0739C108.014 99.0739 107.521 99.3849 107.166 100.007C106.811 100.626 106.633 101.503 106.633 102.636C106.633 103.392 106.713 104.034 106.872 104.562C107.031 105.091 107.26 105.493 107.558 105.768C107.859 106.044 108.221 106.182 108.645 106.182ZM116.145 107.119C115.502 107.119 114.956 106.945 114.504 106.595C114.052 106.243 113.707 105.733 113.468 105.065C113.23 104.395 113.11 103.585 113.11 102.636C113.11 101.693 113.23 100.888 113.468 100.22C113.71 99.5497 114.056 99.0384 114.508 98.6861C114.963 98.331 115.508 98.1534 116.145 98.1534C116.781 98.1534 117.325 98.331 117.777 98.6861C118.231 99.0384 118.578 99.5497 118.816 100.22C119.058 100.888 119.179 101.693 119.179 102.636C119.179 103.585 119.059 104.395 118.821 105.065C118.582 105.733 118.237 106.243 117.785 106.595C117.333 106.945 116.787 107.119 116.145 107.119ZM116.145 106.182C116.781 106.182 117.275 105.875 117.627 105.261C117.98 104.648 118.156 103.773 118.156 102.636C118.156 101.881 118.075 101.237 117.913 100.706C117.754 100.175 117.524 99.7699 117.223 99.4915C116.924 99.2131 116.565 99.0739 116.145 99.0739C115.514 99.0739 115.021 99.3849 114.666 100.007C114.311 100.626 114.133 101.503 114.133 102.636C114.133 103.392 114.213 104.034 114.372 104.562C114.531 105.091 114.76 105.493 115.058 105.768C115.359 106.044 115.721 106.182 116.145 106.182ZM123.645 107.119C123.002 107.119 122.456 106.945 122.004 106.595C121.552 106.243 121.207 105.733 120.968 105.065C120.73 104.395 120.61 103.585 120.61 102.636C120.61 101.693 120.73 100.888 120.968 100.22C121.21 99.5497 121.556 99.0384 122.008 98.6861C122.463 98.331 123.008 98.1534 123.645 98.1534C124.281 98.1534 124.825 98.331 125.277 98.6861C125.731 99.0384 126.078 99.5497 126.316 100.22C126.558 100.888 126.679 101.693 126.679 102.636C126.679 103.585 126.559 104.395 126.321 105.065C126.082 105.733 125.737 106.243 125.285 106.595C124.833 106.945 124.287 107.119 123.645 107.119ZM123.645 106.182C124.281 106.182 124.775 105.875 125.127 105.261C125.48 104.648 125.656 103.773 125.656 102.636C125.656 101.881 125.575 101.237 125.413 100.706C125.254 100.175 125.024 99.7699 124.723 99.4915C124.424 99.2131 124.065 99.0739 123.645 99.0739C123.014 99.0739 122.521 99.3849 122.166 100.007C121.811 100.626 121.633 101.503 121.633 102.636C121.633 103.392 121.713 104.034 121.872 104.562C122.031 105.091 122.26 105.493 122.558 105.768C122.859 106.044 123.221 106.182 123.645 106.182Z" fill="#515259"/>
<path d="M135.199 107.119C134.614 107.119 134.097 107.016 133.648 106.808C133.202 106.598 132.854 106.31 132.604 105.943C132.354 105.574 132.23 105.153 132.233 104.682C132.23 104.312 132.303 103.972 132.45 103.659C132.598 103.344 132.8 103.081 133.055 102.871C133.314 102.658 133.602 102.523 133.92 102.466V102.415C133.503 102.307 133.17 102.072 132.923 101.712C132.676 101.348 132.554 100.935 132.557 100.472C132.554 100.028 132.666 99.6321 132.893 99.2827C133.121 98.9332 133.433 98.6577 133.831 98.456C134.232 98.2543 134.688 98.1534 135.199 98.1534C135.705 98.1534 136.156 98.2543 136.554 98.456C136.952 98.6577 137.264 98.9332 137.491 99.2827C137.722 99.6321 137.838 100.028 137.841 100.472C137.838 100.935 137.712 101.348 137.462 101.712C137.214 102.072 136.886 102.307 136.477 102.415V102.466C136.793 102.523 137.077 102.658 137.33 102.871C137.582 103.081 137.784 103.344 137.935 103.659C138.085 103.972 138.162 104.312 138.165 104.682C138.162 105.153 138.034 105.574 137.781 105.943C137.531 106.31 137.183 106.598 136.737 106.808C136.294 107.016 135.781 107.119 135.199 107.119ZM135.199 106.182C135.594 106.182 135.935 106.118 136.222 105.99C136.509 105.862 136.73 105.682 136.886 105.449C137.043 105.216 137.122 104.943 137.125 104.631C137.122 104.301 137.037 104.01 136.869 103.757C136.702 103.504 136.473 103.305 136.183 103.161C135.896 103.016 135.568 102.943 135.199 102.943C134.827 102.943 134.494 103.016 134.202 103.161C133.912 103.305 133.683 103.504 133.516 103.757C133.351 104.01 133.27 104.301 133.273 104.631C133.27 104.943 133.345 105.216 133.499 105.449C133.655 105.682 133.878 105.862 134.168 105.99C134.457 106.118 134.801 106.182 135.199 106.182ZM135.199 102.04C135.511 102.04 135.788 101.977 136.03 101.852C136.274 101.727 136.466 101.553 136.605 101.328C136.744 101.104 136.815 100.841 136.818 100.54C136.815 100.244 136.746 99.9872 136.609 99.7685C136.473 99.5469 136.284 99.3764 136.043 99.2571C135.801 99.1349 135.52 99.0739 135.199 99.0739C134.872 99.0739 134.587 99.1349 134.342 99.2571C134.098 99.3764 133.909 99.5469 133.776 99.7685C133.642 99.9872 133.577 100.244 133.58 100.54C133.577 100.841 133.643 101.104 133.78 101.328C133.919 101.553 134.111 101.727 134.355 101.852C134.599 101.977 134.881 102.04 135.199 102.04ZM142.645 107.119C142.002 107.119 141.456 106.945 141.004 106.595C140.552 106.243 140.207 105.733 139.968 105.065C139.73 104.395 139.61 103.585 139.61 102.636C139.61 101.693 139.73 100.888 139.968 100.22C140.21 99.5497 140.556 99.0384 141.008 98.6861C141.463 98.331 142.008 98.1534 142.645 98.1534C143.281 98.1534 143.825 98.331 144.277 98.6861C144.731 99.0384 145.078 99.5497 145.316 100.22C145.558 100.888 145.679 101.693 145.679 102.636C145.679 103.585 145.559 104.395 145.321 105.065C145.082 105.733 144.737 106.243 144.285 106.595C143.833 106.945 143.287 107.119 142.645 107.119ZM142.645 106.182C143.281 106.182 143.775 105.875 144.127 105.261C144.48 104.648 144.656 103.773 144.656 102.636C144.656 101.881 144.575 101.237 144.413 100.706C144.254 100.175 144.024 99.7699 143.723 99.4915C143.424 99.2131 143.065 99.0739 142.645 99.0739C142.014 99.0739 141.521 99.3849 141.166 100.007C140.811 100.626 140.633 101.503 140.633 102.636C140.633 103.392 140.713 104.034 140.872 104.562C141.031 105.091 141.26 105.493 141.558 105.768C141.859 106.044 142.221 106.182 142.645 106.182ZM150.145 107.119C149.502 107.119 148.956 106.945 148.504 106.595C148.052 106.243 147.707 105.733 147.468 105.065C147.23 104.395 147.11 103.585 147.11 102.636C147.11 101.693 147.23 100.888 147.468 100.22C147.71 99.5497 148.056 99.0384 148.508 98.6861C148.963 98.331 149.508 98.1534 150.145 98.1534C150.781 98.1534 151.325 98.331 151.777 98.6861C152.231 99.0384 152.578 99.5497 152.816 100.22C153.058 100.888 153.179 101.693 153.179 102.636C153.179 103.585 153.059 104.395 152.821 105.065C152.582 105.733 152.237 106.243 151.785 106.595C151.333 106.945 150.787 107.119 150.145 107.119ZM150.145 106.182C150.781 106.182 151.275 105.875 151.627 105.261C151.98 104.648 152.156 103.773 152.156 102.636C152.156 101.881 152.075 101.237 151.913 100.706C151.754 100.175 151.524 99.7699 151.223 99.4915C150.924 99.2131 150.565 99.0739 150.145 99.0739C149.514 99.0739 149.021 99.3849 148.666 100.007C148.311 100.626 148.133 101.503 148.133 102.636C148.133 103.392 148.213 104.034 148.372 104.562C148.531 105.091 148.76 105.493 149.058 105.768C149.359 106.044 149.721 106.182 150.145 106.182ZM157.645 107.119C157.002 107.119 156.456 106.945 156.004 106.595C155.552 106.243 155.207 105.733 154.968 105.065C154.73 104.395 154.61 103.585 154.61 102.636C154.61 101.693 154.73 100.888 154.968 100.22C155.21 99.5497 155.556 99.0384 156.008 98.6861C156.463 98.331 157.008 98.1534 157.645 98.1534C158.281 98.1534 158.825 98.331 159.277 98.6861C159.731 99.0384 160.078 99.5497 160.316 100.22C160.558 100.888 160.679 101.693 160.679 102.636C160.679 103.585 160.559 104.395 160.321 105.065C160.082 105.733 159.737 106.243 159.285 106.595C158.833 106.945 158.287 107.119 157.645 107.119ZM157.645 106.182C158.281 106.182 158.775 105.875 159.127 105.261C159.48 104.648 159.656 103.773 159.656 102.636C159.656 101.881 159.575 101.237 159.413 100.706C159.254 100.175 159.024 99.7699 158.723 99.4915C158.424 99.2131 158.065 99.0739 157.645 99.0739C157.014 99.0739 156.521 99.3849 156.166 100.007C155.811 100.626 155.633 101.503 155.633 102.636C155.633 103.392 155.713 104.034 155.872 104.562C156.031 105.091 156.26 105.493 156.558 105.768C156.859 106.044 157.221 106.182 157.645 106.182Z" fill="#515259"/>
<path d="M169.182 98.1534C169.54 98.1562 169.898 98.2244 170.256 98.358C170.614 98.4915 170.94 98.7131 171.236 99.0227C171.531 99.3295 171.768 99.7486 171.947 100.28C172.126 100.811 172.216 101.477 172.216 102.278C172.216 103.054 172.142 103.743 171.994 104.345C171.849 104.945 171.639 105.45 171.364 105.862C171.091 106.274 170.759 106.587 170.366 106.8C169.977 107.013 169.537 107.119 169.045 107.119C168.557 107.119 168.121 107.023 167.737 106.83C167.357 106.634 167.044 106.362 166.8 106.016C166.558 105.666 166.403 105.261 166.335 104.801H167.375C167.469 105.202 167.655 105.533 167.933 105.794C168.214 106.053 168.585 106.182 169.045 106.182C169.719 106.182 170.25 105.888 170.639 105.3C171.031 104.712 171.227 103.881 171.227 102.807H171.159C171 103.045 170.811 103.251 170.592 103.425C170.374 103.598 170.131 103.732 169.864 103.825C169.597 103.919 169.313 103.966 169.011 103.966C168.511 103.966 168.053 103.842 167.635 103.595C167.22 103.345 166.888 103.003 166.638 102.568C166.391 102.131 166.267 101.631 166.267 101.068C166.267 100.534 166.386 100.045 166.625 99.6023C166.866 99.1562 167.205 98.8011 167.639 98.5369C168.077 98.2727 168.591 98.1449 169.182 98.1534ZM169.182 99.0909C168.824 99.0909 168.501 99.1804 168.214 99.3594C167.93 99.5355 167.705 99.7741 167.537 100.075C167.372 100.374 167.29 100.705 167.29 101.068C167.29 101.432 167.369 101.763 167.528 102.061C167.69 102.357 167.911 102.592 168.189 102.768C168.47 102.942 168.79 103.028 169.148 103.028C169.418 103.028 169.669 102.976 169.902 102.871C170.135 102.763 170.338 102.616 170.511 102.432C170.688 102.244 170.825 102.033 170.925 101.797C171.024 101.558 171.074 101.31 171.074 101.051C171.074 100.71 170.991 100.391 170.827 100.092C170.665 99.794 170.44 99.5526 170.153 99.3679C169.869 99.1832 169.545 99.0909 169.182 99.0909ZM176.738 107.119C176.096 107.119 175.549 106.945 175.098 106.595C174.646 106.243 174.301 105.733 174.062 105.065C173.824 104.395 173.704 103.585 173.704 102.636C173.704 101.693 173.824 100.888 174.062 100.22C174.304 99.5497 174.65 99.0384 175.102 98.6861C175.556 98.331 176.102 98.1534 176.738 98.1534C177.375 98.1534 177.919 98.331 178.37 98.6861C178.825 99.0384 179.172 99.5497 179.41 100.22C179.652 100.888 179.772 101.693 179.772 102.636C179.772 103.585 179.653 104.395 179.414 105.065C179.176 105.733 178.831 106.243 178.379 106.595C177.927 106.945 177.38 107.119 176.738 107.119ZM176.738 106.182C177.375 106.182 177.869 105.875 178.221 105.261C178.574 104.648 178.75 103.773 178.75 102.636C178.75 101.881 178.669 101.237 178.507 100.706C178.348 100.175 178.118 99.7699 177.816 99.4915C177.518 99.2131 177.159 99.0739 176.738 99.0739C176.108 99.0739 175.615 99.3849 175.26 100.007C174.904 100.626 174.727 101.503 174.727 102.636C174.727 103.392 174.806 104.034 174.966 104.562C175.125 105.091 175.353 105.493 175.652 105.768C175.953 106.044 176.315 106.182 176.738 106.182ZM184.119 107.119C183.619 107.119 183.169 107.02 182.768 106.821C182.368 106.622 182.047 106.349 181.805 106.003C181.564 105.656 181.431 105.261 181.409 104.818H182.431C182.471 105.213 182.65 105.54 182.968 105.798C183.289 106.054 183.673 106.182 184.119 106.182C184.477 106.182 184.795 106.098 185.074 105.93C185.355 105.763 185.575 105.533 185.734 105.24C185.896 104.945 185.977 104.611 185.977 104.239C185.977 103.858 185.893 103.518 185.725 103.22C185.561 102.919 185.333 102.682 185.044 102.509C184.754 102.335 184.423 102.247 184.051 102.244C183.784 102.241 183.51 102.283 183.228 102.368C182.947 102.45 182.716 102.557 182.534 102.688L181.545 102.568L182.074 98.2727H186.608V99.2102H182.96L182.653 101.784H182.704C182.883 101.642 183.108 101.524 183.377 101.43C183.647 101.337 183.929 101.29 184.221 101.29C184.755 101.29 185.231 101.418 185.649 101.673C186.069 101.926 186.399 102.273 186.637 102.713C186.879 103.153 187 103.656 187 104.222C187 104.778 186.875 105.276 186.625 105.713C186.377 106.148 186.037 106.491 185.602 106.744C185.167 106.994 184.673 107.119 184.119 107.119ZM191.471 98.1534C191.829 98.1562 192.187 98.2244 192.545 98.358C192.903 98.4915 193.229 98.7131 193.525 99.0227C193.82 99.3295 194.058 99.7486 194.237 100.28C194.415 100.811 194.505 101.477 194.505 102.278C194.505 103.054 194.431 103.743 194.283 104.345C194.138 104.945 193.928 105.45 193.653 105.862C193.38 106.274 193.048 106.587 192.656 106.8C192.266 107.013 191.826 107.119 191.335 107.119C190.846 107.119 190.41 107.023 190.026 106.83C189.646 106.634 189.333 106.362 189.089 106.016C188.847 105.666 188.692 105.261 188.624 104.801H189.664C189.758 105.202 189.944 105.533 190.222 105.794C190.504 106.053 190.874 106.182 191.335 106.182C192.008 106.182 192.539 105.888 192.928 105.3C193.32 104.712 193.516 103.881 193.516 102.807H193.448C193.289 103.045 193.1 103.251 192.881 103.425C192.663 103.598 192.42 103.732 192.153 103.825C191.886 103.919 191.602 103.966 191.3 103.966C190.8 103.966 190.342 103.842 189.924 103.595C189.509 103.345 189.177 103.003 188.927 102.568C188.68 102.131 188.556 101.631 188.556 101.068C188.556 100.534 188.675 100.045 188.914 99.6023C189.156 99.1562 189.494 98.8011 189.928 98.5369C190.366 98.2727 190.88 98.1449 191.471 98.1534ZM191.471 99.0909C191.113 99.0909 190.79 99.1804 190.504 99.3594C190.219 99.5355 189.994 99.7741 189.826 100.075C189.661 100.374 189.579 100.705 189.579 101.068C189.579 101.432 189.658 101.763 189.817 102.061C189.979 102.357 190.2 102.592 190.478 102.768C190.759 102.942 191.079 103.028 191.437 103.028C191.707 103.028 191.958 102.976 192.191 102.871C192.424 102.763 192.627 102.616 192.8 102.432C192.977 102.244 193.114 102.033 193.214 101.797C193.313 101.558 193.363 101.31 193.363 101.051C193.363 100.71 193.281 100.391 193.116 100.092C192.954 99.794 192.729 99.5526 192.442 99.3679C192.158 99.1832 191.835 99.0909 191.471 99.0909Z" fill="#515259"/>
<path d="M203.182 98.1534C203.54 98.1562 203.898 98.2244 204.256 98.358C204.614 98.4915 204.94 98.7131 205.236 99.0227C205.531 99.3295 205.768 99.7486 205.947 100.28C206.126 100.811 206.216 101.477 206.216 102.278C206.216 103.054 206.142 103.743 205.994 104.345C205.849 104.945 205.639 105.45 205.364 105.862C205.091 106.274 204.759 106.587 204.366 106.8C203.977 107.013 203.537 107.119 203.045 107.119C202.557 107.119 202.121 107.023 201.737 106.83C201.357 106.634 201.044 106.362 200.8 106.016C200.558 105.666 200.403 105.261 200.335 104.801H201.375C201.469 105.202 201.655 105.533 201.933 105.794C202.214 106.053 202.585 106.182 203.045 106.182C203.719 106.182 204.25 105.888 204.639 105.3C205.031 104.712 205.227 103.881 205.227 102.807H205.159C205 103.045 204.811 103.251 204.592 103.425C204.374 103.598 204.131 103.732 203.864 103.825C203.597 103.919 203.313 103.966 203.011 103.966C202.511 103.966 202.053 103.842 201.635 103.595C201.22 103.345 200.888 103.003 200.638 102.568C200.391 102.131 200.267 101.631 200.267 101.068C200.267 100.534 200.386 100.045 200.625 99.6023C200.866 99.1562 201.205 98.8011 201.639 98.5369C202.077 98.2727 202.591 98.1449 203.182 98.1534ZM203.182 99.0909C202.824 99.0909 202.501 99.1804 202.214 99.3594C201.93 99.5355 201.705 99.7741 201.537 100.075C201.372 100.374 201.29 100.705 201.29 101.068C201.29 101.432 201.369 101.763 201.528 102.061C201.69 102.357 201.911 102.592 202.189 102.768C202.47 102.942 202.79 103.028 203.148 103.028C203.418 103.028 203.669 102.976 203.902 102.871C204.135 102.763 204.338 102.616 204.511 102.432C204.688 102.244 204.825 102.033 204.925 101.797C205.024 101.558 205.074 101.31 205.074 101.051C205.074 100.71 204.991 100.391 204.827 100.092C204.665 99.794 204.44 99.5526 204.153 99.3679C203.869 99.1832 203.545 99.0909 203.182 99.0909ZM210.738 107.119C210.096 107.119 209.549 106.945 209.098 106.595C208.646 106.243 208.301 105.733 208.062 105.065C207.824 104.395 207.704 103.585 207.704 102.636C207.704 101.693 207.824 100.888 208.062 100.22C208.304 99.5497 208.65 99.0384 209.102 98.6861C209.556 98.331 210.102 98.1534 210.738 98.1534C211.375 98.1534 211.919 98.331 212.37 98.6861C212.825 99.0384 213.172 99.5497 213.41 100.22C213.652 100.888 213.772 101.693 213.772 102.636C213.772 103.585 213.653 104.395 213.414 105.065C213.176 105.733 212.831 106.243 212.379 106.595C211.927 106.945 211.38 107.119 210.738 107.119ZM210.738 106.182C211.375 106.182 211.869 105.875 212.221 105.261C212.574 104.648 212.75 103.773 212.75 102.636C212.75 101.881 212.669 101.237 212.507 100.706C212.348 100.175 212.118 99.7699 211.816 99.4915C211.518 99.2131 211.159 99.0739 210.738 99.0739C210.108 99.0739 209.615 99.3849 209.26 100.007C208.904 100.626 208.727 101.503 208.727 102.636C208.727 103.392 208.806 104.034 208.966 104.562C209.125 105.091 209.353 105.493 209.652 105.768C209.953 106.044 210.315 106.182 210.738 106.182Z" fill="#515259"/>
<defs>
<clipPath id="clip0_795_69929">
<rect width="50" height="50" fill="white" transform="translate(25 40)"/>
</clipPath>
<clipPath id="clip1_795_69929">
<rect width="50" height="50" fill="white" transform="translate(78 40)"/>
</clipPath>
<clipPath id="clip2_795_69929">
<rect width="50" height="50" fill="white" transform="translate(131 40)"/>
</clipPath>
<clipPath id="clip3_795_69929">
<rect width="50" height="50" fill="white" transform="translate(184 40)"/>
</clipPath>
<clipPath id="clip4_795_69929">
<rect width="50" height="50" fill="white" transform="translate(237 40)"/>
</clipPath>
</defs>
</svg>
