<svg width="16" height="23" viewBox="0 0 16 23" fill="none" xmlns="http://www.w3.org/2000/svg">
<g clip-path="url(#clip0_6720_37956)">
<path d="M8.56988 22.54C6.96988 22.43 4.82988 22.53 3.72988 21.15C3.54988 20.27 3.50988 19.36 3.37988 18.47C3.01988 15.56 2.63988 12.65 2.29988 9.74C2.13988 8.73 2.04988 7.69 1.90988 6.68C1.91988 6.43 1.64988 6.37 1.50988 6.23C1.19988 5.98 0.919879 5.59 0.959879 5.18C0.999879 4.93 1.11988 4.69 1.28988 4.49C1.36988 3.69 1.43988 2.93 2.26988 2.54C2.42988 1.8 2.44988 1.34 3.27988 0.990003C5.92988 -0.199997 9.46988 -0.219997 12.3099 0.410003C13.0899 0.610003 14.0499 0.880003 14.4799 1.64C14.6599 1.93 14.4499 2.37 14.7099 2.59C15.3699 2.95 15.5899 3.61 15.6099 4.31C15.7599 4.69 16.0699 5.03 15.9799 5.48C15.9099 6.11 15.1299 6.28 15.0399 6.87C14.9099 8.15 14.7599 9.43 14.6199 10.71C14.3499 13.11 14.0899 15.51 13.8299 17.91C13.3699 20.88 14.2299 21.84 10.5999 22.38C9.93988 22.51 9.24988 22.5 8.56988 22.54Z" fill="white"/>
<path d="M8.56988 22.54C6.96988 22.43 4.82988 22.53 3.72988 21.15C3.54988 20.27 3.50988 19.36 3.37988 18.47C3.01988 15.56 2.63988 12.65 2.29988 9.74C2.13988 8.73 2.04988 7.69 1.90988 6.68C1.91988 6.43 1.64988 6.37 1.50988 6.23C1.19988 5.98 0.919879 5.59 0.959879 5.18C0.999879 4.93 1.11988 4.69 1.28988 4.49C1.36988 3.69 1.43988 2.93 2.26988 2.54C2.42988 1.8 2.44988 1.34 3.27988 0.990003C5.92988 -0.199997 9.46988 -0.219997 12.3099 0.410003C13.0899 0.610003 14.0499 0.880003 14.4799 1.64C14.6599 1.93 14.4499 2.37 14.7099 2.59C15.3699 2.95 15.5899 3.61 15.6099 4.31C15.7599 4.69 16.0699 5.03 15.9799 5.48C15.9099 6.11 15.1299 6.28 15.0399 6.87C14.9099 8.15 14.7599 9.43 14.6199 10.71C14.3499 13.11 14.0899 15.51 13.8299 17.91C13.3699 20.88 14.2299 21.84 10.5999 22.38C9.93988 22.51 9.24988 22.5 8.56988 22.54ZM8.25988 5.23C10.2199 5.21 12.5099 5.1 14.1599 3.99C14.7299 3.58 14.4699 3.17 14.2299 2.68C13.9499 2.87 13.5199 3.14 12.9499 3.34C11.9999 3.68 11.0199 3.72 11.0099 3.65C11.0099 3.64 11.0399 3.58 11.2099 3.55C11.7099 3.49 12.1599 3.34 12.6299 3.2C15.3099 2.21 14.0199 1.1 11.9699 0.690003C9.66988 0.150003 4.50988 -0.00999689 2.71988 1.69C2.55988 1.96 2.54988 2.32 2.78988 2.56C2.79988 2.62 3.03988 2.72 2.92988 2.76C2.62988 2.76 2.55988 2.41 2.50988 2.94C1.25988 4.9 7.11988 5.31 8.24988 5.23H8.25988ZM8.26988 5.53C6.55988 5.5 3.19988 5.33 2.13988 3.84C2.10988 3.71 2.02988 3.55 2.05988 3.42C2.09988 3.28 2.11988 3.12 2.22988 3.01C2.29988 2.94 2.18988 2.91 2.13988 2.95C1.57988 3.25 1.53988 3.98 1.98988 4.4C2.38988 4.72 2.16988 4.8 1.84988 4.54C1.75988 4.51 1.62988 4.3 1.58988 4.46C1.45988 4.78 1.63988 5.13 1.86988 5.37C1.90988 5.57 1.64988 5.34 1.60988 5.28C1.49988 5.21 1.47988 4.94 1.35988 4.96C1.23988 5.11 1.28988 5.34 1.32988 5.52C2.04988 6.75 4.32988 7.11 5.61988 7.29C8.53988 7.65 12.0799 7.58 14.7099 6.28C15.0699 6.07 15.4699 5.79 15.5399 5.36C15.5799 5.31 15.5399 5.18 15.4699 5.23C14.8599 5.9 13.9399 6.2 13.1199 6.46C12.9799 6.48 12.8399 6.56 12.6899 6.53C12.8599 6.45 13.1199 6.34 13.4499 6.19C14.2699 5.83 14.3999 5.74 14.6199 5.61C14.9699 5.4 15.3599 5.05 15.2699 4.6C15.2599 4.57 15.2399 4.55 15.2199 4.54C15.1099 4.5 14.9499 4.71 14.7599 4.87C14.6299 4.98 14.4099 5.06 13.9699 5.23C13.7799 5.3 13.5299 5.4 13.2199 5.49C13.1699 5.5 13.0999 5.52 13.0199 5.54C12.9399 5.56 12.6999 5.61 12.6799 5.57C12.6799 5.55 12.7099 5.51 12.9199 5.4C13.7599 5.14 14.9399 4.77 15.1899 3.81C15.2499 3.68 14.9699 3.09 14.8699 3.33C14.8699 5.23 9.77988 5.58 8.28988 5.53H8.26988Z" fill="#272559"/>
<path d="M8.61992 2.96004C9.05992 2.98004 9.50992 2.93004 9.91992 2.89004C9.99992 3.53004 5.81992 3.03004 5.26992 2.79004C2.89992 2.00004 4.90992 1.05004 6.24992 0.900039C7.02992 0.680039 4.89992 2.17004 4.86992 2.35004C6.04992 2.84004 7.33992 2.95004 8.61992 2.95004V2.96004Z" fill="#272559"/>
<path d="M8.25002 3.97997C6.53002 3.98997 4.83002 3.79997 3.28002 3.05997C2.93002 2.73997 4.11003 3.26997 4.20003 3.29997C4.20003 3.29997 4.48003 3.38997 5.07003 3.50997C5.75003 3.64997 7.67002 3.80997 10.25 3.77997C10.08 3.81997 9.84002 3.86997 9.55002 3.91997C9.03003 3.99997 8.61002 3.98997 8.26003 3.98997L8.25002 3.97997Z" fill="#272559"/>
<path d="M9.88991 0.779952C11.5299 0.709952 14.9399 1.83995 11.5999 2.82995C11.4199 2.83995 11.0199 3.08995 10.8999 2.88995C11.8799 2.59995 13.8299 1.85995 11.7699 1.24995C11.5699 1.13995 8.79991 0.819952 9.88991 0.779952Z" fill="#272559"/>
<path d="M4.3101 3.00997C3.9101 2.92997 3.2601 2.82997 3.3001 2.27997C3.3001 1.90997 3.7001 2.12997 3.8501 2.27997C4.0201 2.43997 4.9101 2.89997 4.3101 3.00997Z" fill="#272559"/>
<path d="M4.5498 5.73998C3.8098 5.52998 3.2098 5.28998 2.7998 5.09998C3.2498 5.23998 3.9198 5.43998 4.7398 5.60998C6.9598 6.06998 8.7298 6.01998 9.5198 5.97998C10.8998 5.89998 11.7498 5.68998 11.7498 5.68998C11.7498 5.68998 8.2898 6.78998 4.5498 5.73998Z" fill="#272559"/>
<path d="M8.53002 22.22C9.88002 22.22 11.45 22.12 12.65 21.42C13.39 21.12 13.24 20.4 13.33 19.76C13.41 18.89 13.53 18.02 13.59 17.15C13.93 14.08 14.26 11.01 14.55 7.92995C14.64 7.62995 14.6 7.30995 14.67 6.98995C14.67 6.89995 14.7 6.76995 14.67 6.69995C14.65 6.69995 14.63 6.69995 14.61 6.71995C14.34 6.90995 14.01 7.04995 13.7 7.16995C12.79 7.48995 11.88 7.73995 10.89 7.80995C8.39002 8.09995 5.72002 7.95995 3.34002 7.21995C2.98002 7.10995 2.62002 6.91995 2.27002 6.78995C2.36002 7.47995 2.46002 8.18995 2.51002 8.88995C2.93002 11.94 3.24002 14.98 3.64002 18.08C3.71002 18.66 3.76002 19.27 3.86002 19.84C3.86002 20.1 3.93002 20.35 3.94002 20.61C3.97002 20.83 3.97002 21.04 4.14002 21.21C5.37002 22.22 6.97002 22.21 8.54002 22.22H8.53002Z" fill="white"/>
<path d="M4.17992 12.4901H4.18992C4.18992 12.4901 4.22992 12.4901 4.23992 12.4701C4.24992 12.4601 4.25992 12.4301 4.25992 12.3901V11.7901C4.25992 11.7901 4.25992 11.7201 4.23992 11.7101C4.22992 11.7001 4.20992 11.6901 4.18992 11.6901H4.16992L4.44992 11.6801L4.43992 11.6901C4.41992 11.6901 4.39992 11.6901 4.38992 11.7101C4.37992 11.7201 4.36992 11.7501 4.36992 11.7901V12.3901C4.36992 12.3901 4.36992 12.4601 4.38992 12.4701C4.39992 12.4801 4.41992 12.4901 4.43992 12.4901H4.44992H4.16992" fill="#282454"/>
<path d="M5.57982 12.5H5.58982C5.58982 12.5 5.62982 12.5 5.63982 12.48C5.64982 12.47 5.65982 12.44 5.65982 12.4V11.71H5.51982C5.51982 11.71 5.45982 11.71 5.42982 11.71C5.40982 11.71 5.38982 11.71 5.36982 11.72C5.35982 11.72 5.33982 11.73 5.33982 11.74C5.33982 11.74 5.32982 11.76 5.31982 11.77V11.78C5.31982 11.78 5.32982 11.75 5.33982 11.74C5.33982 11.73 5.34982 11.71 5.35982 11.7V11.67L5.38982 11.62V11.64C5.38982 11.64 5.39982 11.64 5.40982 11.65C5.41982 11.65 5.43982 11.65 5.45982 11.65C5.47982 11.65 5.50982 11.65 5.53982 11.65H5.90982C5.90982 11.65 5.96982 11.65 5.99982 11.65C6.01982 11.65 6.03982 11.65 6.04982 11.65C6.05982 11.65 6.06982 11.65 6.06982 11.64C6.06982 11.64 6.06982 11.64 6.06982 11.63V11.62C6.06982 11.62 6.06982 11.63 6.06982 11.64V11.66V11.69C6.06982 11.69 6.08982 11.72 6.09982 11.73C6.09982 11.74 6.09982 11.76 6.10982 11.77C6.10982 11.77 6.10982 11.74 6.08982 11.73C6.08982 11.73 6.06982 11.71 6.05982 11.71C6.04982 11.71 6.02982 11.7 5.99982 11.7C5.97982 11.7 5.94982 11.7 5.90982 11.7H5.76982V12.39C5.76982 12.39 5.76982 12.46 5.78982 12.47C5.79982 12.48 5.81982 12.49 5.83982 12.49H5.84982H5.56982L5.57982 12.5Z" fill="#282454"/>
<path d="M10.3901 12.49H10.4001C10.4001 12.49 10.4401 12.49 10.4501 12.47C10.4601 12.46 10.4701 12.43 10.4701 12.39V12.09H10.0701V12.39C10.0701 12.39 10.0701 12.46 10.0901 12.47C10.1001 12.48 10.1201 12.49 10.1401 12.49H10.1601V12.5H9.88012H9.89012C9.91012 12.5 9.93012 12.5 9.94012 12.48C9.95012 12.47 9.96012 12.44 9.96012 12.4V11.8C9.96012 11.8 9.96012 11.73 9.94012 11.72C9.93012 11.71 9.91012 11.7 9.89012 11.7H9.87012H10.1501V11.71H10.1401C10.1401 11.71 10.1001 11.71 10.0901 11.73C10.0801 11.74 10.0701 11.77 10.0701 11.81V12.09H10.4701V11.81C10.4701 11.81 10.4701 11.74 10.4501 11.73C10.4401 11.72 10.4201 11.71 10.4001 11.71H10.3801L10.6601 11.7H10.6501C10.6301 11.7 10.6101 11.7 10.6001 11.72C10.5901 11.73 10.5801 11.76 10.5801 11.8V12.4C10.5801 12.4 10.5801 12.47 10.6001 12.48C10.6101 12.49 10.6301 12.5 10.6501 12.5H10.6601H10.3801" fill="#282454"/>
<path d="M8.99971 11.7899C8.99971 11.7899 8.99971 11.7499 8.99971 11.7399C8.99971 11.7299 8.99971 11.7199 8.97971 11.7099C8.96971 11.7099 8.94971 11.6999 8.92971 11.6899C8.90971 11.6899 8.86971 11.6899 8.82971 11.6899H8.64971V12.0699H8.76971C8.76971 12.0699 8.82971 12.0699 8.85971 12.0699C8.87971 12.0699 8.89971 12.0599 8.90971 12.0499C8.91971 12.0499 8.92971 12.0299 8.93971 12.0199C8.93971 12.0099 8.93971 11.9899 8.93971 11.9799L8.94971 11.9599V12.2199H8.93971V12.1999C8.93971 12.1999 8.93971 12.1699 8.93971 12.1599C8.93971 12.1499 8.92971 12.1399 8.90971 12.1299C8.89971 12.1299 8.87971 12.1099 8.85971 12.1099C8.83971 12.1099 8.80971 12.1099 8.76971 12.1099H8.64971V12.4399C8.64971 12.4399 8.64971 12.4599 8.64971 12.4699C8.64971 12.4799 8.64971 12.4899 8.65971 12.4899C8.65971 12.4899 8.67971 12.4999 8.68971 12.4999C8.69971 12.4999 8.71971 12.4999 8.73971 12.4999H8.85971C8.85971 12.4999 8.91971 12.4999 8.94971 12.4999C8.96971 12.4999 8.98971 12.4899 8.99971 12.4799C9.00971 12.4799 9.01971 12.4599 9.02971 12.4499C9.02971 12.4399 9.03971 12.4299 9.03971 12.4199L9.04971 12.3999C9.04971 12.4199 9.04971 12.4399 9.04971 12.4599C9.04971 12.4799 9.04971 12.4999 9.04971 12.5199H8.45971H8.46971C8.47971 12.5199 8.48971 12.5199 8.49971 12.5199C8.49971 12.5199 8.51971 12.5199 8.51971 12.4999C8.51971 12.4999 8.52971 12.4799 8.52971 12.4699C8.52971 12.4599 8.52971 12.4399 8.52971 12.4099V11.8299C8.52971 11.8299 8.52971 11.7899 8.52971 11.7699C8.52971 11.7599 8.52971 11.7399 8.51971 11.7399C8.51971 11.7399 8.50971 11.7299 8.49971 11.7199C8.49971 11.7199 8.47971 11.7199 8.46971 11.7199H8.44971H8.53971H9.00971C9.00971 11.7199 9.00971 11.7599 9.00971 11.7799C9.00971 11.7999 9.00971 11.8199 9.00971 11.8399L8.99971 11.7899Z" fill="#282454"/>
<path d="M7.53975 11.7899C7.53975 11.7899 7.53975 11.7499 7.53975 11.7399C7.53975 11.7299 7.53975 11.7199 7.51975 11.7099C7.50975 11.7099 7.48975 11.6999 7.46975 11.6899C7.44975 11.6899 7.40975 11.6899 7.36975 11.6899H7.18975V12.0699H7.30975C7.30975 12.0699 7.36975 12.0699 7.39975 12.0699C7.41975 12.0699 7.43975 12.0599 7.44975 12.0499C7.45975 12.0499 7.46975 12.0299 7.47975 12.0199C7.47975 12.0099 7.47975 11.9899 7.47975 11.9799L7.48975 11.9599V12.2199H7.47975V12.1999C7.47975 12.1999 7.47975 12.1699 7.47975 12.1599C7.47975 12.1499 7.46975 12.1399 7.44975 12.1299C7.43975 12.1299 7.41975 12.1099 7.39975 12.1099C7.37975 12.1099 7.34975 12.1099 7.30975 12.1099H7.18975V12.4399C7.18975 12.4399 7.18975 12.4599 7.18975 12.4699C7.18975 12.4799 7.18975 12.4899 7.19975 12.4899C7.19975 12.4899 7.21975 12.4999 7.22975 12.4999C7.23975 12.4999 7.25975 12.4999 7.27975 12.4999H7.39975C7.39975 12.4999 7.45975 12.4999 7.48975 12.4999C7.50975 12.4999 7.52975 12.4899 7.53975 12.4799C7.54975 12.4799 7.55975 12.4599 7.56975 12.4499C7.56975 12.4399 7.57975 12.4299 7.57975 12.4199L7.58975 12.3999C7.58975 12.4199 7.58975 12.4399 7.58975 12.4599C7.58975 12.4799 7.58975 12.4999 7.58975 12.5199H6.99975H7.00975C7.01975 12.5199 7.02975 12.5199 7.03975 12.5199C7.03975 12.5199 7.05975 12.5199 7.05975 12.4999C7.05975 12.4999 7.06975 12.4799 7.06975 12.4699C7.06975 12.4599 7.06975 12.4399 7.06975 12.4099V11.8299C7.06975 11.8299 7.06975 11.7899 7.06975 11.7699C7.06975 11.7599 7.06975 11.7399 7.05975 11.7399C7.05975 11.7399 7.04975 11.7299 7.03975 11.7199C7.03975 11.7199 7.01975 11.7199 7.00975 11.7199H6.98975H7.07975H7.54975C7.54975 11.7199 7.54975 11.7599 7.54975 11.7799C7.54975 11.7999 7.54975 11.8199 7.54975 11.8399L7.53975 11.7899Z" fill="#282454"/>
<path d="M12.34 12.4899C12.34 12.4899 12.34 12.4899 12.34 12.4799H12.31C12.31 12.4799 12.3 12.4799 12.29 12.4799C12.29 12.4799 12.28 12.4699 12.27 12.4599C12.27 12.4499 12.25 12.4299 12.24 12.4099C12.24 12.3899 12.22 12.3599 12.21 12.3299L12.02 11.7599C12.02 11.7599 11.95 11.7399 11.91 11.7099C11.91 11.7099 11.9 11.6999 11.89 11.6899L11.7 12.2499C11.7 12.2499 11.67 12.3299 11.65 12.3599C11.64 12.3899 11.62 12.4099 11.61 12.4299C11.6 12.4499 11.58 12.4599 11.57 12.4599C11.56 12.4599 11.55 12.4599 11.53 12.4599H11.5C11.5 12.4599 11.5 12.4599 11.5 12.4699H11.77H11.75C11.73 12.4699 11.72 12.4699 11.71 12.4699C11.7 12.4699 11.69 12.4499 11.69 12.4399C11.69 12.4199 11.69 12.3999 11.69 12.3699C11.69 12.3399 11.7 12.2999 11.72 12.2599L11.74 12.1899H12.05L12.08 12.2799C12.08 12.2799 12.1 12.3599 12.11 12.3799C12.11 12.4099 12.11 12.4299 12.11 12.4399C12.11 12.4599 12.11 12.4699 12.09 12.4699C12.09 12.4699 12.07 12.4699 12.06 12.4699H12.03C12.03 12.4699 12.03 12.4699 12.03 12.4799H12.33M11.75 12.1499L11.9 11.7099L12.04 12.1499H11.75Z" fill="#282454"/>
<path d="M6.35006 13.61H6.40006C6.39006 13.67 6.37006 13.7 6.34006 13.72C6.31006 13.74 6.28006 13.75 6.24006 13.75C6.20006 13.75 6.16006 13.75 6.14006 13.72C6.11006 13.7 6.09006 13.68 6.08006 13.65C6.07006 13.62 6.06006 13.58 6.06006 13.55C6.06006 13.51 6.06006 13.47 6.08006 13.44C6.10006 13.41 6.12006 13.39 6.15006 13.37C6.18006 13.35 6.21006 13.35 6.24006 13.35C6.28006 13.35 6.31006 13.35 6.34006 13.38C6.37006 13.4 6.39006 13.43 6.40006 13.46H6.35006C6.35006 13.46 6.33006 13.42 6.31006 13.41C6.29006 13.4 6.27006 13.39 6.24006 13.39C6.21006 13.39 6.18006 13.39 6.16006 13.41C6.14006 13.42 6.13006 13.44 6.12006 13.47C6.12006 13.49 6.11006 13.52 6.11006 13.55C6.11006 13.58 6.11006 13.61 6.12006 13.64C6.12006 13.66 6.14006 13.68 6.17006 13.7C6.20006 13.72 6.21006 13.72 6.24006 13.72C6.27006 13.72 6.29006 13.72 6.31006 13.69C6.33006 13.67 6.34006 13.65 6.35006 13.62" fill="#282454"/>
<path d="M6.87988 13.56C6.87988 13.5 6.89988 13.44 6.92988 13.41C6.95988 13.37 7.00988 13.35 7.05988 13.35C7.09988 13.35 7.12988 13.35 7.15988 13.38C7.18988 13.4 7.20988 13.42 7.22988 13.45C7.24988 13.48 7.24988 13.52 7.24988 13.55C7.24988 13.58 7.24988 13.63 7.22988 13.66C7.20988 13.69 7.18988 13.71 7.15988 13.73C7.12988 13.75 7.09988 13.75 7.06988 13.75C7.02988 13.75 6.99988 13.75 6.96988 13.72C6.93988 13.7 6.91988 13.68 6.89988 13.65C6.88988 13.62 6.87988 13.59 6.87988 13.55M6.92988 13.55C6.92988 13.55 6.93988 13.63 6.96988 13.66C6.99988 13.69 7.02988 13.7 7.06988 13.7C7.10988 13.7 7.13988 13.69 7.16988 13.66C7.19988 13.63 7.20988 13.59 7.20988 13.54C7.20988 13.51 7.20988 13.48 7.18988 13.46C7.17988 13.44 7.15988 13.42 7.13988 13.4C7.11988 13.39 7.09988 13.38 7.06988 13.38C7.02988 13.38 6.99988 13.39 6.97988 13.42C6.95988 13.45 6.93988 13.49 6.93988 13.55" fill="#282454"/>
<path d="M7.75977 13.75V13.36H8.02977V13.41H7.80977V13.53H7.99977V13.57H7.80977V13.75H7.75977Z" fill="#282454"/>
<path d="M8.52979 13.75V13.36H8.79979V13.41H8.57978V13.53H8.76978V13.57H8.57978V13.75H8.52979Z" fill="#282454"/>
<path d="M9.2998 13.75V13.36H9.5798V13.41H9.3498V13.53H9.5698V13.57H9.3498V13.7H9.5898V13.75H9.2998Z" fill="#282454"/>
<path d="M10.1001 13.75V13.36H10.3801V13.41H10.1501V13.53H10.3701V13.57H10.1501V13.7H10.3901V13.75H10.1001Z" fill="#282454"/>
<path d="M12.35 13.54H11.03C11.03 13.54 11.02 13.54 11.02 13.53C11.02 13.52 11.02 13.52 11.03 13.52H12.35C12.35 13.52 12.36 13.52 12.36 13.53C12.36 13.54 12.36 13.54 12.35 13.54Z" fill="#010101"/>
<path d="M12.35 13.55H11.03C11.03 13.55 11 13.54 11 13.52C11 13.5 11.01 13.49 11.03 13.49H12.35C12.35 13.49 12.38 13.5 12.38 13.52C12.38 13.54 12.37 13.55 12.35 13.55Z" fill="#27255A"/>
<path d="M5.51994 13.55H4.19994C4.19994 13.55 4.18994 13.55 4.18994 13.54C4.18994 13.53 4.18994 13.53 4.19994 13.53H5.51994C5.51994 13.53 5.52994 13.53 5.52994 13.54C5.52994 13.55 5.52994 13.55 5.51994 13.55Z" fill="#010101"/>
<path d="M5.51992 13.57H4.19992C4.19992 13.57 4.16992 13.56 4.16992 13.54C4.16992 13.52 4.17992 13.51 4.19992 13.51H5.51992C5.51992 13.51 5.54992 13.52 5.54992 13.54C5.54992 13.56 5.53992 13.57 5.51992 13.57Z" fill="#27255A"/>
<path d="M12.8297 10.52C12.7597 10.55 12.6897 10.59 12.6297 10.63C12.4997 10.71 12.3797 10.8 12.3097 10.94L12.2197 10.87V10.71C12.2197 10.71 12.2297 10.63 12.2497 10.59C12.2697 10.52 12.2997 10.46 12.3297 10.39C12.3597 10.33 12.3997 10.27 12.4297 10.2C12.4997 10.06 12.5197 9.89997 12.5197 9.73997V9.71997C12.5197 9.71997 12.6897 9.83997 12.6697 10.05C12.6697 10.05 12.8197 10.19 12.7797 10.41C12.7797 10.41 12.8097 10.45 12.8297 10.51V10.52Z" fill="#71C9ED"/>
<path d="M12.3099 10.92C12.2599 10.82 12.2199 10.74 12.1599 10.65C12.0699 10.52 11.9799 10.32 11.7899 10.33C11.5899 10.33 11.3999 10.6 11.3999 10.6L11.4899 10.64C11.4899 10.64 11.5799 10.67 11.5999 10.76C11.6199 10.84 11.6299 10.92 11.6399 11C11.6899 11.27 11.8699 11.51 12.1299 11.63C12.4399 11.77 12.7799 11.7 13.0999 11.61C13.1999 11.58 13.3699 11.56 13.4599 11.53C13.5699 11.49 13.5899 11.47 13.5999 11.38C13.5999 11.31 13.5399 11.28 13.4799 11.27C13.2799 11.24 13.0799 11.25 12.8799 11.24L12.3099 10.93V10.92Z" fill="#3BBACA"/>
<path d="M11.4102 10.6C11.4102 10.6 11.5002 10.49 11.5302 10.47C11.5302 10.47 11.6602 10.58 11.5502 10.67C11.5502 10.67 11.5102 10.65 11.4202 10.6H11.4102Z" fill="#71C9ED"/>
<path d="M12.2002 10.72C12.2102 10.68 12.2202 10.64 12.2402 10.6C12.2602 10.53 12.2902 10.47 12.3202 10.4C12.3402 10.37 12.3502 10.34 12.3702 10.31C12.3902 10.28 12.4102 10.24 12.4202 10.21C12.4902 10.05 12.5102 9.87999 12.5102 9.75999V9.73999C12.5102 9.73999 12.6802 9.86999 12.6602 10.08C12.6802 10.1 12.8002 10.24 12.7702 10.44C12.7702 10.44 12.8002 10.48 12.8202 10.54C12.8202 10.54 12.8202 10.54 12.8202 10.55C12.8202 10.55 12.8202 10.55 12.8102 10.55C12.7902 10.49 12.7602 10.45 12.7602 10.45C12.8002 10.24 12.6502 10.1 12.6502 10.1C12.6602 9.92999 12.5602 9.81999 12.5202 9.77999C12.5202 9.89999 12.5002 10.08 12.4302 10.24C12.4102 10.27 12.3902 10.31 12.3802 10.34C12.3602 10.37 12.3502 10.4 12.3302 10.43C12.3002 10.49 12.2702 10.56 12.2502 10.62C12.2302 10.66 12.2202 10.7 12.2102 10.74L12.2002 10.72Z" fill="#292454"/>
<path d="M12.3501 10.8801C12.3501 10.8401 12.3501 10.8001 12.3701 10.7601C12.4201 10.5701 12.4801 10.4401 12.5801 10.2501C12.6801 10.0601 12.6501 9.93005 12.6501 9.93005C12.6501 9.93005 12.6801 10.0701 12.5801 10.2601C12.4801 10.4501 12.4201 10.5801 12.3701 10.7701C12.3701 10.8101 12.3601 10.8501 12.3501 10.8901V10.8801Z" fill="#292454"/>
<path d="M12.5898 10.6599C12.5898 10.6599 12.5898 10.6599 12.5898 10.6499C12.5998 10.6099 12.6198 10.5599 12.6398 10.5199C12.7498 10.2599 12.7598 10.2499 12.7598 10.2099C12.7598 10.2099 12.7598 10.1899 12.7598 10.1999C12.7598 10.2499 12.7598 10.2699 12.6398 10.5299C12.6198 10.5699 12.6098 10.6099 12.5898 10.6599Z" fill="#292454"/>
<path d="M12.4899 11.72C12.3699 11.72 12.2499 11.69 12.1299 11.64C11.8799 11.52 11.6899 11.28 11.6399 11C11.6399 10.97 11.6399 10.94 11.6299 10.91C11.6299 10.86 11.6199 10.81 11.5999 10.76C11.5699 10.68 11.4899 10.65 11.4899 10.65L11.3999 10.61C11.3999 10.6 11.5999 10.34 11.7899 10.33C11.9599 10.33 12.0599 10.48 12.1399 10.61C12.1499 10.63 12.1599 10.64 12.1699 10.66C12.2199 10.75 12.2699 10.83 12.3199 10.93C12.3199 10.93 12.3199 10.93 12.3199 10.94C12.3199 10.94 12.3199 10.94 12.3099 10.94C12.2599 10.84 12.2199 10.76 12.1599 10.67C12.1499 10.65 12.1399 10.64 12.1299 10.62C12.0499 10.49 11.9599 10.34 11.7999 10.35C11.6299 10.35 11.4599 10.57 11.4299 10.61L11.5099 10.65C11.5099 10.65 11.5999 10.68 11.6299 10.77C11.6499 10.82 11.6499 10.87 11.6599 10.92C11.6599 10.95 11.6599 10.98 11.6699 11.01C11.7199 11.28 11.9099 11.52 12.1499 11.64C12.4599 11.78 12.7999 11.71 13.1199 11.62C13.1699 11.61 13.2299 11.59 13.2899 11.58C13.3599 11.57 13.4299 11.55 13.4799 11.54C13.5899 11.5 13.6099 11.48 13.6099 11.39C13.6099 11.32 13.5499 11.3 13.4999 11.29C13.3499 11.27 13.1999 11.27 13.0499 11.26C12.9999 11.26 12.9499 11.26 12.8999 11.26C12.8999 11.26 12.9999 11.26 13.0499 11.26C13.1999 11.26 13.3499 11.26 13.4999 11.29C13.5899 11.3 13.6299 11.34 13.6299 11.41C13.6299 11.51 13.5999 11.54 13.4899 11.57C13.4399 11.59 13.3699 11.6 13.2999 11.61C13.2399 11.62 13.1799 11.63 13.1299 11.65C12.9299 11.71 12.7199 11.76 12.5099 11.75L12.4899 11.72Z" fill="#292454"/>
<path d="M11.6799 10.83H11.6299C11.6299 10.83 11.7999 10.85 11.9199 10.79C12.0399 10.73 12.0899 10.68 12.1199 10.59C12.1199 10.59 12.1199 10.59 12.1299 10.59C12.1299 10.59 12.1299 10.59 12.1299 10.6C12.0999 10.69 12.0399 10.75 11.9199 10.81C11.8399 10.85 11.7399 10.86 11.6799 10.85V10.83Z" fill="#292454"/>
<path d="M11.6599 10.88H11.6299C11.6299 10.88 11.7999 10.89 11.9199 10.84C12.0399 10.79 12.0999 10.73 12.1299 10.64C12.1299 10.64 12.1299 10.64 12.1399 10.64C12.1399 10.64 12.1399 10.64 12.1399 10.65C12.1099 10.74 12.0399 10.81 11.9199 10.86C11.8299 10.9 11.7099 10.9 11.6599 10.9V10.88Z" fill="#292454"/>
<path d="M11.6801 10.9201H11.6401C11.6401 10.9201 11.8401 10.9401 11.9601 10.8801C12.0801 10.8201 12.1401 10.7601 12.1701 10.6801C12.1701 10.6801 12.1701 10.6801 12.1801 10.6801C12.1801 10.6801 12.1801 10.6801 12.1801 10.6901C12.1501 10.7801 12.0901 10.8401 11.9601 10.9001C11.8701 10.9501 11.7401 10.9501 11.6701 10.9501L11.6801 10.9201Z" fill="#292454"/>
<path d="M11.54 10.68C11.54 10.68 11.54 10.68 11.54 10.67C11.57 10.64 11.58 10.62 11.58 10.59C11.58 10.53 11.52 10.48 11.52 10.48C11.52 10.48 11.52 10.48 11.52 10.47C11.52 10.47 11.52 10.47 11.53 10.47C11.53 10.47 11.6 10.52 11.6 10.59C11.6 10.62 11.58 10.66 11.55 10.68H11.54Z" fill="#292454"/>
<path d="M11.4102 10.6C11.4102 10.6 11.5002 10.53 11.5802 10.56C11.5802 10.56 11.5102 10.63 11.4102 10.6Z" fill="white"/>
<path d="M11.4502 10.61C11.4502 10.61 11.4202 10.61 11.4102 10.61C11.4102 10.61 11.5002 10.54 11.5902 10.57C11.5902 10.57 11.5302 10.62 11.4502 10.62V10.61ZM11.4302 10.59C11.5002 10.59 11.5402 10.57 11.5702 10.56C11.5202 10.55 11.4602 10.58 11.4302 10.59Z" fill="#292454"/>
<path d="M11.8299 10.47C11.8299 10.47 11.7999 10.39 11.7499 10.39C11.6999 10.39 11.6699 10.42 11.6699 10.47C11.6699 10.52 11.6999 10.55 11.7499 10.55C11.7999 10.55 11.8299 10.52 11.8299 10.47Z" fill="white"/>
<path d="M11.7502 10.56C11.7502 10.56 11.6602 10.52 11.6602 10.47C11.6602 10.42 11.7002 10.38 11.7502 10.38C11.8002 10.38 11.8402 10.42 11.8402 10.47C11.8402 10.52 11.8002 10.56 11.7502 10.56ZM11.7502 10.4C11.7502 10.4 11.6802 10.43 11.6702 10.47C11.6602 10.51 11.7002 10.54 11.7402 10.55C11.7802 10.56 11.8102 10.52 11.8202 10.48C11.8302 10.44 11.7902 10.41 11.7502 10.4Z" fill="#292454"/>
<path d="M11.7902 10.4901C11.7902 10.4901 11.7702 10.4301 11.7402 10.4301C11.7102 10.4301 11.6802 10.4501 11.6802 10.4801C11.6802 10.5101 11.7002 10.5401 11.7302 10.5401C11.7602 10.5401 11.7902 10.5201 11.7902 10.4901Z" fill="#292454"/>
<path d="M12.27 10.83C12.27 10.83 12.21 10.8 12.18 10.78C12.24 10.88 12.23 10.93 12.23 10.93C12.18 10.93 12.13 10.9 12.1 10.87C12.14 10.95 12.12 11.02 12.12 11.02C12.05 11.02 12.01 10.97 11.99 10.93C12 11.01 11.98 11.07 11.97 11.07C11.91 11.05 11.88 11.01 11.86 10.97C11.86 11.07 11.82 11.1 11.82 11.11C11.78 11.09 11.76 11.05 11.74 11.01C11.74 11.04 11.74 11.07 11.72 11.1H11.71C11.75 11.01 11.72 10.9 11.72 10.9H11.74C11.74 10.9 11.74 11.06 11.82 11.1C11.83 11.08 11.86 11.03 11.85 10.92H11.86C11.86 10.95 11.89 11.05 11.97 11.08C11.97 11.06 12 10.98 11.97 10.88C11.97 10.88 12.01 11.02 12.11 11.02C12.11 11 12.12 10.92 12.05 10.83H12.06C12.06 10.83 12.15 10.93 12.23 10.93C12.23 10.91 12.23 10.85 12.14 10.74H12.15C12.15 10.74 12.23 10.82 12.28 10.82V10.84L12.27 10.83Z" fill="#292454"/>
<path d="M11.8298 10.9L11.8198 10.91L11.8298 10.9Z" fill="#292454"/>
<path d="M12.0901 11.02L12.0801 11.03L12.0901 11.02Z" fill="#292454"/>
<path d="M12.2701 11.0001C12.2701 11.0001 12.2401 10.9901 12.2201 10.9801C12.2601 11.0701 12.2501 11.1501 12.2501 11.1601C12.2001 11.1601 12.1601 11.1101 12.1301 11.0801C12.1501 11.1701 12.1301 11.2401 12.1301 11.2501C12.0701 11.2301 12.0301 11.1801 12.0101 11.1401C12.0201 11.2301 12.0001 11.2901 12.0001 11.2901C11.9301 11.2601 11.8901 11.1901 11.8601 11.1401C11.8601 11.1801 11.8601 11.2501 11.8201 11.3001H11.8101C11.8701 11.2101 11.8401 11.0901 11.8401 11.0901V11.0801H11.8601C11.8601 11.0801 11.8901 11.2301 12.0001 11.2701C12.0001 11.2401 12.0301 11.1501 11.9901 11.0601V11.0501H12.0101C12.0101 11.0501 12.0401 11.1701 12.1501 11.2201C12.1501 11.1901 12.1801 11.1101 12.1301 11.0201C12.1301 11.0301 12.1901 11.1301 12.2701 11.1401C12.2701 11.1101 12.2701 11.0201 12.2201 10.9301H12.2301C12.2301 10.9301 12.2801 10.9901 12.3101 10.9901V11.0101L12.2701 11.0001Z" fill="#292454"/>
<path d="M12.2997 10.9599H12.2797C12.2797 10.9599 12.2397 10.8499 12.2197 10.8199H12.2297C12.2297 10.8199 12.3097 10.8999 12.2997 10.9599Z" fill="#292454"/>
<path d="M11.9699 11.53H11.9499C11.9899 11.39 11.9199 11.29 11.9199 11.29H11.9299C11.9299 11.29 12.0099 11.39 11.9599 11.53H11.9699Z" fill="#292454"/>
<path d="M11.81 11.25H11.79C11.79 11.25 11.79 11.34 11.82 11.41H11.83C11.79 11.34 11.8 11.26 11.8 11.25H11.81Z" fill="#292454"/>
<path d="M12.3802 11.14H12.3702C12.4102 11.2 12.4102 11.25 12.4102 11.27C12.3302 11.27 12.2602 11.2 12.2302 11.16C12.2202 11.15 12.2102 11.14 12.2102 11.14C12.2102 11.14 12.2102 11.14 12.2002 11.14H12.1902C12.1902 11.14 12.2102 11.17 12.2102 11.18C12.2602 11.25 12.2602 11.36 12.2502 11.39C12.1302 11.36 12.0902 11.25 12.0902 11.25H12.0802C12.1402 11.37 12.1302 11.46 12.1202 11.48C12.0102 11.44 11.9502 11.3 11.9402 11.3H11.9302C11.9302 11.3 12.0002 11.46 12.1202 11.5C12.1202 11.5 12.1502 11.44 12.1202 11.34C12.1502 11.37 12.1902 11.41 12.2602 11.43C12.2602 11.43 12.2802 11.34 12.2502 11.26C12.2902 11.29 12.3402 11.33 12.4002 11.33C12.4002 11.33 12.4002 11.33 12.4102 11.33C12.4102 11.33 12.4102 11.26 12.3702 11.19L12.3802 11.14Z" fill="#292454"/>
<path d="M11.96 11.4501C11.96 11.5401 12.02 11.5901 12.02 11.5901C12.02 11.5901 11.96 11.5301 11.96 11.4501Z" fill="#292454"/>
<path d="M12.6602 11.4101C12.6602 11.4101 12.6402 11.2201 12.5102 11.1801V11.2001C12.6202 11.2301 12.6402 11.3601 12.6502 11.3901C12.5102 11.3901 12.4202 11.2901 12.4002 11.2701C12.4002 11.2701 12.4002 11.2701 12.3902 11.2701C12.4602 11.3301 12.4702 11.4401 12.4702 11.4701C12.3802 11.4701 12.3102 11.4001 12.3102 11.4001C12.3102 11.4001 12.2902 11.3801 12.2802 11.3701C12.3502 11.4301 12.3702 11.5601 12.3702 11.6001C12.2902 11.5801 12.2302 11.5201 12.2202 11.5201C12.2002 11.4801 12.1702 11.4501 12.1702 11.4501H12.1602C12.1602 11.4501 12.2402 11.5401 12.2302 11.6601H12.2502C12.2502 11.6601 12.2502 11.5901 12.2402 11.5601C12.2702 11.5801 12.3202 11.6201 12.3802 11.6301C12.3802 11.6301 12.3802 11.5401 12.3502 11.4701C12.3802 11.4901 12.4202 11.5101 12.4702 11.5101C12.4702 11.5101 12.4802 11.5101 12.4902 11.5101C12.4902 11.5101 12.4902 11.4201 12.4502 11.3501C12.5002 11.3901 12.5802 11.4301 12.6802 11.4401L12.6602 11.4101Z" fill="#292454"/>
<path d="M12.5401 11.37C12.6301 11.42 12.6401 11.53 12.6401 11.56C12.5001 11.56 12.4401 11.49 12.4401 11.48C12.4401 11.48 12.4401 11.48 12.4401 11.47H12.4301C12.5001 11.56 12.5001 11.66 12.5001 11.69C12.4301 11.69 12.3401 11.6 12.3401 11.6H12.3301C12.3301 11.6 12.4201 11.71 12.5101 11.71C12.5101 11.71 12.5201 11.62 12.4701 11.54C12.5001 11.56 12.5501 11.58 12.6301 11.58H12.6501C12.6501 11.58 12.6501 11.43 12.5401 11.38V11.37Z" fill="#292454"/>
<path d="M12.8898 11.67L12.8198 11.59C12.8198 11.59 12.8598 11.61 12.8898 11.66H12.8798L12.8898 11.67Z" fill="#292454"/>
<path d="M12.8898 11.41C12.8898 11.41 12.8698 11.28 12.7498 11.23V11.25C12.8398 11.29 12.8698 11.38 12.8698 11.41C12.7698 11.44 12.6398 11.38 12.6398 11.38V11.4C12.7898 11.45 12.8098 11.59 12.8198 11.62C12.7198 11.63 12.6198 11.57 12.6098 11.57C12.6098 11.57 12.6098 11.57 12.5998 11.57H12.5898C12.5898 11.57 12.6598 11.64 12.6698 11.71H12.6898C12.6798 11.66 12.6498 11.61 12.6298 11.59C12.6598 11.61 12.7198 11.63 12.7898 11.64C12.7998 11.64 12.8198 11.64 12.8298 11.64C12.8298 11.64 12.8298 11.51 12.7198 11.44C12.7398 11.44 12.7698 11.44 12.7898 11.44C12.8198 11.44 12.8498 11.44 12.8798 11.43L12.8898 11.41Z" fill="#292454"/>
<path d="M13.1098 11.42V11.41C13.1098 11.41 13.0398 11.23 12.9298 11.23V11.25C13.0198 11.25 13.0798 11.39 13.0998 11.42C12.9898 11.48 12.8898 11.4 12.8898 11.4C12.8898 11.4 12.8898 11.4 12.9098 11.41C12.8998 11.41 12.8898 11.41 12.8798 11.41V11.43C12.9898 11.44 13.0398 11.59 13.0598 11.63C12.9298 11.65 12.8398 11.54 12.8398 11.54C12.8398 11.54 12.9198 11.64 13.0298 11.64C13.0498 11.64 13.0598 11.64 13.0798 11.64V11.63C13.0798 11.63 13.0398 11.5 12.9498 11.44C12.9698 11.44 12.9998 11.46 13.0198 11.46C13.0498 11.46 13.0898 11.46 13.1298 11.43L13.1098 11.42Z" fill="#292454"/>
<path d="M13.0198 11.53H13.0098C13.0098 11.53 13.0598 11.6 13.1298 11.6C13.1398 11.6 13.1498 11.6 13.1698 11.6V11.58C13.0898 11.6 13.0298 11.53 13.0298 11.53H13.0198Z" fill="#292454"/>
<path d="M13.3098 11.4V11.39C13.2298 11.22 13.0798 11.22 13.0698 11.22V11.24C13.0698 11.24 13.2098 11.24 13.2898 11.39C13.2598 11.4 13.1698 11.44 13.0998 11.4V11.42C13.0998 11.42 13.2098 11.42 13.2598 11.57H13.2698C13.2498 11.49 13.1998 11.45 13.1598 11.43C13.1598 11.43 13.1598 11.43 13.1698 11.43C13.2398 11.43 13.3098 11.4 13.3098 11.4Z" fill="#292454"/>
<path d="M13.5 11.43V11.42C13.5 11.42 13.43 11.24 13.29 11.24V11.26C13.41 11.26 13.47 11.39 13.48 11.42C13.38 11.45 13.29 11.41 13.29 11.41C13.29 11.41 13.26 11.41 13.25 11.41V11.43C13.25 11.43 13.36 11.43 13.4 11.5C13.4 11.51 13.37 11.55 13.29 11.57V11.59C13.39 11.57 13.42 11.51 13.42 11.51C13.41 11.49 13.4 11.47 13.38 11.46C13.38 11.46 13.39 11.46 13.4 11.46C13.43 11.46 13.46 11.46 13.5 11.45V11.43Z" fill="#292454"/>
<path d="M13.6 11.3299H13.59C13.59 11.3299 13.51 11.3699 13.48 11.3699V11.3899C13.48 11.3899 13.55 11.4299 13.56 11.4699H13.58C13.58 11.4699 13.53 11.3999 13.5 11.3799C13.53 11.3799 13.58 11.3499 13.59 11.3199L13.6 11.3299Z" fill="#292454"/>
<path d="M13.4199 11.5C13.4199 11.5 13.4499 11.53 13.4799 11.53C13.4899 11.53 13.4999 11.53 13.5099 11.53V11.51L13.4199 11.5Z" fill="#292454"/>
<path d="M13.3297 10.47C13.3297 10.47 13.3597 10.69 13.1897 10.84C13.1897 10.84 13.2097 11.1 12.8797 11.23C12.8797 11.23 12.6497 11.28 12.2397 11.09L12.2497 11.05C12.2597 11.01 12.2797 10.98 12.2997 10.94C12.3797 10.81 12.4997 10.71 12.6197 10.63C12.6797 10.59 12.7497 10.55 12.8197 10.52C12.8897 10.49 12.9597 10.46 13.0297 10.43C13.1797 10.36 13.3097 10.23 13.4097 10.11L13.4197 10.09C13.4197 10.09 13.4797 10.31 13.3297 10.47Z" fill="#71C9ED"/>
<path d="M12.7797 11.24C12.6697 11.24 12.4897 11.21 12.2397 11.09C12.2397 11.09 12.2397 11.09 12.2397 11.04C12.2497 11 12.2697 10.97 12.2897 10.93C12.3697 10.79 12.5097 10.69 12.6197 10.62C12.6797 10.58 12.7497 10.54 12.8197 10.51C12.8497 10.49 12.8897 10.48 12.9197 10.47C12.9597 10.46 12.9897 10.44 13.0297 10.42C13.1897 10.34 13.3197 10.2 13.3997 10.1C13.3997 10.1 13.3997 10.1 13.3997 10.09C13.3997 10.09 13.4597 10.31 13.3097 10.47C13.3097 10.5 13.3297 10.7 13.1697 10.84C13.1697 10.87 13.1697 11.11 12.8597 11.24C12.8597 11.24 12.8197 11.24 12.7497 11.24H12.7797ZM12.2497 11.08C12.6497 11.27 12.8797 11.22 12.8797 11.22C13.1897 11.09 13.1797 10.84 13.1797 10.84C13.3497 10.69 13.3197 10.48 13.3197 10.48C13.4397 10.35 13.4197 10.18 13.4097 10.13C13.3297 10.23 13.1997 10.37 13.0297 10.46C12.9897 10.48 12.9597 10.49 12.9197 10.51C12.8897 10.52 12.8497 10.54 12.8197 10.55C12.7497 10.58 12.6897 10.62 12.6197 10.66C12.5097 10.73 12.3797 10.82 12.2997 10.96C12.2797 11 12.2597 11.03 12.2497 11.07C12.2497 11.09 12.2497 11.1 12.2397 11.11L12.2497 11.08Z" fill="#292454"/>
<path d="M12.3901 11.1601C12.3901 11.1601 12.3901 11.1601 12.3901 11.1501C12.3901 11.1501 12.4701 10.9401 12.6301 10.8201C12.7901 10.6901 12.9301 10.6301 13.1401 10.5301C13.3501 10.4401 13.4101 10.3101 13.4101 10.3101C13.4101 10.3101 13.4101 10.3101 13.4201 10.3101C13.4201 10.3101 13.4201 10.3101 13.4201 10.3201C13.4201 10.3201 13.3501 10.4601 13.1401 10.5501C12.9301 10.6501 12.7901 10.7101 12.6301 10.8401C12.4701 10.9701 12.3901 11.1701 12.3901 11.1701V11.1601Z" fill="#292454"/>
<path d="M12.5498 11.2099C12.5498 11.2099 12.5498 11.2099 12.5498 11.1999C12.5498 11.1999 12.7298 10.9199 13.0098 10.7699C13.0498 10.7499 13.0898 10.7299 13.1198 10.7099C13.2898 10.6199 13.3098 10.6099 13.3298 10.5699C13.3298 10.5699 13.3298 10.5699 13.3398 10.5699C13.3398 10.5699 13.3398 10.5699 13.3398 10.5799C13.3098 10.6199 13.2998 10.6299 13.1198 10.7199C13.0898 10.7399 13.0498 10.7599 13.0098 10.7799C12.7298 10.9299 12.5598 11.1999 12.5598 11.2099H12.5498Z" fill="#292454"/>
<path d="M12.7397 11.24C12.7397 11.24 12.7397 11.24 12.7397 11.23C12.7397 11.23 12.8497 11.08 12.9497 11C12.9897 10.96 13.0497 10.93 13.0897 10.9C13.1297 10.87 13.1697 10.85 13.1897 10.83C13.1897 10.83 13.1897 10.83 13.1997 10.83C13.1997 10.83 13.1997 10.83 13.1997 10.84C13.1697 10.86 13.1397 10.89 13.0897 10.91C13.0497 10.94 12.9897 10.97 12.9497 11C12.8497 11.08 12.7397 11.23 12.7397 11.23V11.24Z" fill="#292454"/>
<path d="M13.8899 9.58995C13.8899 9.66995 13.8299 9.72995 13.7499 9.72995C13.6699 9.72995 13.6099 9.66995 13.6099 9.58995C13.6099 9.50995 13.6699 9.44995 13.7499 9.44995C13.8299 9.44995 13.8899 9.50995 13.8899 9.58995ZM13.6399 9.58995C13.6399 9.64995 13.6799 9.69995 13.7499 9.69995C13.8199 9.69995 13.8499 9.64995 13.8499 9.58995C13.8499 9.52995 13.8099 9.47995 13.7499 9.47995C13.6899 9.47995 13.6399 9.52995 13.6399 9.58995ZM13.7199 9.65995H13.6899V9.51995C13.6899 9.51995 13.7199 9.51995 13.7399 9.51995C13.7699 9.51995 13.7799 9.51995 13.7899 9.51995C13.7899 9.51995 13.7999 9.53995 13.7999 9.54995C13.7999 9.55995 13.7899 9.57995 13.7699 9.57995C13.7699 9.57995 13.7899 9.59995 13.7899 9.60995C13.7899 9.62995 13.7899 9.63995 13.7899 9.63995H13.7599C13.7599 9.63995 13.7599 9.61995 13.7499 9.60995C13.7499 9.59995 13.7399 9.58995 13.7199 9.58995H13.7099V9.63995L13.7199 9.65995ZM13.7199 9.57995H13.7299C13.7299 9.57995 13.7599 9.57995 13.7599 9.55995C13.7599 9.54995 13.7599 9.53995 13.7299 9.53995C13.7299 9.53995 13.7199 9.53995 13.7099 9.53995V9.57995H13.7199Z" fill="#242657"/>
</g>
<defs>
<clipPath id="clip0_6720_37956">
<rect width="15.04" height="22.54" fill="white" transform="translate(0.959961)"/>
</clipPath>
</defs>
</svg>
