<svg width="24" height="24" viewBox="0 0 24 24" fill="none" xmlns="http://www.w3.org/2000/svg">
<path d="M13.8165 10.6145H21.9304V15.2757H13.8165C12.5626 15.2757 11.5449 14.258 11.5449 13.0041V12.886C11.5449 11.6321 12.5626 10.6145 13.8165 10.6145Z" fill="#232656" stroke="#232656" stroke-width="0.5" stroke-miterlimit="10"/>
<path d="M14.0811 13.9491C14.7084 13.9491 15.2169 13.4406 15.2169 12.8133C15.2169 12.1861 14.7084 11.6776 14.0811 11.6776C13.4538 11.6776 12.9453 12.1861 12.9453 12.8133C12.9453 13.4406 13.4538 13.9491 14.0811 13.9491Z" fill="white" stroke="white" stroke-width="0.5" stroke-miterlimit="10"/>
<path d="M20.6586 15.412C20.6586 16.475 20.6586 17.5472 20.6586 18.6103C20.6586 19.6098 19.8409 20.4275 18.8414 20.4275H3.29499C2.61353 20.4275 2.06836 19.8733 2.06836 19.2009V6.01687C2.06836 5.01739 2.88611 4.19963 3.88559 4.19963H16.1247C17.0787 4.19963 18.0873 4.09969 19.0322 4.1542C19.1231 4.1542 19.3048 4.18146 19.4684 4.30867C19.9954 4.72663 19.7319 5.8624 19.641 6.11681L19.5411 6.39849" stroke="#232656" stroke-width="0.5" stroke-miterlimit="10"/>
<mask id="mask0_6387_77893" style="mask-type:luminance" maskUnits="userSpaceOnUse" x="2" y="15" width="19" height="6">
<path d="M2.57735 15.4574H20.1137C20.3681 15.4574 20.568 15.6664 20.568 15.9117V18.6466C20.568 19.6007 19.7956 20.3639 18.8507 20.3639H3.19521C2.60461 20.3639 2.12305 19.8824 2.12305 19.2918V15.9117C2.12305 15.6573 2.33203 15.4574 2.57735 15.4574Z" fill="white"/>
</mask>
<g mask="url(#mask0_6387_77893)">
<path d="M10.3103 18.9192C10.3103 18.9919 10.2467 19.0555 10.1649 19.0555C10.0831 19.0555 10.0195 18.9919 10.0195 18.9192C10.0195 18.8465 10.0831 18.7829 10.1649 18.7829C10.2467 18.7829 10.3103 18.8465 10.3103 18.9192Z" fill="#232656"/>
<path d="M7.09154 18.9192C7.09154 18.9919 7.02794 19.0555 6.94616 19.0555C6.86438 19.0555 6.80078 18.9919 6.80078 18.9192C6.80078 18.8465 6.86438 18.7829 6.94616 18.7829C7.02794 18.7829 7.09154 18.8465 7.09154 18.9192Z" fill="#232656"/>
<path d="M3.75755 18.9192C3.75755 18.9919 3.69395 19.0555 3.61218 19.0555C3.5304 19.0555 3.4668 18.9919 3.4668 18.9192C3.4668 18.8465 3.5304 18.7829 3.61218 18.7829C3.69395 18.7829 3.75755 18.8465 3.75755 18.9192Z" fill="#232656"/>
<path d="M13.5173 19.0373C13.5173 19.11 13.4537 19.1736 13.3719 19.1736C13.2902 19.1736 13.2266 19.11 13.2266 19.0373C13.2266 18.9647 13.2902 18.9011 13.3719 18.9011C13.4537 18.9011 13.5173 18.9647 13.5173 19.0373Z" fill="#232656"/>
<path d="M16.7263 18.9192C16.7263 18.9919 16.6627 19.0555 16.5809 19.0555C16.4991 19.0555 16.4355 18.9919 16.4355 18.9192C16.4355 18.8465 16.4991 18.7829 16.5809 18.7829C16.6627 18.7829 16.7263 18.8465 16.7263 18.9192Z" fill="#232656"/>
<path d="M20.0603 18.9192C20.0603 18.9919 19.9967 19.0555 19.9149 19.0555C19.8331 19.0555 19.7695 18.9919 19.7695 18.9192C19.7695 18.8465 19.8331 18.7829 19.9149 18.7829C19.9967 18.7829 20.0603 18.8465 20.0603 18.9192Z" fill="#232656"/>
<path d="M3.76664 20.8909L3.67578 20.8091C3.84842 20.6093 4.33907 20.1459 5.1114 20.0913C6.08361 20.0187 6.71965 20.6638 6.83777 20.791L6.7469 20.8728C6.63787 20.7546 6.03818 20.1459 5.12048 20.2185C4.39359 20.2731 3.93019 20.7092 3.76664 20.8909Z" fill="#232656"/>
<path d="M7.01078 20.8909L6.91992 20.8091C7.09256 20.6093 7.58321 20.1459 8.35554 20.0913C9.32776 20.0187 9.96379 20.6638 10.0819 20.791L9.99105 20.8728C9.88201 20.7546 9.27324 20.1459 8.36462 20.2185C7.63773 20.2731 7.17433 20.7092 7.01078 20.8909Z" fill="#232656"/>
<path d="M10.208 20.8909L10.1172 20.8091C10.2898 20.6093 10.7805 20.1459 11.5528 20.0913C12.525 20.0187 13.1611 20.6638 13.2792 20.791L13.1883 20.8728C13.0793 20.7546 12.4796 20.1459 11.5619 20.2185C10.835 20.2731 10.3716 20.7092 10.208 20.8909Z" fill="#232656"/>
<path d="M16.5066 20.8637C16.3976 20.7455 15.7888 20.1549 14.8711 20.2095C14.0806 20.2549 13.6172 20.7001 13.4991 20.8364L13.4082 20.7546C13.5354 20.6093 14.0261 20.1368 14.8711 20.0823C15.8433 20.0277 16.4793 20.6547 16.5974 20.7819L16.5066 20.8637Z" fill="#232656"/>
<path d="M16.669 20.8909L16.5781 20.8091C16.7689 20.6002 17.2868 20.1277 18.1137 20.0822C19.0768 20.0368 19.7219 20.6547 19.8401 20.7819L19.7492 20.8637C19.6402 20.7455 19.0314 20.164 18.1137 20.2095C17.3141 20.2458 16.7962 20.7455 16.6599 20.8909H16.669Z" fill="#232656"/>
<path d="M23.0117 20.8728C22.8936 20.7546 22.2757 20.155 21.3489 20.2095C20.9673 20.2276 20.4221 20.3639 19.9678 20.8637L19.9133 20.8273L19.877 20.7819C20.3585 20.2458 20.94 20.1095 21.3398 20.0913C22.3211 20.0368 22.9753 20.6638 23.0935 20.791L23.0026 20.8728H23.0117Z" fill="#232656"/>
<path d="M3.16695 20.4548L3.04883 20.4094C3.15786 20.1459 3.41227 19.9732 3.69395 19.9641C3.96653 19.9641 4.22094 20.1095 4.34815 20.3458L4.23912 20.4003C4.13917 20.2004 3.9211 20.0732 3.69395 20.0823C3.45771 20.0823 3.24872 20.2367 3.15786 20.4548H3.16695Z" fill="#232656"/>
<path d="M2.78677 20.2821L2.67773 20.2276C2.67773 20.2276 2.96849 19.637 3.58635 19.5643C4.04975 19.5098 4.51314 19.7552 4.74938 20.1822L4.64035 20.2458C4.43136 19.8642 4.0134 19.6461 3.60452 19.6915C3.05027 19.7552 2.80494 20.264 2.79585 20.2821H2.78677Z" fill="#232656"/>
<path d="M2.19497 20.1913L2.08594 20.1368C2.08594 20.1368 2.51299 19.2009 3.48521 19.0828C4.23027 18.9919 4.95717 19.4008 5.30244 20.1095L5.19341 20.164C4.87539 19.5098 4.19393 19.1282 3.50338 19.21C2.60385 19.319 2.22223 20.1549 2.20406 20.1913H2.19497Z" fill="#232656"/>
<path d="M6.39156 20.4275L6.27344 20.3821C6.38247 20.1186 6.63688 19.946 6.91856 19.9369C7.18205 19.9369 7.44555 20.0823 7.57276 20.3185L7.46373 20.373C7.36378 20.1731 7.14571 20.0459 6.91856 20.055C6.68231 20.055 6.47333 20.2095 6.38247 20.4275H6.39156Z" fill="#232656"/>
<path d="M6.00942 20.2731L5.90039 20.2186C5.90039 20.2186 6.18206 19.6189 6.80901 19.5462C7.28149 19.4917 7.75397 19.7461 7.98112 20.1913L7.87209 20.2458C7.67219 19.846 7.24514 19.6189 6.82718 19.6643C6.27292 19.7279 6.0276 20.2458 6.01851 20.264L6.00942 20.2731Z" fill="#232656"/>
<path d="M5.42935 20.1731L5.32031 20.1277C5.57473 19.5462 6.10172 19.1373 6.7105 19.0646C7.44647 18.9737 8.19154 19.4099 8.50956 20.1186L8.40052 20.1731C8.10068 19.5189 7.41013 19.11 6.72867 19.1918C6.16533 19.2554 5.67467 19.637 5.43843 20.1822L5.42935 20.1731Z" fill="#232656"/>
<path d="M9.61812 20.4457L9.5 20.4003C9.60903 20.1368 9.86345 19.9641 10.1451 19.955C10.4177 19.955 10.6721 20.1004 10.7993 20.3367L10.6903 20.3912C10.5903 20.1913 10.3814 20.0641 10.1451 20.0732C9.90888 20.0732 9.6999 20.2276 9.60903 20.4457H9.61812Z" fill="#232656"/>
<path d="M9.23599 20.2822L9.12695 20.2276C9.12695 20.2276 9.41771 19.637 10.0447 19.5643C10.508 19.5098 10.9533 19.7552 11.1895 20.1731L11.0805 20.2367C10.8715 19.8642 10.4717 19.6461 10.0628 19.6916C9.49949 19.7552 9.25416 20.264 9.24507 20.2822H9.23599Z" fill="#232656"/>
<path d="M11.635 20.1731C11.3261 19.5189 10.6355 19.1191 9.95404 19.2009C9.08177 19.3099 8.70015 20.1368 8.69107 20.1731L8.58203 20.1186C8.58203 20.1186 8.99999 19.1918 9.94496 19.0737C10.6809 18.9828 11.426 19.4099 11.7531 20.1095L11.6441 20.164L11.635 20.1731Z" fill="#232656"/>
<path d="M12.8544 20.4003L12.7363 20.3549C12.8454 20.0914 13.0998 19.9187 13.3814 19.9096C13.654 19.9096 13.9084 20.055 14.0356 20.2912L13.9266 20.3458C13.8267 20.1459 13.6086 20.0187 13.3814 20.0277C13.1452 20.0277 12.9362 20.1822 12.8454 20.4003H12.8544Z" fill="#232656"/>
<path d="M12.4723 20.264L12.3633 20.2185C12.5268 19.8369 12.8812 19.5734 13.281 19.528C13.7716 19.4735 14.2441 19.7461 14.4531 20.2095L14.3441 20.264C14.1533 19.8551 13.7262 19.6007 13.2901 19.6552C12.9357 19.6915 12.6268 19.9369 12.4723 20.2731V20.264Z" fill="#232656"/>
<path d="M11.8818 20.164L11.7637 20.1186C12.0181 19.528 12.5542 19.1191 13.1629 19.0464C13.908 18.9556 14.6622 19.4008 14.9802 20.1186L14.8711 20.1731C14.5713 19.5007 13.8717 19.0919 13.1811 19.1736C12.6178 19.2372 12.118 19.6279 11.8818 20.1731V20.164Z" fill="#232656"/>
<path d="M16.1416 20.4184L16.0234 20.373C16.1325 20.1095 16.3869 19.9369 16.6686 19.9278C16.9411 19.9278 17.1956 20.0732 17.3228 20.3094L17.2137 20.3639C17.1138 20.164 16.8957 20.0368 16.6686 20.0459C16.4323 20.0459 16.2233 20.2004 16.1325 20.4184H16.1416Z" fill="#232656"/>
<path d="M15.7516 20.2912L15.6426 20.2367C15.6426 20.2367 15.9333 19.628 16.5603 19.5371C17.0509 19.4644 17.5416 19.7188 17.796 20.164L17.687 20.2276C17.4598 19.8278 17.0146 19.6007 16.5785 19.6552C16.0151 19.737 15.7607 20.264 15.7516 20.2822V20.2912Z" fill="#232656"/>
<path d="M18.168 20.164C17.8591 19.4917 17.1776 19.0919 16.4689 19.1736C15.5875 19.2736 15.1878 20.1004 15.1696 20.1277L15.0605 20.0732C15.0605 20.0732 15.5058 19.1555 16.4507 19.0464C17.2049 18.9647 17.9409 19.3826 18.268 20.1095L18.1589 20.164H18.168Z" fill="#232656"/>
<path d="M19.3935 20.4184L19.2754 20.373C19.3844 20.1095 19.6388 19.9369 19.9205 19.9278C20.1931 19.9278 20.4475 20.0732 20.5747 20.3094L20.4657 20.3639C20.3657 20.164 20.1477 20.0368 19.9205 20.0459C19.6843 20.0459 19.4753 20.2004 19.3844 20.4184H19.3935Z" fill="#232656"/>
<path d="M19.04 20.2912L18.9219 20.2458C19.0673 19.8551 19.4125 19.5825 19.8123 19.5371C20.2757 19.4826 20.7391 19.7461 20.939 20.1822L20.83 20.2367C20.6573 19.846 20.2394 19.6098 19.8305 19.6643C19.4761 19.7097 19.1763 19.946 19.04 20.2912Z" fill="#232656"/>
<path d="M18.4411 20.1459L18.332 20.0913C18.332 20.0913 18.7591 19.1646 19.7131 19.0464C20.4582 18.9556 21.1851 19.3735 21.5213 20.0823L21.4122 20.1368C21.0942 19.4735 20.4218 19.0919 19.7313 19.1736C18.8499 19.2827 18.4683 20.1095 18.4502 20.1459H18.4411Z" fill="#232656"/>
<path d="M7.01078 20.8909L6.91992 20.8091C7.09256 20.6093 7.58321 20.1459 8.35554 20.0913C9.32776 20.0187 9.96379 20.6638 10.0819 20.791L9.99105 20.8728C9.88201 20.7546 9.27324 20.1459 8.36462 20.2185C7.63773 20.2731 7.17433 20.7092 7.01078 20.8909Z" fill="#232656"/>
<path d="M3.16695 20.4548L3.04883 20.4094C3.15786 20.1459 3.41227 19.9732 3.69395 19.9641C3.96653 19.9641 4.22094 20.1095 4.34815 20.3458L4.23912 20.4003C4.13917 20.2004 3.9211 20.0732 3.69395 20.0823C3.45771 20.0823 3.24872 20.2367 3.15786 20.4548H3.16695Z" fill="#232656"/>
<path d="M6.39156 20.4275L6.27344 20.3821C6.38247 20.1186 6.63688 19.946 6.91856 19.9369C7.18205 19.9369 7.44555 20.0823 7.57276 20.3185L7.46373 20.373C7.36378 20.1731 7.14571 20.0459 6.91856 20.055C6.68231 20.055 6.47333 20.2095 6.38247 20.4275H6.39156Z" fill="#232656"/>
<path d="M3.62929 20.9091C3.51117 20.7819 2.89331 20.164 1.93018 20.2276C1.1306 20.2822 0.612684 20.7819 0.512737 20.8818L0.421875 20.8001C0.521823 20.691 1.07608 20.155 1.92109 20.1004C2.92966 20.0368 3.59295 20.691 3.71107 20.8182L3.6202 20.9L3.62929 20.9091Z" fill="#232656"/>
<path d="M3.82982 17.2201C3.82982 17.2928 3.76622 17.3564 3.68444 17.3564C3.60267 17.3564 3.53906 17.2928 3.53906 17.2201C3.53906 17.1474 3.60267 17.0838 3.68444 17.0838C3.76622 17.0838 3.82982 17.1474 3.82982 17.2201Z" fill="#232656"/>
<path d="M7.05638 17.1929C7.05638 17.2655 6.99278 17.3291 6.911 17.3291C6.82923 17.3291 6.76562 17.2655 6.76562 17.1929C6.76562 17.1202 6.82923 17.0566 6.911 17.0566C6.99278 17.0566 7.05638 17.1202 7.05638 17.1929Z" fill="#232656"/>
<path d="M10.238 17.1838C10.238 17.2565 10.1744 17.3201 10.0926 17.3201C10.0109 17.3201 9.94727 17.2565 9.94727 17.1838C9.94727 17.1111 10.0109 17.0475 10.0926 17.0475C10.1744 17.0475 10.238 17.1111 10.238 17.1838Z" fill="#232656"/>
<path d="M13.5173 17.1747C13.5173 17.2474 13.4537 17.311 13.3719 17.311C13.2902 17.311 13.2266 17.2474 13.2266 17.1747C13.2266 17.102 13.2902 17.0384 13.3719 17.0384C13.4537 17.0384 13.5173 17.102 13.5173 17.1747Z" fill="#232656"/>
<path d="M16.8161 17.1838C16.8161 17.2565 16.7525 17.3201 16.6708 17.3201C16.589 17.3201 16.5254 17.2565 16.5254 17.1838C16.5254 17.1111 16.589 17.0475 16.6708 17.0475C16.7525 17.0475 16.8161 17.1111 16.8161 17.1838Z" fill="#232656"/>
<path d="M20.0603 17.1838C20.0603 17.2565 19.9967 17.3201 19.9149 17.3201C19.8331 17.3201 19.7695 17.2565 19.7695 17.1838C19.7695 17.1111 19.8331 17.0475 19.9149 17.0475C19.9967 17.0475 20.0603 17.1111 20.0603 17.1838Z" fill="#232656"/>
<path d="M5.42943 19.946C5.42943 20.0187 5.36583 20.0823 5.28405 20.0823C5.20227 20.0823 5.13867 20.0187 5.13867 19.946C5.13867 19.8733 5.20227 19.8097 5.28405 19.8097C5.36583 19.8097 5.42943 19.8733 5.42943 19.946Z" fill="#232656"/>
<path d="M5.73886 19.5553C5.67526 19.5007 5.52988 19.3917 5.32999 19.3735C5.03014 19.3372 4.81207 19.5007 4.75756 19.5462L4.67578 19.4462C4.76664 19.3735 5.01197 19.21 5.33907 19.2463C5.57531 19.2736 5.73886 19.3917 5.82064 19.4553L5.73886 19.5462V19.5553Z" fill="#232656"/>
<path d="M6.13797 19.2827C6.05619 19.1918 5.74726 18.9101 5.27478 18.892C4.72961 18.8738 4.40251 19.2009 4.33891 19.2645L4.24805 19.1827C4.31165 19.11 4.66601 18.7557 5.27478 18.7738C5.78361 18.792 6.10162 19.0737 6.21974 19.2009L6.12888 19.2827H6.13797Z" fill="#232656"/>
<path d="M3.76664 19.1464L3.67578 19.0646C3.84842 18.8647 4.33907 18.4013 5.1114 18.3468C6.08361 18.2741 6.71965 18.9192 6.83777 19.0464L6.7469 19.1282C6.63787 19.0101 6.03818 18.4013 5.12048 18.474C4.39359 18.5285 3.93019 18.9647 3.76664 19.1464Z" fill="#232656"/>
<path d="M8.6638 19.9641C8.6638 20.0368 8.6002 20.1004 8.51843 20.1004C8.43665 20.1004 8.37305 20.0368 8.37305 19.9641C8.37305 19.8915 8.43665 19.8279 8.51843 19.8279C8.6002 19.8279 8.6638 19.8915 8.6638 19.9641Z" fill="#232656"/>
<path d="M8.97324 19.5553C8.90963 19.5007 8.76425 19.3917 8.56436 19.3735C8.2736 19.3372 8.04645 19.5007 7.99193 19.5462L7.91016 19.4462C8.00102 19.3735 8.24634 19.21 8.57345 19.2463C8.79151 19.2736 8.95507 19.3735 9.05501 19.4553L8.97324 19.5462V19.5553Z" fill="#232656"/>
<path d="M9.37302 19.2827C9.29125 19.1918 8.98232 18.9101 8.50984 18.892C8.00101 18.8738 7.67391 19.1736 7.58305 19.2645L7.49219 19.1736C7.59214 19.0737 7.95558 18.7466 8.50984 18.7648C9.01866 18.7829 9.34576 19.0646 9.4548 19.1918L9.36394 19.2736L9.37302 19.2827Z" fill="#232656"/>
<path d="M7.01078 19.1464L6.91992 19.0646C7.09256 18.8647 7.58321 18.4013 8.35554 18.3468C9.32776 18.2741 9.96379 18.9192 10.0819 19.0464L9.99105 19.1282C9.88201 19.0101 9.27324 18.4013 8.36462 18.474C7.63773 18.5285 7.17433 18.9647 7.01078 19.1464Z" fill="#232656"/>
<path d="M11.8181 19.9732C11.8181 20.0459 11.7545 20.1095 11.6727 20.1095C11.5909 20.1095 11.5273 20.0459 11.5273 19.9732C11.5273 19.9005 11.5909 19.8369 11.6727 19.8369C11.7545 19.8369 11.8181 19.9005 11.8181 19.9732Z" fill="#232656"/>
<path d="M12.1817 19.5553C12.1181 19.5007 11.9727 19.3917 11.7728 19.3735C11.5729 19.3463 11.4003 19.4008 11.2458 19.528L11.2004 19.4826L11.1641 19.4281C11.3458 19.2827 11.5548 19.2191 11.791 19.2463C12.0272 19.2736 12.1908 19.3917 12.2726 19.4553L12.1908 19.5462L12.1817 19.5553Z" fill="#232656"/>
<path d="M12.5801 19.2827C12.4983 19.1918 12.1893 18.9101 11.7169 18.892C11.208 18.8738 10.8809 19.1736 10.7901 19.2645L10.6992 19.1736C10.7992 19.0737 11.1626 18.7466 11.7169 18.7648C12.2257 18.7829 12.5528 19.0646 12.6618 19.1918L12.571 19.2736L12.5801 19.2827Z" fill="#232656"/>
<path d="M10.208 19.1464L10.1172 19.0646C10.2898 18.8647 10.7805 18.4013 11.5528 18.3468C12.525 18.2741 13.1611 18.9192 13.2792 19.0464L13.1883 19.1282C13.0793 19.0101 12.4796 18.4013 11.5619 18.474C10.835 18.5285 10.3716 18.9647 10.208 19.1464Z" fill="#232656"/>
<path d="M15.1345 19.9641C15.1345 20.0368 15.0709 20.1004 14.9891 20.1004C14.9074 20.1004 14.8438 20.0368 14.8438 19.9641C14.8438 19.8914 14.9074 19.8278 14.9891 19.8278C15.0709 19.8278 15.1345 19.8914 15.1345 19.9641Z" fill="#232656"/>
<path d="M15.4889 19.5553C15.4071 19.4826 15.2708 19.3917 15.08 19.3735C14.7892 19.3372 14.5621 19.5007 14.5076 19.5462L14.4258 19.4462C14.5166 19.3735 14.762 19.21 15.0891 19.2463C15.3071 19.2736 15.4707 19.3735 15.5706 19.4553L15.4889 19.5462V19.5553Z" fill="#232656"/>
<path d="M15.8886 19.2827C15.8069 19.1918 15.4979 18.9101 15.0255 18.892C14.5257 18.8738 14.1895 19.1736 14.0987 19.2645L14.0078 19.1736C14.1078 19.0737 14.4803 18.7466 15.0255 18.7648C15.5343 18.7829 15.8614 19.0646 15.9704 19.1918L15.8796 19.2736L15.8886 19.2827Z" fill="#232656"/>
<path d="M16.5066 19.1282C16.3976 19.0101 15.7888 18.4195 14.8711 18.474C14.1169 18.5194 13.6626 18.9374 13.4991 19.1191L13.4082 19.0373C13.5808 18.8465 14.0624 18.4013 14.862 18.3559C15.8342 18.3014 16.4702 18.9283 16.5884 19.0555L16.4975 19.1373L16.5066 19.1282Z" fill="#232656"/>
<path d="M18.3767 19.9641C18.3767 20.0368 18.3131 20.1004 18.2313 20.1004C18.1495 20.1004 18.0859 20.0368 18.0859 19.9641C18.0859 19.8914 18.1495 19.8278 18.2313 19.8278C18.3131 19.8278 18.3767 19.8914 18.3767 19.9641Z" fill="#232656"/>
<path d="M18.7408 19.5553C18.659 19.4826 18.5227 19.3917 18.3319 19.3735C18.0412 19.3372 17.814 19.5007 17.7595 19.5462L17.6777 19.4462C17.7686 19.3735 18.0139 19.21 18.341 19.2463C18.5591 19.2736 18.7226 19.3735 18.8226 19.4553L18.7408 19.5462V19.5553Z" fill="#232656"/>
<path d="M19.1406 19.2827C19.0588 19.1918 18.7499 18.9101 18.2774 18.892C17.7777 18.8738 17.4415 19.1736 17.3506 19.2645L17.2598 19.1736C17.3597 19.0737 17.7322 18.7466 18.2774 18.7648C18.7862 18.7829 19.1133 19.0646 19.2224 19.1918L19.1315 19.2736L19.1406 19.2827Z" fill="#232656"/>
<path d="M19.75 19.1282C19.6409 19.0101 19.0322 18.4286 18.1145 18.474C17.3694 18.5103 16.9151 18.892 16.7061 19.1191L16.6152 19.0373C16.8333 18.8011 17.324 18.3922 18.1054 18.3559C19.0503 18.3105 19.6682 18.8738 19.8317 19.0555L19.7409 19.1373L19.75 19.1282Z" fill="#232656"/>
<path d="M22.375 19.2827C22.2932 19.1918 21.9843 18.9101 21.5118 18.892C21.003 18.8738 20.6759 19.1736 20.585 19.2645L20.4941 19.1736C20.5941 19.0737 20.9575 18.7466 21.5118 18.7648C22.0297 18.7829 22.3659 19.0919 22.4568 19.1918L22.3659 19.2736L22.375 19.2827Z" fill="#232656"/>
<path d="M19.9327 19.1555L19.8418 19.0737C20.2325 18.6376 20.7686 18.3831 21.3501 18.3559C22.3314 18.3014 22.9856 18.9283 23.1037 19.0555L23.0129 19.1373C22.8947 19.0192 22.2769 18.4195 21.3501 18.474C20.8049 18.5013 20.2961 18.7466 19.9236 19.1555H19.9327Z" fill="#232656"/>
<path d="M2.18724 20.0277C2.18724 20.1004 2.12364 20.164 2.04186 20.164C1.96009 20.164 1.89648 20.1004 1.89648 20.0277C1.89648 19.9551 1.96009 19.8914 2.04186 19.8914C2.12364 19.8914 2.18724 19.9551 2.18724 20.0277Z" fill="#232656"/>
<path d="M3.16695 18.7103L3.04883 18.6648C3.15786 18.4013 3.41227 18.2287 3.69395 18.2196C3.96653 18.2196 4.22094 18.365 4.34815 18.6012L4.23912 18.6557C4.13917 18.4558 3.9211 18.3286 3.69395 18.3377C3.45771 18.3377 3.24872 18.4922 3.15786 18.7103H3.16695Z" fill="#232656"/>
<path d="M2.78677 18.5467L2.67773 18.4922C2.67773 18.4922 2.96849 17.9016 3.58635 17.8289C4.04975 17.7744 4.51314 18.0197 4.74938 18.4467L4.64035 18.5103C4.43136 18.1287 4.0134 17.9107 3.60452 17.9561C3.05027 18.0197 2.80494 18.5285 2.79585 18.5467H2.78677Z" fill="#232656"/>
<path d="M2.19497 18.4467L2.08594 18.3922C2.08594 18.3922 2.51299 17.4564 3.48521 17.3382C4.23027 17.2474 4.95717 17.6563 5.30244 18.365L5.19341 18.4195C4.87539 17.7653 4.19393 17.3837 3.50338 17.4654C2.60385 17.5745 2.22223 18.4104 2.20406 18.4467H2.19497Z" fill="#232656"/>
<path d="M6.39156 18.6921L6.27344 18.6466C6.38247 18.3831 6.63688 18.2105 6.91856 18.2014C7.18205 18.2014 7.44555 18.3468 7.57276 18.583L7.46373 18.6376C7.36378 18.4377 7.14571 18.3105 6.91856 18.3195C6.68231 18.3195 6.47333 18.474 6.38247 18.6921H6.39156Z" fill="#232656"/>
<path d="M6.00942 18.5285L5.90039 18.474C5.90039 18.474 6.18206 17.8743 6.80901 17.8016C7.28149 17.7471 7.75397 18.0015 7.98112 18.4468L7.87209 18.5013C7.67219 18.1015 7.24514 17.8743 6.82718 17.9198C6.27292 17.9834 6.0276 18.5013 6.01851 18.5194L6.00942 18.5285Z" fill="#232656"/>
<path d="M5.42935 18.4377L5.32031 18.3922C5.57473 17.8107 6.10172 17.4018 6.7105 17.3291C7.44647 17.2383 8.19154 17.6744 8.50956 18.3831L8.40052 18.4377C8.10068 17.7835 7.41013 17.3746 6.72867 17.4564C6.16533 17.52 5.67467 17.9016 5.43843 18.4467L5.42935 18.4377Z" fill="#232656"/>
<path d="M9.61812 18.7103L9.5 18.6648C9.60903 18.4013 9.86345 18.2287 10.1451 18.2196C10.4177 18.2196 10.6721 18.365 10.7993 18.6012L10.6903 18.6557C10.5903 18.4558 10.3814 18.3286 10.1451 18.3377C9.90888 18.3377 9.6999 18.4922 9.60903 18.7103H9.61812Z" fill="#232656"/>
<path d="M9.23599 18.5467L9.12695 18.4922C9.12695 18.4922 9.41771 17.9016 10.0447 17.8289C10.508 17.7744 10.9533 18.0197 11.1895 18.4377L11.0805 18.5013C10.8715 18.1287 10.4717 17.9107 10.0628 17.9561C9.50857 18.0197 9.25416 18.5285 9.24507 18.5467H9.23599Z" fill="#232656"/>
<path d="M11.635 18.4377C11.3261 17.7835 10.6355 17.3837 9.95404 17.4654C9.08177 17.5745 8.70015 18.4013 8.69107 18.4377L8.58203 18.3831C8.58203 18.3831 8.99999 17.4563 9.94496 17.3382C10.6809 17.2474 11.426 17.6744 11.7531 18.3741L11.6441 18.4286L11.635 18.4377Z" fill="#232656"/>
<path d="M12.8544 18.6648L12.7363 18.6194C12.8454 18.3559 13.0998 18.1832 13.3814 18.1742C13.654 18.1742 13.9084 18.3195 14.0356 18.5558L13.9266 18.6103C13.8267 18.4104 13.6086 18.2832 13.3814 18.2923C13.1452 18.2923 12.9362 18.4467 12.8454 18.6648H12.8544Z" fill="#232656"/>
<path d="M12.4723 18.5285L12.3633 18.4831C12.5268 18.1015 12.8812 17.838 13.281 17.7925C13.7626 17.738 14.2441 18.0197 14.4531 18.474L14.3441 18.5285C14.1533 18.1196 13.7262 17.8652 13.2901 17.9197C12.9357 17.9561 12.6268 18.2014 12.4723 18.5376V18.5285Z" fill="#232656"/>
<path d="M11.8818 18.4195L11.7637 18.3741C12.0181 17.7835 12.5542 17.3746 13.1629 17.3019C13.908 17.211 14.6622 17.6562 14.9802 18.3741L14.8711 18.4286C14.5713 17.7562 13.8717 17.3473 13.1811 17.4291C12.6178 17.4927 12.118 17.8834 11.8818 18.4286V18.4195Z" fill="#232656"/>
<path d="M16.1416 18.683L16.0234 18.6376C16.1325 18.3741 16.3869 18.2014 16.6686 18.1923C16.9411 18.1923 17.1956 18.3377 17.3228 18.574L17.2137 18.6285C17.1138 18.4286 16.8957 18.3014 16.6686 18.3105C16.4323 18.3105 16.2233 18.4649 16.1325 18.683H16.1416Z" fill="#232656"/>
<path d="M15.7516 18.5467L15.6426 18.4922C15.6426 18.4922 15.9333 17.8834 16.5603 17.7925C17.0509 17.7199 17.5416 17.9743 17.796 18.4195L17.687 18.4831C17.4598 18.0833 17.0146 17.8561 16.5785 17.9107C16.0151 17.9924 15.7607 18.5194 15.7516 18.5376V18.5467Z" fill="#232656"/>
<path d="M18.168 18.4286C17.8591 17.7562 17.1776 17.3564 16.4689 17.4382C15.5875 17.5381 15.1878 18.365 15.1696 18.3922L15.0605 18.3377C15.0605 18.3377 15.5058 17.42 16.4507 17.311C17.2049 17.2292 17.9409 17.6472 18.268 18.3741L18.1589 18.4286H18.168Z" fill="#232656"/>
<path d="M19.3935 18.683L19.2754 18.6376C19.3844 18.3741 19.6388 18.2014 19.9205 18.1923C20.1931 18.1923 20.4475 18.3377 20.5747 18.574L20.4657 18.6285C20.3657 18.4286 20.1567 18.3014 19.9205 18.3105C19.6843 18.3105 19.4753 18.4649 19.3844 18.683H19.3935Z" fill="#232656"/>
<path d="M19.04 18.5467L18.9219 18.5013C19.0673 18.1106 19.4125 17.838 19.8123 17.7925C20.2757 17.738 20.7391 18.0015 20.939 18.4377L20.83 18.4922C20.6573 18.1015 20.2394 17.8652 19.8305 17.9198C19.4761 17.9652 19.1763 18.2014 19.04 18.5467Z" fill="#232656"/>
<path d="M18.4411 18.4013L18.332 18.3468C18.332 18.3468 18.7591 17.42 19.7131 17.3019C20.4582 17.211 21.1851 17.629 21.5213 18.3377L21.4122 18.3922C21.0942 17.7289 20.4218 17.3473 19.7313 17.4291C18.8499 17.5381 18.4683 18.365 18.4502 18.4013H18.4411Z" fill="#232656"/>
<path d="M13.5173 17.1747C13.5173 17.2474 13.4537 17.311 13.3719 17.311C13.2902 17.311 13.2266 17.2474 13.2266 17.1747C13.2266 17.102 13.2902 17.0384 13.3719 17.0384C13.4537 17.0384 13.5173 17.102 13.5173 17.1747Z" fill="#232656"/>
<path d="M20.0603 17.1838C20.0603 17.2565 19.9967 17.3201 19.9149 17.3201C19.8331 17.3201 19.7695 17.2565 19.7695 17.1838C19.7695 17.1111 19.8331 17.0475 19.9149 17.0475C19.9967 17.0475 20.0603 17.1111 20.0603 17.1838Z" fill="#232656"/>
<path d="M5.73886 19.5553C5.67526 19.5007 5.52988 19.3917 5.32999 19.3735C5.03014 19.3372 4.81207 19.5007 4.75756 19.5462L4.67578 19.4462C4.76664 19.3735 5.01197 19.21 5.33907 19.2463C5.57531 19.2736 5.73886 19.3917 5.82064 19.4553L5.73886 19.5462V19.5553Z" fill="#232656"/>
<path d="M7.01078 19.1464L6.91992 19.0646C7.09256 18.8647 7.58321 18.4013 8.35554 18.3468C9.32776 18.2741 9.96379 18.9192 10.0819 19.0464L9.99105 19.1282C9.88201 19.0101 9.27324 18.4013 8.36462 18.474C7.63773 18.5285 7.17433 18.9647 7.01078 19.1464Z" fill="#232656"/>
<path d="M3.16695 18.7103L3.04883 18.6648C3.15786 18.4013 3.41227 18.2287 3.69395 18.2196C3.96653 18.2196 4.22094 18.365 4.34815 18.6012L4.23912 18.6557C4.13917 18.4558 3.9211 18.3286 3.69395 18.3377C3.45771 18.3377 3.24872 18.4922 3.15786 18.7103H3.16695Z" fill="#232656"/>
<path d="M6.39156 18.6921L6.27344 18.6466C6.38247 18.3831 6.63688 18.2105 6.91856 18.2014C7.18205 18.2014 7.44555 18.3468 7.57276 18.583L7.46373 18.6376C7.36378 18.4377 7.14571 18.3105 6.91856 18.3195C6.68231 18.3195 6.47333 18.474 6.38247 18.6921H6.39156Z" fill="#232656"/>
<path d="M1.57719 19.5916L1.48633 19.5008C1.53176 19.4553 1.78617 19.2282 2.14053 19.2645C2.34043 19.2918 2.52215 19.4008 2.60393 19.4735L2.52215 19.5644C2.45855 19.5098 2.30408 19.4099 2.13145 19.3917C1.8316 19.3554 1.61353 19.5553 1.57719 19.5916Z" fill="#232656"/>
<path d="M2.9492 19.3009C2.86742 19.21 2.55849 18.9283 2.08601 18.9102C1.57718 18.892 1.25008 19.1918 1.15922 19.2827L1.06836 19.1918C1.16831 19.0919 1.53175 18.7648 2.08601 18.7829C2.59483 18.8011 2.92194 19.0828 3.03097 19.21L2.94011 19.2918L2.9492 19.3009Z" fill="#232656"/>
<path d="M3.62997 19.1827C3.51185 19.0555 2.8849 18.4286 1.93086 18.4922C1.16762 18.5376 0.658795 19.0101 0.522502 19.1555L0.431641 19.0737C0.577019 18.9192 1.1131 18.4195 1.92177 18.3741C2.93034 18.3105 3.59363 18.9738 3.72083 19.101L3.62997 19.1827Z" fill="#232656"/>
<path d="M2.04101 20.2276C1.92289 20.2276 1.83203 20.1368 1.83203 20.0278C1.83203 19.9187 1.92289 19.8279 2.04101 19.8279C2.15913 19.8279 2.24999 19.9187 2.24999 20.0278C2.24999 20.1368 2.15913 20.2276 2.04101 20.2276ZM2.04101 19.9551C1.99558 19.9551 1.95924 19.9914 1.95924 20.0278C1.95924 20.0641 1.99558 20.1004 2.04101 20.1004C2.08644 20.1004 2.12279 20.0641 2.12279 20.0278C2.12279 19.9914 2.08644 19.9551 2.04101 19.9551Z" fill="#232656"/>
<path d="M5.41966 18.2105C5.41966 18.2832 5.35606 18.3468 5.27429 18.3468C5.19251 18.3468 5.12891 18.2832 5.12891 18.2105C5.12891 18.1378 5.19251 18.0742 5.27429 18.0742C5.35606 18.0742 5.41966 18.1378 5.41966 18.2105Z" fill="#232656"/>
<path d="M5.73886 17.8107C5.67526 17.7562 5.52988 17.6472 5.32999 17.629C5.03014 17.5927 4.81207 17.7562 4.75756 17.8016L4.67578 17.7017C4.74847 17.6472 5.00288 17.4654 5.33907 17.5018C5.57531 17.529 5.73886 17.6472 5.82064 17.7108L5.73886 17.8016V17.8107Z" fill="#232656"/>
<path d="M6.13924 17.5472C6.05747 17.4563 5.74854 17.1747 5.27606 17.1565C4.71272 17.1383 4.36744 17.5018 4.3311 17.5381L4.24023 17.4563C4.30384 17.3837 4.67637 17.0111 5.28514 17.0293C5.79397 17.0475 6.11198 17.3291 6.2301 17.4563L6.13924 17.5381V17.5472Z" fill="#232656"/>
<path d="M3.76664 17.4109L3.67578 17.3292C3.84842 17.1293 4.33907 16.6659 5.1114 16.6113C6.08361 16.5387 6.71965 17.1838 6.83777 17.311L6.7469 17.3928C6.63787 17.2746 6.03818 16.6659 5.12048 16.7386C4.39359 16.7931 3.93019 17.2292 3.76664 17.4109Z" fill="#232656"/>
<path d="M8.68138 18.2469C8.68138 18.3195 8.61778 18.3832 8.536 18.3832C8.45423 18.3832 8.39062 18.3195 8.39062 18.2469C8.39062 18.1742 8.45423 18.1106 8.536 18.1106C8.61778 18.1106 8.68138 18.1742 8.68138 18.2469Z" fill="#232656"/>
<path d="M8.97324 17.8107C8.90963 17.7562 8.76425 17.6472 8.56436 17.629C8.2736 17.5927 8.04645 17.7562 7.99193 17.8016L7.91016 17.7017C7.98285 17.6472 8.23726 17.4654 8.57345 17.5018C8.79151 17.529 8.95507 17.629 9.05501 17.7108L8.97324 17.8016V17.8107Z" fill="#232656"/>
<path d="M9.37302 17.5472C9.29125 17.4564 8.98232 17.1747 8.50984 17.1565C8.00101 17.1383 7.67391 17.4382 7.58305 17.529L7.49219 17.4382C7.59214 17.3382 7.95558 17.0111 8.50984 17.0293C9.01866 17.0475 9.34576 17.3292 9.4548 17.4564L9.36394 17.5381L9.37302 17.5472Z" fill="#232656"/>
<path d="M7.01078 17.4109L6.91992 17.3292C7.09256 17.1293 7.58321 16.6659 8.35554 16.6113C9.32776 16.5387 9.96379 17.1838 10.0819 17.311L9.99105 17.3928C9.88201 17.2746 9.27324 16.6659 8.36462 16.7386C7.63773 16.7931 7.17433 17.2292 7.01078 17.4109Z" fill="#232656"/>
<path d="M11.8806 18.2196C11.8806 18.2923 11.817 18.3559 11.7352 18.3559C11.6534 18.3559 11.5898 18.2923 11.5898 18.2196C11.5898 18.1469 11.6534 18.0833 11.7352 18.0833C11.817 18.0833 11.8806 18.1469 11.8806 18.2196Z" fill="#232656"/>
<path d="M12.1823 17.8107C12.1187 17.7562 11.9733 17.6472 11.7734 17.629C11.5735 17.6108 11.3827 17.6653 11.2283 17.7835L11.1465 17.6835C11.3282 17.5381 11.5463 17.4745 11.7825 17.5018C12.0188 17.529 12.1823 17.6472 12.2641 17.7108L12.1823 17.8016V17.8107Z" fill="#232656"/>
<path d="M12.5801 17.5472C12.4983 17.4564 12.1893 17.1747 11.7169 17.1565C11.208 17.1383 10.8809 17.4382 10.7901 17.529L10.6992 17.4382C10.7992 17.3382 11.1626 17.0111 11.7169 17.0293C12.2257 17.0475 12.5528 17.3292 12.6618 17.4564L12.571 17.5381L12.5801 17.5472Z" fill="#232656"/>
<path d="M10.208 17.4109L10.1172 17.3292C10.2898 17.1293 10.7805 16.6659 11.5528 16.6113C12.525 16.5387 13.1611 17.1838 13.2792 17.311L13.1883 17.3928C13.0793 17.2746 12.4796 16.6659 11.5619 16.7386C10.835 16.7931 10.3716 17.2292 10.208 17.4109Z" fill="#232656"/>
<path d="M15.1345 18.2287C15.1345 18.3014 15.0709 18.365 14.9891 18.365C14.9074 18.365 14.8438 18.3014 14.8438 18.2287C14.8438 18.156 14.9074 18.0924 14.9891 18.0924C15.0709 18.0924 15.1345 18.156 15.1345 18.2287Z" fill="#232656"/>
<path d="M15.4889 17.8107C15.4071 17.738 15.2708 17.6472 15.08 17.629C14.7892 17.5926 14.5621 17.7562 14.5076 17.8016L14.4258 17.7017C14.5166 17.629 14.762 17.4654 15.0891 17.5018C15.3071 17.529 15.4707 17.629 15.5706 17.7108L15.4889 17.8016V17.8107Z" fill="#232656"/>
<path d="M15.8886 17.5472C15.8069 17.4564 15.4979 17.1747 15.0255 17.1565C14.5257 17.1383 14.1895 17.4382 14.0987 17.529L14.0078 17.4382C14.1078 17.3382 14.4803 17.0111 15.0255 17.0293C15.5343 17.0475 15.8614 17.3292 15.9704 17.4564L15.8796 17.5381L15.8886 17.5472Z" fill="#232656"/>
<path d="M13.4991 17.3928L13.4082 17.311C13.7898 16.893 14.3077 16.6386 14.8711 16.6114C15.8433 16.5568 16.4793 17.1838 16.5974 17.311L16.5066 17.3928C16.3976 17.2746 15.7888 16.684 14.8711 16.7386C14.1533 16.784 13.699 17.1747 13.4991 17.4018V17.3928Z" fill="#232656"/>
<path d="M18.3767 18.2287C18.3767 18.3014 18.3131 18.365 18.2313 18.365C18.1495 18.365 18.0859 18.3014 18.0859 18.2287C18.0859 18.156 18.1495 18.0924 18.2313 18.0924C18.3131 18.0924 18.3767 18.156 18.3767 18.2287Z" fill="#232656"/>
<path d="M18.7409 17.8107C18.6591 17.738 18.5228 17.6472 18.332 17.629C18.1957 17.6108 17.9867 17.629 17.7869 17.8016L17.7414 17.7562L17.7051 17.7017C17.9413 17.5109 18.1866 17.4836 18.3502 17.5018C18.5683 17.5291 18.7318 17.629 18.8318 17.7108L18.75 17.8016L18.7409 17.8107Z" fill="#232656"/>
<path d="M19.1406 17.5472C19.0588 17.4564 18.7499 17.1747 18.2774 17.1565C17.7777 17.1383 17.4415 17.4382 17.3506 17.529L17.2598 17.4382C17.3597 17.3382 17.7322 17.0111 18.2774 17.0293C18.7862 17.0475 19.1133 17.3291 19.2224 17.4564L19.1315 17.5381L19.1406 17.5472Z" fill="#232656"/>
<path d="M16.6963 17.3928L16.6055 17.311C16.7872 17.1111 17.296 16.6477 18.1138 16.6113C19.0587 16.5659 19.6766 17.1293 19.8401 17.311L19.7493 17.3928C19.6402 17.2746 19.0315 16.6931 18.1138 16.7386C17.3414 16.7749 16.8599 17.211 16.6872 17.4018L16.6963 17.3928Z" fill="#232656"/>
<path d="M22.375 17.5472C22.2932 17.4564 21.9843 17.1747 21.5118 17.1565C21.003 17.1383 20.6759 17.4382 20.585 17.529L20.4941 17.4382C20.5941 17.3382 20.9575 17.0111 21.5118 17.0293C22.0297 17.0475 22.3659 17.3564 22.4568 17.4564L22.3659 17.5381L22.375 17.5472Z" fill="#232656"/>
<path d="M19.9131 17.4109L19.8223 17.3291C20.004 17.1293 20.5219 16.6568 21.3487 16.6113C22.3119 16.5568 22.9297 17.1383 23.1024 17.311L23.0115 17.3928C22.8934 17.2746 22.2755 16.684 21.3487 16.7295C20.5582 16.7749 20.0767 17.2201 19.904 17.4109H19.9131Z" fill="#232656"/>
<path d="M2.19505 18.2287C2.19505 18.3014 2.13145 18.365 2.04968 18.365C1.9679 18.365 1.9043 18.3014 1.9043 18.2287C1.9043 18.156 1.9679 18.0924 2.04968 18.0924C2.13145 18.0924 2.19505 18.156 2.19505 18.2287Z" fill="#232656"/>
<path d="M3.16695 16.9748L3.04883 16.9294C3.15786 16.6659 3.41227 16.4932 3.69395 16.4841C3.96653 16.4841 4.22094 16.6295 4.34815 16.8658L4.23912 16.9203C4.13917 16.7204 3.9211 16.5932 3.69395 16.6023C3.45771 16.6023 3.24872 16.7567 3.15786 16.9748H3.16695Z" fill="#232656"/>
<path d="M2.78677 16.8112L2.67773 16.7567C2.67773 16.7567 2.96849 16.1661 3.58635 16.0934C4.04975 16.0389 4.51314 16.2842 4.74938 16.7113L4.64035 16.7749C4.43136 16.3933 4.0134 16.1752 3.60452 16.2206C3.05027 16.2842 2.80494 16.7931 2.79585 16.8112H2.78677Z" fill="#232656"/>
<path d="M2.19497 16.7113L2.08594 16.6568C2.08594 16.6568 2.51299 15.7209 3.48521 15.6028C4.23027 15.5119 4.95717 15.9208 5.30244 16.6295L5.19341 16.684C4.87539 16.0298 4.19393 15.6482 3.50338 15.73C2.60385 15.839 2.22223 16.6749 2.20406 16.7113H2.19497Z" fill="#232656"/>
<path d="M6.39156 16.9475L6.27344 16.9021C6.38247 16.6386 6.63688 16.466 6.91856 16.4569C7.18205 16.4569 7.44555 16.6023 7.57276 16.8385L7.46373 16.893C7.36378 16.6931 7.14571 16.5659 6.91856 16.575C6.68231 16.575 6.47333 16.7295 6.38247 16.9475H6.39156Z" fill="#232656"/>
<path d="M6.00942 16.7931L5.90039 16.7386C5.90039 16.7386 6.18206 16.1389 6.80901 16.0662C7.28149 16.0117 7.75397 16.2661 7.98112 16.7113L7.87209 16.7658C7.67219 16.366 7.24514 16.1389 6.82718 16.1843C6.27292 16.2479 6.0276 16.7658 6.01851 16.784L6.00942 16.7931Z" fill="#232656"/>
<path d="M5.42935 16.6931L5.32031 16.6477C5.57473 16.0662 6.10172 15.6573 6.7105 15.5846C7.44647 15.4937 8.19154 15.9299 8.50956 16.6386L8.40052 16.6931C8.10068 16.0389 7.41013 15.63 6.72867 15.7118C6.16533 15.7754 5.67467 16.157 5.43843 16.7022L5.42935 16.6931Z" fill="#232656"/>
<path d="M9.61812 16.9657L9.5 16.9203C9.60903 16.6568 9.86345 16.4841 10.1451 16.4751C10.4177 16.4751 10.6721 16.6204 10.7993 16.8567L10.6903 16.9112C10.5903 16.7113 10.3814 16.5841 10.1451 16.5932C9.90888 16.5932 9.6999 16.7476 9.60903 16.9657H9.61812Z" fill="#232656"/>
<path d="M9.23599 16.8021L9.12695 16.7476C9.12695 16.7476 9.41771 16.157 10.0447 16.0843C10.508 16.0298 10.9533 16.2751 11.1895 16.6931L11.0805 16.7567C10.8715 16.3842 10.4717 16.1661 10.0628 16.2115C9.50857 16.2751 9.25416 16.784 9.24507 16.8021H9.23599Z" fill="#232656"/>
<path d="M11.635 16.6931C11.3261 16.0389 10.6355 15.6391 9.95404 15.7209C9.08177 15.8299 8.70015 16.6568 8.69107 16.6931L8.58203 16.6386C8.58203 16.6386 8.99999 15.7118 9.94496 15.5937C10.6809 15.5028 11.426 15.9299 11.7531 16.6295L11.6441 16.684L11.635 16.6931Z" fill="#232656"/>
<path d="M12.8544 16.9203L12.7363 16.8748C12.8454 16.6113 13.0998 16.4387 13.3814 16.4296C13.654 16.4296 13.9084 16.575 14.0356 16.8112L13.9266 16.8658C13.8267 16.6659 13.6086 16.5387 13.3814 16.5477C13.1452 16.5477 12.9362 16.7022 12.8454 16.9203H12.8544Z" fill="#232656"/>
<path d="M12.4723 16.784L12.3633 16.7385C12.5268 16.3569 12.8812 16.0934 13.281 16.048C13.7626 15.9935 14.2441 16.2751 14.4531 16.7295L14.3441 16.784C14.1533 16.3751 13.7262 16.1207 13.2901 16.1752C12.9357 16.2115 12.6268 16.4569 12.4723 16.7931V16.784Z" fill="#232656"/>
<path d="M11.8818 16.684L11.7637 16.6386C12.0181 16.048 12.5542 15.6391 13.1629 15.5664C13.908 15.4756 14.6622 15.9208 14.9802 16.6386L14.8711 16.6931C14.5713 16.0207 13.8717 15.6119 13.1811 15.6936C12.6178 15.7573 12.118 16.148 11.8818 16.6931V16.684Z" fill="#232656"/>
<path d="M16.1416 16.9385L16.0234 16.893C16.1325 16.6295 16.3869 16.4569 16.6686 16.4478C16.9411 16.4478 17.1956 16.5932 17.3228 16.8294L17.2137 16.8839C17.1138 16.684 16.8957 16.5568 16.6686 16.5659C16.4323 16.5659 16.2233 16.7204 16.1325 16.9385H16.1416Z" fill="#232656"/>
<path d="M15.7516 16.8112L15.6426 16.7567C15.6426 16.7567 15.9333 16.1479 16.5603 16.0571C17.0509 15.9844 17.5416 16.2388 17.796 16.684L17.687 16.7476C17.4598 16.3478 17.0146 16.1207 16.5785 16.1752C16.0151 16.257 15.7607 16.784 15.7516 16.8021V16.8112Z" fill="#232656"/>
<path d="M18.168 16.684C17.8591 16.0116 17.1776 15.6119 16.4689 15.6936C15.5875 15.7936 15.1878 16.6204 15.1696 16.6477L15.0605 16.5932C15.0605 16.5932 15.5058 15.6755 16.4507 15.5664C17.2049 15.4846 17.9409 15.9026 18.268 16.6295L18.1589 16.684H18.168Z" fill="#232656"/>
<path d="M19.3935 16.9384L19.2754 16.893C19.3844 16.6295 19.6388 16.4569 19.9205 16.4478C20.1931 16.4478 20.4475 16.5932 20.5747 16.8294L20.4657 16.8839C20.3657 16.684 20.1567 16.5568 19.9205 16.5659C19.6843 16.5659 19.4753 16.7204 19.3844 16.9384H19.3935Z" fill="#232656"/>
<path d="M19.04 16.8112L18.9219 16.7658C19.0673 16.3751 19.4125 16.1025 19.8123 16.0571C20.2757 16.0026 20.7391 16.2661 20.939 16.7022L20.83 16.7567C20.6573 16.366 20.2394 16.1298 19.8305 16.1843C19.4761 16.2297 19.1763 16.466 19.04 16.8112Z" fill="#232656"/>
<path d="M18.4411 16.6659L18.332 16.6114C18.332 16.6114 18.7591 15.6846 19.7131 15.5664C20.4582 15.4756 21.1851 15.8935 21.5213 16.6023L21.4122 16.6568C21.0942 15.9935 20.4218 15.6119 19.7313 15.6937C18.8499 15.8027 18.4683 16.6295 18.4502 16.6659H18.4411Z" fill="#232656"/>
<path d="M5.73886 17.8107C5.67526 17.7562 5.52988 17.6472 5.32999 17.629C5.03014 17.5927 4.81207 17.7562 4.75756 17.8016L4.67578 17.7017C4.74847 17.6472 5.00288 17.4654 5.33907 17.5018C5.57531 17.529 5.73886 17.6472 5.82064 17.7108L5.73886 17.8016V17.8107Z" fill="#232656"/>
<path d="M7.01078 17.4109L6.91992 17.3292C7.09256 17.1293 7.58321 16.6659 8.35554 16.6113C9.32776 16.5387 9.96379 17.1838 10.0819 17.311L9.99105 17.3928C9.88201 17.2746 9.27324 16.6659 8.36462 16.7386C7.63773 16.7931 7.17433 17.2292 7.01078 17.4109Z" fill="#232656"/>
<path d="M3.16695 16.9748L3.04883 16.9294C3.15786 16.6659 3.41227 16.4932 3.69395 16.4841C3.96653 16.4841 4.22094 16.6295 4.34815 16.8658L4.23912 16.9203C4.13917 16.7204 3.9211 16.5932 3.69395 16.6023C3.45771 16.6023 3.24872 16.7567 3.15786 16.9748H3.16695Z" fill="#232656"/>
<path d="M6.39156 16.9475L6.27344 16.9021C6.38247 16.6386 6.63688 16.466 6.91856 16.4569C7.18205 16.4569 7.44555 16.6023 7.57276 16.8385L7.46373 16.893C7.36378 16.6931 7.14571 16.5659 6.91856 16.575C6.68231 16.575 6.47333 16.7295 6.38247 16.9475H6.39156Z" fill="#232656"/>
<path d="M1.57719 17.8561L1.48633 17.7653C1.54993 17.7017 1.79526 17.4927 2.14053 17.529C2.33134 17.5472 2.47672 17.6472 2.56758 17.7198L2.48581 17.8107C2.41312 17.7471 2.295 17.6744 2.13145 17.6472C1.8316 17.6108 1.61353 17.8107 1.57719 17.847V17.8561Z" fill="#232656"/>
<path d="M2.9492 17.5654C2.86742 17.4745 2.55849 17.1929 2.08601 17.1747C1.57718 17.1565 1.25008 17.4564 1.15922 17.5472L1.06836 17.4564C1.16831 17.3564 1.53175 17.0293 2.08601 17.0475C2.59483 17.0656 2.92194 17.3473 3.03097 17.4745L2.94011 17.5563L2.9492 17.5654Z" fill="#232656"/>
<path d="M3.62988 17.4473C3.51176 17.3201 2.88482 16.6931 1.93077 16.7567C1.09485 16.8112 0.558762 17.3473 0.495159 17.4109L0.404297 17.3291C0.4679 17.2655 1.03124 16.6931 1.92169 16.6386C2.93025 16.575 3.59354 17.2383 3.72075 17.3655L3.62988 17.4473Z" fill="#232656"/>
</g>
<path d="M19.3768 5.09916H3.47605C3.2703 5.09916 3.10352 5.26595 3.10352 5.47169V6.34396C3.10352 6.54971 3.2703 6.7165 3.47605 6.7165H19.3768C19.5826 6.7165 19.7494 6.54971 19.7494 6.34396V5.47169C19.7494 5.26595 19.5826 5.09916 19.3768 5.09916Z" fill="#232656" stroke="#232656" stroke-width="0.5" stroke-miterlimit="10"/>
<path d="M19.3672 6.7165H20.6574V10.6145" stroke="#232656" stroke-width="0.5" stroke-miterlimit="10"/>
</svg>
