<svg width="24" height="24" viewBox="0 0 24 24" fill="none" xmlns="http://www.w3.org/2000/svg">
<path d="M3.9889 14.6607L2.46891 13.1407C1.84891 12.5207 1.84891 11.5006 2.46891 10.8806L3.9889 9.36063C4.2489 9.10063 4.4589 8.59063 4.4589 8.23063V6.0806C4.4589 5.2006 5.1789 4.48062 6.0589 4.48062H8.2089C8.5689 4.48062 9.0789 4.27065 9.3389 4.01065L10.8589 2.49063C11.4789 1.87063 12.4989 1.87063 13.1189 2.49063L14.6389 4.01065C14.8989 4.27065 15.4089 4.48062 15.7689 4.48062H17.9189C18.7989 4.48062 19.5189 5.2006 19.5189 6.0806V8.23063C19.5189 8.59063 19.7289 9.10063 19.9889 9.36063L21.5089 10.8806C22.1289 11.5006 22.1289 12.5207 21.5089 13.1407L19.9889 14.6607C19.7289 14.9207 19.5189 15.4307 19.5189 15.7907V17.9406C19.5189 18.8206 18.7989 19.5407 17.9189 19.5407H15.7689C15.4089 19.5407 14.8989 19.7507 14.6389 20.0107L13.1189 21.5307C12.4989 22.1507 11.4789 22.1507 10.8589 21.5307L9.3389 20.0107C9.0789 19.7507 8.5689 19.5407 8.2089 19.5407H6.0589C5.1789 19.5407 4.4589 18.8206 4.4589 17.9406V15.7907C4.4589 15.4207 4.2489 14.9107 3.9889 14.6607Z" fill="#272559" stroke="#272559" stroke-width="1.5" stroke-linecap="round" stroke-linejoin="round"/>
<path d="M9 15.0002L15 9.00024" stroke="white" stroke-width="1.5" stroke-linecap="round" stroke-linejoin="round"/>
<path d="M14.4945 14.5002H14.5035" stroke="white" stroke-width="2" stroke-linecap="round" stroke-linejoin="round"/>
<path d="M9.49451 9.50024H9.50349" stroke="white" stroke-width="2" stroke-linecap="round" stroke-linejoin="round"/>
</svg>
