<svg width="24" height="24" viewBox="0 0 24 24" fill="none" xmlns="http://www.w3.org/2000/svg">
<g clip-path="url(#clip0_6387_79552)">
<path d="M21.6851 11.9857C21.6851 11.9857 21.6851 11.9179 21.6512 11.8924C21.5749 11.8416 21.5326 11.7653 21.4986 11.689C21.4647 11.6212 21.4139 11.5618 21.3291 11.5279C21.2698 11.511 21.2274 11.4601 21.185 11.4177C20.9646 11.1804 20.812 10.8921 20.7018 10.587C20.6509 10.4428 20.5492 10.2903 20.617 10.1292C20.6679 10.0105 20.6764 9.9003 20.6848 9.78162C20.6933 9.64599 20.7187 9.51883 20.7611 9.39167C20.8205 9.18822 20.8459 8.96781 20.9222 8.77284C20.9476 8.7135 20.9646 8.64568 20.8459 8.68807C20.7781 8.7135 20.6933 8.67959 20.6848 8.57786C20.6764 8.48461 20.7103 8.42527 20.812 8.42527C20.8374 8.42527 20.9052 8.44223 20.8883 8.38289C20.8459 8.21334 20.9222 8.01837 20.6848 7.90816C20.5407 7.84035 20.422 7.71319 20.261 7.64537C20.1592 7.60298 20.049 7.57755 19.9727 7.50974C19.676 7.28085 19.32 7.15369 19.0148 6.93329C18.8622 6.81461 18.6927 6.7044 18.6588 6.50943C18.6079 6.21272 18.5486 5.9245 18.4808 5.6278C18.4129 5.34805 18.379 5.05983 18.2688 4.79703C18.1078 4.43251 18.0484 4.24602 17.5313 4.30536C17.2346 4.33926 16.9379 4.37317 16.6327 4.40708C16.5819 4.40708 16.5225 4.42404 16.4717 4.40708C16.2852 4.3647 16.0902 4.40708 15.8952 4.33926C15.7172 4.27992 15.5392 4.21211 15.3696 4.11886C15.1831 4.01713 15.0475 3.83911 14.9373 3.65261C14.8864 3.55936 14.8356 3.44916 14.7593 3.37286C14.5389 3.16093 14.3269 2.93205 14.0726 2.76251C13.9539 2.68621 13.8098 2.64383 13.6657 2.66078C13.4538 2.68621 13.2927 2.82185 13.1147 2.92357C12.818 3.10159 12.5467 3.31352 12.2331 3.45764C11.9109 3.61023 11.5888 3.67804 11.2328 3.53393C10.7241 3.33048 10.207 3.12703 9.656 3.05073C9.52037 3.03378 9.41016 3.07616 9.31692 3.14398C9.04565 3.34743 8.85915 3.63566 8.66417 3.89845C8.55397 4.05952 8.44376 4.22906 8.34204 4.3986C8.25727 4.53424 8.14706 4.64444 8.02838 4.73769C7.9097 4.83942 7.73168 4.89028 7.57061 4.93267C7.19762 5.02592 6.80766 5.05135 6.42619 5.11069C6.12101 5.16155 5.80736 5.17851 5.51065 5.30566C5.46827 5.32262 5.40893 5.3311 5.40893 5.39044C5.40893 5.49216 5.34959 5.55998 5.29025 5.6278C5.23938 5.68714 5.21395 5.75496 5.197 5.83973C5.13766 6.09404 5.16309 6.34836 5.15461 6.60268C5.15461 6.79765 5.13766 7.00958 5.23091 7.21303C5.27329 7.30628 5.32416 7.44192 5.26482 7.54364C5.1207 7.78948 4.90877 7.99294 4.6375 8.09466C4.33232 8.20487 4.01867 8.27268 3.73892 8.43375C3.59481 8.51852 3.39983 8.527 3.28963 8.67111C3.19638 8.78979 3.0777 8.87456 2.98445 8.99324C2.92511 9.06954 2.89968 9.12888 2.92511 9.21365C2.97597 9.35776 3.00988 9.51035 3.06922 9.64599C3.25572 10.0783 3.45917 10.5107 3.65415 10.9345C3.83217 11.3245 3.73044 11.6975 3.51004 12.0366C3.41679 12.1722 3.32354 12.3163 3.19638 12.435C3.06075 12.5706 2.91663 12.6893 2.78947 12.8334C2.67079 12.9775 2.52668 13.0962 2.44191 13.2658C2.39105 13.3675 2.34866 13.4777 2.25541 13.5625C2.21303 13.5964 2.21303 13.6472 2.26389 13.6811C2.38257 13.7659 2.46734 13.9015 2.58602 13.9863C2.76404 14.1135 2.90816 14.2915 3.12009 14.3847C3.19638 14.4186 3.28115 14.461 3.34897 14.5204C3.5609 14.6814 3.78131 14.8171 4.01867 14.9273C4.06953 14.9527 4.10344 14.9951 4.13735 15.029C4.25603 15.1307 4.24755 15.2833 4.32385 15.402C4.53578 15.7496 4.44253 16.131 4.45948 16.4956C4.45948 16.5549 4.4171 16.6058 4.39166 16.6651C4.34928 16.7668 4.3408 16.8855 4.29842 16.9872C4.22212 17.1822 4.24755 17.3857 4.20517 17.5806C4.1543 17.8265 4.34928 18.0978 4.60359 18.1062C4.73075 18.1062 4.85791 18.1062 4.98507 18.1062C5.34959 18.1062 5.70563 18.1656 6.05319 18.2164C6.15492 18.2334 6.25665 18.174 6.35837 18.208C6.62117 18.2843 6.8331 18.4368 6.98569 18.6827C7.13828 18.92 7.12132 19.2083 7.22305 19.4626C7.27391 19.5897 7.21457 19.7339 7.29086 19.8525C7.39259 20.0136 7.4265 20.2086 7.48584 20.3866C7.57909 20.6579 7.73168 20.7511 8.00295 20.6663C8.07924 20.6409 8.14706 20.607 8.22336 20.5816C8.52854 20.4968 8.84219 20.4544 9.13889 20.3442C9.4356 20.234 9.75773 20.1916 10.0714 20.1408C10.3003 20.0984 10.5292 20.1408 10.758 20.1408C10.7919 20.1408 10.8174 20.1662 10.8513 20.1831C10.953 20.234 10.97 20.3527 11.0378 20.4205C11.2412 20.624 11.4701 20.7935 11.7075 20.9546C11.894 21.0817 12.055 21.2428 12.2161 21.3954C12.3178 21.4886 12.3857 21.5225 12.5128 21.4632C12.7502 21.3445 12.9367 21.1495 13.1147 20.9715C13.4453 20.6494 13.8098 20.3696 14.1659 20.0814C14.3185 19.9627 14.488 19.861 14.6406 19.7339C14.8356 19.5643 15.039 19.5558 15.2679 19.6999C15.2933 19.7169 15.3188 19.7423 15.3442 19.7508C15.59 19.8356 15.8444 19.9373 16.0987 20.0136C16.336 20.0899 16.5649 20.1747 16.8192 20.2001C16.9464 20.2171 17.0396 20.2001 17.1329 20.0899C17.3194 19.878 17.3533 19.5897 17.4805 19.3524C17.4974 19.3185 17.5313 19.1744 17.3702 19.1998C17.3194 19.1998 17.26 19.1574 17.2346 19.0896C17.2261 19.0557 17.2261 19.0133 17.2516 18.9963C17.3279 18.9285 17.4635 18.954 17.5483 19.0472C17.5822 18.9709 17.5822 18.8946 17.5737 18.8268C17.5483 18.5894 17.6161 18.369 17.7178 18.1656C17.8789 17.8434 18.1586 17.64 18.5062 17.5552C18.9301 17.445 19.3793 17.4026 19.7947 17.25C19.9812 17.1822 20.1847 17.1653 20.3542 17.0381C20.3881 17.0127 20.4475 17.0042 20.4644 16.9533C20.5662 16.6905 20.6085 16.4193 20.5662 16.1395C20.5577 16.0632 20.5238 15.9954 20.5238 15.9106C20.5238 15.6478 20.4729 15.3935 20.4051 15.1392C20.3881 15.0799 20.3712 15.0544 20.2864 15.0883C20.2101 15.1138 20.1169 15.0883 20.066 15.0121C20.0151 14.9358 20.0999 14.8934 20.1338 14.8425C20.1762 14.7747 20.2525 14.8001 20.3118 14.834C20.3966 14.8764 20.4136 14.834 20.4051 14.7662C20.3288 14.283 20.5662 13.927 20.9052 13.6218C20.9815 13.554 21.0578 13.4946 21.1087 13.4014C21.185 13.2573 21.3037 13.164 21.4223 13.0538C21.6682 12.8334 21.7275 12.5198 21.7869 12.2146C21.7869 12.1807 21.7869 12.1468 21.753 12.1213C21.7106 12.0789 21.6597 12.0281 21.6851 11.9518V11.9857Z" fill="#242657"/>
<path d="M12.1474 12.1976C12.1643 12.2739 12.1134 12.3078 12.0456 12.3078C11.9693 12.3078 11.8337 12.1891 11.8422 12.1213C11.8507 12.0535 11.8846 11.9942 11.9609 11.9942C12.0541 11.9942 12.1389 12.0789 12.1389 12.1891L12.1474 12.1976Z" fill="white"/>
<path d="M11.8848 12.1722C11.8848 12.0705 11.9272 12.0196 12.0034 12.0111C12.0628 12.0111 12.1221 12.0535 12.1221 12.1383C12.1221 12.2061 12.0204 12.2994 11.9526 12.2909C11.9102 12.2909 11.8848 12.2485 11.8848 12.1722Z" fill="white"/>
<path d="M6.90043 4.87333C7.12084 4.87333 7.31581 4.76312 7.52774 4.78008C7.82445 4.80551 8.01094 4.65292 8.15506 4.40708C8.27374 4.22058 8.42633 4.05104 8.52805 3.84759C8.67217 3.56784 8.89257 3.35591 9.09603 3.11855C9.31643 2.86423 9.57923 2.86423 9.86745 2.90662C10.1726 2.949 10.4524 3.04225 10.7321 3.16093C10.9441 3.25418 11.139 3.38134 11.3764 3.4322C11.6392 3.49154 11.8765 3.50002 12.1224 3.33048C12.258 3.23723 12.3682 3.10159 12.5462 3.07616C12.5632 3.07616 12.5802 3.04225 12.5971 3.0253C12.8514 2.80489 13.1227 2.63535 13.4363 2.52514C13.5974 2.4658 13.7585 2.47428 13.9026 2.5421C14.1315 2.6523 14.3434 2.75403 14.496 2.98291C14.6147 3.16093 14.7757 3.322 14.9707 3.4322C14.9877 3.44068 15.0131 3.46611 15.0216 3.48307C15.1148 3.63566 15.2674 3.73738 15.3776 3.86454C15.5556 4.06799 15.7845 4.1019 16.0219 4.16972C16.2677 4.23754 16.4966 4.22906 16.7425 4.20363C16.9968 4.1782 17.2511 4.14429 17.5054 4.16972C17.5563 4.16972 17.6156 4.1782 17.6665 4.14429C17.7343 4.1019 17.7936 4.11038 17.8614 4.14429C17.9377 4.1782 18.014 4.22906 18.0988 4.16972C18.1242 4.15277 18.1581 4.16972 18.1666 4.18667C18.1921 4.32231 18.3107 4.3986 18.3107 4.55967C18.3107 4.72922 18.3955 4.90724 18.5057 5.05983C18.5311 5.10221 18.5651 5.13612 18.5566 5.18698C18.5142 5.40739 18.6074 5.61084 18.6329 5.8143C18.6583 6.01775 18.6922 6.20425 18.7855 6.39075C18.8872 6.5942 18.9635 6.80613 19.2178 6.8909C19.4128 6.95024 19.5654 7.11978 19.7434 7.22151C19.9384 7.32324 20.1249 7.4504 20.3283 7.52669C20.5063 7.59451 20.642 7.70471 20.7352 7.87426C20.7691 7.9336 20.82 7.97598 20.8793 8.00989C20.9811 8.06923 21.0319 8.19639 21.0489 8.32355C21.0489 8.35746 21.015 8.39984 21.0828 8.40832C21.0489 8.4507 21.1252 8.55243 21.0065 8.54395C20.9471 8.54395 20.9556 8.56939 20.9556 8.60329C20.9302 8.96781 20.8454 9.31538 20.7606 9.67142C20.6844 9.98508 20.5996 10.3242 20.7522 10.6463C20.8624 10.8837 21.0319 11.0786 21.2015 11.2736C21.354 11.4601 21.5321 11.6212 21.6677 11.8162C21.7101 11.8755 21.7525 11.9518 21.744 12.0111C21.727 12.1637 21.8203 12.2824 21.8796 12.3926C21.9559 12.5282 21.9051 12.6384 21.8627 12.7317C21.7949 12.8673 21.744 13.0199 21.6168 13.1301C21.5405 13.1979 21.4727 13.2742 21.3795 13.3081C21.3286 13.3251 21.3117 13.342 21.3032 13.3844C21.2778 13.5031 21.176 13.554 21.0913 13.6303C20.9811 13.732 20.7522 13.7659 20.7776 13.9948C20.7776 14.0202 20.7352 14.0457 20.7183 14.0711C20.5741 14.2491 20.5148 14.461 20.4385 14.6645C20.4131 14.7323 20.4385 14.8086 20.4385 14.8849C20.4385 15.0714 20.4979 15.2494 20.4979 15.4274C20.4979 15.7665 20.642 16.0887 20.6081 16.4277C20.5911 16.5973 20.5318 16.7668 20.4809 16.9279C20.4724 16.9618 20.4639 16.9872 20.4639 17.0211C20.5063 17.2331 20.447 17.3179 20.2435 17.3263C19.8705 17.3263 19.5484 17.5043 19.2008 17.6061C19.0737 17.6485 18.9465 17.6908 18.8024 17.6993C18.582 17.7163 18.3786 17.7926 18.1836 17.8858C17.9038 18.0215 17.8699 18.2758 17.8021 18.5216C17.7682 18.6318 17.7597 18.7505 17.7173 18.8522C17.658 18.9963 17.641 19.1489 17.6241 19.3015C17.5987 19.505 17.4545 19.666 17.3952 19.8525C17.3528 19.9966 17.1833 20.056 17.1748 20.2086C17.1748 20.2425 17.1324 20.2594 17.09 20.2594C16.9883 20.2594 16.895 20.3018 16.7933 20.3273C16.6323 20.3612 16.4627 20.3612 16.3016 20.3612C16.2169 20.3612 16.1236 20.2933 16.0304 20.2764C15.8015 20.251 15.5811 20.1747 15.3691 20.1068C15.2081 20.056 15.0301 20.039 14.8775 19.9373C14.8605 19.9203 14.8351 19.9203 14.8097 19.9373C14.6232 20.0814 14.3943 20.1492 14.2078 20.2933C13.9958 20.4459 13.7839 20.6155 13.5889 20.785C13.4533 20.9037 13.3261 21.0309 13.2159 21.175C13.1481 21.2682 13.0464 21.3276 12.9362 21.37C12.8938 21.3869 12.8514 21.4039 12.8345 21.4462C12.7582 21.5904 12.6395 21.6751 12.4869 21.7514C12.3004 21.8447 12.258 21.8532 12.1054 21.726C12.0122 21.6497 11.9274 21.5564 11.8172 21.4971C11.5459 21.3615 11.3425 21.1326 11.0882 20.9715C10.9864 20.9122 10.9101 20.802 10.8254 20.7172C10.6728 20.5646 10.5287 20.429 10.2828 20.4968C10.2574 20.4968 10.2235 20.4968 10.215 20.4714C10.1387 20.3018 10.0285 20.3951 9.93527 20.429C9.81659 20.4714 9.70638 20.5053 9.57923 20.5053C9.51141 20.5053 9.46054 20.5392 9.4012 20.5646C9.291 20.6155 9.17232 20.6155 9.05364 20.6494C8.83323 20.7087 8.60435 20.7342 8.38394 20.7935C8.38394 20.7935 8.38394 20.7935 8.37546 20.7935C8.14658 20.8444 7.90074 20.8274 7.67186 20.9291C7.51079 21.0054 7.42602 20.8528 7.34972 20.7681C7.20561 20.607 7.1717 20.3781 7.08693 20.1747C6.91739 19.7932 6.89196 19.3693 6.75632 18.9709C6.73089 18.9031 6.68003 18.8437 6.65459 18.7844C6.48505 18.4453 6.16292 18.4453 5.87469 18.4368C5.5356 18.4368 5.19652 18.4029 4.85743 18.3775C4.66245 18.3605 4.459 18.2927 4.26402 18.2164C4.15382 18.174 4.07753 18.1232 4.00971 18.0299C3.88255 17.8434 3.8656 17.6569 3.94189 17.4535C3.96732 17.3857 4.00123 17.3263 3.94189 17.267C3.93341 17.2585 3.92494 17.2246 3.94189 17.2076C4.03514 17.0551 3.98428 16.877 4.00971 16.7075C4.06905 16.3515 4.09448 15.9869 4.22164 15.6478C4.28098 15.4698 4.19621 15.3003 4.00123 15.1646C3.83169 15.046 3.67062 14.9188 3.50955 14.7832C3.33153 14.6391 3.1196 14.5797 2.92463 14.4695C2.87376 14.4356 2.81442 14.4017 2.76356 14.3678C2.61945 14.2491 2.43295 14.1898 2.29732 14.0711C2.20407 13.9863 2.13625 13.8676 2.10234 13.749C2.01757 13.4777 2.17016 13.2742 2.33122 13.0877C2.36513 13.0453 2.39904 13.0114 2.416 12.9606C2.50077 12.6723 2.7127 12.4943 2.90767 12.2909C3.12808 12.062 3.39087 11.8585 3.48412 11.5364C3.56042 11.3075 3.48412 11.0871 3.44174 10.8498C3.3824 10.5361 3.22981 10.2563 3.13656 9.95117C3.07722 9.76467 2.93311 9.62056 2.85681 9.43406C2.78052 9.25604 2.80595 9.09497 2.87376 8.90847C3.00092 8.56939 3.31458 8.46766 3.56889 8.28964C3.89951 8.05228 4.30641 7.95903 4.67093 7.78101C4.73875 7.7471 4.82352 7.7471 4.89134 7.69623C5.10327 7.53517 5.08631 7.31476 5.06088 7.10283C5.03545 6.87395 5.04393 6.63658 5.01002 6.4077C4.98459 6.18729 4.97611 5.95841 4.95068 5.738C4.93372 5.57693 5.01002 5.44978 5.10327 5.33957C5.20499 5.22089 5.34063 5.16155 5.5017 5.1446C5.59494 5.1446 5.67972 5.0683 5.77297 5.03439C6.02728 4.94962 6.29007 4.91571 6.55287 4.89876C6.68003 4.89028 6.79023 4.82246 6.90891 4.85637L6.90043 4.87333ZM17.3104 18.9624C17.3443 18.8861 17.3443 18.8098 17.3359 18.7505C17.3104 18.5131 17.3782 18.3012 17.48 18.0978C17.641 17.7841 17.9038 17.5806 18.2429 17.4959C18.6583 17.3857 19.0906 17.3518 19.4891 17.1992C19.6671 17.1314 19.8705 17.1144 20.0316 16.9957C20.0655 16.9703 20.1164 16.9618 20.1418 16.9109C20.2435 16.6566 20.2774 16.3854 20.2435 16.1141C20.2351 16.0378 20.2012 15.97 20.2012 15.8852C20.2012 15.6224 20.1503 15.3766 20.0825 15.1307C20.0655 15.0714 20.0486 15.046 19.9723 15.0799C19.9045 15.1053 19.8027 15.0799 19.7603 15.0036C19.718 14.9358 19.7942 14.8849 19.8282 14.834C19.8705 14.7662 19.9384 14.7916 19.9977 14.8256C20.0825 14.8679 20.0994 14.8256 20.0825 14.7577C20.0062 14.283 20.2351 13.9354 20.5657 13.6387C20.642 13.5709 20.7183 13.5116 20.7606 13.4268C20.8285 13.2827 20.9471 13.1895 21.0658 13.0877C21.3032 12.8758 21.3625 12.5621 21.4134 12.2654C21.4134 12.2315 21.4134 12.2061 21.3795 12.1722C21.3371 12.1298 21.2947 12.0789 21.3201 12.0026C21.3371 11.9603 21.3201 11.9348 21.2862 11.9179C21.2099 11.867 21.176 11.7907 21.1336 11.7144C21.0997 11.6466 21.0489 11.5873 20.9726 11.5618C20.9132 11.5449 20.8793 11.5025 20.8369 11.4516C20.6165 11.2143 20.4724 10.9345 20.3707 10.6378C20.3198 10.4937 20.2181 10.3496 20.2859 10.1885C20.3368 10.0783 20.3453 9.95964 20.3537 9.84096C20.3622 9.71381 20.3876 9.57817 20.4216 9.45949C20.4809 9.25604 20.5063 9.04411 20.5826 8.84913C20.6081 8.78979 20.625 8.72197 20.5063 8.76436C20.4385 8.78979 20.3622 8.75588 20.3537 8.66263C20.3453 8.56939 20.3792 8.51004 20.4809 8.51004C20.5063 8.51004 20.5657 8.527 20.5572 8.46766C20.5148 8.30659 20.5911 8.10314 20.3622 8.00141C20.2181 7.9336 20.1079 7.80644 19.9553 7.7471C19.8621 7.70471 19.7519 7.67928 19.6756 7.61146C19.3873 7.38258 19.0398 7.2639 18.7516 7.04349C18.599 6.93329 18.4379 6.82308 18.404 6.62811C18.3531 6.33988 18.3023 6.05166 18.2344 5.76343C18.1751 5.49216 18.1412 5.20394 18.0225 4.94962C17.8699 4.5851 17.8106 4.40708 17.302 4.46642C17.0137 4.50033 16.7255 4.53424 16.4373 4.55967C16.3864 4.55967 16.3356 4.57663 16.2847 4.55967C16.0982 4.51729 15.9202 4.55967 15.7252 4.50033C15.5472 4.44099 15.3776 4.37317 15.2166 4.2884C15.0301 4.18667 14.9029 4.01713 14.8012 3.83063C14.7503 3.73738 14.7079 3.63566 14.6316 3.55936C14.4197 3.34743 14.2163 3.12703 13.9619 2.96596C13.8433 2.88966 13.7076 2.84728 13.5635 2.86423C13.3601 2.88966 13.199 3.0253 13.0294 3.11855C12.7412 3.28809 12.4784 3.50002 12.1732 3.64413C11.8596 3.78825 11.5544 3.86454 11.2068 3.72043C10.7152 3.51698 10.215 3.322 9.67247 3.24571C9.53684 3.22875 9.43511 3.27114 9.34186 3.33896C9.07907 3.54241 8.89257 3.82216 8.70607 4.08495C8.59587 4.24602 8.49414 4.41556 8.39242 4.57663C8.31612 4.70378 8.19744 4.81399 8.09572 4.91571C7.98551 5.01744 7.80749 5.0683 7.6549 5.10221C7.29038 5.18698 6.91739 5.22089 6.54439 5.28023C6.24769 5.3311 5.94251 5.34805 5.65428 5.46673C5.6119 5.48369 5.55256 5.49216 5.55256 5.5515C5.55256 5.65323 5.49322 5.71257 5.43388 5.78886C5.38301 5.84821 5.35758 5.91602 5.34063 5.99232C5.28129 6.23816 5.3152 6.49247 5.30672 6.74679C5.30672 6.94176 5.28977 7.15369 5.37454 7.34867C5.41692 7.44192 5.46779 7.56908 5.40845 7.6708C5.26433 7.91664 5.06936 8.11162 4.79809 8.21334C4.50139 8.31507 4.19621 8.39136 3.92494 8.54395C3.78082 8.62873 3.6028 8.6372 3.4926 8.77284C3.40783 8.89152 3.28915 8.97629 3.1959 9.08649C3.13656 9.16279 3.11113 9.22213 3.13656 9.3069C3.17894 9.45101 3.22133 9.59513 3.28067 9.73076C3.46717 10.1546 3.66214 10.5785 3.84864 11.0023C4.01819 11.3923 3.92494 11.7483 3.71301 12.0789C3.62823 12.2146 3.53499 12.3502 3.40783 12.4689C3.27219 12.5961 3.13656 12.7147 3.01788 12.8588C2.90767 13.003 2.76356 13.1132 2.67879 13.2827C2.62793 13.3844 2.58554 13.4946 2.50077 13.5709C2.45838 13.6048 2.45838 13.6472 2.50925 13.6896C2.62793 13.7744 2.70422 13.9015 2.8229 13.9948C2.99245 14.1219 3.13656 14.2915 3.34001 14.3847C3.41631 14.4186 3.4926 14.461 3.56042 14.5204C3.76387 14.6814 3.9758 14.8171 4.21316 14.9188C4.26402 14.9442 4.28946 14.9781 4.33184 15.0121C4.45052 15.1138 4.44205 15.2664 4.50986 15.3851C4.71332 15.7241 4.62854 16.0971 4.63702 16.4617C4.63702 16.521 4.59464 16.5719 4.57768 16.6312C4.53529 16.7329 4.52682 16.8431 4.48443 16.9449C4.41661 17.1314 4.43357 17.3348 4.39118 17.5213C4.34032 17.7671 4.53529 18.0299 4.78113 18.0384C4.89981 18.0384 5.02697 18.0384 5.14565 18.0384C5.49322 18.0384 5.84078 18.0978 6.18835 18.1486C6.29007 18.1656 6.3918 18.1062 6.48505 18.1401C6.74784 18.2164 6.9513 18.369 7.09541 18.6064C7.23952 18.8437 7.22257 19.1235 7.32429 19.3693C7.37515 19.4965 7.31581 19.6406 7.38363 19.7593C7.48536 19.9203 7.51079 20.1068 7.57013 20.2764C7.66338 20.5392 7.80749 20.6324 8.07876 20.5477C8.15506 20.5222 8.22288 20.4883 8.29069 20.4714C8.58739 20.3866 8.89257 20.3442 9.1808 20.2425C9.46902 20.1323 9.7742 20.0984 10.0794 20.039C10.2998 19.9966 10.5202 20.039 10.7406 20.039C10.7745 20.039 10.7999 20.0645 10.8339 20.0814C10.9271 20.1323 10.9525 20.2425 11.0119 20.3103C11.2068 20.5053 11.4357 20.6748 11.6646 20.8359C11.8426 20.963 12.0037 21.1156 12.1563 21.2682C12.2495 21.3615 12.3258 21.3954 12.4445 21.336C12.6734 21.2258 12.8514 21.0309 13.0294 20.8528C13.3516 20.5307 13.6991 20.2594 14.0552 19.9797C14.2078 19.861 14.3688 19.7678 14.513 19.6406C14.7079 19.4711 14.9029 19.4626 15.1233 19.6067C15.1487 19.6236 15.1742 19.6491 15.1996 19.6576C15.4454 19.7423 15.6828 19.8356 15.9286 19.9119C16.1575 19.9797 16.3864 20.0645 16.6238 20.0984C16.7425 20.1153 16.8357 20.0984 16.9205 19.9882C17.107 19.7762 17.1324 19.4965 17.2596 19.2591C17.2765 19.2252 17.3104 19.0811 17.1578 19.1065C17.107 19.1065 17.0476 19.0642 17.0307 19.0048C17.0222 18.9709 17.0222 18.937 17.0476 18.9116C17.1239 18.8437 17.2511 18.8692 17.3359 18.9624H17.3104Z" fill="#242657"/>
<path d="M9.34237 16.3599C9.34237 16.3599 9.2576 16.343 9.23217 16.2921C9.1813 16.1904 9.08806 16.1395 9.01176 16.0717C8.94394 16.0039 8.80831 15.97 8.81679 15.8259C8.81679 15.7411 8.86765 15.5546 8.95242 15.5376C9.0711 15.5122 9.15587 15.4274 9.20674 15.3342C9.29999 15.1392 9.46105 14.9866 9.58821 14.8086C9.74928 14.5882 9.86796 14.3508 10.0121 14.1304C10.1308 13.9524 10.1986 13.749 10.3342 13.6048C10.4698 13.4523 10.5885 13.2997 10.6987 13.1301C10.97 12.7147 11.2328 12.2909 11.4956 11.867C11.8347 11.3075 12.2246 10.765 12.5807 10.214C12.9113 9.70533 13.2334 9.1967 13.564 8.69654C13.759 8.39984 13.9709 8.12009 14.1489 7.81491C14.2168 7.69623 14.3185 7.58603 14.2846 7.42496C14.2676 7.34867 14.4626 7.22999 14.5389 7.28085C14.6321 7.34019 14.7254 7.39106 14.8356 7.42496C14.9288 7.45887 14.9712 7.57755 14.9373 7.67928C14.8865 7.81492 14.7932 7.9336 14.7169 8.05228C14.5728 8.27268 14.4711 8.527 14.2931 8.70502C14.0472 8.94238 13.8777 9.23061 13.7166 9.51883C13.4792 9.94269 13.1571 10.3072 12.9452 10.748C12.8604 10.9345 12.6909 11.0786 12.5891 11.2651C12.4365 11.5618 12.2755 11.8585 12.1059 12.1552C12.0381 12.2739 11.9279 12.3587 11.8601 12.4859C11.7329 12.7232 11.5295 12.9182 11.4362 13.1725C11.3684 13.3675 11.2413 13.5285 11.1311 13.6981C11.0632 13.7998 11.0632 13.927 10.9954 14.0287C10.8428 14.2576 10.7242 14.5034 10.58 14.7408C10.4783 14.9103 10.3427 15.0629 10.2833 15.2664C10.2579 15.3511 10.1731 15.4105 10.1223 15.4868C9.96121 15.7157 9.851 15.97 9.68994 16.1904C9.61364 16.2921 9.51192 16.3684 9.35933 16.3684L9.34237 16.3599Z" fill="white"/>
<path d="M10.1475 8.74741C10.317 8.75588 10.4781 8.77284 10.5968 8.89152C10.6053 8.9 10.6137 8.91695 10.6222 8.91695C10.8172 8.87456 10.902 9.05259 11.0122 9.14583C11.2241 9.32386 11.3258 9.57817 11.3852 9.84096C11.4275 10.0359 11.3597 10.2309 11.2749 10.4089C11.1647 10.6293 11.0376 10.8498 10.868 11.0278C10.7578 11.138 10.5968 11.2143 10.4442 11.2821C10.2831 11.3499 10.1136 11.3923 9.93555 11.4092C9.82535 11.4092 9.72362 11.3838 9.6219 11.3499C9.28281 11.2482 9.02849 11.0362 8.82504 10.748C8.56225 10.3835 8.56225 10.0105 8.74874 9.62056C8.75722 9.59513 8.77418 9.56969 8.77418 9.55274C8.79961 9.37472 8.89286 9.24756 9.04545 9.15431C9.34215 8.98477 9.6219 8.78131 9.97794 8.76436C10.0034 8.76436 10.0288 8.76436 10.0542 8.75588C10.0881 8.75588 10.1136 8.75588 10.1305 8.75588L10.1475 8.74741ZM10.9274 10.1038C10.9443 9.93421 10.902 9.77315 10.8935 9.6036C10.885 9.44254 10.5968 9.20517 10.4357 9.17974C10.1475 9.12888 9.85926 9.15431 9.57951 9.22213C9.32519 9.28147 8.99458 9.73076 8.98611 10.002C8.97763 10.2818 8.99458 10.553 9.20651 10.7735C9.32519 10.9006 9.48626 11.0023 9.64733 11.0023C9.86773 11.0023 10.0966 11.0023 10.3255 10.9345C10.6137 10.8413 10.8002 10.6887 10.902 10.4089C10.9359 10.3072 10.9189 10.2055 10.9359 10.1038H10.9274Z" fill="white"/>
<path d="M14.5041 14.6221C14.2158 14.6221 13.9361 14.5458 13.7072 14.3678C13.614 14.3 13.5801 14.1728 13.4783 14.0965C13.3088 13.9609 13.2749 13.749 13.224 13.5455C13.1647 13.3336 13.224 13.1386 13.2749 12.9436C13.3257 12.7656 13.4699 12.613 13.614 12.4858C13.6479 12.4604 13.6903 12.4435 13.7157 12.4096C13.8768 12.1891 14.1226 12.0959 14.3515 12.0281C14.538 11.9772 14.7753 12.0196 14.9618 12.1213C15.072 12.1807 15.1568 12.2824 15.3009 12.2824C15.3518 12.2824 15.3942 12.3333 15.4196 12.3756C15.479 12.4858 15.5892 12.5791 15.6315 12.6893C15.7163 12.9267 15.7926 13.164 15.7587 13.4438C15.7163 13.749 15.5892 14.0117 15.4281 14.2661C15.3942 14.3169 15.3518 14.3339 15.3009 14.3678C15.1399 14.478 14.9618 14.5373 14.7838 14.5882C14.6906 14.6136 14.6058 14.6306 14.5126 14.6306L14.5041 14.6221ZM13.6224 13.5285C13.597 13.6133 13.6479 13.715 13.6987 13.8168C13.8174 14.0457 14.165 14.3508 14.4956 14.2915C14.5973 14.2745 14.699 14.2661 14.8008 14.2915C14.8601 14.3084 14.911 14.2745 14.9534 14.2322C15.0297 14.1559 15.0975 14.0796 15.1822 14.0117C15.3942 13.8422 15.4959 13.6133 15.5298 13.3505C15.5468 13.2149 15.5129 13.0962 15.4705 12.969C15.4196 12.8334 15.3009 12.7826 15.2331 12.6808C15.0636 12.4435 14.733 12.3756 14.4786 12.4774C14.3769 12.5198 14.2752 12.5621 14.1819 12.613C13.8259 12.7995 13.6224 13.0793 13.6309 13.5285H13.6224Z" fill="white"/>
<path d="M11.8433 8.42527C11.8433 8.42527 11.8433 8.48461 11.8433 8.51004C11.8264 8.56939 11.7924 8.62025 11.7161 8.62025C11.6314 8.62025 11.6144 8.56091 11.589 8.50157C11.572 8.46766 11.6144 8.4168 11.5551 8.39136C11.4534 8.3405 11.5127 8.29811 11.572 8.27268C11.589 8.27268 11.6059 8.27268 11.6229 8.27268C11.6738 8.25573 11.7161 8.17096 11.7755 8.2303C11.8348 8.28116 11.8433 8.36593 11.8348 8.44223L11.8433 8.42527Z" fill="white"/>
<path d="M14.1983 18.3266C14.1983 18.4029 14.139 18.4538 14.0457 18.4623C13.9525 18.4708 13.8592 18.3775 13.8677 18.2843C13.8677 18.1825 13.9525 18.0808 14.0288 18.0893C14.1305 18.0893 14.1983 18.1825 14.1983 18.3266Z" fill="white"/>
<path d="M13.0721 6.17034C13.0721 6.24663 12.9195 6.43313 12.8856 6.42465C12.7924 6.38227 12.8009 6.27206 12.7754 6.18729C12.75 6.111 12.8517 6.01775 12.9535 6.02623C13.0637 6.0347 13.0637 6.11948 13.0721 6.17034Z" fill="white"/>
<path d="M7.63743 17.9536C7.63743 18.0299 7.58657 18.0808 7.49332 18.0808C7.40007 18.0808 7.3153 18.0384 7.33225 17.9282C7.33225 17.8519 7.35769 17.7502 7.46789 17.7417C7.54418 17.7332 7.63743 17.835 7.63743 17.9536Z" fill="white"/>
<path d="M19.1676 16.8262C19.1591 16.8855 19.1252 16.9533 19.0404 16.9618C18.9811 16.9618 18.8454 16.8177 18.8539 16.7584C18.8624 16.6736 18.9217 16.6227 19.0065 16.6227C19.1082 16.6227 19.1676 16.6821 19.1676 16.8262Z" fill="white"/>
<path d="M8.86639 17.6061C8.86639 17.6993 8.80705 17.7332 8.72228 17.7332C8.65446 17.7332 8.55273 17.6315 8.55273 17.5552C8.55273 17.4704 8.61207 17.4111 8.69685 17.4026C8.77314 17.4026 8.86639 17.5043 8.86639 17.6061Z" fill="white"/>
<path d="M9.30702 18.5301C9.21378 18.5131 9.15444 18.4707 9.16291 18.3775C9.17139 18.2758 9.22225 18.2249 9.32398 18.2249C9.41723 18.2249 9.49352 18.3012 9.47657 18.386C9.45961 18.4877 9.37484 18.5131 9.29855 18.5301H9.30702Z" fill="white"/>
<path d="M6.89207 12.3587C6.76492 12.3587 6.71405 12.3078 6.70557 12.2231C6.6971 12.1383 6.79882 12.0366 6.8836 12.045C6.95141 12.045 7.00228 12.0874 7.01075 12.1637C7.01075 12.2824 6.95141 12.3587 6.90055 12.3672L6.89207 12.3587Z" fill="white"/>
<path d="M12.2836 19.2167C12.2836 19.3524 12.2243 19.4032 12.131 19.3863C12.0632 19.3863 11.9784 19.3609 11.9869 19.2591C11.9869 19.1659 12.0123 19.0726 12.131 19.0726C12.2328 19.0726 12.2751 19.1489 12.2836 19.2083V19.2167Z" fill="white"/>
<path d="M15.4376 17.8943C15.4291 17.7926 15.4884 17.7417 15.5817 17.7417C15.658 17.7417 15.7512 17.7756 15.7343 17.8689C15.7343 17.9452 15.7003 18.0384 15.6071 18.0384C15.5139 18.0384 15.4206 18.0215 15.4376 17.8943Z" fill="white"/>
<path d="M10.1304 17.3941C10.0118 17.4111 9.98633 17.3348 9.98633 17.2416C9.98633 17.1653 10.0287 17.0805 10.122 17.089C10.1983 17.089 10.2915 17.1144 10.283 17.2246C10.283 17.3178 10.2576 17.4111 10.1304 17.3857V17.3941Z" fill="white"/>
<path d="M19.3703 9.24756C19.3703 9.34081 19.3279 9.39167 19.2346 9.3832C19.1329 9.37472 19.0905 9.29842 19.082 9.20517C19.082 9.08649 19.1668 9.06954 19.2346 9.07802C19.3194 9.08649 19.3957 9.13736 19.3787 9.24756H19.3703Z" fill="white"/>
<path d="M13.8172 6.78917C13.724 6.7807 13.6392 6.76374 13.5799 6.67897C13.5629 6.64506 13.5375 6.61963 13.5714 6.58572C13.6392 6.50943 13.7494 6.5179 13.8257 6.52638C13.9105 6.54334 13.919 6.65354 13.919 6.72983C13.919 6.7807 13.8511 6.77222 13.8172 6.7807V6.78917Z" fill="white"/>
<path d="M19.0913 10.1885C19.1845 10.1885 19.2693 10.2818 19.2693 10.375C19.2693 10.4683 19.193 10.4937 19.1167 10.5022C19.0404 10.5022 18.9471 10.392 18.9556 10.3157C18.9641 10.2394 19.0065 10.1885 19.0913 10.1885Z" fill="white"/>
<path d="M15.3184 15.7326C15.3268 15.6648 15.3523 15.5885 15.4455 15.597C15.5388 15.597 15.5981 15.6563 15.6066 15.7496C15.6066 15.8004 15.4625 15.9445 15.4116 15.953C15.3523 15.953 15.3184 15.8767 15.3184 15.7326Z" fill="white"/>
<path d="M11.8517 19.9627C11.9449 19.9797 11.9449 20.0645 11.9364 20.1408C11.928 20.2086 11.894 20.3188 11.8262 20.2933C11.7669 20.2764 11.6482 20.251 11.6567 20.1238C11.6567 20.0221 11.7415 19.9458 11.8601 19.9627H11.8517Z" fill="white"/>
<path d="M8.35048 13.342C8.35048 13.4099 8.38439 13.5031 8.26571 13.5031C8.19789 13.5031 8.08769 13.3844 8.09616 13.3081C8.09616 13.2234 8.13855 13.1555 8.2318 13.1471C8.36743 13.1471 8.35048 13.2488 8.35048 13.3336V13.342Z" fill="white"/>
<path d="M15.0378 16.7923C15.0378 16.6905 15.0971 16.6312 15.1819 16.6397C15.2497 16.6397 15.3345 16.6566 15.3345 16.7584C15.3345 16.8601 15.2582 16.9533 15.1734 16.9449C15.0802 16.9364 15.0547 16.8601 15.0293 16.7923H15.0378Z" fill="white"/>
<path d="M12.3929 6.81461C12.4946 6.80613 12.5285 6.84851 12.52 6.91633C12.5115 7.0011 12.52 7.10283 12.3759 7.11131C12.2488 7.11131 12.2233 7.01806 12.2148 6.94176C12.2148 6.80613 12.342 6.85699 12.3929 6.81461Z" fill="white"/>
<path d="M15.2168 6.5942C15.2168 6.67049 15.2083 6.73831 15.1066 6.74679C15.0303 6.74679 14.8947 6.64506 14.9116 6.5942C14.937 6.53486 14.9455 6.45009 15.0388 6.44161C15.132 6.44161 15.2168 6.5179 15.2168 6.5942Z" fill="white"/>
<path d="M7.49459 16.8431C7.49459 16.9194 7.46916 16.9872 7.38439 16.9872C7.28266 16.9872 7.22332 16.9364 7.21484 16.8347C7.21484 16.7499 7.29114 16.6482 7.35896 16.6482C7.42677 16.6482 7.49459 16.7499 7.49459 16.8431Z" fill="white"/>
<path d="M13.2832 12.3078C13.1814 12.3163 13.1391 12.2739 13.1475 12.1722C13.1475 12.0705 13.2323 12.0366 13.3086 12.0111C13.3595 11.9942 13.4612 12.1298 13.4442 12.1976C13.4273 12.2824 13.3679 12.3163 13.2832 12.3078Z" fill="white"/>
<path d="M11.1737 4.8818C11.1737 4.98353 11.1058 5.02592 11.0211 5.01744C10.9278 5.01744 10.877 4.94962 10.877 4.86485C10.877 4.7716 10.9448 4.72074 11.0295 4.72074C11.1397 4.72074 11.1652 4.79703 11.1737 4.8818Z" fill="white"/>
<path d="M16.6839 12.1298C16.6839 12.1976 16.5907 12.3078 16.5398 12.3078C16.4635 12.3078 16.3533 12.2061 16.3618 12.1383C16.3618 12.0196 16.472 12.0281 16.5398 12.0111C16.6076 11.9942 16.6585 12.0705 16.6924 12.1298H16.6839Z" fill="white"/>
<path d="M16.6231 18.1317C16.5722 18.1317 16.5214 18.0808 16.5044 17.996C16.4959 17.9367 16.5977 17.818 16.657 17.835C16.7418 17.8519 16.8265 17.8858 16.8181 17.996C16.8181 18.0808 16.7502 18.1317 16.6231 18.1317Z" fill="white"/>
<path d="M17.5315 17.0466C17.6247 17.0466 17.6671 17.1059 17.6671 17.1822C17.6671 17.267 17.6332 17.3433 17.5315 17.3433C17.4467 17.3433 17.3789 17.267 17.3789 17.1653C17.3789 17.1059 17.4637 17.0466 17.5315 17.0466Z" fill="white"/>
<path d="M10.0885 5.46673C9.99529 5.46673 9.919 5.47521 9.88509 5.38196C9.87661 5.34805 10.0377 5.19546 10.0716 5.19546C10.1479 5.19546 10.2242 5.28023 10.2157 5.36501C10.2072 5.44978 10.1903 5.52607 10.0885 5.47521V5.46673Z" fill="white"/>
<path d="M6.75669 11.0956C6.67192 11.1125 6.64648 11.0447 6.64648 10.9769C6.64648 10.8921 6.73126 10.7989 6.80755 10.7989C6.90928 10.7989 6.91775 10.8837 6.93471 10.9515C6.95166 11.0278 6.86689 11.1041 6.75669 11.1041V11.0956Z" fill="white"/>
<path d="M19.3537 13.1386C19.4385 13.1216 19.4894 13.1725 19.4809 13.2488C19.4809 13.342 19.4215 13.4183 19.3283 13.4183C19.235 13.4183 19.1926 13.3336 19.1757 13.2658C19.1587 13.2064 19.2605 13.1386 19.3537 13.1386Z" fill="white"/>
<path d="M18.2603 16.2836C18.2603 16.4023 18.1755 16.4956 18.0822 16.4786C17.9975 16.4617 17.9636 16.3854 17.9551 16.3006C17.9551 16.2243 18.0059 16.1649 18.0738 16.1819C18.1416 16.1989 18.2687 16.1565 18.2603 16.2752V16.2836Z" fill="white"/>
<path d="M12.3776 17.4704C12.3776 17.3518 12.4115 17.2839 12.4963 17.2839C12.5726 17.2839 12.6573 17.3263 12.6489 17.4196C12.6489 17.4959 12.6404 17.6061 12.5302 17.5976C12.4454 17.5976 12.3691 17.5383 12.3776 17.4704Z" fill="white"/>
<path d="M19.514 15.6394C19.5224 15.7496 19.4461 15.7496 19.3783 15.758C19.2766 15.758 19.2257 15.6902 19.2173 15.6139C19.2088 15.5037 19.319 15.4698 19.3868 15.4613C19.5055 15.4529 19.4631 15.5885 19.5055 15.6394H19.514Z" fill="white"/>
<path d="M19.6247 8.73893C19.701 8.73893 19.7264 8.81522 19.7264 8.87456C19.7264 8.95934 19.6841 9.03563 19.5908 9.04411C19.4976 9.04411 19.4297 8.97629 19.4382 8.89152C19.4467 8.80675 19.4976 8.72197 19.6247 8.73893Z" fill="white"/>
<path d="M17.013 7.78101C17.1402 7.76405 17.1487 7.86578 17.1572 7.9336C17.1656 7.99294 17.1402 8.06075 17.0554 8.06075C16.9622 8.06075 16.852 7.98446 16.8689 7.90816C16.8774 7.82339 16.9283 7.76405 17.0215 7.78101H17.013Z" fill="white"/>
<path d="M12.7331 16.1226C12.784 16.165 12.9111 16.1056 12.8942 16.2497C12.8857 16.3345 12.8602 16.4108 12.7585 16.4277C12.6907 16.4277 12.5805 16.3175 12.5975 16.2582C12.6144 16.1904 12.6398 16.131 12.7331 16.131V16.1226Z" fill="white"/>
<path d="M11.4451 18.0723C11.4367 18.1401 11.4028 18.2249 11.301 18.2164C11.2332 18.208 11.1569 18.1571 11.1484 18.0638C11.1484 17.9875 11.2502 17.9113 11.3349 17.9113C11.4282 17.9113 11.4451 17.9706 11.4367 18.0638L11.4451 18.0723Z" fill="white"/>
<path d="M15.1902 8.33202C15.1817 8.42527 15.1647 8.527 15.046 8.51852C14.9613 8.51004 14.9104 8.40832 14.9189 8.33202C14.9189 8.27268 14.9697 8.17096 15.063 8.18791C15.1308 8.19639 15.1902 8.24725 15.1902 8.33202Z" fill="white"/>
<path d="M13.241 14.8256C13.3343 14.8256 13.3851 14.851 13.3767 14.9358C13.3682 15.0121 13.3597 15.1138 13.2495 15.1138C13.1732 15.1138 13.08 15.0799 13.0884 14.9781C13.0884 14.8764 13.1393 14.8171 13.241 14.834V14.8256Z" fill="white"/>
<path d="M19.2356 10.8074C19.2356 10.943 19.1763 10.9939 19.0915 10.9854C19.0067 10.9854 18.9474 10.8921 18.9559 10.7904C18.9559 10.7056 19.0237 10.6717 19.083 10.6887C19.1678 10.7056 19.2441 10.748 19.2441 10.8074H19.2356Z" fill="white"/>
<path d="M8.12059 19.1404C8.01887 19.1404 8.03582 19.0472 8.02734 18.9879C8.02734 18.9116 8.05278 18.8437 8.14602 18.8353C8.21384 18.8353 8.31557 18.9285 8.30709 19.0048C8.30709 19.0726 8.20536 19.1404 8.12059 19.1404Z" fill="white"/>
<path d="M14.5477 10.4428C14.4545 10.4428 14.4121 10.392 14.4121 10.3157C14.4121 10.2309 14.4969 10.1377 14.5647 10.1461C14.6579 10.1546 14.6919 10.2309 14.6919 10.3072C14.6919 10.4089 14.6156 10.4344 14.5477 10.4428Z" fill="white"/>
<path d="M15.3344 18.3521C15.3344 18.4284 15.2836 18.4962 15.1988 18.4877C15.1225 18.4877 15.0547 18.4199 15.0547 18.3351C15.0547 18.2503 15.1056 18.191 15.1988 18.191C15.292 18.191 15.3429 18.2419 15.3344 18.3521Z" fill="white"/>
<path d="M12.5801 19.0557C12.5801 18.9709 12.6479 18.9285 12.7072 18.9285C12.7751 18.9285 12.8683 18.9624 12.8598 19.0472C12.8598 19.115 12.8513 19.2252 12.7411 19.2337C12.6479 19.2422 12.5801 19.1574 12.5801 19.0557Z" fill="white"/>
<path d="M18.2182 14.088C18.2182 14.1643 18.1334 14.2745 18.074 14.2661C17.9893 14.2491 17.9469 14.1728 17.9384 14.105C17.9299 14.0202 17.9808 13.9609 18.074 13.9524C18.1503 13.9524 18.2182 14.0202 18.2266 14.088H18.2182Z" fill="white"/>
<path d="M17.7938 14.5119C17.8956 14.5119 17.9549 14.5458 17.9464 14.656C17.9464 14.7323 17.9125 14.8001 17.8277 14.8001C17.743 14.8001 17.6667 14.7493 17.6582 14.6645C17.6582 14.5882 17.7006 14.5204 17.7938 14.5204V14.5119Z" fill="white"/>
<path d="M10.2398 4.81399C10.1805 4.80551 10.1042 4.81399 10.0957 4.72922C10.0957 4.64444 10.1805 4.53424 10.2483 4.54272C10.3331 4.55967 10.4009 4.61053 10.4009 4.70378C10.4009 4.80551 10.3246 4.82246 10.2398 4.82246V4.81399Z" fill="white"/>
<path d="M16.8356 13.5625C16.8356 13.4862 16.9713 13.376 17.0306 13.3929C17.1154 13.4268 17.1323 13.5116 17.1323 13.5794C17.1323 13.6557 17.0476 13.6981 17.0052 13.6896C16.9373 13.6727 16.8187 13.6811 16.8356 13.5625Z" fill="white"/>
<path d="M16.505 15.5037C16.4965 15.5546 16.4965 15.6139 16.4033 15.6139C16.327 15.6139 16.2168 15.5122 16.2168 15.4359C16.2168 15.3511 16.2931 15.3257 16.3524 15.3088C16.4202 15.2918 16.505 15.402 16.505 15.5037Z" fill="white"/>
<path d="M5.28221 12.3248C5.38394 12.3163 5.40089 12.3926 5.40937 12.4604C5.41785 12.5791 5.31612 12.5961 5.23135 12.6215C5.17201 12.6384 5.12962 12.613 5.12962 12.5452C5.12114 12.435 5.18896 12.3333 5.28221 12.3248Z" fill="white"/>
<path d="M15.1055 10.4005C15.1055 10.3072 15.1479 10.2309 15.2411 10.2224C15.3174 10.2224 15.3767 10.2733 15.3937 10.3411C15.4106 10.4174 15.292 10.5276 15.2072 10.5276C15.1309 10.5276 15.1139 10.5022 15.1055 10.4005Z" fill="white"/>
<path d="M8.67166 5.30566C8.66318 5.39891 8.62927 5.45825 8.5445 5.48369C8.51059 5.49216 8.40039 5.34805 8.40039 5.30566C8.40039 5.20394 8.46821 5.17003 8.55298 5.17851C8.63775 5.17851 8.67166 5.24632 8.68014 5.31414L8.67166 5.30566Z" fill="white"/>
<path d="M19.8709 10.1122C19.837 10.1885 19.8709 10.2987 19.7522 10.2818C19.6675 10.2733 19.5742 10.2394 19.5742 10.1207C19.5742 10.0529 19.6929 9.9766 19.7607 9.98508C19.837 9.99355 19.854 10.0529 19.8624 10.1038L19.8709 10.1122Z" fill="white"/>
<path d="M18.3622 15.4613C18.4046 15.4953 18.4979 15.5037 18.4894 15.5885C18.4894 15.6733 18.4301 15.7496 18.3538 15.7665C18.3029 15.775 18.2012 15.758 18.2012 15.6478C18.2012 15.58 18.2944 15.4613 18.3538 15.4613H18.3622Z" fill="white"/>
<path d="M18.0135 8.25573C17.9965 8.31507 17.9711 8.39984 17.8778 8.39136C17.7761 8.38289 17.7422 8.29811 17.7422 8.19639C17.7422 8.07771 17.8439 8.09466 17.9033 8.08619C18.0135 8.06923 17.9965 8.16248 18.005 8.25573H18.0135Z" fill="white"/>
<path d="M13.5219 19.5897C13.5897 19.6067 13.6745 19.6406 13.666 19.7339C13.666 19.8101 13.6066 19.878 13.5134 19.878C13.4286 19.878 13.3693 19.8441 13.3778 19.7423C13.3778 19.6576 13.4032 19.5897 13.5219 19.5897Z" fill="white"/>
<path d="M6.57893 7.47583C6.57045 7.35715 6.62979 7.30628 6.73152 7.29781C6.81629 7.29781 6.84172 7.35715 6.8502 7.42496C6.85867 7.50974 6.73999 7.62842 6.6637 7.61994C6.57893 7.60298 6.59588 7.52669 6.5874 7.4843L6.57893 7.47583Z" fill="white"/>
<path d="M11.6297 16.9025C11.723 16.9194 11.8162 16.9279 11.8078 17.0296C11.8078 17.1059 11.7569 17.1907 11.6552 17.1822C11.5789 17.1822 11.5195 17.1229 11.5195 17.0381C11.5195 16.9533 11.5619 16.9025 11.6297 16.9025Z" fill="white"/>
<path d="M16.7168 8.84913C16.7338 8.79827 16.7253 8.70502 16.827 8.70502C16.8948 8.70502 16.9965 8.70502 16.9965 8.81522C16.9965 8.90847 16.9287 8.99325 16.8355 9.00172C16.7677 9.00172 16.7168 8.94238 16.7253 8.84913H16.7168Z" fill="white"/>
<path d="M8.18834 9.6799C8.16291 9.75619 8.18834 9.85792 8.05271 9.84944C7.95098 9.84096 7.90859 9.7901 7.91707 9.6799C7.92555 9.55274 8.02727 9.56969 8.09509 9.56122C8.17139 9.55274 8.17986 9.62903 8.18834 9.68837V9.6799Z" fill="white"/>
<path d="M17.023 16.2836C17.1247 16.2752 17.1756 16.343 17.1756 16.4277C17.1841 16.5295 17.0908 16.5549 17.023 16.5549C16.9382 16.5549 16.8874 16.4956 16.8789 16.4023C16.8789 16.3091 16.9382 16.2836 17.0145 16.2836H17.023Z" fill="white"/>
<path d="M11.359 15.9361C11.4268 15.953 11.4692 16.0208 11.4777 16.0887C11.4862 16.165 11.3929 16.2582 11.3251 16.2412C11.2318 16.2243 11.1979 16.1565 11.1895 16.0717C11.1895 16.0039 11.2827 15.9276 11.359 15.9276V15.9361Z" fill="white"/>
<path d="M12.2583 15.0799C12.2583 15.1562 12.2244 15.224 12.1396 15.2155C12.0548 15.207 11.9785 15.1646 11.9785 15.0544C11.9785 14.9866 11.9955 14.9188 12.0887 14.9273C12.182 14.9273 12.2667 14.9612 12.2667 15.0799H12.2583Z" fill="white"/>
<path d="M9.52893 12.5198C9.63914 12.5198 9.67304 12.5961 9.68152 12.6808C9.69847 12.7741 9.62218 12.808 9.56284 12.8165C9.47807 12.8249 9.40177 12.7656 9.3933 12.6808C9.38482 12.5961 9.45264 12.5452 9.52893 12.5282V12.5198Z" fill="white"/>
<path d="M19.752 10.7056C19.7689 10.6293 19.7859 10.5361 19.8791 10.5446C19.9554 10.5446 20.0147 10.6209 20.0402 10.7056C20.0571 10.765 19.93 10.8667 19.8622 10.8582C19.7689 10.8582 19.7689 10.7735 19.752 10.7056Z" fill="white"/>
<path d="M17.2843 10.6209C17.3012 10.7226 17.2334 10.7565 17.1571 10.7565C17.0639 10.7565 17.0215 10.6887 17.0215 10.6039C17.0215 10.5107 17.0808 10.4513 17.1826 10.4513C17.2419 10.4513 17.2843 10.5276 17.2843 10.6124V10.6209Z" fill="white"/>
<path d="M7.69826 6.4077C7.74912 6.4077 7.79998 6.45856 7.78303 6.52638C7.76608 6.5942 7.78303 6.68745 7.6813 6.71288C7.63892 6.72136 7.48633 6.57724 7.48633 6.52638C7.48633 6.46704 7.57958 6.4077 7.68978 6.4077H7.69826Z" fill="white"/>
<path d="M6.00175 13.4692C5.93394 13.4522 5.88307 13.4268 5.89155 13.342C5.89155 13.2488 5.96784 13.1725 6.05262 13.181C6.14586 13.1895 6.16282 13.2658 6.16282 13.342C6.16282 13.4353 6.08652 13.4607 6.00175 13.4692Z" fill="white"/>
<path d="M10.7993 19.5474C10.8162 19.6406 10.7484 19.6576 10.6721 19.6576C10.5619 19.6576 10.528 19.5643 10.5195 19.488C10.5195 19.4117 10.5789 19.3609 10.6552 19.3778C10.7484 19.3863 10.8162 19.4371 10.7908 19.5558L10.7993 19.5474Z" fill="white"/>
<path d="M15.6989 9.8664C15.6904 9.95964 15.665 10.0444 15.5632 10.0444C15.4615 10.0444 15.4361 9.96812 15.4361 9.89183C15.4276 9.78162 15.5209 9.74771 15.5972 9.73924C15.6734 9.73924 15.6819 9.81553 15.6989 9.8664Z" fill="white"/>
<path d="M10.7062 7.00958C10.7062 7.08588 10.6383 7.12826 10.5451 7.12826C10.4349 7.12826 10.4518 7.02654 10.4434 6.9672C10.4434 6.89938 10.4857 6.83156 10.5705 6.82308C10.6892 6.82308 10.6892 6.90786 10.6977 7.00958H10.7062Z" fill="white"/>
<path d="M7.21385 7.64537C7.1206 7.64537 7.05279 7.61146 7.06126 7.51821C7.06126 7.43344 7.11213 7.3741 7.20537 7.36562C7.3071 7.36562 7.34949 7.42496 7.34949 7.51821C7.34949 7.61146 7.28167 7.62842 7.21385 7.63689V7.64537Z" fill="white"/>
<path d="M20.4215 11.1465C20.5063 11.1804 20.5402 11.2567 20.5487 11.333C20.5487 11.4177 20.4724 11.4516 20.4045 11.4516C20.3198 11.4516 20.252 11.3923 20.252 11.3075C20.252 11.2058 20.3537 11.1888 20.4215 11.1465Z" fill="white"/>
<path d="M17.3108 15.5037C17.3871 15.5037 17.4549 15.5207 17.4549 15.6055C17.4549 15.6987 17.3786 15.7665 17.2938 15.775C17.1921 15.775 17.1582 15.7072 17.1582 15.6394C17.1582 15.5631 17.226 15.5122 17.3108 15.5037Z" fill="white"/>
<path d="M9.89359 6.76374C9.8173 6.76374 9.75796 6.71288 9.76643 6.60268C9.76643 6.5179 9.83425 6.47552 9.91902 6.48399C9.99532 6.48399 10.0547 6.55181 10.0462 6.62811C10.0462 6.68745 10.0292 6.77222 9.89359 6.76374Z" fill="white"/>
<path d="M15.8778 12.3672C15.971 12.3672 16.1067 12.4774 16.0812 12.5198C16.0558 12.5791 16.0389 12.6723 15.9456 12.6554C15.8608 12.6554 15.793 12.6045 15.8015 12.5113C15.8015 12.4604 15.8015 12.3672 15.8778 12.3587V12.3672Z" fill="white"/>
<path d="M9.0115 13.1725C9.00303 13.2403 8.98607 13.3081 8.89282 13.3081C8.80805 13.3081 8.74023 13.2573 8.74023 13.1725C8.74023 13.0793 8.81653 13.0114 8.89282 13.003C8.98607 12.9945 8.99455 13.0962 9.0115 13.1725Z" fill="white"/>
<path d="M14.5645 11.0193C14.5645 10.9176 14.6492 10.8158 14.7255 10.8328C14.7933 10.8413 14.8357 10.8921 14.8357 10.9684C14.8357 11.0362 14.7255 11.1465 14.6662 11.1465C14.6068 11.1465 14.5645 11.0871 14.5645 11.0193Z" fill="white"/>
<path d="M15.9292 9.40863C15.8614 9.39167 15.7766 9.40863 15.7597 9.31538C15.7427 9.24756 15.8445 9.12888 15.9038 9.12888C15.9971 9.12888 16.0479 9.18822 16.0564 9.27299C16.0564 9.34081 16.0225 9.40863 15.9292 9.40863Z" fill="white"/>
<path d="M9.2313 5.76343C9.32455 5.76343 9.36693 5.8143 9.36693 5.89907C9.36693 5.98384 9.34998 6.07709 9.23977 6.07709C9.14653 6.07709 9.12109 5.99232 9.12109 5.90755C9.12109 5.83125 9.12109 5.75496 9.2313 5.76343Z" fill="white"/>
<path d="M16.4965 18.5301C16.4965 18.6403 16.4117 18.6488 16.3354 18.6572C16.2082 18.6657 16.2252 18.547 16.2167 18.4877C16.1998 18.3945 16.3015 18.4029 16.3608 18.3945C16.4626 18.3775 16.4965 18.4368 16.5049 18.5301H16.4965Z" fill="white"/>
<path d="M18.5652 13.2488C18.5567 13.359 18.4719 13.376 18.3787 13.376C18.2939 13.376 18.2685 13.3166 18.2769 13.2488C18.2769 13.1555 18.3532 13.1132 18.4465 13.1132C18.5312 13.1132 18.5652 13.164 18.5652 13.2488Z" fill="white"/>
<path d="M20.0568 13.2997C20.1925 13.2912 20.201 13.3675 20.201 13.4522C20.201 13.537 20.1586 13.5964 20.0738 13.5964C19.9721 13.5964 19.9382 13.5201 19.9297 13.4268C19.9297 13.3336 19.9975 13.3081 20.0484 13.2997H20.0568Z" fill="white"/>
<path d="M8.45943 16.2158C8.434 16.2752 8.40857 16.3515 8.3238 16.343C8.23903 16.3345 8.17969 16.2582 8.17969 16.1734C8.17969 16.1056 8.22207 16.0293 8.31532 16.0378C8.41705 16.0463 8.434 16.1395 8.45943 16.2158Z" fill="white"/>
<path d="M15.3105 14.6391C15.3105 14.5712 15.3784 14.5289 15.4547 14.5204C15.5225 14.5204 15.5903 14.5458 15.5988 14.6306C15.5988 14.6984 15.5055 14.8171 15.4377 14.8001C15.3699 14.7832 15.3105 14.7323 15.3105 14.6306V14.6391Z" fill="white"/>
<path d="M9.39278 11.8416C9.48603 11.8585 9.51994 11.9264 9.51994 12.0111C9.51994 12.1044 9.46908 12.1298 9.38431 12.1298C9.26563 12.1298 9.2741 12.0366 9.26562 11.9603C9.26562 11.867 9.31649 11.8416 9.40126 11.8416H9.39278Z" fill="white"/>
<path d="M13.7322 5.68714C13.7322 5.78039 13.6559 5.80582 13.5966 5.8143C13.5033 5.8143 13.4609 5.72952 13.4609 5.66171C13.4609 5.58541 13.5118 5.51759 13.605 5.51759C13.7153 5.51759 13.7068 5.61932 13.7322 5.68714Z" fill="white"/>
<path d="M12.8344 4.3647C12.8344 4.46642 12.8005 4.53424 12.6988 4.53424C12.631 4.53424 12.5547 4.52576 12.5547 4.42404C12.5547 4.33079 12.6395 4.25449 12.7242 4.26297C12.8005 4.26297 12.8514 4.29688 12.826 4.3647H12.8344Z" fill="white"/>
<path d="M8.25748 8.62025C8.32529 8.62025 8.35072 8.65416 8.35072 8.7135C8.35072 8.80675 8.26595 8.91695 8.18966 8.91695C8.12184 8.91695 8.07098 8.88304 8.0625 8.79827C8.0625 8.68807 8.13879 8.62025 8.249 8.62025H8.25748Z" fill="white"/>
<path d="M17.8108 10.8243C17.8871 10.8243 17.9125 10.9176 17.9295 11.0023C17.938 11.0702 17.8871 11.1125 17.8193 11.1125C17.7175 11.1125 17.6667 11.0447 17.6582 10.9515C17.6582 10.8667 17.7091 10.8328 17.8193 10.8328L17.8108 10.8243Z" fill="white"/>
<path d="M16.5564 14.2576C16.5564 14.3678 16.514 14.4271 16.4208 14.4271C16.3191 14.4271 16.2852 14.3508 16.2852 14.2745C16.2852 14.1898 16.353 14.1474 16.4293 14.1474C16.5056 14.1474 16.5649 14.1813 16.5564 14.2491V14.2576Z" fill="white"/>
<path d="M11.9951 9.62056C11.868 9.61208 11.7917 9.56969 11.7832 9.45949C11.7832 9.38319 11.8341 9.31538 11.9104 9.33233C11.9697 9.34929 12.0799 9.34929 12.063 9.46797C12.0545 9.53578 12.0545 9.6036 11.9951 9.61208V9.62056Z" fill="white"/>
<path d="M18.8796 8.39136C18.8881 8.49309 18.8203 8.49309 18.744 8.50157C18.6253 8.51004 18.6253 8.40832 18.6083 8.3405C18.5999 8.27268 18.6507 8.2303 18.7185 8.22182C18.8118 8.21334 18.8796 8.28964 18.8796 8.39136Z" fill="white"/>
<path d="M9.42665 19.1574C9.52838 19.1574 9.56229 19.2252 9.56229 19.31C9.56229 19.4032 9.48599 19.4371 9.41817 19.4371C9.35036 19.4371 9.29102 19.3863 9.29102 19.3015C9.29102 19.2167 9.34188 19.1574 9.43513 19.1574H9.42665Z" fill="white"/>
<path d="M8.35846 12.3417C8.35846 12.4519 8.33302 12.5282 8.21434 12.5367C8.12109 12.5367 8.12109 12.4774 8.12109 12.418C8.12109 12.3163 8.19739 12.2146 8.28216 12.2146C8.37541 12.2146 8.34998 12.2994 8.35846 12.3417Z" fill="white"/>
<path d="M10.3427 12.7741C10.4868 12.7571 10.4783 12.8758 10.4868 12.9436C10.4868 13.0453 10.3935 13.0453 10.3172 13.0538C10.2494 13.0538 10.207 13.0114 10.207 12.9436C10.207 12.8588 10.2494 12.791 10.3427 12.7826V12.7741Z" fill="white"/>
<path d="M17.1919 6.21272C17.1835 6.11948 17.2767 6.08557 17.3191 6.08557C17.4039 6.08557 17.4632 6.15338 17.4632 6.24663C17.4632 6.31445 17.4378 6.37379 17.353 6.38227C17.2767 6.38227 17.1919 6.2975 17.1919 6.21272Z" fill="white"/>
<path d="M19.7611 11.2821C19.8205 11.3075 19.9053 11.3329 19.9053 11.4177C19.9053 11.5025 19.8544 11.5618 19.7696 11.5703C19.6933 11.5703 19.6425 11.5194 19.617 11.4601C19.5916 11.4177 19.7018 11.2906 19.7611 11.2821Z" fill="white"/>
<path d="M18.8023 14.6221C18.8786 14.656 18.9464 14.6984 18.9464 14.7832C18.9464 14.8679 18.8956 14.9273 18.8108 14.9188C18.7345 14.9188 18.6667 14.8595 18.6582 14.7747C18.6582 14.6899 18.726 14.656 18.7938 14.6221H18.8023Z" fill="white"/>
<path d="M18.8271 9.6799C18.8271 9.6799 18.8525 9.7901 18.7508 9.7901C18.666 9.7901 18.5643 9.6799 18.5728 9.58665C18.5728 9.51883 18.6236 9.48492 18.6999 9.48492C18.8186 9.48492 18.8271 9.4934 18.8271 9.6799Z" fill="white"/>
<path d="M12.9868 18.0045C13.0631 18.0045 13.1139 18.0384 13.1309 18.1062C13.1394 18.1571 13.0122 18.3012 12.9698 18.3012C12.8596 18.3012 12.8766 18.208 12.8681 18.1401C12.8596 18.0469 12.9105 18.0045 12.9953 18.0045H12.9868Z" fill="white"/>
<path d="M11.6729 14.1813C11.6729 14.2745 11.656 14.3424 11.5712 14.3339C11.4865 14.3339 11.4186 14.283 11.4102 14.1898C11.4102 14.0965 11.4695 14.0457 11.5543 14.0541C11.6475 14.0541 11.6814 14.1219 11.6729 14.1898V14.1813Z" fill="white"/>
<path d="M6.11294 8.99324C6.1299 9.06954 6.10446 9.1204 6.01121 9.11193C5.93492 9.11193 5.85863 9.09497 5.85015 9.0102C5.84167 8.9339 5.93492 8.83218 6.01121 8.84066C6.09599 8.84913 6.13837 8.90847 6.11294 8.99324Z" fill="white"/>
<path d="M19.2524 14.3847C19.2524 14.4695 19.227 14.5373 19.1337 14.5373C19.0489 14.5373 18.9727 14.4949 18.9727 14.4102C18.9727 14.3084 19.0489 14.2745 19.1337 14.2745C19.21 14.2745 19.2439 14.3254 19.2524 14.3932V14.3847Z" fill="white"/>
<path d="M12.4444 5.78039C12.4613 5.93298 12.3341 5.89907 12.2494 5.90755C12.1561 5.91602 12.1731 5.83973 12.1731 5.78039C12.1731 5.72105 12.2833 5.6278 12.3511 5.63628C12.4274 5.64475 12.4613 5.69562 12.4528 5.78039H12.4444Z" fill="white"/>
<path d="M11.1647 6.65354C11.0545 6.64506 10.9867 6.5942 10.9613 6.50943C10.9528 6.46704 11.0969 6.36531 11.1563 6.37379C11.258 6.39075 11.2495 6.484 11.258 6.55181C11.258 6.61115 11.2071 6.65354 11.1647 6.65354Z" fill="white"/>
<path d="M9.17212 7.72167C9.1043 7.71319 9.02801 7.69623 9.01953 7.60298C9.01953 7.49278 9.12126 7.46735 9.19755 7.45887C9.27385 7.4504 9.31623 7.52669 9.31623 7.59451C9.31623 7.6708 9.27385 7.73862 9.17212 7.72167Z" fill="white"/>
<path d="M10.5712 8.02684C10.5118 8.00989 10.444 8.00989 10.4355 7.92512C10.4355 7.84035 10.5203 7.7471 10.5966 7.76405C10.656 7.78101 10.7238 7.80644 10.7238 7.89121C10.7238 7.99294 10.656 8.01837 10.5712 8.02684Z" fill="white"/>
<path d="M10.9867 11.7144C10.9698 11.7822 10.9359 11.867 10.8511 11.867C10.7663 11.867 10.7324 11.7738 10.7324 11.6975C10.7324 11.6042 10.7748 11.5534 10.8765 11.5534C10.9783 11.5534 10.9613 11.6381 10.9783 11.7144H10.9867Z" fill="white"/>
<path d="M7.34138 13.537C7.24813 13.5455 7.19727 13.4862 7.19727 13.4099C7.19727 13.3336 7.24813 13.2488 7.34138 13.2573C7.4431 13.2573 7.46006 13.359 7.46854 13.4438C7.47701 13.5285 7.41767 13.537 7.34986 13.537H7.34138Z" fill="white"/>
<path d="M9.25724 8.37441C9.34201 8.39984 9.41831 8.42527 9.41831 8.50157C9.41831 8.56091 9.41831 8.67959 9.3081 8.66263C9.24876 8.66263 9.14703 8.66263 9.16399 8.55243C9.17247 8.48461 9.18942 8.40832 9.26572 8.37441H9.25724Z" fill="white"/>
<path d="M9.90106 12.3248C9.90106 12.2654 10.0113 12.1298 10.0621 12.1468C10.1638 12.1807 10.1384 12.2824 10.1469 12.3502C10.1554 12.418 10.096 12.4519 10.0197 12.4519C9.92649 12.4519 9.90106 12.4096 9.89258 12.3163L9.90106 12.3248Z" fill="white"/>
<path d="M9.0534 5.28871C9.07883 5.22937 9.10426 5.15307 9.18903 5.15307C9.26533 5.15307 9.32467 5.20394 9.32467 5.28871C9.32467 5.39044 9.23142 5.41587 9.15513 5.42435C9.07883 5.42435 9.0534 5.365 9.04492 5.28871H9.0534Z" fill="white"/>
<path d="M14.3941 5.53455C14.5043 5.53455 14.5551 5.59389 14.5551 5.67866C14.5551 5.76343 14.5043 5.80582 14.428 5.78886C14.3602 5.78039 14.2754 5.77191 14.2754 5.67018C14.2754 5.58541 14.3263 5.53455 14.3941 5.52607V5.53455Z" fill="white"/>
<path d="M16.5654 16.8092C16.54 16.8855 16.4976 16.9533 16.4213 16.9703C16.362 16.9872 16.2518 16.8516 16.2602 16.7923C16.2857 16.699 16.3789 16.699 16.4467 16.6905C16.5061 16.6905 16.5485 16.7329 16.5569 16.8007L16.5654 16.8092Z" fill="white"/>
<path d="M19.811 8.23877C19.794 8.30659 19.8025 8.38289 19.7093 8.39136C19.6499 8.39136 19.5312 8.29811 19.5312 8.23877C19.5312 8.13705 19.616 8.12009 19.6838 8.11162C19.7601 8.11162 19.8025 8.16248 19.811 8.23877Z" fill="white"/>
<path d="M7.84921 5.89907C7.79835 5.89059 7.73053 5.88211 7.739 5.79734C7.739 5.72105 7.75596 5.6278 7.85769 5.6278C7.94246 5.6278 8.0018 5.69562 8.0018 5.77191C8.0018 5.84821 7.93398 5.89059 7.84921 5.89907Z" fill="white"/>
<path d="M17.4043 7.61994C17.4297 7.52669 17.4552 7.45887 17.5569 7.47583C17.6417 7.4843 17.6756 7.53517 17.6671 7.61146C17.6671 7.68776 17.5484 7.76405 17.4806 7.7471C17.4043 7.73014 17.4213 7.66232 17.4043 7.61994Z" fill="white"/>
<path d="M6.48591 17.4365C6.40961 17.4365 6.3418 17.4111 6.3418 17.3179C6.3418 17.2416 6.38418 17.1737 6.46895 17.1737C6.54525 17.1737 6.62154 17.2161 6.62154 17.3094C6.62154 17.4026 6.5622 17.4281 6.47743 17.4365H6.48591Z" fill="white"/>
<path d="M6.95197 9.23908C6.85872 9.23908 6.82481 9.20517 6.83329 9.1204C6.83329 9.01868 6.9011 8.99324 6.98588 8.99324C7.0876 8.99324 7.0876 9.08649 7.09608 9.14583C7.10456 9.24756 7.01978 9.23061 6.95197 9.23908Z" fill="white"/>
<path d="M14.428 18.7166C14.5551 18.7166 14.606 18.7505 14.606 18.8437C14.606 18.9285 14.5721 18.9794 14.4788 18.9794C14.3771 18.9794 14.3517 18.9116 14.3347 18.8353C14.3262 18.742 14.3941 18.7251 14.428 18.7166Z" fill="white"/>
<path d="M11.8846 4.30536C11.8592 4.3647 11.8337 4.44099 11.749 4.44099C11.6727 4.44099 11.5879 4.41556 11.5879 4.31383C11.5879 4.23754 11.6388 4.1782 11.715 4.16972C11.8083 4.15277 11.8422 4.23754 11.8761 4.31383L11.8846 4.30536Z" fill="white"/>
<path d="M17.0653 12.8843C17.1416 12.8843 17.2094 12.9097 17.201 12.9945C17.1925 13.0538 17.1925 13.1555 17.0738 13.1471C16.9721 13.1386 16.9297 13.0962 16.9297 12.9945C16.9297 12.9012 16.9806 12.8758 17.0653 12.8928V12.8843Z" fill="white"/>
<path d="M13.7419 4.68683C13.7419 4.7716 13.7504 4.8479 13.6402 4.8479C13.5385 4.8479 13.4961 4.78856 13.4961 4.69531C13.4961 4.60206 13.5554 4.56815 13.6402 4.56815C13.725 4.56815 13.7589 4.61901 13.7504 4.68683H13.7419Z" fill="white"/>
<path d="M19.9386 9.43406C19.9386 9.37472 19.9895 9.31538 20.0827 9.32385C20.1675 9.33233 20.2268 9.39167 20.2099 9.47644C20.2014 9.56969 20.1251 9.59512 20.0488 9.57817C19.9895 9.56969 19.9132 9.55274 19.9386 9.43406Z" fill="white"/>
<path d="M7.23041 15.6818C7.13716 15.6902 7.12868 15.6139 7.12021 15.5546C7.11173 15.4783 7.15411 15.402 7.23889 15.4105C7.3067 15.4105 7.39148 15.4529 7.39148 15.5376C7.39148 15.6309 7.31518 15.6733 7.23041 15.6818Z" fill="white"/>
<path d="M12.538 8.65416C12.6143 8.65416 12.6736 8.69654 12.6736 8.77284C12.6736 8.84913 12.6228 8.92543 12.538 8.92543C12.4702 8.92543 12.4023 8.88304 12.4023 8.80675C12.4023 8.73045 12.4363 8.65416 12.538 8.65416Z" fill="white"/>
<path d="M18.7255 17.1398C18.5899 17.1398 18.5645 17.0551 18.5645 16.9872C18.5645 16.9279 18.6238 16.877 18.6831 16.877C18.7679 16.877 18.8357 16.9279 18.8357 17.0127C18.8357 17.0974 18.8018 17.1737 18.717 17.1398H18.7255Z" fill="white"/>
<path d="M13.7328 4.12733C13.7328 4.21211 13.7159 4.2884 13.6226 4.27992C13.5294 4.27145 13.4785 4.18667 13.4785 4.1019C13.4785 4.00018 13.5633 3.9917 13.6311 3.9917C13.7498 3.9917 13.6989 4.09343 13.7328 4.13581V4.12733Z" fill="white"/>
<path d="M12.8518 8.17943C12.8518 8.17943 12.9705 8.19639 12.9705 8.28116C12.9705 8.34898 12.9366 8.43375 12.8603 8.42527C12.784 8.42527 12.6738 8.40832 12.6738 8.28964C12.6738 8.19639 12.7501 8.17943 12.8518 8.17096V8.17943Z" fill="white"/>
<path d="M13.9112 16.6482C13.9112 16.716 13.8688 16.7668 13.7841 16.7668C13.6908 16.7668 13.6484 16.6905 13.6484 16.6058C13.6484 16.5379 13.6993 16.4786 13.7841 16.4786C13.8943 16.4786 13.9028 16.5549 13.9112 16.6482Z" fill="white"/>
<path d="M9.88477 6.00927C9.88477 5.9245 9.94411 5.86516 10.0204 5.87364C10.0882 5.87364 10.1476 5.94145 10.1391 6.01775C10.1391 6.07709 10.1391 6.17034 10.0204 6.16186C9.91867 6.15338 9.88477 6.10252 9.88477 6.01775V6.00927Z" fill="white"/>
<path d="M7.01953 14.3932C7.01953 14.3508 7.03649 14.3 7.1043 14.3C7.1806 14.3 7.28232 14.4017 7.28232 14.478C7.28232 14.5628 7.22298 14.5967 7.14669 14.5967C7.07887 14.5967 7.01953 14.5119 7.01953 14.3932Z" fill="white"/>
<path d="M17.9633 8.81522C17.9717 8.91695 17.9039 8.95086 17.8276 8.95934C17.7174 8.97629 17.692 8.87456 17.6835 8.79827C17.6666 8.70502 17.7683 8.69654 17.8276 8.68807C17.8955 8.68807 17.9717 8.7135 17.9633 8.80675V8.81522Z" fill="white"/>
<path d="M14.6493 17.1822C14.7426 17.1653 14.7849 17.2246 14.7849 17.3009C14.7849 17.3772 14.7595 17.462 14.6663 17.4704C14.5815 17.4704 14.5221 17.3941 14.5137 17.3263C14.5137 17.2585 14.5645 17.1907 14.6493 17.1907V17.1822Z" fill="white"/>
<path d="M17.2335 14.6475C17.2335 14.7493 17.2081 14.8256 17.1063 14.8256C17.03 14.8256 16.9707 14.7747 16.9707 14.6899C16.9707 14.5882 17.047 14.5543 17.1148 14.5458C17.1826 14.5373 17.242 14.5797 17.2335 14.6475Z" fill="white"/>
<path d="M17.7509 13.3675C17.8187 13.3929 17.8696 13.4183 17.8696 13.4946C17.8696 13.5625 17.7763 13.6642 17.7085 13.6472C17.6322 13.6387 17.5898 13.5794 17.5898 13.5031C17.5898 13.3929 17.7 13.4183 17.7509 13.3675Z" fill="white"/>
<path d="M8.73147 6.39075C8.73147 6.47552 8.68061 6.50943 8.61279 6.5179C8.52802 6.52638 8.49411 6.45856 8.46868 6.39922C8.45172 6.34836 8.55345 6.22968 8.61279 6.22968C8.72299 6.22968 8.71452 6.33141 8.73147 6.39075Z" fill="white"/>
<path d="M15.9375 19.3863C15.9375 19.293 15.9968 19.2676 16.0731 19.2676C16.1579 19.2676 16.2088 19.3185 16.2088 19.4032C16.2088 19.4795 16.1749 19.5389 16.0901 19.5389C16.0053 19.5389 15.946 19.488 15.946 19.3948L15.9375 19.3863Z" fill="white"/>
<path d="M6.18791 7.61994C6.154 7.68776 6.12857 7.78948 6.05227 7.78101C5.97598 7.78101 5.93359 7.68776 5.93359 7.61146C5.93359 7.53517 5.99293 7.47583 6.06923 7.47583C6.16248 7.47583 6.154 7.56908 6.18791 7.61994Z" fill="white"/>
<path d="M5.11107 11.6127C5.1026 11.689 5.07716 11.7822 4.97544 11.7822C4.89914 11.7822 4.87371 11.689 4.86523 11.6127C4.86523 11.511 4.94153 11.4771 5.01782 11.4686C5.09412 11.4686 5.1026 11.5449 5.11107 11.6127Z" fill="white"/>
<path d="M14.3943 15.4105C14.3943 15.5292 14.335 15.5546 14.2587 15.5631C14.1739 15.5631 14.1315 15.4868 14.123 15.419C14.123 15.3342 14.1993 15.2833 14.2756 15.2833C14.3519 15.2833 14.4028 15.3427 14.3858 15.4105H14.3943Z" fill="white"/>
<path d="M7.78232 10.6378C7.77385 10.7056 7.76537 10.7735 7.6806 10.7565C7.6043 10.748 7.51953 10.7311 7.51953 10.6293C7.51953 10.5446 7.57887 10.4768 7.66364 10.4852C7.74842 10.4852 7.76537 10.57 7.77385 10.6378H7.78232Z" fill="white"/>
<path d="M14.8344 9.14583C14.8344 9.23061 14.809 9.29842 14.7158 9.28995C14.6479 9.28995 14.5547 9.26452 14.5547 9.17127C14.5547 9.08649 14.6225 9.01868 14.7073 9.01868C14.7751 9.01868 14.826 9.06106 14.826 9.13736L14.8344 9.14583Z" fill="white"/>
<path d="M10.6139 4.13581C10.6224 4.06799 10.6902 4.01713 10.775 4.01713C10.8428 4.01713 10.8767 4.05952 10.8767 4.13581C10.8767 4.22058 10.792 4.29688 10.6987 4.29688C10.6224 4.29688 10.6055 4.22906 10.6055 4.14429L10.6139 4.13581Z" fill="white"/>
<path d="M8.9861 14.6475C8.9861 14.7493 8.92676 14.8001 8.84199 14.7916C8.79112 14.7916 8.71483 14.7747 8.72331 14.6899C8.73178 14.6051 8.74874 14.5204 8.85894 14.5204C8.94371 14.5204 8.97762 14.5712 8.9861 14.6475Z" fill="white"/>
<path d="M12.9958 11.6297C12.9958 11.689 13.0212 11.7738 12.9195 11.7653C12.8347 11.7653 12.7499 11.7314 12.7584 11.6297C12.7584 11.5449 12.8177 11.4855 12.9025 11.4855C13.0042 11.4855 13.0127 11.5534 13.0042 11.6381L12.9958 11.6297Z" fill="white"/>
<path d="M18.6156 12.2485C18.6241 12.3248 18.5648 12.3672 18.48 12.3502C18.3952 12.3417 18.3613 12.2739 18.3613 12.1891C18.3613 12.1129 18.4291 12.062 18.497 12.0705C18.5648 12.0705 18.6326 12.1213 18.6156 12.24V12.2485Z" fill="white"/>
<path d="M18.4457 10.2648C18.4457 10.3581 18.4203 10.4174 18.3186 10.4174C18.2168 10.4174 18.1914 10.3411 18.1914 10.2648C18.1914 10.1631 18.2762 10.1546 18.344 10.1546C18.4118 10.1546 18.4457 10.2055 18.4457 10.2733V10.2648Z" fill="white"/>
<path d="M9.63064 14.0372C9.61369 14.0965 9.5713 14.1559 9.48653 14.1559C9.41872 14.1559 9.35938 14.1219 9.35938 14.0457C9.35938 13.9609 9.41024 13.9015 9.50349 13.8931C9.57978 13.8931 9.63912 13.927 9.63064 14.0457V14.0372Z" fill="white"/>
<path d="M17.8953 6.87395C17.9631 6.8909 18.0055 6.90786 17.997 6.99263C17.997 7.11978 17.8953 7.13674 17.8105 7.12826C17.7342 7.12826 17.7088 7.02654 17.7257 6.9672C17.7427 6.89938 17.819 6.86547 17.8953 6.86547V6.87395Z" fill="white"/>
<path d="M19.7854 12.2824C19.921 12.2739 19.904 12.3672 19.921 12.4265C19.938 12.5113 19.8786 12.5452 19.8108 12.5537C19.7515 12.5706 19.6582 12.4604 19.6582 12.3926C19.6582 12.3078 19.7345 12.2909 19.7854 12.2824Z" fill="white"/>
<path d="M4.15409 14.3169C4.24734 14.3339 4.28972 14.4017 4.2982 14.4865C4.31516 14.5797 4.22191 14.5797 4.17104 14.5882C4.05236 14.6051 4.05236 14.4949 4.03541 14.4271C4.01845 14.3508 4.10323 14.3424 4.15409 14.3169Z" fill="white"/>
<path d="M13.6316 10.7735C13.6061 10.8413 13.5807 10.8921 13.5044 10.8837C13.4196 10.8752 13.3603 10.7904 13.3518 10.7226C13.3348 10.6548 13.4196 10.6124 13.4874 10.6039C13.6061 10.6039 13.5807 10.7141 13.6316 10.765V10.7735Z" fill="white"/>
<path d="M13.936 3.35591C13.936 3.44068 13.9105 3.48307 13.8258 3.48307C13.7495 3.48307 13.6901 3.45764 13.6816 3.37286C13.6816 3.28809 13.724 3.2118 13.8003 3.20332C13.8851 3.20332 13.936 3.27114 13.9275 3.35591H13.936Z" fill="white"/>
<path d="M14.5724 16.0887C14.6318 16.1141 14.7165 16.0971 14.7081 16.2073C14.6996 16.2836 14.6572 16.3599 14.5724 16.3514C14.5046 16.343 14.4198 16.3091 14.4283 16.2073C14.4283 16.1056 14.5046 16.1141 14.5724 16.0971V16.0887Z" fill="white"/>
<path d="M14.3002 9.68837C14.3765 9.68837 14.4783 9.79858 14.4613 9.85792C14.4444 9.91726 14.402 9.9766 14.3426 9.96812C14.2663 9.95117 14.1816 9.9003 14.19 9.80706C14.19 9.74771 14.2239 9.6799 14.3087 9.68837H14.3002Z" fill="white"/>
<path d="M17.7857 11.9687C17.7773 11.867 17.862 11.8416 17.9214 11.8331C17.9892 11.8331 18.0401 11.9009 18.0316 11.9603C18.0231 12.0196 18.0231 12.1213 17.9214 12.1213C17.8281 12.1213 17.7942 12.045 17.7857 11.9687Z" fill="white"/>
<path d="M8.2229 11.2906C8.13813 11.2906 8.07031 11.2567 8.07031 11.1549C8.07031 11.0702 8.14661 11.0193 8.21442 11.0193C8.30767 11.0193 8.33311 11.1125 8.34158 11.1888C8.34158 11.2482 8.29072 11.2906 8.2229 11.2906Z" fill="white"/>
<path d="M16.9796 11.0871C16.9796 11.1634 16.9457 11.2227 16.8694 11.2143C16.7846 11.2058 16.7168 11.1465 16.7168 11.0532C16.7168 10.9769 16.7592 10.9345 16.8355 10.9345C16.9372 10.9345 16.9626 11.0023 16.9711 11.0786L16.9796 11.0871Z" fill="white"/>
<path d="M8.15496 7.2639C8.15496 7.20456 8.19735 7.16217 8.27364 7.15369C8.34994 7.15369 8.39232 7.20456 8.38385 7.28085C8.38385 7.35715 8.38385 7.44192 8.26516 7.44192C8.15496 7.44192 8.16344 7.36562 8.14648 7.2639H8.15496Z" fill="white"/>
<path d="M5.45117 16.4786C5.45117 16.3854 5.48508 16.326 5.56985 16.326C5.65462 16.326 5.69701 16.3938 5.69701 16.4871C5.69701 16.5803 5.64615 16.6058 5.56985 16.6058C5.45965 16.6058 5.46813 16.5295 5.45117 16.4701V16.4786Z" fill="white"/>
<path d="M6.72311 8.18791C6.7994 8.20487 6.85027 8.24725 6.85874 8.32355C6.85874 8.40832 6.7994 8.4507 6.72311 8.45918C6.62986 8.46766 6.6129 8.38289 6.59595 8.32355C6.57899 8.23877 6.66377 8.21334 6.72311 8.18791Z" fill="white"/>
<path d="M17.573 12.5367C17.6577 12.5367 17.7086 12.5961 17.7086 12.6808C17.7086 12.7402 17.6747 12.808 17.5984 12.8165C17.5391 12.8165 17.4373 12.7147 17.4458 12.6554C17.4543 12.5961 17.4797 12.5367 17.5645 12.5452L17.573 12.5367Z" fill="white"/>
<path d="M13.1226 5.23785C13.0632 5.23785 13.0039 5.22089 13.0039 5.13612C13.0039 5.03439 13.0802 5.00049 13.1565 4.99201C13.2243 4.99201 13.3006 5.05983 13.2921 5.11069C13.2921 5.18698 13.2158 5.23785 13.1226 5.23785Z" fill="white"/>
<path d="M10.8679 5.82277C10.8679 5.72952 10.9018 5.66171 11.0035 5.66171C11.0967 5.66171 11.1137 5.738 11.1222 5.80582C11.1222 5.89059 11.0628 5.93298 10.9781 5.93298C10.9018 5.93298 10.8594 5.90755 10.8594 5.82277H10.8679Z" fill="white"/>
<path d="M20.9735 11.9179C21.0329 11.9179 21.1092 11.9179 21.1007 12.0196C21.1007 12.0789 21.1007 12.1637 21.0074 12.1722C20.9311 12.1807 20.8379 12.0874 20.8379 11.9942C20.8379 11.9094 20.9057 11.9179 20.9735 11.9094V11.9179Z" fill="white"/>
<path d="M5.20533 9.06954C5.24771 9.1204 5.33249 9.13736 5.31553 9.23061C5.29858 9.3069 5.24771 9.36624 5.17142 9.37472C5.1036 9.37472 5.05274 9.31538 5.06969 9.24756C5.08665 9.17974 5.11208 9.09497 5.20533 9.06954Z" fill="white"/>
<path d="M6.2133 11.4516C6.2133 11.5279 6.16244 11.5703 6.07767 11.5788C6.00137 11.5788 5.96746 11.5534 5.95898 11.4771C5.95898 11.4092 6.05223 11.2906 6.11157 11.2906C6.16244 11.2906 6.20482 11.3669 6.2133 11.4432V11.4516Z" fill="white"/>
<path d="M14.5213 3.83911C14.6061 3.83911 14.623 3.90693 14.6315 3.97474C14.6315 4.08495 14.5383 4.1019 14.4705 4.11038C14.3857 4.12733 14.3603 4.04256 14.3687 3.98322C14.3687 3.89845 14.445 3.85606 14.5298 3.83911H14.5213Z" fill="white"/>
<path d="M7.91821 14.5034C7.84192 14.4949 7.7741 14.4441 7.76562 14.3593C7.76562 14.2915 7.80801 14.2491 7.88431 14.2491C7.96908 14.2576 8.0369 14.3 8.04537 14.3932C8.04537 14.4695 7.99451 14.4949 7.91821 14.4949V14.5034Z" fill="white"/>
<path d="M5.90887 8.09466C5.91735 8.02684 5.94278 7.94207 6.03603 7.94207C6.10384 7.94207 6.12927 8.00141 6.12927 8.06923C6.12927 8.154 6.05298 8.24725 5.97669 8.23877C5.89191 8.23877 5.90887 8.17096 5.90039 8.09466H5.90887Z" fill="white"/>
<path d="M7.40861 11.6551C7.39166 11.7144 7.40014 11.7907 7.30689 11.7907C7.23059 11.7907 7.1543 11.7568 7.1543 11.672C7.1543 11.5873 7.22211 11.5279 7.30689 11.5279C7.39166 11.5279 7.40014 11.5957 7.41709 11.6636L7.40861 11.6551Z" fill="white"/>
<path d="M4.28166 12.5282C4.29014 12.613 4.24775 12.6384 4.17146 12.6469C4.06973 12.6469 4.02734 12.5876 4.02734 12.5113C4.02734 12.435 4.08668 12.3841 4.16298 12.3841C4.25623 12.3841 4.28166 12.4519 4.28166 12.5282Z" fill="white"/>
<path d="M4.75667 13.4268C4.75667 13.5709 4.68038 13.5794 4.62104 13.5794C4.54474 13.5794 4.50236 13.5201 4.51084 13.4438C4.51084 13.376 4.54474 13.2997 4.62104 13.2997C4.71429 13.2997 4.75667 13.3844 4.75667 13.4268Z" fill="white"/>
<path d="M15.5049 11.7822C15.5049 11.8416 15.4879 11.9094 15.3947 11.9094C15.3353 11.9094 15.2421 11.7907 15.2505 11.7229C15.2505 11.6636 15.3014 11.6297 15.3607 11.6297C15.454 11.6297 15.5049 11.6805 15.5049 11.7822Z" fill="white"/>
<path d="M5.62023 9.83249C5.57784 9.88335 5.62023 9.99355 5.5185 10.002C5.45069 10.002 5.38287 9.95965 5.39135 9.87487C5.39135 9.7901 5.4083 9.69685 5.52698 9.69685C5.62023 9.69685 5.58632 9.78162 5.61175 9.83249H5.62023Z" fill="white"/>
<path d="M16.2517 7.30628C16.2517 7.38258 16.2008 7.44192 16.133 7.44192C16.0398 7.44192 16.0143 7.34867 16.0059 7.27237C16.0059 7.20456 16.0482 7.16217 16.1245 7.15369C16.2432 7.14522 16.2347 7.22999 16.2517 7.30628Z" fill="white"/>
<path d="M9.27322 7.04349C9.27322 7.13674 9.21388 7.14522 9.14607 7.15369C9.08673 7.15369 9.00195 7.12826 9.00195 7.06044C9.00195 6.99263 9.04434 6.8909 9.12911 6.8909C9.21388 6.8909 9.25627 6.9672 9.26475 7.04349H9.27322Z" fill="white"/>
<path d="M11.8419 10.5276C11.9437 10.5276 11.9691 10.5954 11.9776 10.6717C11.9776 10.7311 11.9521 10.7989 11.8758 10.7989C11.7995 10.7989 11.7148 10.765 11.7232 10.6633C11.7232 10.6039 11.7232 10.5107 11.8334 10.5276H11.8419Z" fill="white"/>
<path d="M16.9877 11.4686C17.1149 11.4686 17.1742 11.5194 17.1742 11.6042C17.1742 11.672 17.1488 11.7568 17.0556 11.7568C16.9793 11.7568 16.9199 11.6975 16.9199 11.6212C16.9199 11.5534 16.9454 11.494 16.9877 11.4771V11.4686Z" fill="white"/>
<path d="M12.9186 13.4946C12.8338 13.5031 12.7914 13.4862 12.7999 13.4014C12.7999 13.3336 12.8168 13.2573 12.9101 13.2573C12.9694 13.2573 13.0712 13.2573 13.0627 13.359C13.0627 13.4522 13.0203 13.5201 12.9186 13.4946Z" fill="white"/>
<path d="M15.6493 5.11069C15.7256 5.11069 15.7849 5.11069 15.7764 5.17851C15.7679 5.2548 15.7764 5.35653 15.6662 5.37348C15.5814 5.38196 15.5475 5.32262 15.5391 5.24632C15.5391 5.16155 15.5475 5.08526 15.6493 5.11069Z" fill="white"/>
<path d="M6.22141 15.4783C6.14511 15.4359 6.1112 15.3596 6.08577 15.2833C6.06882 15.2325 6.1112 15.1731 6.17902 15.1731C6.27227 15.1731 6.32313 15.2325 6.33161 15.3342C6.33161 15.4105 6.28075 15.4444 6.22141 15.4783Z" fill="white"/>
<path d="M19.4121 16.3769C19.4291 16.2752 19.4799 16.2158 19.5647 16.2073C19.6156 16.2073 19.6834 16.2412 19.6749 16.3175C19.6749 16.4023 19.6325 16.4786 19.5308 16.4786C19.463 16.4786 19.4291 16.4277 19.4121 16.3854V16.3769Z" fill="white"/>
<path d="M15.7502 7.35715C15.835 7.34867 15.8774 7.39953 15.8774 7.4843C15.8774 7.56908 15.8096 7.60298 15.7418 7.60298C15.6655 7.60298 15.5977 7.55212 15.5977 7.47583C15.5977 7.39953 15.657 7.35715 15.7502 7.35715Z" fill="white"/>
<path d="M11.7062 7.17913C11.7062 7.28085 11.6129 7.29781 11.5366 7.30628C11.4518 7.32324 11.4434 7.25542 11.4434 7.1876C11.4434 7.08588 11.5197 7.05197 11.6044 7.05197C11.6722 7.05197 11.7146 7.09435 11.6977 7.17913H11.7062Z" fill="white"/>
<path d="M17.4375 9.53578C17.4205 9.62056 17.4036 9.69685 17.3103 9.70533C17.2425 9.70533 17.1917 9.66294 17.2001 9.59513C17.2086 9.51883 17.2001 9.4171 17.3188 9.4171C17.3951 9.4171 17.429 9.46797 17.4375 9.53578Z" fill="white"/>
<path d="M12.2237 12.8419C12.2152 12.9097 12.2237 12.986 12.1135 12.9775C12.0372 12.9775 11.9609 12.9267 11.9694 12.8419C11.9694 12.7656 12.0372 12.7147 12.122 12.7063C12.2068 12.7063 12.2322 12.7571 12.2237 12.8334V12.8419Z" fill="white"/>
<path d="M6.26367 14.5373C6.27215 14.461 6.31454 14.4017 6.39083 14.4017C6.46712 14.4017 6.53494 14.4526 6.52647 14.5373C6.52647 14.6221 6.45865 14.673 6.38235 14.6645C6.30606 14.6645 6.28063 14.6051 6.27215 14.5373H6.26367Z" fill="white"/>
<path d="M11.0283 15.0883C11.0876 15.0883 11.1215 15.1477 11.1046 15.224C11.1046 15.2748 11.0876 15.3596 11.0028 15.3511C10.9181 15.3427 10.8418 15.2918 10.8503 15.1986C10.8503 15.1307 10.9096 15.0799 11.0198 15.0883H11.0283Z" fill="white"/>
<path d="M11.9442 4.94962C12.0544 4.94962 12.0713 5.01744 12.0798 5.08526C12.0798 5.15307 12.0544 5.22937 11.9781 5.22089C11.9018 5.22089 11.834 5.17003 11.834 5.07678C11.834 4.98353 11.8848 4.9581 11.9527 4.9581L11.9442 4.94962Z" fill="white"/>
<path d="M14.708 4.8479C14.708 4.91571 14.6741 4.97505 14.6063 4.96658C14.5384 4.96658 14.4452 4.94962 14.4537 4.85637C14.4537 4.78008 14.5045 4.70378 14.5808 4.70378C14.6571 4.70378 14.708 4.76312 14.708 4.8479Z" fill="white"/>
<path d="M5.72153 12.5028C5.62828 12.5028 5.61133 12.4265 5.61133 12.3672C5.61133 12.2824 5.67067 12.2231 5.74696 12.2231C5.84021 12.2231 5.84021 12.3163 5.84869 12.3841C5.85717 12.4859 5.77239 12.4774 5.72153 12.5028Z" fill="white"/>
<path d="M15.3444 5.38196C15.4376 5.36501 15.4461 5.44978 15.4461 5.48369C15.4461 5.55998 15.4122 5.64475 15.3105 5.65323C15.2342 5.65323 15.1918 5.56846 15.2003 5.52607C15.2088 5.45825 15.2427 5.36501 15.3444 5.38196Z" fill="white"/>
<path d="M15.9453 13.2827C15.9453 13.181 16.0131 13.1386 16.0809 13.1471C16.1572 13.1471 16.2081 13.2149 16.2081 13.2997C16.2081 13.3844 16.1403 13.4099 16.0809 13.4099C15.9962 13.4099 15.9538 13.3505 15.9453 13.2827Z" fill="white"/>
<path d="M16.3357 10.4683C16.3272 10.5615 16.2679 10.6209 16.1746 10.6293C16.1153 10.6378 16.0898 10.5954 16.0898 10.5446C16.0898 10.4598 16.1746 10.3496 16.2424 10.3581C16.3102 10.3581 16.3442 10.392 16.3357 10.4683Z" fill="white"/>
<path d="M5.06034 14.2576C5.06034 14.1813 5.10272 14.105 5.17902 14.105C5.25531 14.105 5.30618 14.1813 5.2977 14.2576C5.2977 14.3424 5.21293 14.3763 5.14511 14.3763C5.08577 14.3763 5.04338 14.3424 5.05186 14.2576H5.06034Z" fill="white"/>
<path d="M5.68895 10.7989C5.68895 10.8921 5.67199 10.9345 5.5957 10.9345C5.48549 10.9345 5.46854 10.8328 5.45159 10.7565C5.43463 10.6972 5.46854 10.6463 5.53636 10.6548C5.62961 10.6633 5.68047 10.7395 5.69743 10.7989H5.68895Z" fill="white"/>
<path d="M19.4978 7.7471C19.5147 7.83187 19.4554 7.8573 19.3961 7.86578C19.3113 7.86578 19.252 7.81491 19.252 7.73014C19.252 7.65385 19.3113 7.59451 19.3876 7.59451C19.4724 7.59451 19.5063 7.6708 19.4978 7.7471Z" fill="white"/>
<path d="M9.38435 4.52576C9.44369 4.52576 9.5115 4.54272 9.5115 4.63597C9.5115 4.72922 9.44369 4.7716 9.35044 4.78008C9.25719 4.78008 9.24023 4.70378 9.24023 4.65292C9.24023 4.5851 9.29957 4.53424 9.38435 4.53424V4.52576Z" fill="white"/>
<path d="M3.9088 13.2997C3.9088 13.3929 3.84946 13.4268 3.79012 13.4268C3.71382 13.4268 3.68839 13.359 3.69687 13.2997C3.70535 13.2318 3.70535 13.1216 3.80707 13.1216C3.9088 13.1216 3.88337 13.2403 3.9088 13.2912V13.2997Z" fill="white"/>
<path d="M4.6449 10.9345C4.6449 10.9854 4.63642 11.0447 4.56861 11.0278C4.50079 11.0023 4.41602 10.96 4.41602 10.8667C4.41602 10.7989 4.4584 10.7311 4.51774 10.7311C4.61947 10.7395 4.63642 10.8328 4.63642 10.9345H4.6449Z" fill="white"/>
<path d="M8.09617 19.9966C8.08769 20.0814 8.05378 20.1323 7.97749 20.1323C7.90967 20.1323 7.84185 20.1153 7.85033 20.0221C7.85033 19.9543 7.88424 19.878 7.97749 19.8695C8.06226 19.8695 8.07921 19.9373 8.10465 19.9882L8.09617 19.9966Z" fill="white"/>
<path d="M15.8346 8.49309C15.7668 8.46766 15.6905 8.4507 15.7159 8.34898C15.7329 8.27268 15.7753 8.22182 15.8516 8.23877C15.9364 8.25573 15.9703 8.3405 15.9703 8.40832C15.9703 8.47614 15.9024 8.49309 15.8346 8.49309Z" fill="white"/>
<path d="M16.2085 6.54334C16.1322 6.56029 16.1152 6.49247 16.1152 6.42465C16.1152 6.34836 16.1491 6.28902 16.2339 6.2975C16.3017 6.2975 16.3611 6.33988 16.3611 6.41618C16.3611 6.48399 16.3356 6.55181 16.217 6.55181L16.2085 6.54334Z" fill="white"/>
<path d="M20.7107 12.5621C20.7107 12.6469 20.6768 12.7147 20.6005 12.7147C20.5242 12.7147 20.4733 12.6384 20.4648 12.5706C20.4648 12.5028 20.5157 12.4519 20.592 12.4519C20.6598 12.4519 20.7192 12.4858 20.7022 12.5621H20.7107Z" fill="white"/>
<path d="M18.7016 11.3838C18.6932 11.4855 18.6762 11.5703 18.5745 11.5618C18.5151 11.5618 18.4473 11.5194 18.4558 11.4432C18.4558 11.3584 18.5236 11.299 18.6084 11.299C18.6593 11.299 18.7101 11.333 18.7016 11.3838Z" fill="white"/>
<path d="M19.2354 12.6469C19.2354 12.7063 19.2015 12.7741 19.1252 12.7741C19.0405 12.7741 18.9896 12.6978 18.9811 12.6215C18.9726 12.5452 19.0489 12.5198 19.1083 12.5113C19.193 12.5113 19.227 12.5621 19.2354 12.6554V12.6469Z" fill="white"/>
<path d="M4.47656 10.1461C4.47656 10.0529 4.52743 10.0105 4.60372 10.0105C4.71392 10.0105 4.70545 10.1122 4.71392 10.1631C4.73088 10.2394 4.65458 10.2563 4.58677 10.2648C4.48504 10.2733 4.50199 10.1885 4.47656 10.1461Z" fill="white"/>
<path d="M10.3243 18.581C10.265 18.581 10.248 18.5216 10.248 18.4538C10.248 18.3775 10.2904 18.3266 10.3583 18.3266C10.4176 18.3266 10.4854 18.3521 10.4854 18.4368C10.4854 18.5216 10.443 18.5725 10.3243 18.5725V18.581Z" fill="white"/>
<path d="M18.6846 7.43344C18.6677 7.52669 18.6507 7.60298 18.549 7.60298C18.4473 7.60298 18.4473 7.50974 18.4473 7.4504C18.4473 7.39105 18.4897 7.33171 18.5659 7.33171C18.6338 7.33171 18.6931 7.36562 18.6846 7.43344Z" fill="white"/>
<path d="M6.45869 16.2412C6.46717 16.343 6.39935 16.3599 6.34848 16.3599C6.24676 16.3599 6.23828 16.2836 6.23828 16.2073C6.23828 16.148 6.23828 16.0717 6.32305 16.0802C6.42478 16.0802 6.44173 16.1734 6.45869 16.2412Z" fill="white"/>
<path d="M13.75 11.4008C13.7585 11.299 13.8009 11.2397 13.8856 11.2397C13.9535 11.2397 14.0043 11.2906 13.9958 11.3499C13.9958 11.4262 13.9535 11.5025 13.8687 11.5025C13.8009 11.5025 13.767 11.4432 13.75 11.4008Z" fill="white"/>
<path d="M19.5308 11.9687C19.6325 11.9772 19.6664 12.0366 19.6664 12.1129C19.6664 12.1637 19.6495 12.2315 19.5901 12.2231C19.5223 12.2061 19.4206 12.1976 19.4121 12.1044C19.4121 12.0366 19.463 11.9857 19.5308 11.9687Z" fill="white"/>
<path d="M11.876 6.02623C11.876 6.08557 11.876 6.15338 11.7828 6.15338C11.6895 6.15338 11.6471 6.08557 11.6387 6.01775C11.6387 5.94145 11.7065 5.89907 11.7828 5.89059C11.876 5.89059 11.876 5.95841 11.8676 6.01775L11.876 6.02623Z" fill="white"/>
<path d="M13.0811 4.01713C13.0811 4.09343 13.0557 4.12733 12.9794 4.12733C12.9116 4.12733 12.8438 4.11038 12.8438 4.02561C12.8438 3.94931 12.8692 3.87302 12.9794 3.87302C13.0726 3.87302 13.0811 3.94931 13.0896 4.00865L13.0811 4.01713Z" fill="white"/>
<path d="M9.94303 8.11162C9.94303 8.17096 9.90912 8.21334 9.8413 8.21334C9.78196 8.21334 9.69719 8.21334 9.70567 8.12009C9.70567 8.0438 9.7311 7.9675 9.82435 7.95903C9.92607 7.95055 9.92607 8.0438 9.95151 8.11162H9.94303Z" fill="white"/>
<path d="M9.94373 4.03409C9.96068 4.16972 9.89286 4.18667 9.82505 4.18667C9.74875 4.18667 9.71484 4.15277 9.71484 4.07647C9.71484 4.00865 9.7318 3.93236 9.81657 3.93236C9.90982 3.93236 9.93525 4.00018 9.94373 4.03409Z" fill="white"/>
<path d="M6.54472 10.0529C6.65493 10.0529 6.68883 10.1038 6.68883 10.1716C6.68883 10.2479 6.63797 10.3072 6.54472 10.3072C6.4769 10.3072 6.42604 10.2648 6.43452 10.1885C6.443 10.1122 6.48538 10.0529 6.54472 10.0529Z" fill="white"/>
<path d="M10.2991 16.716C10.2397 16.699 10.1719 16.6905 10.1804 16.6058C10.1804 16.5379 10.2143 16.4701 10.2821 16.4701C10.3669 16.4701 10.4178 16.5464 10.4262 16.6227C10.4347 16.699 10.3584 16.7075 10.2991 16.716Z" fill="white"/>
<path d="M5.16211 14.9103C5.16211 14.8595 5.16211 14.8001 5.22993 14.7916C5.30622 14.7916 5.39099 14.8849 5.39099 14.9781C5.39099 15.0544 5.32318 15.0544 5.27231 15.0629C5.16211 15.0629 5.17906 14.9781 5.16211 14.9103Z" fill="white"/>
<path d="M3.93418 9.4171C3.90875 9.47644 3.91723 9.58665 3.82398 9.59513C3.76464 9.59513 3.73921 9.51035 3.74768 9.44254C3.74768 9.36624 3.74768 9.28147 3.84941 9.27299C3.9257 9.27299 3.9257 9.34929 3.93418 9.40863V9.4171Z" fill="white"/>
<path d="M6.68032 6.56877C6.68032 6.56877 6.68032 6.45009 6.78205 6.45009C6.88378 6.45009 6.89225 6.53486 6.90073 6.60268C6.90073 6.68745 6.83291 6.69592 6.7651 6.7044C6.68032 6.7044 6.67185 6.66202 6.68032 6.56877Z" fill="white"/>
<path d="M16.4375 9.66294C16.446 9.59513 16.4714 9.54426 16.5562 9.53578C16.6579 9.53578 16.6664 9.6036 16.6664 9.67142C16.6664 9.74771 16.6155 9.80706 16.5392 9.80706C16.4629 9.80706 16.446 9.73076 16.446 9.66294H16.4375Z" fill="white"/>
<path d="M16.7938 6.64506C16.887 6.66202 16.9379 6.69592 16.9379 6.78917C16.9379 6.86547 16.8786 6.89938 16.8192 6.89938C16.7599 6.89938 16.6836 6.87395 16.6921 6.78917C16.6921 6.72136 16.726 6.66202 16.7853 6.65354L16.7938 6.64506Z" fill="white"/>
<path d="M18.2094 6.32293C18.2094 6.39922 18.1754 6.45009 18.0991 6.45856C18.0313 6.45856 17.9805 6.41618 17.9805 6.33988C17.9805 6.23816 18.0568 6.2212 18.1246 6.21272C18.1754 6.21272 18.2263 6.24663 18.2178 6.32293H18.2094Z" fill="white"/>
<path d="M15.8355 11.0447C15.9202 11.0447 15.9542 11.0786 15.9457 11.1634C15.9457 11.2312 15.9202 11.3075 15.8524 11.3075C15.7761 11.3075 15.7168 11.2312 15.7168 11.1465C15.7168 11.0786 15.7677 11.0447 15.8355 11.0447Z" fill="white"/>
<path d="M13.8851 10.2733C13.8681 10.3157 13.8681 10.4005 13.7749 10.4005C13.6816 10.4005 13.6816 10.3157 13.6816 10.2479C13.6816 10.1801 13.7071 10.1207 13.7749 10.1292C13.8342 10.1292 13.8936 10.1716 13.8851 10.2733Z" fill="white"/>
<path d="M5.9082 5.8143C5.92516 5.74648 5.93363 5.66171 6.03536 5.65323C6.08622 5.65323 6.12013 5.67018 6.12013 5.738C6.12013 5.82277 6.04384 5.9245 5.9845 5.9245C5.92516 5.9245 5.9082 5.88211 5.9082 5.8143Z" fill="white"/>
<path d="M12.3942 13.732C12.3942 13.7913 12.3942 13.8507 12.3264 13.8422C12.2586 13.8422 12.1738 13.8252 12.1738 13.7235C12.1738 13.6727 12.1738 13.5879 12.2586 13.5964C12.3434 13.5964 12.4112 13.6303 12.4027 13.732H12.3942Z" fill="white"/>
<path d="M13.3172 7.33171C13.4358 7.32324 13.4528 7.39953 13.4613 7.45887C13.4697 7.51821 13.4274 7.56908 13.3511 7.5606C13.2917 7.5606 13.207 7.45887 13.2154 7.39105C13.2154 7.34867 13.2578 7.32324 13.3172 7.33171Z" fill="white"/>
<path d="M6.05306 6.72983C6.07002 6.86547 6.0022 6.88242 5.9259 6.8909C5.86656 6.8909 5.84961 6.84851 5.84961 6.79765C5.84961 6.71288 5.892 6.63658 5.97677 6.62811C6.07002 6.61963 6.04458 6.71288 6.05306 6.72983Z" fill="white"/>
<path d="M5.21319 8.62873C5.21319 8.70502 5.17081 8.73045 5.11147 8.73045C5.02669 8.73045 4.99279 8.66263 5.00126 8.60329C5.00126 8.53548 5.06908 8.46766 5.1369 8.47614C5.23862 8.47614 5.18776 8.58634 5.21319 8.6372V8.62873Z" fill="white"/>
<path d="M4.31414 8.96781C4.31414 9.03563 4.31414 9.10345 4.23785 9.10345C4.17003 9.10345 4.09373 9.06954 4.10221 8.98477C4.10221 8.91695 4.16155 8.84913 4.22937 8.84066C4.30566 8.84066 4.31414 8.91695 4.31414 8.96781Z" fill="white"/>
<path d="M5.06873 15.8343C5.06873 15.9276 4.99243 15.953 4.93309 15.953C4.8568 15.953 4.84832 15.8683 4.83984 15.8089C4.83984 15.7411 4.87375 15.6902 4.94157 15.6902C5.03482 15.6902 5.03482 15.7835 5.06025 15.8343H5.06873Z" fill="white"/>
<path d="M4.91602 17.5213C4.92449 17.4535 4.94145 17.3857 5.01774 17.3941C5.09404 17.3941 5.12795 17.4704 5.13642 17.5383C5.13642 17.6061 5.08556 17.6485 5.02622 17.6485C4.94145 17.6485 4.94145 17.5722 4.92449 17.5213H4.91602Z" fill="white"/>
<path d="M7.30747 5.738C7.23117 5.738 7.19727 5.70409 7.19727 5.64475C7.19727 5.56846 7.23117 5.50912 7.31595 5.50912C7.40072 5.50912 7.43463 5.56846 7.43463 5.6278C7.43463 5.69562 7.37529 5.74648 7.30747 5.738Z" fill="white"/>
<path d="M14.8097 6.49247C14.8097 6.57724 14.7758 6.62811 14.6995 6.62811C14.6401 6.62811 14.5723 6.60268 14.5808 6.52638C14.5893 6.45856 14.6317 6.39075 14.7164 6.39075C14.7927 6.39075 14.8182 6.44161 14.8012 6.50095L14.8097 6.49247Z" fill="white"/>
<path d="M7.86754 8.28964C7.79972 8.28964 7.74038 8.28116 7.74886 8.21334C7.76581 8.14553 7.78277 8.06075 7.87601 8.05228C7.93536 8.05228 7.98622 8.09466 7.96926 8.16248C7.96079 8.2303 7.95231 8.30659 7.86754 8.28964Z" fill="white"/>
<path d="M17.7855 4.91571C17.7855 5.01744 17.7685 5.08526 17.6922 5.09373C17.6159 5.09373 17.582 5.02592 17.582 4.96658C17.582 4.90724 17.599 4.83094 17.6838 4.83094C17.7516 4.83094 17.794 4.87333 17.7855 4.91571Z" fill="white"/>
<path d="M8.32422 18.2334C8.32422 18.1317 8.35813 18.0723 8.42594 18.0638C8.47681 18.0638 8.53615 18.1062 8.52767 18.174C8.51919 18.2419 8.52767 18.3266 8.41747 18.3182C8.34965 18.3182 8.32422 18.2673 8.32422 18.2334Z" fill="white"/>
<path d="M17.4888 5.58541C17.4888 5.64475 17.4634 5.71257 17.3871 5.70409C17.3193 5.70409 17.2599 5.65323 17.2684 5.57694C17.2684 5.51759 17.3108 5.45825 17.3871 5.46673C17.4549 5.46673 17.5057 5.50064 17.4888 5.58541Z" fill="white"/>
<path d="M12.9023 3.45764C12.9278 3.41525 12.9363 3.34743 13.0125 3.35591C13.0719 3.35591 13.1312 3.38982 13.1312 3.44916C13.1312 3.5085 13.0973 3.56784 13.021 3.56784C12.9532 3.56784 12.9278 3.51698 12.9108 3.46611L12.9023 3.45764Z" fill="white"/>
<path d="M12.1738 7.7471C12.1993 7.68776 12.2416 7.64537 12.301 7.65385C12.3603 7.65385 12.3942 7.69623 12.3858 7.75557C12.3858 7.80644 12.3858 7.88273 12.301 7.87426C12.2332 7.86578 12.1993 7.80644 12.1738 7.7471Z" fill="white"/>
<path d="M16.3262 5.45825C16.3262 5.37348 16.3686 5.34805 16.4364 5.34805C16.5042 5.34805 16.5211 5.39044 16.5127 5.43282C16.4957 5.50912 16.4618 5.57693 16.377 5.58541C16.3601 5.58541 16.3431 5.49216 16.3346 5.45825H16.3262Z" fill="white"/>
<path d="M16.9552 4.82246C17.0061 4.8479 17.0484 4.86485 17.04 4.91571C17.04 4.98353 16.9637 4.99201 16.9128 5.00049C16.8789 5.00049 16.8365 4.99201 16.8535 4.9581C16.8789 4.90724 16.9213 4.86485 16.9552 4.82246Z" fill="white"/>
<path d="M9.98576 11.3669C10.6834 11.3669 11.2489 10.8013 11.2489 10.1038C11.2489 9.40617 10.6834 8.84066 9.98576 8.84066C9.28817 8.84066 8.72266 9.40617 8.72266 10.1038C8.72266 10.8013 9.28817 11.3669 9.98576 11.3669Z" fill="white"/>
<path d="M14.4623 14.5882C15.1599 14.5882 15.7254 14.0227 15.7254 13.3251C15.7254 12.6275 15.1599 12.062 14.4623 12.062C13.7647 12.062 13.1992 12.6275 13.1992 13.3251C13.1992 14.0227 13.7647 14.5882 14.4623 14.5882Z" fill="white"/>
</g>
<defs>
<clipPath id="clip0_6387_79552">
<rect width="19.8621" height="19.3534" fill="white" transform="translate(2.06836 2.48276)"/>
</clipPath>
</defs>
</svg>
