<svg width="24" height="24" viewBox="0 0 24 24" fill="none" xmlns="http://www.w3.org/2000/svg">
<path d="M21 11.2821V5.71843C21 4.49115 20.4729 4.00024 19.1635 4.00024H15.8365C14.5271 4.00024 14 4.49115 14 5.71843V11.2821C14 12.5093 14.5271 13.0002 15.8365 13.0002H19.1635C20.4729 13.0002 21 12.5093 21 11.2821Z" fill="#272559" stroke="#272559" stroke-width="1.5" stroke-linecap="round" stroke-linejoin="round"/>
<path d="M21 19.2502V17.7502C21 16.5002 20.4729 16.0002 19.1635 16.0002H15.8365C14.5271 16.0002 14 16.5002 14 17.7502V19.2502C14 20.5002 14.5271 21.0002 15.8365 21.0002H19.1635C20.4729 21.0002 21 20.5002 21 19.2502Z" fill="#272559" stroke="#272559" stroke-width="1.5" stroke-linecap="round" stroke-linejoin="round"/>
<path d="M11 13.7184V19.2821C11 20.5093 10.3976 21.0002 8.90118 21.0002H5.09882C3.60235 21.0002 3 20.5093 3 19.2821V13.7184C3 12.4912 3.60235 12.0002 5.09882 12.0002H8.90118C10.3976 12.0002 11 12.4912 11 13.7184Z" fill="#272559" stroke="#272559" stroke-width="1.5" stroke-linecap="round" stroke-linejoin="round"/>
<path d="M11 5.75024V7.25024C11 8.50024 10.3976 9.00024 8.90118 9.00024H5.09882C3.60235 9.00024 3 8.50024 3 7.25024V5.75024C3 4.50024 3.60235 4.00024 5.09882 4.00024H8.90118C10.3976 4.00024 11 4.50024 11 5.75024Z" fill="#272559" stroke="#272559" stroke-width="1.5" stroke-linecap="round" stroke-linejoin="round"/>
</svg>
