<svg width="13" height="13" viewBox="0 0 13 13" fill="none" xmlns="http://www.w3.org/2000/svg">
<path d="M6.5 0.25C3.04375 0.25 0.25 3.04375 0.25 6.5C0.25 9.95625 3.04375 12.75 6.5 12.75C9.95625 12.75 12.75 9.95625 12.75 6.5C12.75 3.04375 9.95625 0.25 6.5 0.25ZM9.1875 9.1875C9.12968 9.24544 9.061 9.29141 8.98539 9.32277C8.90978 9.35413 8.82873 9.37028 8.74687 9.37028C8.66502 9.37028 8.58397 9.35413 8.50836 9.32277C8.43275 9.29141 8.36407 9.24544 8.30625 9.1875L6.5 7.38125L4.69375 9.1875C4.57689 9.30436 4.41839 9.37001 4.25312 9.37001C4.08786 9.37001 3.92936 9.30436 3.8125 9.1875C3.69564 9.07064 3.62999 8.91214 3.62999 8.74687C3.62999 8.66504 3.64611 8.58401 3.67742 8.50841C3.70874 8.43281 3.75464 8.36411 3.8125 8.30625L5.61875 6.5L3.8125 4.69375C3.69564 4.57689 3.62999 4.41839 3.62999 4.25312C3.62999 4.08786 3.69564 3.92936 3.8125 3.8125C3.92936 3.69564 4.08786 3.62999 4.25312 3.62999C4.41839 3.62999 4.57689 3.69564 4.69375 3.8125L6.5 5.61875L8.30625 3.8125C8.36411 3.75464 8.43281 3.70874 8.50841 3.67742C8.58401 3.64611 8.66504 3.62999 8.74687 3.62999C8.82871 3.62999 8.90974 3.64611 8.98534 3.67742C9.06094 3.70874 9.12964 3.75464 9.1875 3.8125C9.24536 3.87036 9.29126 3.93906 9.32258 4.01466C9.3539 4.09026 9.37001 4.17129 9.37001 4.25312C9.37001 4.33496 9.3539 4.41599 9.32258 4.49159C9.29126 4.56719 9.24536 4.63589 9.1875 4.69375L7.38125 6.5L9.1875 8.30625C9.425 8.54375 9.425 8.94375 9.1875 9.1875Z" fill="#272559"/>
</svg>
