<svg width="16" height="23" viewBox="0 0 16 23" fill="none" xmlns="http://www.w3.org/2000/svg">
<g clip-path="url(#clip0_6335_193098)">
<path d="M8.56988 22.5399C6.96988 22.4299 4.82988 22.5299 3.72988 21.1499C3.54988 20.2699 3.50988 19.3599 3.37988 18.4699C3.01988 15.5599 2.63988 12.6499 2.29988 9.73988C2.13988 8.72988 2.04988 7.68988 1.90988 6.67988C1.91988 6.42988 1.64988 6.36988 1.50988 6.22988C1.19988 5.97988 0.919879 5.58988 0.959879 5.17988C0.999879 4.92988 1.11988 4.68988 1.28988 4.48988C1.36988 3.68988 1.43988 2.92988 2.26988 2.53988C2.42988 1.79988 2.44988 1.33988 3.27988 0.989881C5.92988 -0.200119 9.46988 -0.220119 12.3099 0.409881C13.0899 0.609881 14.0499 0.879881 14.4799 1.63988C14.6599 1.92988 14.4499 2.36988 14.7099 2.58988C15.3699 2.94988 15.5899 3.60988 15.6099 4.30988C15.7599 4.68988 16.0699 5.02988 15.9799 5.47988C15.9099 6.10988 15.1299 6.27988 15.0399 6.86988C14.9099 8.14988 14.7599 9.42988 14.6199 10.7099C14.3499 13.1099 14.0899 15.5099 13.8299 17.9099C13.3699 20.8799 14.2299 21.8399 10.5999 22.3799C9.93988 22.5099 9.24988 22.4999 8.56988 22.5399Z" fill="white"/>
<path d="M8.56988 22.5399C6.96988 22.4299 4.82988 22.5299 3.72988 21.1499C3.54988 20.2699 3.50988 19.3599 3.37988 18.4699C3.01988 15.5599 2.63988 12.6499 2.29988 9.73988C2.13988 8.72988 2.04988 7.68988 1.90988 6.67988C1.91988 6.42988 1.64988 6.36988 1.50988 6.22988C1.19988 5.97988 0.919879 5.58988 0.959879 5.17988C0.999879 4.92988 1.11988 4.68988 1.28988 4.48988C1.36988 3.68988 1.43988 2.92988 2.26988 2.53988C2.42988 1.79988 2.44988 1.33988 3.27988 0.989881C5.92988 -0.200119 9.46988 -0.220119 12.3099 0.409881C13.0899 0.609881 14.0499 0.879881 14.4799 1.63988C14.6599 1.92988 14.4499 2.36988 14.7099 2.58988C15.3699 2.94988 15.5899 3.60988 15.6099 4.30988C15.7599 4.68988 16.0699 5.02988 15.9799 5.47988C15.9099 6.10988 15.1299 6.27988 15.0399 6.86988C14.9099 8.14988 14.7599 9.42988 14.6199 10.7099C14.3499 13.1099 14.0899 15.5099 13.8299 17.9099C13.3699 20.8799 14.2299 21.8399 10.5999 22.3799C9.93988 22.5099 9.24988 22.4999 8.56988 22.5399ZM8.25988 5.22988C10.2199 5.20988 12.5099 5.09988 14.1599 3.98988C14.7299 3.57988 14.4699 3.16988 14.2299 2.67988C13.9499 2.86988 13.5199 3.13988 12.9499 3.33988C11.9999 3.67988 11.0199 3.71988 11.0099 3.64988C11.0099 3.63988 11.0399 3.57988 11.2099 3.54988C11.7099 3.48988 12.1599 3.33988 12.6299 3.19988C15.3099 2.20988 14.0199 1.09988 11.9699 0.689881C9.66988 0.149881 4.50988 -0.010119 2.71988 1.68988C2.55988 1.95988 2.54988 2.31988 2.78988 2.55988C2.79988 2.61988 3.03988 2.71988 2.92988 2.75988C2.62988 2.75988 2.55988 2.40988 2.50988 2.93988C1.25988 4.89988 7.11988 5.30988 8.24988 5.22988H8.25988ZM8.26988 5.52988C6.55988 5.49988 3.19988 5.32988 2.13988 3.83988C2.10988 3.70988 2.02988 3.54988 2.05988 3.41988C2.09988 3.27988 2.11988 3.11988 2.22988 3.00988C2.29988 2.93988 2.18988 2.90988 2.13988 2.94988C1.57988 3.24988 1.53988 3.97988 1.98988 4.39988C2.38988 4.71988 2.16988 4.79988 1.84988 4.53988C1.75988 4.50988 1.62988 4.29988 1.58988 4.45988C1.45988 4.77988 1.63988 5.12988 1.86988 5.36988C1.90988 5.56988 1.64988 5.33988 1.60988 5.27988C1.49988 5.20988 1.47988 4.93988 1.35988 4.95988C1.23988 5.10988 1.28988 5.33988 1.32988 5.51988C2.04988 6.74988 4.32988 7.10988 5.61988 7.28988C8.53988 7.64988 12.0799 7.57988 14.7099 6.27988C15.0699 6.06988 15.4699 5.78988 15.5399 5.35988C15.5799 5.30988 15.5399 5.17988 15.4699 5.22988C14.8599 5.89988 13.9399 6.19988 13.1199 6.45988C12.9799 6.47988 12.8399 6.55988 12.6899 6.52988C12.8599 6.44988 13.1199 6.33988 13.4499 6.18988C14.2699 5.82988 14.3999 5.73988 14.6199 5.60988C14.9699 5.39988 15.3599 5.04988 15.2699 4.59988C15.2599 4.56988 15.2399 4.54988 15.2199 4.53988C15.1099 4.49988 14.9499 4.70988 14.7599 4.86988C14.6299 4.97988 14.4099 5.05988 13.9699 5.22988C13.7799 5.29988 13.5299 5.39988 13.2199 5.48988C13.1699 5.49988 13.0999 5.51988 13.0199 5.53988C12.9399 5.55988 12.6999 5.60988 12.6799 5.56988C12.6799 5.54988 12.7099 5.50988 12.9199 5.39988C13.7599 5.13988 14.9399 4.76988 15.1899 3.80988C15.2499 3.67988 14.9699 3.08988 14.8699 3.32988C14.8699 5.22988 9.77988 5.57988 8.28988 5.52988H8.26988Z" fill="#272559"/>
<path d="M8.61992 2.95979C9.05992 2.97979 9.50992 2.9298 9.91992 2.8898C9.99992 3.5298 5.81992 3.02979 5.26992 2.7898C2.89992 1.99979 4.90992 1.0498 6.24992 0.899795C7.02992 0.679795 4.89992 2.1698 4.86992 2.34979C6.04992 2.83979 7.33992 2.9498 8.61992 2.9498V2.95979Z" fill="#272559"/>
<path d="M8.25002 3.97985C6.53002 3.98985 4.83002 3.79985 3.28002 3.05985C2.93002 2.73985 4.11003 3.26985 4.20003 3.29985C4.20003 3.29985 4.48003 3.38985 5.07003 3.50985C5.75003 3.64985 7.67002 3.80985 10.25 3.77985C10.08 3.81985 9.84002 3.86985 9.55002 3.91985C9.03003 3.99985 8.61002 3.98985 8.26003 3.98985L8.25002 3.97985Z" fill="#272559"/>
<path d="M9.88991 0.779952C11.5299 0.709952 14.9399 1.83995 11.5999 2.82995C11.4199 2.83995 11.0199 3.08995 10.8999 2.88995C11.8799 2.59995 13.8299 1.85995 11.7699 1.24995C11.5699 1.13995 8.79991 0.819952 9.88991 0.779952Z" fill="#272559"/>
<path d="M4.3101 3.00997C3.9101 2.92997 3.2601 2.82997 3.3001 2.27997C3.3001 1.90997 3.7001 2.12997 3.8501 2.27997C4.0201 2.43997 4.9101 2.89997 4.3101 3.00997Z" fill="#272559"/>
<path d="M4.5498 5.73985C3.8098 5.52985 3.2098 5.28985 2.7998 5.09985C3.2498 5.23985 3.9198 5.43985 4.7398 5.60985C6.9598 6.06985 8.7298 6.01985 9.5198 5.97985C10.8998 5.89985 11.7498 5.68985 11.7498 5.68985C11.7498 5.68985 8.2898 6.78985 4.5498 5.73985Z" fill="#272559"/>
<path d="M8.53002 22.22C9.88002 22.22 11.45 22.12 12.65 21.42C13.39 21.12 13.24 20.4 13.33 19.76C13.41 18.89 13.53 18.02 13.59 17.15C13.93 14.08 14.26 11.01 14.55 7.92995C14.64 7.62995 14.6 7.30995 14.67 6.98995C14.67 6.89995 14.7 6.76995 14.67 6.69995C14.65 6.69995 14.63 6.69995 14.61 6.71995C14.34 6.90995 14.01 7.04995 13.7 7.16995C12.79 7.48995 11.88 7.73995 10.89 7.80995C8.39002 8.09995 5.72002 7.95995 3.34002 7.21995C2.98002 7.10995 2.62002 6.91995 2.27002 6.78995C2.36002 7.47995 2.46002 8.18995 2.51002 8.88995C2.93002 11.94 3.24002 14.98 3.64002 18.08C3.71002 18.66 3.76002 19.27 3.86002 19.84C3.86002 20.1 3.93002 20.35 3.94002 20.61C3.97002 20.83 3.97002 21.04 4.14002 21.21C5.37002 22.22 6.97002 22.21 8.54002 22.22H8.53002Z" fill="white"/>
<path d="M4.17992 12.4902H4.18992C4.18992 12.4902 4.22992 12.4902 4.23992 12.4702C4.24992 12.4602 4.25992 12.4302 4.25992 12.3902V11.7902C4.25992 11.7902 4.25992 11.7202 4.23992 11.7102C4.22992 11.7002 4.20992 11.6902 4.18992 11.6902H4.16992L4.44992 11.6802L4.43992 11.6902C4.41992 11.6902 4.39992 11.6902 4.38992 11.7102C4.37992 11.7202 4.36992 11.7502 4.36992 11.7902V12.3902C4.36992 12.3902 4.36992 12.4602 4.38992 12.4702C4.39992 12.4802 4.41992 12.4902 4.43992 12.4902H4.44992H4.16992" fill="#282454"/>
<path d="M5.57982 12.5001H5.58982C5.58982 12.5001 5.62982 12.5001 5.63982 12.4801C5.64982 12.4701 5.65982 12.4401 5.65982 12.4001V11.7101H5.51982C5.51982 11.7101 5.45982 11.7101 5.42982 11.7101C5.40982 11.7101 5.38982 11.7101 5.36982 11.7201C5.35982 11.7201 5.33982 11.7301 5.33982 11.7401C5.33982 11.7401 5.32982 11.7601 5.31982 11.7701V11.7801C5.31982 11.7801 5.32982 11.7501 5.33982 11.7401C5.33982 11.7301 5.34982 11.7101 5.35982 11.7001V11.6701L5.38982 11.6201V11.6401C5.38982 11.6401 5.39982 11.6401 5.40982 11.6501C5.41982 11.6501 5.43982 11.6501 5.45982 11.6501C5.47982 11.6501 5.50982 11.6501 5.53982 11.6501H5.90982C5.90982 11.6501 5.96982 11.6501 5.99982 11.6501C6.01982 11.6501 6.03982 11.6501 6.04982 11.6501C6.05982 11.6501 6.06982 11.6501 6.06982 11.6401C6.06982 11.6401 6.06982 11.6401 6.06982 11.6301V11.6201C6.06982 11.6201 6.06982 11.6301 6.06982 11.6401V11.6601V11.6901C6.06982 11.6901 6.08982 11.7201 6.09982 11.7301C6.09982 11.7401 6.09982 11.7601 6.10982 11.7701C6.10982 11.7701 6.10982 11.7401 6.08982 11.7301C6.08982 11.7301 6.06982 11.7101 6.05982 11.7101C6.04982 11.7101 6.02982 11.7001 5.99982 11.7001C5.97982 11.7001 5.94982 11.7001 5.90982 11.7001H5.76982V12.3901C5.76982 12.3901 5.76982 12.4601 5.78982 12.4701C5.79982 12.4801 5.81982 12.4901 5.83982 12.4901H5.84982H5.56982L5.57982 12.5001Z" fill="#282454"/>
<path d="M10.3901 12.4902H10.4001C10.4001 12.4902 10.4401 12.4902 10.4501 12.4702C10.4601 12.4602 10.4701 12.4302 10.4701 12.3902V12.0902H10.0701V12.3902C10.0701 12.3902 10.0701 12.4602 10.0901 12.4702C10.1001 12.4802 10.1201 12.4902 10.1401 12.4902H10.1601V12.5002H9.88012H9.89012C9.91012 12.5002 9.93012 12.5002 9.94012 12.4802C9.95012 12.4702 9.96012 12.4402 9.96012 12.4002V11.8002C9.96012 11.8002 9.96012 11.7302 9.94012 11.7202C9.93012 11.7102 9.91012 11.7002 9.89012 11.7002H9.87012H10.1501V11.7102H10.1401C10.1401 11.7102 10.1001 11.7102 10.0901 11.7302C10.0801 11.7402 10.0701 11.7702 10.0701 11.8102V12.0902H10.4701V11.8102C10.4701 11.8102 10.4701 11.7402 10.4501 11.7302C10.4401 11.7202 10.4201 11.7102 10.4001 11.7102H10.3801L10.6601 11.7002H10.6501C10.6301 11.7002 10.6101 11.7002 10.6001 11.7202C10.5901 11.7302 10.5801 11.7602 10.5801 11.8002V12.4002C10.5801 12.4002 10.5801 12.4702 10.6001 12.4802C10.6101 12.4902 10.6301 12.5002 10.6501 12.5002H10.6601H10.3801" fill="#282454"/>
<path d="M8.99971 11.7902C8.99971 11.7902 8.99971 11.7502 8.99971 11.7402C8.99971 11.7302 8.99971 11.7202 8.97971 11.7102C8.96971 11.7102 8.94971 11.7002 8.92971 11.6902C8.90971 11.6902 8.86971 11.6902 8.82971 11.6902H8.64971V12.0702H8.76971C8.76971 12.0702 8.82971 12.0702 8.85971 12.0702C8.87971 12.0702 8.89971 12.0602 8.90971 12.0502C8.91971 12.0502 8.92971 12.0302 8.93971 12.0202C8.93971 12.0102 8.93971 11.9902 8.93971 11.9802L8.94971 11.9602V12.2202H8.93971V12.2002C8.93971 12.2002 8.93971 12.1702 8.93971 12.1602C8.93971 12.1502 8.92971 12.1402 8.90971 12.1302C8.89971 12.1302 8.87971 12.1102 8.85971 12.1102C8.83971 12.1102 8.80971 12.1102 8.76971 12.1102H8.64971V12.4402C8.64971 12.4402 8.64971 12.4602 8.64971 12.4702C8.64971 12.4802 8.64971 12.4902 8.65971 12.4902C8.65971 12.4902 8.67971 12.5002 8.68971 12.5002C8.69971 12.5002 8.71971 12.5002 8.73971 12.5002H8.85971C8.85971 12.5002 8.91971 12.5002 8.94971 12.5002C8.96971 12.5002 8.98971 12.4902 8.99971 12.4802C9.00971 12.4802 9.01971 12.4602 9.02971 12.4502C9.02971 12.4402 9.03971 12.4302 9.03971 12.4202L9.04971 12.4002C9.04971 12.4202 9.04971 12.4402 9.04971 12.4602C9.04971 12.4802 9.04971 12.5002 9.04971 12.5202H8.45971H8.46971C8.47971 12.5202 8.48971 12.5202 8.49971 12.5202C8.49971 12.5202 8.51971 12.5202 8.51971 12.5002C8.51971 12.5002 8.52971 12.4802 8.52971 12.4702C8.52971 12.4602 8.52971 12.4402 8.52971 12.4102V11.8302C8.52971 11.8302 8.52971 11.7902 8.52971 11.7702C8.52971 11.7602 8.52971 11.7402 8.51971 11.7402C8.51971 11.7402 8.50971 11.7302 8.49971 11.7202C8.49971 11.7202 8.47971 11.7202 8.46971 11.7202H8.44971H8.53971H9.00971C9.00971 11.7202 9.00971 11.7602 9.00971 11.7802C9.00971 11.8002 9.00971 11.8202 9.00971 11.8402L8.99971 11.7902Z" fill="#282454"/>
<path d="M7.53975 11.7902C7.53975 11.7902 7.53975 11.7502 7.53975 11.7402C7.53975 11.7302 7.53975 11.7202 7.51975 11.7102C7.50975 11.7102 7.48975 11.7002 7.46975 11.6902C7.44975 11.6902 7.40975 11.6902 7.36975 11.6902H7.18975V12.0702H7.30975C7.30975 12.0702 7.36975 12.0702 7.39975 12.0702C7.41975 12.0702 7.43975 12.0602 7.44975 12.0502C7.45975 12.0502 7.46975 12.0302 7.47975 12.0202C7.47975 12.0102 7.47975 11.9902 7.47975 11.9802L7.48975 11.9602V12.2202H7.47975V12.2002C7.47975 12.2002 7.47975 12.1702 7.47975 12.1602C7.47975 12.1502 7.46975 12.1402 7.44975 12.1302C7.43975 12.1302 7.41975 12.1102 7.39975 12.1102C7.37975 12.1102 7.34975 12.1102 7.30975 12.1102H7.18975V12.4402C7.18975 12.4402 7.18975 12.4602 7.18975 12.4702C7.18975 12.4802 7.18975 12.4902 7.19975 12.4902C7.19975 12.4902 7.21975 12.5002 7.22975 12.5002C7.23975 12.5002 7.25975 12.5002 7.27975 12.5002H7.39975C7.39975 12.5002 7.45975 12.5002 7.48975 12.5002C7.50975 12.5002 7.52975 12.4902 7.53975 12.4802C7.54975 12.4802 7.55975 12.4602 7.56975 12.4502C7.56975 12.4402 7.57975 12.4302 7.57975 12.4202L7.58975 12.4002C7.58975 12.4202 7.58975 12.4402 7.58975 12.4602C7.58975 12.4802 7.58975 12.5002 7.58975 12.5202H6.99975H7.00975C7.01975 12.5202 7.02975 12.5202 7.03975 12.5202C7.03975 12.5202 7.05975 12.5202 7.05975 12.5002C7.05975 12.5002 7.06975 12.4802 7.06975 12.4702C7.06975 12.4602 7.06975 12.4402 7.06975 12.4102V11.8302C7.06975 11.8302 7.06975 11.7902 7.06975 11.7702C7.06975 11.7602 7.06975 11.7402 7.05975 11.7402C7.05975 11.7402 7.04975 11.7302 7.03975 11.7202C7.03975 11.7202 7.01975 11.7202 7.00975 11.7202H6.98975H7.07975H7.54975C7.54975 11.7202 7.54975 11.7602 7.54975 11.7802C7.54975 11.8002 7.54975 11.8202 7.54975 11.8402L7.53975 11.7902Z" fill="#282454"/>
<path d="M12.34 12.4902C12.34 12.4902 12.34 12.4902 12.34 12.4802H12.31C12.31 12.4802 12.3 12.4802 12.29 12.4802C12.29 12.4802 12.28 12.4702 12.27 12.4602C12.27 12.4502 12.25 12.4302 12.24 12.4102C12.24 12.3902 12.22 12.3602 12.21 12.3302L12.02 11.7602C12.02 11.7602 11.95 11.7402 11.91 11.7102C11.91 11.7102 11.9 11.7002 11.89 11.6902L11.7 12.2502C11.7 12.2502 11.67 12.3302 11.65 12.3602C11.64 12.3902 11.62 12.4102 11.61 12.4302C11.6 12.4502 11.58 12.4602 11.57 12.4602C11.56 12.4602 11.55 12.4602 11.53 12.4602H11.5C11.5 12.4602 11.5 12.4602 11.5 12.4702H11.77H11.75C11.73 12.4702 11.72 12.4702 11.71 12.4702C11.7 12.4702 11.69 12.4502 11.69 12.4402C11.69 12.4202 11.69 12.4002 11.69 12.3702C11.69 12.3402 11.7 12.3002 11.72 12.2602L11.74 12.1902H12.05L12.08 12.2802C12.08 12.2802 12.1 12.3602 12.11 12.3802C12.11 12.4102 12.11 12.4302 12.11 12.4402C12.11 12.4602 12.11 12.4702 12.09 12.4702C12.09 12.4702 12.07 12.4702 12.06 12.4702H12.03C12.03 12.4702 12.03 12.4702 12.03 12.4802H12.33M11.75 12.1502L11.9 11.7102L12.04 12.1502H11.75Z" fill="#282454"/>
<path d="M6.35006 13.6101H6.40006C6.39006 13.6701 6.37006 13.7001 6.34006 13.7201C6.31006 13.7401 6.28006 13.7501 6.24006 13.7501C6.20006 13.7501 6.16006 13.7501 6.14006 13.7201C6.11006 13.7001 6.09006 13.6801 6.08006 13.6501C6.07006 13.6201 6.06006 13.5801 6.06006 13.5501C6.06006 13.5101 6.06006 13.4701 6.08006 13.4401C6.10006 13.4101 6.12006 13.3901 6.15006 13.3701C6.18006 13.3501 6.21006 13.3501 6.24006 13.3501C6.28006 13.3501 6.31006 13.3501 6.34006 13.3801C6.37006 13.4001 6.39006 13.4301 6.40006 13.4601H6.35006C6.35006 13.4601 6.33006 13.4201 6.31006 13.4101C6.29006 13.4001 6.27006 13.3901 6.24006 13.3901C6.21006 13.3901 6.18006 13.3901 6.16006 13.4101C6.14006 13.4201 6.13006 13.4401 6.12006 13.4701C6.12006 13.4901 6.11006 13.5201 6.11006 13.5501C6.11006 13.5801 6.11006 13.6101 6.12006 13.6401C6.12006 13.6601 6.14006 13.6801 6.17006 13.7001C6.20006 13.7201 6.21006 13.7201 6.24006 13.7201C6.27006 13.7201 6.29006 13.7201 6.31006 13.6901C6.33006 13.6701 6.34006 13.6501 6.35006 13.6201" fill="#282454"/>
<path d="M6.87988 13.5601C6.87988 13.5001 6.89988 13.4401 6.92988 13.4101C6.95988 13.3701 7.00988 13.3501 7.05988 13.3501C7.09988 13.3501 7.12988 13.3501 7.15988 13.3801C7.18988 13.4001 7.20988 13.4201 7.22988 13.4501C7.24988 13.4801 7.24988 13.5201 7.24988 13.5501C7.24988 13.5801 7.24988 13.6301 7.22988 13.6601C7.20988 13.6901 7.18988 13.7101 7.15988 13.7301C7.12988 13.7501 7.09988 13.7501 7.06988 13.7501C7.02988 13.7501 6.99988 13.7501 6.96988 13.7201C6.93988 13.7001 6.91988 13.6801 6.89988 13.6501C6.88988 13.6201 6.87988 13.5901 6.87988 13.5501M6.92988 13.5501C6.92988 13.5501 6.93988 13.6301 6.96988 13.6601C6.99988 13.6901 7.02988 13.7001 7.06988 13.7001C7.10988 13.7001 7.13988 13.6901 7.16988 13.6601C7.19988 13.6301 7.20988 13.5901 7.20988 13.5401C7.20988 13.5101 7.20988 13.4801 7.18988 13.4601C7.17988 13.4401 7.15988 13.4201 7.13988 13.4001C7.11988 13.3901 7.09988 13.3801 7.06988 13.3801C7.02988 13.3801 6.99988 13.3901 6.97988 13.4201C6.95988 13.4501 6.93988 13.4901 6.93988 13.5501" fill="#282454"/>
<path d="M7.75977 13.7501V13.3601H8.02977V13.4101H7.80977V13.5301H7.99977V13.5701H7.80977V13.7501H7.75977Z" fill="#282454"/>
<path d="M8.52979 13.7501V13.3601H8.79979V13.4101H8.57978V13.5301H8.76978V13.5701H8.57978V13.7501H8.52979Z" fill="#282454"/>
<path d="M9.2998 13.7501V13.3601H9.5798V13.4101H9.3498V13.5301H9.5698V13.5701H9.3498V13.7001H9.5898V13.7501H9.2998Z" fill="#282454"/>
<path d="M10.1001 13.7501V13.3601H10.3801V13.4101H10.1501V13.5301H10.3701V13.5701H10.1501V13.7001H10.3901V13.7501H10.1001Z" fill="#282454"/>
<path d="M12.35 13.54H11.03C11.03 13.54 11.02 13.54 11.02 13.53C11.02 13.52 11.02 13.52 11.03 13.52H12.35C12.35 13.52 12.36 13.52 12.36 13.53C12.36 13.54 12.36 13.54 12.35 13.54Z" fill="#010101"/>
<path d="M12.35 13.55H11.03C11.03 13.55 11 13.54 11 13.52C11 13.5 11.01 13.49 11.03 13.49H12.35C12.35 13.49 12.38 13.5 12.38 13.52C12.38 13.54 12.37 13.55 12.35 13.55Z" fill="#27255A"/>
<path d="M5.51994 13.55H4.19994C4.19994 13.55 4.18994 13.55 4.18994 13.54C4.18994 13.53 4.18994 13.53 4.19994 13.53H5.51994C5.51994 13.53 5.52994 13.53 5.52994 13.54C5.52994 13.55 5.52994 13.55 5.51994 13.55Z" fill="#010101"/>
<path d="M5.51992 13.57H4.19992C4.19992 13.57 4.16992 13.56 4.16992 13.54C4.16992 13.52 4.17992 13.51 4.19992 13.51H5.51992C5.51992 13.51 5.54992 13.52 5.54992 13.54C5.54992 13.56 5.53992 13.57 5.51992 13.57Z" fill="#27255A"/>
<path d="M12.8297 10.52C12.7597 10.55 12.6897 10.59 12.6297 10.63C12.4997 10.71 12.3797 10.8 12.3097 10.94L12.2197 10.87V10.71C12.2197 10.71 12.2297 10.63 12.2497 10.59C12.2697 10.52 12.2997 10.46 12.3297 10.39C12.3597 10.33 12.3997 10.27 12.4297 10.2C12.4997 10.06 12.5197 9.89997 12.5197 9.73997V9.71997C12.5197 9.71997 12.6897 9.83997 12.6697 10.05C12.6697 10.05 12.8197 10.19 12.7797 10.41C12.7797 10.41 12.8097 10.45 12.8297 10.51V10.52Z" fill="#71C9ED"/>
<path d="M12.3099 10.92C12.2599 10.82 12.2199 10.74 12.1599 10.65C12.0699 10.52 11.9799 10.32 11.7899 10.33C11.5899 10.33 11.3999 10.6 11.3999 10.6L11.4899 10.64C11.4899 10.64 11.5799 10.67 11.5999 10.76C11.6199 10.84 11.6299 10.92 11.6399 11C11.6899 11.27 11.8699 11.51 12.1299 11.63C12.4399 11.77 12.7799 11.7 13.0999 11.61C13.1999 11.58 13.3699 11.56 13.4599 11.53C13.5699 11.49 13.5899 11.47 13.5999 11.38C13.5999 11.31 13.5399 11.28 13.4799 11.27C13.2799 11.24 13.0799 11.25 12.8799 11.24L12.3099 10.93V10.92Z" fill="#3BBACA"/>
<path d="M11.4102 10.6C11.4102 10.6 11.5002 10.49 11.5302 10.47C11.5302 10.47 11.6602 10.58 11.5502 10.67C11.5502 10.67 11.5102 10.65 11.4202 10.6H11.4102Z" fill="#71C9ED"/>
<path d="M12.2002 10.72C12.2102 10.68 12.2202 10.64 12.2402 10.6C12.2602 10.53 12.2902 10.47 12.3202 10.4C12.3402 10.37 12.3502 10.34 12.3702 10.31C12.3902 10.28 12.4102 10.24 12.4202 10.21C12.4902 10.05 12.5102 9.87999 12.5102 9.75999V9.73999C12.5102 9.73999 12.6802 9.86999 12.6602 10.08C12.6802 10.1 12.8002 10.24 12.7702 10.44C12.7702 10.44 12.8002 10.48 12.8202 10.54C12.8202 10.54 12.8202 10.54 12.8202 10.55C12.8202 10.55 12.8202 10.55 12.8102 10.55C12.7902 10.49 12.7602 10.45 12.7602 10.45C12.8002 10.24 12.6502 10.1 12.6502 10.1C12.6602 9.92999 12.5602 9.81999 12.5202 9.77999C12.5202 9.89999 12.5002 10.08 12.4302 10.24C12.4102 10.27 12.3902 10.31 12.3802 10.34C12.3602 10.37 12.3502 10.4 12.3302 10.43C12.3002 10.49 12.2702 10.56 12.2502 10.62C12.2302 10.66 12.2202 10.7 12.2102 10.74L12.2002 10.72Z" fill="#292454"/>
<path d="M12.3501 10.8799C12.3501 10.8399 12.3501 10.7999 12.3701 10.7599C12.4201 10.5699 12.4801 10.4399 12.5801 10.2499C12.6801 10.0599 12.6501 9.92993 12.6501 9.92993C12.6501 9.92993 12.6801 10.0699 12.5801 10.2599C12.4801 10.4499 12.4201 10.5799 12.3701 10.7699C12.3701 10.8099 12.3601 10.8499 12.3501 10.8899V10.8799Z" fill="#292454"/>
<path d="M12.5898 10.6601C12.5898 10.6601 12.5898 10.6601 12.5898 10.6501C12.5998 10.6101 12.6198 10.5601 12.6398 10.5201C12.7498 10.2601 12.7598 10.2501 12.7598 10.2101C12.7598 10.2101 12.7598 10.1901 12.7598 10.2001C12.7598 10.2501 12.7598 10.2701 12.6398 10.5301C12.6198 10.5701 12.6098 10.6101 12.5898 10.6601Z" fill="#292454"/>
<path d="M12.4899 11.7201C12.3699 11.7201 12.2499 11.6901 12.1299 11.6401C11.8799 11.5201 11.6899 11.2801 11.6399 11.0001C11.6399 10.9701 11.6399 10.9401 11.6299 10.9101C11.6299 10.8601 11.6199 10.8101 11.5999 10.7601C11.5699 10.6801 11.4899 10.6501 11.4899 10.6501L11.3999 10.6101C11.3999 10.6001 11.5999 10.3401 11.7899 10.3301C11.9599 10.3301 12.0599 10.4801 12.1399 10.6101C12.1499 10.6301 12.1599 10.6401 12.1699 10.6601C12.2199 10.7501 12.2699 10.8301 12.3199 10.9301C12.3199 10.9301 12.3199 10.9301 12.3199 10.9401C12.3199 10.9401 12.3199 10.9401 12.3099 10.9401C12.2599 10.8401 12.2199 10.7601 12.1599 10.6701C12.1499 10.6501 12.1399 10.6401 12.1299 10.6201C12.0499 10.4901 11.9599 10.3401 11.7999 10.3501C11.6299 10.3501 11.4599 10.5701 11.4299 10.6101L11.5099 10.6501C11.5099 10.6501 11.5999 10.6801 11.6299 10.7701C11.6499 10.8201 11.6499 10.8701 11.6599 10.9201C11.6599 10.9501 11.6599 10.9801 11.6699 11.0101C11.7199 11.2801 11.9099 11.5201 12.1499 11.6401C12.4599 11.7801 12.7999 11.7101 13.1199 11.6201C13.1699 11.6101 13.2299 11.5901 13.2899 11.5801C13.3599 11.5701 13.4299 11.5501 13.4799 11.5401C13.5899 11.5001 13.6099 11.4801 13.6099 11.3901C13.6099 11.3201 13.5499 11.3001 13.4999 11.2901C13.3499 11.2701 13.1999 11.2701 13.0499 11.2601C12.9999 11.2601 12.9499 11.2601 12.8999 11.2601C12.8999 11.2601 12.9999 11.2601 13.0499 11.2601C13.1999 11.2601 13.3499 11.2601 13.4999 11.2901C13.5899 11.3001 13.6299 11.3401 13.6299 11.4101C13.6299 11.5101 13.5999 11.5401 13.4899 11.5701C13.4399 11.5901 13.3699 11.6001 13.2999 11.6101C13.2399 11.6201 13.1799 11.6301 13.1299 11.6501C12.9299 11.7101 12.7199 11.7601 12.5099 11.7501L12.4899 11.7201Z" fill="#292454"/>
<path d="M11.6799 10.8301H11.6299C11.6299 10.8301 11.7999 10.8501 11.9199 10.7901C12.0399 10.7301 12.0899 10.6801 12.1199 10.5901C12.1199 10.5901 12.1199 10.5901 12.1299 10.5901C12.1299 10.5901 12.1299 10.5901 12.1299 10.6001C12.0999 10.6901 12.0399 10.7501 11.9199 10.8101C11.8399 10.8501 11.7399 10.8601 11.6799 10.8501V10.8301Z" fill="#292454"/>
<path d="M11.6599 10.8799H11.6299C11.6299 10.8799 11.7999 10.8899 11.9199 10.8399C12.0399 10.7899 12.0999 10.7299 12.1299 10.6399C12.1299 10.6399 12.1299 10.6399 12.1399 10.6399C12.1399 10.6399 12.1399 10.6399 12.1399 10.6499C12.1099 10.7399 12.0399 10.8099 11.9199 10.8599C11.8299 10.8999 11.7099 10.8999 11.6599 10.8999V10.8799Z" fill="#292454"/>
<path d="M11.6801 10.9199H11.6401C11.6401 10.9199 11.8401 10.9399 11.9601 10.8799C12.0801 10.8199 12.1401 10.7599 12.1701 10.6799C12.1701 10.6799 12.1701 10.6799 12.1801 10.6799C12.1801 10.6799 12.1801 10.6799 12.1801 10.6899C12.1501 10.7799 12.0901 10.8399 11.9601 10.8999C11.8701 10.9499 11.7401 10.9499 11.6701 10.9499L11.6801 10.9199Z" fill="#292454"/>
<path d="M11.54 10.68C11.54 10.68 11.54 10.68 11.54 10.67C11.57 10.64 11.58 10.62 11.58 10.59C11.58 10.53 11.52 10.48 11.52 10.48C11.52 10.48 11.52 10.48 11.52 10.47C11.52 10.47 11.52 10.47 11.53 10.47C11.53 10.47 11.6 10.52 11.6 10.59C11.6 10.62 11.58 10.66 11.55 10.68H11.54Z" fill="#292454"/>
<path d="M11.4102 10.6C11.4102 10.6 11.5002 10.53 11.5802 10.56C11.5802 10.56 11.5102 10.63 11.4102 10.6Z" fill="white"/>
<path d="M11.4502 10.6101C11.4502 10.6101 11.4202 10.6101 11.4102 10.6101C11.4102 10.6101 11.5002 10.5401 11.5902 10.5701C11.5902 10.5701 11.5302 10.6201 11.4502 10.6201V10.6101ZM11.4302 10.5901C11.5002 10.5901 11.5402 10.5701 11.5702 10.5601C11.5202 10.5501 11.4602 10.5801 11.4302 10.5901Z" fill="#292454"/>
<path d="M11.8299 10.4699C11.8299 10.4699 11.7999 10.3899 11.7499 10.3899C11.6999 10.3899 11.6699 10.4199 11.6699 10.4699C11.6699 10.5199 11.6999 10.5499 11.7499 10.5499C11.7999 10.5499 11.8299 10.5199 11.8299 10.4699Z" fill="white"/>
<path d="M11.7502 10.5599C11.7502 10.5599 11.6602 10.5199 11.6602 10.4699C11.6602 10.4199 11.7002 10.3799 11.7502 10.3799C11.8002 10.3799 11.8402 10.4199 11.8402 10.4699C11.8402 10.5199 11.8002 10.5599 11.7502 10.5599ZM11.7502 10.3999C11.7502 10.3999 11.6802 10.4299 11.6702 10.4699C11.6602 10.5099 11.7002 10.5399 11.7402 10.5499C11.7802 10.5599 11.8102 10.5199 11.8202 10.4799C11.8302 10.4399 11.7902 10.4099 11.7502 10.3999Z" fill="#292454"/>
<path d="M11.7902 10.4899C11.7902 10.4899 11.7702 10.4299 11.7402 10.4299C11.7102 10.4299 11.6802 10.4499 11.6802 10.4799C11.6802 10.5099 11.7002 10.5399 11.7302 10.5399C11.7602 10.5399 11.7902 10.5199 11.7902 10.4899Z" fill="#292454"/>
<path d="M12.27 10.83C12.27 10.83 12.21 10.8 12.18 10.78C12.24 10.88 12.23 10.93 12.23 10.93C12.18 10.93 12.13 10.9 12.1 10.87C12.14 10.95 12.12 11.02 12.12 11.02C12.05 11.02 12.01 10.97 11.99 10.93C12 11.01 11.98 11.07 11.97 11.07C11.91 11.05 11.88 11.01 11.86 10.97C11.86 11.07 11.82 11.1 11.82 11.11C11.78 11.09 11.76 11.05 11.74 11.01C11.74 11.04 11.74 11.07 11.72 11.1H11.71C11.75 11.01 11.72 10.9 11.72 10.9H11.74C11.74 10.9 11.74 11.06 11.82 11.1C11.83 11.08 11.86 11.03 11.85 10.92H11.86C11.86 10.95 11.89 11.05 11.97 11.08C11.97 11.06 12 10.98 11.97 10.88C11.97 10.88 12.01 11.02 12.11 11.02C12.11 11 12.12 10.92 12.05 10.83H12.06C12.06 10.83 12.15 10.93 12.23 10.93C12.23 10.91 12.23 10.85 12.14 10.74H12.15C12.15 10.74 12.23 10.82 12.28 10.82V10.84L12.27 10.83Z" fill="#292454"/>
<path d="M11.8298 10.8999L11.8198 10.9099L11.8298 10.8999Z" fill="#292454"/>
<path d="M12.0901 11.02L12.0801 11.03L12.0901 11.02Z" fill="#292454"/>
<path d="M12.2701 10.9999C12.2701 10.9999 12.2401 10.9899 12.2201 10.9799C12.2601 11.0699 12.2501 11.1499 12.2501 11.1599C12.2001 11.1599 12.1601 11.1099 12.1301 11.0799C12.1501 11.1699 12.1301 11.2399 12.1301 11.2499C12.0701 11.2299 12.0301 11.1799 12.0101 11.1399C12.0201 11.2299 12.0001 11.2899 12.0001 11.2899C11.9301 11.2599 11.8901 11.1899 11.8601 11.1399C11.8601 11.1799 11.8601 11.2499 11.8201 11.2999H11.8101C11.8701 11.2099 11.8401 11.0899 11.8401 11.0899V11.0799H11.8601C11.8601 11.0799 11.8901 11.2299 12.0001 11.2699C12.0001 11.2399 12.0301 11.1499 11.9901 11.0599V11.0499H12.0101C12.0101 11.0499 12.0401 11.1699 12.1501 11.2199C12.1501 11.1899 12.1801 11.1099 12.1301 11.0199C12.1301 11.0299 12.1901 11.1299 12.2701 11.1399C12.2701 11.1099 12.2701 11.0199 12.2201 10.9299H12.2301C12.2301 10.9299 12.2801 10.9899 12.3101 10.9899V11.0099L12.2701 10.9999Z" fill="#292454"/>
<path d="M12.2997 10.9601H12.2797C12.2797 10.9601 12.2397 10.8501 12.2197 10.8201H12.2297C12.2297 10.8201 12.3097 10.9001 12.2997 10.9601Z" fill="#292454"/>
<path d="M11.9699 11.53H11.9499C11.9899 11.39 11.9199 11.29 11.9199 11.29H11.9299C11.9299 11.29 12.0099 11.39 11.9599 11.53H11.9699Z" fill="#292454"/>
<path d="M11.81 11.25H11.79C11.79 11.25 11.79 11.34 11.82 11.41H11.83C11.79 11.34 11.8 11.26 11.8 11.25H11.81Z" fill="#292454"/>
<path d="M12.3802 11.1399H12.3702C12.4102 11.1999 12.4102 11.2499 12.4102 11.2699C12.3302 11.2699 12.2602 11.1999 12.2302 11.1599C12.2202 11.1499 12.2102 11.1399 12.2102 11.1399C12.2102 11.1399 12.2102 11.1399 12.2002 11.1399H12.1902C12.1902 11.1399 12.2102 11.1699 12.2102 11.1799C12.2602 11.2499 12.2602 11.3599 12.2502 11.3899C12.1302 11.3599 12.0902 11.2499 12.0902 11.2499H12.0802C12.1402 11.3699 12.1302 11.4599 12.1202 11.4799C12.0102 11.4399 11.9502 11.2999 11.9402 11.2999H11.9302C11.9302 11.2999 12.0002 11.4599 12.1202 11.4999C12.1202 11.4999 12.1502 11.4399 12.1202 11.3399C12.1502 11.3699 12.1902 11.4099 12.2602 11.4299C12.2602 11.4299 12.2802 11.3399 12.2502 11.2599C12.2902 11.2899 12.3402 11.3299 12.4002 11.3299C12.4002 11.3299 12.4002 11.3299 12.4102 11.3299C12.4102 11.3299 12.4102 11.2599 12.3702 11.1899L12.3802 11.1399Z" fill="#292454"/>
<path d="M11.96 11.45C11.96 11.54 12.02 11.59 12.02 11.59C12.02 11.59 11.96 11.53 11.96 11.45Z" fill="#292454"/>
<path d="M12.6602 11.4099C12.6602 11.4099 12.6402 11.2199 12.5102 11.1799V11.1999C12.6202 11.2299 12.6402 11.3599 12.6502 11.3899C12.5102 11.3899 12.4202 11.2899 12.4002 11.2699C12.4002 11.2699 12.4002 11.2699 12.3902 11.2699C12.4602 11.3299 12.4702 11.4399 12.4702 11.4699C12.3802 11.4699 12.3102 11.3999 12.3102 11.3999C12.3102 11.3999 12.2902 11.3799 12.2802 11.3699C12.3502 11.4299 12.3702 11.5599 12.3702 11.5999C12.2902 11.5799 12.2302 11.5199 12.2202 11.5199C12.2002 11.4799 12.1702 11.4499 12.1702 11.4499H12.1602C12.1602 11.4499 12.2402 11.5399 12.2302 11.6599H12.2502C12.2502 11.6599 12.2502 11.5899 12.2402 11.5599C12.2702 11.5799 12.3202 11.6199 12.3802 11.6299C12.3802 11.6299 12.3802 11.5399 12.3502 11.4699C12.3802 11.4899 12.4202 11.5099 12.4702 11.5099C12.4702 11.5099 12.4802 11.5099 12.4902 11.5099C12.4902 11.5099 12.4902 11.4199 12.4502 11.3499C12.5002 11.3899 12.5802 11.4299 12.6802 11.4399L12.6602 11.4099Z" fill="#292454"/>
<path d="M12.5401 11.3701C12.6301 11.4201 12.6401 11.5301 12.6401 11.5601C12.5001 11.5601 12.4401 11.4901 12.4401 11.4801C12.4401 11.4801 12.4401 11.4801 12.4401 11.4701H12.4301C12.5001 11.5601 12.5001 11.6601 12.5001 11.6901C12.4301 11.6901 12.3401 11.6001 12.3401 11.6001H12.3301C12.3301 11.6001 12.4201 11.7101 12.5101 11.7101C12.5101 11.7101 12.5201 11.6201 12.4701 11.5401C12.5001 11.5601 12.5501 11.5801 12.6301 11.5801H12.6501C12.6501 11.5801 12.6501 11.4301 12.5401 11.3801V11.3701Z" fill="#292454"/>
<path d="M12.8898 11.6701L12.8198 11.5901C12.8198 11.5901 12.8598 11.6101 12.8898 11.6601H12.8798L12.8898 11.6701Z" fill="#292454"/>
<path d="M12.8898 11.41C12.8898 11.41 12.8698 11.28 12.7498 11.23V11.25C12.8398 11.29 12.8698 11.38 12.8698 11.41C12.7698 11.44 12.6398 11.38 12.6398 11.38V11.4C12.7898 11.45 12.8098 11.59 12.8198 11.62C12.7198 11.63 12.6198 11.57 12.6098 11.57C12.6098 11.57 12.6098 11.57 12.5998 11.57H12.5898C12.5898 11.57 12.6598 11.64 12.6698 11.71H12.6898C12.6798 11.66 12.6498 11.61 12.6298 11.59C12.6598 11.61 12.7198 11.63 12.7898 11.64C12.7998 11.64 12.8198 11.64 12.8298 11.64C12.8298 11.64 12.8298 11.51 12.7198 11.44C12.7398 11.44 12.7698 11.44 12.7898 11.44C12.8198 11.44 12.8498 11.44 12.8798 11.43L12.8898 11.41Z" fill="#292454"/>
<path d="M13.1098 11.42V11.41C13.1098 11.41 13.0398 11.23 12.9298 11.23V11.25C13.0198 11.25 13.0798 11.39 13.0998 11.42C12.9898 11.48 12.8898 11.4 12.8898 11.4C12.8898 11.4 12.8898 11.4 12.9098 11.41C12.8998 11.41 12.8898 11.41 12.8798 11.41V11.43C12.9898 11.44 13.0398 11.59 13.0598 11.63C12.9298 11.65 12.8398 11.54 12.8398 11.54C12.8398 11.54 12.9198 11.64 13.0298 11.64C13.0498 11.64 13.0598 11.64 13.0798 11.64V11.63C13.0798 11.63 13.0398 11.5 12.9498 11.44C12.9698 11.44 12.9998 11.46 13.0198 11.46C13.0498 11.46 13.0898 11.46 13.1298 11.43L13.1098 11.42Z" fill="#292454"/>
<path d="M13.0198 11.53H13.0098C13.0098 11.53 13.0598 11.6 13.1298 11.6C13.1398 11.6 13.1498 11.6 13.1698 11.6V11.58C13.0898 11.6 13.0298 11.53 13.0298 11.53H13.0198Z" fill="#292454"/>
<path d="M13.3098 11.4V11.39C13.2298 11.22 13.0798 11.22 13.0698 11.22V11.24C13.0698 11.24 13.2098 11.24 13.2898 11.39C13.2598 11.4 13.1698 11.44 13.0998 11.4V11.42C13.0998 11.42 13.2098 11.42 13.2598 11.57H13.2698C13.2498 11.49 13.1998 11.45 13.1598 11.43C13.1598 11.43 13.1598 11.43 13.1698 11.43C13.2398 11.43 13.3098 11.4 13.3098 11.4Z" fill="#292454"/>
<path d="M13.5 11.43V11.42C13.5 11.42 13.43 11.24 13.29 11.24V11.26C13.41 11.26 13.47 11.39 13.48 11.42C13.38 11.45 13.29 11.41 13.29 11.41C13.29 11.41 13.26 11.41 13.25 11.41V11.43C13.25 11.43 13.36 11.43 13.4 11.5C13.4 11.51 13.37 11.55 13.29 11.57V11.59C13.39 11.57 13.42 11.51 13.42 11.51C13.41 11.49 13.4 11.47 13.38 11.46C13.38 11.46 13.39 11.46 13.4 11.46C13.43 11.46 13.46 11.46 13.5 11.45V11.43Z" fill="#292454"/>
<path d="M13.6 11.3301H13.59C13.59 11.3301 13.51 11.3701 13.48 11.3701V11.3901C13.48 11.3901 13.55 11.4301 13.56 11.4701H13.58C13.58 11.4701 13.53 11.4001 13.5 11.3801C13.53 11.3801 13.58 11.3501 13.59 11.3201L13.6 11.3301Z" fill="#292454"/>
<path d="M13.4199 11.5C13.4199 11.5 13.4499 11.53 13.4799 11.53C13.4899 11.53 13.4999 11.53 13.5099 11.53V11.51L13.4199 11.5Z" fill="#292454"/>
<path d="M13.3297 10.4701C13.3297 10.4701 13.3597 10.6901 13.1897 10.8401C13.1897 10.8401 13.2097 11.1001 12.8797 11.2301C12.8797 11.2301 12.6497 11.2801 12.2397 11.0901L12.2497 11.0501C12.2597 11.0101 12.2797 10.9801 12.2997 10.9401C12.3797 10.8101 12.4997 10.7101 12.6197 10.6301C12.6797 10.5901 12.7497 10.5501 12.8197 10.5201C12.8897 10.4901 12.9597 10.4601 13.0297 10.4301C13.1797 10.3601 13.3097 10.2301 13.4097 10.1101L13.4197 10.0901C13.4197 10.0901 13.4797 10.3101 13.3297 10.4701Z" fill="#71C9ED"/>
<path d="M12.7797 11.2401C12.6697 11.2401 12.4897 11.2101 12.2397 11.0901C12.2397 11.0901 12.2397 11.0901 12.2397 11.0401C12.2497 11.0001 12.2697 10.9701 12.2897 10.9301C12.3697 10.7901 12.5097 10.6901 12.6197 10.6201C12.6797 10.5801 12.7497 10.5401 12.8197 10.5101C12.8497 10.4901 12.8897 10.4801 12.9197 10.4701C12.9597 10.4601 12.9897 10.4401 13.0297 10.4201C13.1897 10.3401 13.3197 10.2001 13.3997 10.1001C13.3997 10.1001 13.3997 10.1001 13.3997 10.0901C13.3997 10.0901 13.4597 10.3101 13.3097 10.4701C13.3097 10.5001 13.3297 10.7001 13.1697 10.8401C13.1697 10.8701 13.1697 11.1101 12.8597 11.2401C12.8597 11.2401 12.8197 11.2401 12.7497 11.2401H12.7797ZM12.2497 11.0801C12.6497 11.2701 12.8797 11.2201 12.8797 11.2201C13.1897 11.0901 13.1797 10.8401 13.1797 10.8401C13.3497 10.6901 13.3197 10.4801 13.3197 10.4801C13.4397 10.3501 13.4197 10.1801 13.4097 10.1301C13.3297 10.2301 13.1997 10.3701 13.0297 10.4601C12.9897 10.4801 12.9597 10.4901 12.9197 10.5101C12.8897 10.5201 12.8497 10.5401 12.8197 10.5501C12.7497 10.5801 12.6897 10.6201 12.6197 10.6601C12.5097 10.7301 12.3797 10.8201 12.2997 10.9601C12.2797 11.0001 12.2597 11.0301 12.2497 11.0701C12.2497 11.0901 12.2497 11.1001 12.2397 11.1101L12.2497 11.0801Z" fill="#292454"/>
<path d="M12.3901 11.1601C12.3901 11.1601 12.3901 11.1601 12.3901 11.1501C12.3901 11.1501 12.4701 10.9401 12.6301 10.8201C12.7901 10.6901 12.9301 10.6301 13.1401 10.5301C13.3501 10.4401 13.4101 10.3101 13.4101 10.3101C13.4101 10.3101 13.4101 10.3101 13.4201 10.3101C13.4201 10.3101 13.4201 10.3101 13.4201 10.3201C13.4201 10.3201 13.3501 10.4601 13.1401 10.5501C12.9301 10.6501 12.7901 10.7101 12.6301 10.8401C12.4701 10.9701 12.3901 11.1701 12.3901 11.1701V11.1601Z" fill="#292454"/>
<path d="M12.5498 11.2101C12.5498 11.2101 12.5498 11.2101 12.5498 11.2001C12.5498 11.2001 12.7298 10.9201 13.0098 10.7701C13.0498 10.7501 13.0898 10.7301 13.1198 10.7101C13.2898 10.6201 13.3098 10.6101 13.3298 10.5701C13.3298 10.5701 13.3298 10.5701 13.3398 10.5701C13.3398 10.5701 13.3398 10.5701 13.3398 10.5801C13.3098 10.6201 13.2998 10.6301 13.1198 10.7201C13.0898 10.7401 13.0498 10.7601 13.0098 10.7801C12.7298 10.9301 12.5598 11.2001 12.5598 11.2101H12.5498Z" fill="#292454"/>
<path d="M12.7397 11.2401C12.7397 11.2401 12.7397 11.2401 12.7397 11.2301C12.7397 11.2301 12.8497 11.0801 12.9497 11.0001C12.9897 10.9601 13.0497 10.9301 13.0897 10.9001C13.1297 10.8701 13.1697 10.8501 13.1897 10.8301C13.1897 10.8301 13.1897 10.8301 13.1997 10.8301C13.1997 10.8301 13.1997 10.8301 13.1997 10.8401C13.1697 10.8601 13.1397 10.8901 13.0897 10.9101C13.0497 10.9401 12.9897 10.9701 12.9497 11.0001C12.8497 11.0801 12.7397 11.2301 12.7397 11.2301V11.2401Z" fill="#292454"/>
<path d="M13.8899 9.58995C13.8899 9.66995 13.8299 9.72995 13.7499 9.72995C13.6699 9.72995 13.6099 9.66995 13.6099 9.58995C13.6099 9.50995 13.6699 9.44995 13.7499 9.44995C13.8299 9.44995 13.8899 9.50995 13.8899 9.58995ZM13.6399 9.58995C13.6399 9.64995 13.6799 9.69995 13.7499 9.69995C13.8199 9.69995 13.8499 9.64995 13.8499 9.58995C13.8499 9.52995 13.8099 9.47995 13.7499 9.47995C13.6899 9.47995 13.6399 9.52995 13.6399 9.58995ZM13.7199 9.65995H13.6899V9.51995C13.6899 9.51995 13.7199 9.51995 13.7399 9.51995C13.7699 9.51995 13.7799 9.51995 13.7899 9.51995C13.7899 9.51995 13.7999 9.53995 13.7999 9.54995C13.7999 9.55995 13.7899 9.57995 13.7699 9.57995C13.7699 9.57995 13.7899 9.59995 13.7899 9.60995C13.7899 9.62995 13.7899 9.63995 13.7899 9.63995H13.7599C13.7599 9.63995 13.7599 9.61995 13.7499 9.60995C13.7499 9.59995 13.7399 9.58995 13.7199 9.58995H13.7099V9.63995L13.7199 9.65995ZM13.7199 9.57995H13.7299C13.7299 9.57995 13.7599 9.57995 13.7599 9.55995C13.7599 9.54995 13.7599 9.53995 13.7299 9.53995C13.7299 9.53995 13.7199 9.53995 13.7099 9.53995V9.57995H13.7199Z" fill="#242657"/>
</g>
<defs>
<clipPath id="clip0_6335_193098">
<rect width="15.04" height="22.54" fill="white" transform="translate(0.959961)"/>
</clipPath>
</defs>
</svg>
