<svg width="61" height="60" viewBox="0 0 61 60" fill="none" xmlns="http://www.w3.org/2000/svg">
<circle cx="30.5" cy="30" r="28.5" fill="#CAF2FF" stroke="white" stroke-width="3"/>
<path fill-rule="evenodd" clip-rule="evenodd" d="M40.0235 46.5666C39.8882 47.9689 35.691 49.0933 30.5345 49.0933C25.2919 49.0933 21.0424 47.9306 21.0424 46.4995L18.7886 16.9043H42.2866L40.0235 46.5666Z" fill="#D3D3D3"/>
<path fill-rule="evenodd" clip-rule="evenodd" d="M40.1705 46.5555C40.0358 47.965 35.8556 49.0952 30.72 49.0952C28.2273 49.0952 25.9611 48.8287 24.2707 48.3952C24.2615 48.3503 24.2584 48.3053 24.2584 48.2604L22.0076 18.5156H42.2866L40.1705 46.5555Z" fill="white"/>
<path fill-rule="evenodd" clip-rule="evenodd" d="M40.7931 37.6073V37.6106C40.6466 39.1583 36.1111 40.3985 30.5379 40.3985C24.8701 40.3985 20.2766 39.1163 20.2766 37.5329L19.4312 26.2354C21.4211 27.3881 25.6453 28.1846 30.5348 28.1846C35.4274 28.1846 39.6516 27.3881 41.6416 26.2354L40.7931 37.6073Z" fill="#269EC5"/>
<path fill-rule="evenodd" clip-rule="evenodd" d="M40.7981 37.6073V37.6106C40.6527 39.1583 36.1495 40.3985 30.616 40.3985C27.8765 40.3985 25.3916 40.0941 23.5612 39.5987L22.6521 27.3557C24.7916 27.8706 27.5735 28.1846 30.616 28.1846C35.4737 28.1846 39.6678 27.3881 41.6436 26.2354L40.7981 37.6073Z" fill="#5ECBEE"/>
<path fill-rule="evenodd" clip-rule="evenodd" d="M30.4846 13.3999C35.7249 13.3999 40.2378 14.2175 42.2915 15.3924H43.4696V16.8184C43.4696 18.7046 37.6563 20.2368 30.4846 20.2368C23.3128 20.2368 17.4995 18.7079 17.4995 16.8184V15.3924H18.6776C20.7313 14.2175 25.2442 13.3999 30.4846 13.3999Z" fill="#7E7E7E"/>
<path d="M30.4846 18.8086C37.656 18.8086 43.4696 17.2781 43.4696 15.3902C43.4696 13.5022 37.656 11.9717 30.4846 11.9717C23.3131 11.9717 17.4995 13.5022 17.4995 15.3902C17.4995 17.2781 23.3131 18.8086 30.4846 18.8086Z" fill="#272559"/>
<path fill-rule="evenodd" clip-rule="evenodd" d="M30.4831 11.0342C34.9766 11.0342 38.8458 11.7359 40.6065 12.7434H41.6172V14.2434C41.6172 15.8625 36.6312 17.1726 30.4831 17.1726C24.3317 17.1726 19.3489 15.8593 19.3489 14.2434V12.7434H20.3596C22.1171 11.7327 25.9895 11.0342 30.4831 11.0342Z" fill="#7E7E7E"/>
<path fill-rule="evenodd" clip-rule="evenodd" d="M30.4831 15.6768C36.6151 15.6768 41.6172 14.3602 41.6172 12.7476C41.6172 11.1349 36.6151 9.81836 30.4831 9.81836C24.351 9.81836 19.3489 11.1349 19.3489 12.7476C19.3489 14.3602 24.351 15.6768 30.4831 15.6768Z" fill="#272559"/>
<path fill-rule="evenodd" clip-rule="evenodd" d="M37.1189 13.1324C37.9236 13.1324 38.5835 12.9586 38.5835 12.7461C38.5835 12.5337 37.9268 12.3599 37.1189 12.3599C36.3142 12.3599 35.6543 12.5337 35.6543 12.7461C35.6575 12.9586 36.3142 13.1324 37.1189 13.1324Z" fill="#7E7E7E"/>
</svg>
