<svg width="61" height="60" viewBox="0 0 61 60" fill="none" xmlns="http://www.w3.org/2000/svg">
<circle cx="30.5" cy="30" r="28.5" fill="#CAF2FF" stroke="white" stroke-width="3"/>
<path d="M30.6411 48.4809C27.9818 48.2981 24.4251 48.4642 22.5969 46.1707C22.2977 44.7081 22.2312 43.1956 22.0152 41.7164C21.4168 36.88 20.7852 32.0434 20.2201 27.207C19.9542 25.5283 19.8047 23.7998 19.572 22.1212C19.5886 21.7057 19.1399 21.606 18.9072 21.3733C18.392 20.9578 17.9266 20.3096 18.0097 19.6115C18.0762 19.196 18.2756 18.7971 18.5581 18.4647C18.6911 17.1351 18.8074 15.872 20.1869 15.2238C20.4528 13.9939 20.4861 13.2294 21.8656 12.6476C26.2699 10.6698 32.1701 10.6366 36.8736 11.6837C38.17 12.0161 39.7655 12.4648 40.4802 13.728C40.7794 14.21 40.4304 14.9412 40.8625 15.3069C41.9594 15.9052 42.3251 17.0022 42.3583 18.1656C42.6076 18.7971 43.1228 19.3622 42.9732 20.1101C42.8569 21.1572 41.5605 21.4397 41.4109 22.4203C41.1949 24.5477 40.9456 26.6751 40.7129 28.8025C40.2642 32.7914 39.832 36.7802 39.3999 40.7691C38.6354 45.7053 40.0647 47.3008 34.0316 48.1983C32.9346 48.4144 31.7878 48.3978 30.6576 48.4643L30.6411 48.4809Z" fill="white"/>
<path d="M30.6411 48.4809C27.9818 48.2981 24.4251 48.4642 22.5969 46.1707C22.2977 44.7081 22.2312 43.1956 22.0152 41.7164C21.4168 36.88 20.7852 32.0434 20.2201 27.207C19.9542 25.5283 19.8047 23.7998 19.572 22.1212C19.5886 21.7057 19.1399 21.606 18.9072 21.3733C18.392 20.9578 17.9266 20.3096 18.0097 19.6115C18.0762 19.196 18.2756 18.7971 18.5581 18.4647C18.6911 17.1351 18.8074 15.872 20.1869 15.2238C20.4528 13.9939 20.4861 13.2294 21.8656 12.6476C26.2699 10.6698 32.1701 10.6366 36.8736 11.6837C38.17 12.0161 39.7655 12.4648 40.4802 13.728C40.7794 14.21 40.4304 14.9412 40.8625 15.3069C41.9594 15.9052 42.3251 17.0022 42.3583 18.1656C42.6076 18.7971 43.1228 19.3622 42.9732 20.1101C42.8569 21.1572 41.5605 21.4397 41.4109 22.4203C41.1949 24.5477 40.9456 26.6751 40.7129 28.8025C40.2642 32.7914 39.832 36.7802 39.3999 40.7691C38.6354 45.7053 40.0647 47.3008 34.0316 48.1983C32.9346 48.4144 31.7878 48.3978 30.6576 48.4643L30.6411 48.4809ZM30.1258 19.7113C33.3834 19.678 37.1894 19.4952 39.9318 17.6503C40.8791 16.9689 40.447 16.2875 40.0481 15.4731C39.5828 15.7889 38.8681 16.2376 37.9207 16.57C36.3418 17.1351 34.713 17.2016 34.6964 17.0852C34.6964 17.0686 34.7462 16.9689 35.0288 16.9191C35.8598 16.8193 36.6077 16.57 37.3889 16.3373C41.8431 14.6919 39.6991 12.8471 36.2919 12.1657C32.4527 11.2349 23.8766 10.9856 20.9182 13.8111C20.6523 14.2598 20.6357 14.8581 21.0346 15.257C21.0512 15.3568 21.45 15.5229 21.2672 15.5894C20.7686 15.5894 20.6523 15.0077 20.5692 15.8886C18.4917 19.1461 28.2311 19.8276 30.1092 19.6946L30.1258 19.7113ZM30.1424 20.2099C27.3004 20.16 21.716 19.8774 19.9542 17.401C19.9044 17.185 19.7714 16.919 19.8213 16.703C19.8878 16.4703 19.921 16.2044 20.1038 16.0215C20.2202 15.9052 20.0373 15.8553 19.9542 15.9218C19.0235 16.4204 18.957 17.6337 19.7049 18.3318C20.3697 18.8636 20.0041 18.9966 19.4723 18.5644C19.3227 18.5146 19.1066 18.1656 19.0401 18.4315C18.8241 18.9633 19.1232 19.545 19.5055 19.9439C19.572 20.2763 19.1398 19.8941 19.0733 19.7943C18.8905 19.678 18.8573 19.2292 18.6578 19.2625C18.4584 19.5118 18.5415 19.8941 18.608 20.1932C19.8046 22.2375 23.5941 22.8359 25.7381 23.135C30.5912 23.7334 36.4747 23.617 40.8459 21.4564C41.4442 21.1073 42.109 20.642 42.2254 19.9273C42.2918 19.8442 42.2254 19.6282 42.109 19.7113C41.0952 20.8248 39.5661 21.3234 38.2032 21.7555C37.9706 21.7888 37.7379 21.9217 37.4886 21.8719C37.7711 21.7389 38.2033 21.5561 38.7517 21.3068C40.1146 20.7085 40.3306 20.5589 40.6963 20.3428C41.278 19.9938 41.9262 19.4121 41.7766 18.6642C41.76 18.6143 41.7267 18.5811 41.6935 18.5644C41.5107 18.498 41.2448 18.847 40.929 19.1129C40.7129 19.2957 40.3473 19.4287 39.616 19.7113C39.3002 19.8276 38.8847 19.9938 38.3695 20.1434C38.2864 20.16 38.17 20.1932 38.037 20.2265C37.9041 20.2597 37.5052 20.3428 37.472 20.2763C37.472 20.2431 37.5218 20.1766 37.8709 19.9938C39.267 19.5617 41.2281 18.9467 41.6436 17.3512C41.7434 17.1351 41.278 16.1545 41.1118 16.5534C41.1118 19.7113 32.6521 20.293 30.1757 20.2099H30.1424Z" fill="#272559"/>
<path d="M30.7408 15.9384C31.472 15.9717 32.2199 15.8886 32.9014 15.8221C33.0343 16.8858 26.0871 16.0548 25.173 15.6559C21.234 14.3429 24.5747 12.764 26.8018 12.5147C28.0981 12.149 24.558 14.6254 24.5082 14.9246C26.4694 15.739 28.6134 15.9218 30.7408 15.9218V15.9384Z" fill="#272559"/>
<path d="M30.1258 17.6337C27.2672 17.6503 24.4417 17.3345 21.8656 16.1046C21.2839 15.5728 23.245 16.4537 23.3946 16.5035C23.3946 16.5035 23.86 16.6531 24.8406 16.8526C25.9707 17.0852 29.1619 17.3512 33.4499 17.3013C33.1673 17.3678 32.7684 17.4509 32.2864 17.534C31.4222 17.6669 30.7241 17.6503 30.1424 17.6503L30.1258 17.6337Z" fill="#272559"/>
<path d="M32.8515 12.3318C35.5772 12.2155 41.2447 14.0936 35.6935 15.739C35.3944 15.7556 34.7296 16.1711 34.5301 15.8387C36.1589 15.3567 39.3999 14.1268 35.9761 13.113C35.6437 12.9301 31.0399 12.3983 32.8515 12.3318Z" fill="#272559"/>
<path d="M23.5776 16.0382C22.9128 15.9053 21.8324 15.739 21.8989 14.8249C21.8989 14.21 22.5637 14.5756 22.813 14.8249C23.0956 15.0909 24.5748 15.8554 23.5776 16.0382Z" fill="#272559"/>
<path d="M23.9764 20.5589C22.7465 20.2099 21.7493 19.811 21.0679 19.4952C21.8158 19.7279 22.9293 20.0603 24.2922 20.3428C27.9819 21.1074 30.9237 21.0243 32.2367 20.9578C34.5303 20.8249 35.943 20.4758 35.943 20.4758C35.943 20.4758 30.1924 22.304 23.9764 20.5589Z" fill="#272559"/>
<path d="M30.5913 47.9657C32.835 47.9657 35.4444 47.7994 37.4388 46.636C38.6687 46.1374 38.4194 44.9407 38.569 43.877C38.7019 42.4311 38.9014 40.9851 39.0011 39.5392C39.5662 34.4368 40.1147 29.3344 40.5967 24.2153C40.7462 23.7167 40.6798 23.1849 40.7961 22.653C40.7961 22.5034 40.846 22.2874 40.7961 22.171C40.7629 22.171 40.7296 22.1711 40.6964 22.2043C40.2476 22.5201 39.6992 22.7527 39.1839 22.9522C37.6715 23.484 36.159 23.8996 34.5136 24.0159C30.3586 24.4979 25.921 24.2652 21.9654 23.0353C21.3671 22.8525 20.7687 22.5367 20.187 22.3206C20.3366 23.4674 20.5028 24.6474 20.5859 25.8109C21.2839 30.88 21.7992 35.9326 22.464 41.0849C22.5803 42.0488 22.6634 43.0627 22.8296 44.01C22.8296 44.4422 22.946 44.8576 22.9626 45.2898C23.0125 45.6554 23.0124 46.0045 23.295 46.287C25.3393 47.9656 27.9985 47.949 30.6079 47.9657H30.5913Z" fill="white"/>
<g clip-path="url(#clip0_795_64209)">
<path d="M23.3377 32.2638C23.3394 32.2587 23.3411 32.2544 23.3419 32.2527H23.3646C23.3966 32.2527 23.4234 32.2425 23.4436 32.2212C23.4646 32.1998 23.4747 32.1572 23.4747 32.0915V31.1434C23.4747 31.0778 23.4646 31.0351 23.4436 31.0138C23.4226 30.9925 23.3966 30.9823 23.3646 30.9823H23.3419L23.3352 30.9609H23.7764L23.7713 30.9823H23.7487C23.715 30.9823 23.6882 30.9925 23.668 31.0138C23.647 31.0351 23.6369 31.0778 23.6369 31.1434V32.0915C23.6369 32.1572 23.647 32.1998 23.668 32.2212C23.689 32.2425 23.7159 32.2527 23.7487 32.2527H23.7713V32.2561C23.7713 32.2561 23.7713 32.2587 23.7713 32.2595C23.7713 32.2604 23.7713 32.2621 23.7713 32.2629C23.7713 32.2655 23.7713 32.2672 23.7722 32.268C23.7722 32.2689 23.7722 32.2706 23.7722 32.2715C23.7722 32.2723 23.7722 32.2732 23.7739 32.2732H23.3352C23.3352 32.2732 23.336 32.2689 23.3377 32.2638Z" fill="#282454"/>
<path d="M25.5101 32.2748C25.5101 32.2748 25.511 32.2706 25.5126 32.2655C25.5143 32.2603 25.516 32.2569 25.5168 32.2544H25.5395C25.5715 32.2544 25.5984 32.2441 25.6185 32.2228C25.6395 32.2015 25.6496 32.1589 25.6496 32.0932V31.0035H25.4253C25.3715 31.0035 25.3261 31.0061 25.2891 31.0121C25.2521 31.018 25.2227 31.0257 25.1992 31.0359C25.1765 31.0462 25.1589 31.0581 25.1463 31.0717C25.1345 31.0854 25.1252 31.1007 25.1194 31.1169L25.111 31.1383C25.111 31.1383 25.1084 31.14 25.1076 31.14H25.1009C25.1009 31.14 25.0958 31.1417 25.0925 31.1417H25.0891C25.0984 31.1186 25.1068 31.0948 25.1152 31.0717C25.1236 31.0487 25.132 31.0249 25.1412 31.0018L25.1547 30.9618L25.1807 30.8884H25.1908C25.1908 30.8884 25.195 30.8901 25.1975 30.8901H25.2009L25.1958 30.908C25.1925 30.9149 25.1933 30.9217 25.1984 30.9285C25.2034 30.9345 25.2152 30.9404 25.2328 30.9447C25.2505 30.9498 25.2765 30.9532 25.3093 30.9558C25.3429 30.9583 25.3866 30.96 25.4404 30.96H26.0211C26.0765 30.96 26.1202 30.9583 26.1538 30.9558C26.1874 30.9532 26.2127 30.949 26.2303 30.9447C26.248 30.9404 26.2597 30.9345 26.2648 30.9285C26.2698 30.9217 26.2706 30.9157 26.2673 30.908L26.2622 30.8901H26.2639C26.2639 30.8901 26.2681 30.8901 26.2706 30.8884H26.2807C26.2849 30.9004 26.29 30.9114 26.2933 30.9234C26.2975 30.9353 26.3017 30.9473 26.3059 30.96L26.3211 31.0001C26.3303 31.0231 26.3387 31.047 26.3463 31.07C26.3538 31.0931 26.3614 31.1169 26.3698 31.14H26.3664C26.3664 31.14 26.3622 31.14 26.3597 31.1383H26.3513C26.3513 31.1383 26.3496 31.1383 26.3496 31.1365L26.3412 31.1152C26.3353 31.099 26.3261 31.0837 26.3143 31.07C26.3026 31.0564 26.2849 31.0445 26.2622 31.0342C26.2395 31.024 26.2093 31.0163 26.1723 31.0104C26.1353 31.0044 26.09 31.0018 26.0362 31.0018H25.8118V32.0915C25.8118 32.1572 25.8219 32.1998 25.8429 32.2211C25.8639 32.2424 25.89 32.2527 25.9219 32.2527H25.9446V32.2561C25.9446 32.2561 25.9446 32.2586 25.9446 32.2595C25.9446 32.2603 25.9446 32.262 25.9446 32.2629C25.9446 32.2655 25.9446 32.2672 25.9454 32.268C25.9454 32.2689 25.9454 32.2706 25.9454 32.2714C25.9454 32.2723 25.9454 32.2731 25.9471 32.2731H25.5076L25.5059 32.2748H25.5101Z" fill="#282454"/>
<path d="M33.0134 32.2638C33.0151 32.2587 33.0168 32.2544 33.0176 32.2527H33.0403C33.0722 32.2527 33.0991 32.2425 33.1193 32.2212C33.1403 32.1998 33.1504 32.1572 33.1504 32.0915V31.6226H32.5227V32.0915C32.5227 32.1572 32.5327 32.1998 32.5538 32.2212C32.5748 32.2425 32.6008 32.2527 32.6327 32.2527H32.6554L32.6588 32.2629V32.2715C32.6588 32.2715 32.6588 32.2732 32.6605 32.2732H32.2227V32.2715C32.2227 32.2715 32.2227 32.2689 32.2227 32.268C32.2227 32.2672 32.2227 32.2655 32.2227 32.2629L32.226 32.2527H32.2487C32.2806 32.2527 32.3075 32.2425 32.3277 32.2212C32.3487 32.1998 32.3588 32.1572 32.3588 32.0915V31.1434C32.3588 31.0778 32.3487 31.0351 32.3277 31.0138C32.3067 30.9925 32.2806 30.9823 32.2487 30.9823H32.226L32.2227 30.972C32.2227 30.972 32.2227 30.9686 32.2227 30.9678C32.2227 30.9678 32.2227 30.9661 32.2227 30.9652V30.9618H32.6613C32.6613 30.9618 32.6596 30.9643 32.6596 30.9652V30.972L32.6563 30.9823H32.6336C32.6017 30.9823 32.5748 30.9925 32.5538 31.0138C32.5327 31.0351 32.5227 31.0778 32.5227 31.1434V31.5851H33.1504V31.1434C33.1504 31.0778 33.1403 31.0343 33.1193 31.0138C33.0991 30.9925 33.0722 30.9823 33.0403 30.9823H33.0185L33.0117 30.9609H33.4521C33.4521 30.9609 33.4504 30.9635 33.4504 30.9643C33.4504 30.9652 33.4504 30.9661 33.4504 30.9669C33.4504 30.9669 33.4496 30.9686 33.4496 30.9712C33.4496 30.9737 33.4496 30.9746 33.4487 30.9754C33.4487 30.9754 33.4487 30.9771 33.4487 30.978V30.9814H33.426C33.3924 30.9814 33.3655 30.9916 33.3454 31.0129C33.3244 31.0343 33.3143 31.0769 33.3143 31.1426V32.0907C33.3143 32.1563 33.3244 32.199 33.3454 32.2203C33.3664 32.2416 33.3933 32.2518 33.426 32.2518H33.4487V32.2553C33.4487 32.2553 33.4487 32.2578 33.4487 32.2587C33.4487 32.2595 33.4496 32.2612 33.4496 32.2621C33.4496 32.2646 33.4496 32.2663 33.4504 32.2672C33.4504 32.268 33.4504 32.2698 33.4504 32.2706C33.4504 32.2715 33.4504 32.2723 33.4521 32.2723H33.0109C33.0109 32.2723 33.0117 32.268 33.0134 32.2629" fill="#282454"/>
<path d="M30.8455 31.1596C30.8455 31.1596 30.8413 31.1596 30.8363 31.1571C30.8312 31.1553 30.827 31.1536 30.8253 31.1528V31.1374C30.8228 31.1161 30.8195 31.0974 30.8161 31.0786C30.8119 31.0607 30.801 31.0454 30.7833 31.0326C30.7657 31.0198 30.7388 31.0095 30.7026 31.0027C30.6665 30.9959 30.6152 30.9925 30.5505 30.9925H30.264V31.5851H30.4447C30.4984 31.5851 30.543 31.5817 30.5774 31.574C30.6119 31.5663 30.6388 31.5561 30.6581 31.5416C30.6774 31.528 30.6909 31.5109 30.6984 31.4921C30.706 31.4725 30.7094 31.4512 30.7094 31.4282V31.4052L30.7279 31.3966V31.8076L30.7094 31.7991V31.7761C30.7094 31.7539 30.706 31.7334 30.6984 31.7138C30.6909 31.6942 30.6774 31.678 30.6581 31.6644C30.6388 31.6507 30.6119 31.6396 30.5774 31.6311C30.543 31.6226 30.4984 31.6192 30.4447 31.6192H30.264V32.135C30.264 32.1512 30.2657 32.1666 30.2682 32.1794C30.2707 32.1922 30.2774 32.2041 30.2875 32.2143C30.2976 32.2246 30.311 32.2314 30.3295 32.2374C30.348 32.2425 30.3715 32.245 30.4018 32.245H30.5951C30.6489 32.245 30.6942 32.2416 30.7295 32.2348C30.7648 32.228 30.7934 32.2186 30.8152 32.2058C30.8363 32.1939 30.8522 32.1794 30.8615 32.1623C30.8716 32.1453 30.8774 32.1274 30.88 32.1069L30.8833 32.0839L30.9043 32.0771C30.9001 32.1095 30.8951 32.1427 30.8909 32.1768C30.8867 32.2109 30.8808 32.2433 30.8749 32.2749H29.9631V32.2732C29.9631 32.2732 29.9631 32.2706 29.964 32.2698C29.964 32.2689 29.964 32.2672 29.964 32.2646L29.9673 32.2544H29.99C30.006 32.2544 30.0203 32.2518 30.0337 32.2476C30.0472 32.2433 30.0581 32.2339 30.0682 32.2212C30.0783 32.2084 30.0858 32.1905 30.0917 32.1674C30.0976 32.1444 30.1001 32.1154 30.1001 32.0788V31.1588C30.1001 31.1229 30.0976 31.0931 30.0917 31.0701C30.0858 31.0471 30.0783 31.03 30.0682 31.0164C30.0581 31.0036 30.0472 30.995 30.0337 30.9899C30.0203 30.9857 30.006 30.9831 29.99 30.9831H29.9673L29.964 30.9729C29.964 30.9729 29.964 30.9695 29.964 30.9686C29.964 30.9686 29.9631 30.9669 29.9631 30.9661V30.9626H30.8321C30.8346 30.995 30.8363 31.0283 30.8379 31.0616C30.8396 31.0948 30.8413 31.1281 30.8438 31.1605H30.8472L30.8455 31.1596Z" fill="#282454"/>
<path d="M28.5765 31.1596C28.5765 31.1596 28.5723 31.1596 28.5672 31.1571C28.5622 31.1553 28.558 31.1536 28.5563 31.1528V31.1374C28.5538 31.1161 28.5504 31.0974 28.547 31.0786C28.5428 31.0607 28.5319 31.0454 28.5143 31.0326C28.4966 31.0198 28.4697 31.0095 28.4336 31.0027C28.3975 30.9959 28.3462 30.9925 28.2815 30.9925H27.9949V31.5851H28.1756C28.2294 31.5851 28.2739 31.5817 28.3084 31.574C28.3428 31.5663 28.3697 31.5561 28.3891 31.5416C28.4084 31.528 28.4218 31.5109 28.4294 31.4921C28.437 31.4725 28.4403 31.4512 28.4403 31.4282V31.4052L28.4596 31.3966V31.8076L28.4403 31.7991V31.7761C28.4403 31.7539 28.437 31.7334 28.4294 31.7138C28.4218 31.6942 28.4084 31.678 28.3891 31.6644C28.3697 31.6507 28.3428 31.6396 28.3084 31.6311C28.2739 31.6226 28.2294 31.6192 28.1756 31.6192H27.9949V32.135C27.9949 32.1512 27.9966 32.1666 27.9991 32.1794C28.0017 32.1922 28.0084 32.2041 28.0185 32.2143C28.0286 32.2246 28.042 32.2314 28.0605 32.2374C28.079 32.2425 28.1025 32.245 28.1328 32.245H28.326C28.3798 32.245 28.4252 32.2416 28.4605 32.2348C28.4958 32.228 28.5244 32.2186 28.5462 32.2058C28.5672 32.1939 28.5832 32.1794 28.5924 32.1623C28.6025 32.1453 28.6084 32.1274 28.6109 32.1069L28.6143 32.0839L28.6353 32.0771C28.6311 32.1095 28.626 32.1427 28.6218 32.1768C28.6176 32.2109 28.6118 32.2433 28.6059 32.2749H27.6941V32.2732C27.6941 32.2732 27.6941 32.2706 27.6949 32.2698C27.6949 32.2689 27.6958 32.2672 27.6958 32.2646L27.6991 32.2544H27.7218C27.7378 32.2544 27.7521 32.2518 27.7655 32.2476C27.779 32.2433 27.7899 32.2339 27.8 32.2212C27.8101 32.2084 27.8176 32.1905 27.8235 32.1674C27.8294 32.1444 27.8319 32.1154 27.8319 32.0788V31.1588C27.8319 31.1229 27.8294 31.0931 27.8235 31.0701C27.8176 31.0471 27.8101 31.03 27.8 31.0164C27.7899 31.0036 27.779 30.995 27.7655 30.9899C27.7521 30.9857 27.7378 30.9831 27.7218 30.9831H27.6991L27.6958 30.9729C27.6958 30.9729 27.6958 30.9695 27.6949 30.9686C27.6949 30.9686 27.6941 30.9669 27.6941 30.9661V30.9626H28.563C28.5655 30.995 28.5672 31.0283 28.5689 31.0616C28.5706 31.0948 28.5723 31.1281 28.5748 31.1605H28.5781L28.5765 31.1596Z" fill="#282454"/>
<path d="M36.0539 32.2689V32.2604C36.0539 32.2604 36.0523 32.2569 36.0523 32.2535V32.2501H36.0086C35.9976 32.2501 35.9875 32.2467 35.9758 32.2399C35.9649 32.2331 35.9522 32.2203 35.9396 32.2015C35.927 32.1828 35.9128 32.158 35.8976 32.1256C35.8825 32.0932 35.8657 32.0523 35.8489 32.0029L35.5548 31.105C35.4959 31.0931 35.4396 31.0709 35.3875 31.0334C35.3766 31.0257 35.3657 31.0172 35.3548 31.0078L35.0581 31.8929C35.0321 31.9653 35.0085 32.025 34.9858 32.0711C34.9632 32.1171 34.9422 32.1538 34.9211 32.1794C34.9001 32.2058 34.88 32.2237 34.8615 32.2339C34.843 32.2442 34.8237 32.2493 34.8052 32.2493H34.7648C34.7648 32.2493 34.7632 32.2518 34.7632 32.2527V32.2595C34.7632 32.2595 34.7615 32.2646 34.7615 32.268V32.2697H35.1892V32.268C35.1892 32.268 35.1892 32.2655 35.1884 32.2646C35.1884 32.2629 35.1875 32.2612 35.1875 32.2595C35.1875 32.2586 35.1875 32.2569 35.1875 32.2561C35.1875 32.2552 35.1867 32.2535 35.1867 32.2527V32.2493H35.1497C35.1262 32.2493 35.1069 32.2442 35.0901 32.2339C35.0732 32.2237 35.0623 32.2058 35.0556 32.1794C35.0489 32.1538 35.0489 32.1171 35.0556 32.0719C35.0615 32.0267 35.0749 31.9679 35.0959 31.8963L35.1329 31.7846H35.6102L35.6539 31.9219H35.6522C35.6741 31.9892 35.6892 32.0446 35.6968 32.0873C35.7043 32.1299 35.706 32.164 35.7027 32.1879C35.6993 32.2126 35.6909 32.2288 35.6783 32.2382C35.6657 32.2476 35.6497 32.2518 35.6312 32.2518H35.5926L35.5892 32.2629C35.5892 32.2629 35.5892 32.2672 35.5884 32.268C35.5884 32.2689 35.5884 32.2706 35.5884 32.2714V32.2731H36.059C36.059 32.2731 36.0573 32.2731 36.0573 32.2714M35.1464 31.7479L35.3741 31.0504L35.5985 31.7479H35.1455H35.1464Z" fill="#282454"/>
<path d="M26.7109 34.0416L26.7916 34.0621C26.7748 34.1294 26.7446 34.1806 26.7009 34.2155C26.6572 34.2505 26.6034 34.2684 26.5404 34.2684C26.4773 34.2684 26.4219 34.2548 26.3807 34.2275C26.3395 34.2002 26.3084 34.161 26.2866 34.1098C26.2647 34.0586 26.2546 34.0032 26.2546 33.9444C26.2546 33.8804 26.2664 33.8242 26.2908 33.7764C26.3151 33.7287 26.3496 33.692 26.3941 33.6673C26.4387 33.6426 26.4883 33.6298 26.542 33.6298C26.6025 33.6298 26.6538 33.646 26.6958 33.6767C26.737 33.7082 26.7664 33.7525 26.7824 33.8097L26.7034 33.8284C26.6891 33.7832 26.6689 33.7508 26.642 33.7304C26.6151 33.7099 26.5815 33.6997 26.5404 33.6997C26.4933 33.6997 26.4546 33.7108 26.4227 33.7338C26.3916 33.7568 26.3689 33.7875 26.3563 33.825C26.3437 33.8634 26.337 33.9026 26.337 33.9435C26.337 33.9964 26.3446 34.0416 26.3597 34.0808C26.3748 34.12 26.3983 34.149 26.4303 34.1686C26.4622 34.1882 26.4967 34.1976 26.5336 34.1976C26.579 34.1976 26.6168 34.184 26.6479 34.1584C26.679 34.132 26.7 34.0927 26.7118 34.0407" fill="#282454"/>
<path d="M27.5454 33.9572C27.5454 33.8549 27.5723 33.7747 27.6269 33.7167C27.6815 33.6588 27.7513 33.6298 27.837 33.6298C27.8933 33.6298 27.9437 33.6434 27.9891 33.6707C28.0345 33.698 28.0689 33.7363 28.0925 33.7849C28.116 33.8335 28.1278 33.889 28.1278 33.9504C28.1278 34.0117 28.1152 34.0689 28.0908 34.1183C28.0656 34.1678 28.0303 34.2053 27.9849 34.2309C27.9395 34.2565 27.89 34.2692 27.837 34.2692C27.7799 34.2692 27.7286 34.2556 27.6832 34.2275C27.6378 34.1993 27.6042 34.161 27.5807 34.1124C27.5572 34.0638 27.5454 34.0126 27.5454 33.958M27.6286 33.9589C27.6286 34.0331 27.6479 34.0919 27.6874 34.1345C27.7269 34.1772 27.7765 34.1985 27.8362 34.1985C27.8958 34.1985 27.9463 34.1772 27.9858 34.1337C28.0252 34.0902 28.0446 34.0288 28.0446 33.9495C28.0446 33.8992 28.0362 33.8557 28.0194 33.8182C28.0026 33.7807 27.9782 33.7517 27.9463 33.7312C27.9143 33.7108 27.8782 33.7005 27.8379 33.7005C27.7807 33.7005 27.732 33.7201 27.6908 33.7602C27.6496 33.8003 27.6294 33.8659 27.6294 33.9589" fill="#282454"/>
<path d="M28.916 34.2582V33.6409H29.3261V33.7133H28.9967V33.9052H29.2816V33.9777H28.9967V34.2582H28.916Z" fill="#282454"/>
<path d="M30.115 34.2582V33.6409H30.5251V33.7133H30.1957V33.9052H30.4814V33.9777H30.1957V34.2582H30.115Z" fill="#282454"/>
<path d="M31.3118 34.2582V33.6409H31.7521V33.7133H31.3924V33.9026H31.7294V33.9751H31.3924V34.1857H31.7664V34.2582H31.3118Z" fill="#282454"/>
<path d="M32.5588 34.2582V33.6409H32.9992V33.7133H32.6395V33.9026H32.9765V33.9751H32.6395V34.1857H33.0135V34.2582H32.5588Z" fill="#282454"/>
<path d="M36.0681 33.918H34.0134C34.0017 33.918 33.9924 33.9086 33.9924 33.8967C33.9924 33.8847 34.0017 33.8754 34.0134 33.8754H36.0681C36.0799 33.8754 36.0891 33.8847 36.0891 33.8967C36.0891 33.9086 36.0799 33.918 36.0681 33.918Z" fill="#010101"/>
<path d="M36.0682 33.9469H34.0136C33.9858 33.9469 33.9631 33.9239 33.9631 33.8958C33.9631 33.8676 33.9858 33.8446 34.0136 33.8446H36.0682C36.0959 33.8446 36.1178 33.8676 36.1178 33.8958C36.1178 33.9239 36.0951 33.9469 36.0682 33.9469Z" fill="#27255A"/>
<path d="M25.4225 33.9444H23.3687C23.3569 33.9444 23.3477 33.935 23.3477 33.923C23.3477 33.9111 23.3569 33.9017 23.3687 33.9017H25.4233C25.4351 33.9017 25.4443 33.9111 25.4443 33.923C25.4443 33.935 25.4351 33.9444 25.4233 33.9444" fill="#010101"/>
<path d="M25.4226 33.9743H23.3688C23.341 33.9743 23.3184 33.9512 23.3184 33.9231C23.3184 33.895 23.341 33.8719 23.3688 33.8719H25.4234C25.4512 33.8719 25.473 33.895 25.473 33.9231C25.473 33.9512 25.4503 33.9743 25.4234 33.9743H25.4226Z" fill="#27255A"/>
<path d="M36.8094 29.1516C36.8094 29.1516 36.8069 29.1533 36.8061 29.1533C36.6993 29.2053 36.5951 29.2633 36.496 29.3255C36.2968 29.4509 36.1069 29.6001 35.9901 29.8107C35.9901 29.8115 35.9892 29.8124 35.9884 29.8132L35.8523 29.7016L35.8354 29.4517C35.8523 29.3878 35.8733 29.3255 35.896 29.2633C35.9338 29.1593 35.9775 29.0544 36.027 28.9546C36.0766 28.854 36.138 28.7594 36.1859 28.6588C36.2892 28.4388 36.3271 28.1779 36.3271 27.9357V27.9016C36.3271 27.9016 36.585 28.096 36.5598 28.4294C36.5598 28.4294 36.7901 28.6536 36.7296 28.9947C36.7296 28.9947 36.7775 29.0501 36.8103 29.1499L36.8094 29.1516Z" fill="#71C9ED"/>
<path d="M36.0069 29.7818C35.9363 29.6232 35.8624 29.4996 35.7741 29.3589C35.6405 29.1457 35.4909 28.8311 35.1968 28.8456C34.8926 28.8609 34.5959 29.277 34.5959 29.277L34.7296 29.3452C34.7296 29.3452 34.864 29.3938 34.9069 29.5328C34.9447 29.6539 34.9472 29.7886 34.9707 29.9131C35.0506 30.3411 35.3346 30.7265 35.7262 30.9098C36.2145 31.1383 36.7422 31.0181 37.2405 30.8732C37.3935 30.8288 37.6624 30.7888 37.8002 30.7436C37.9716 30.6873 38.0044 30.6447 38.0111 30.4997C38.017 30.382 37.9153 30.3386 37.822 30.3241C37.5136 30.278 37.2002 30.2848 36.8893 30.2738L36.0061 29.7809L36.0069 29.7818Z" fill="#3BBACA"/>
<path d="M34.5959 29.277C34.5959 29.277 34.7363 29.1005 34.7817 29.0673C34.7817 29.0673 34.9817 29.2412 34.806 29.3896C34.806 29.3896 34.7472 29.3512 34.5959 29.277Z" fill="#71C9ED"/>
<path d="M35.8345 29.4654C35.8345 29.4654 35.8328 29.4654 35.8312 29.4654C35.8244 29.4637 35.8202 29.4569 35.8228 29.4501C35.8387 29.3921 35.8581 29.3299 35.8833 29.2608C35.9211 29.1568 35.9656 29.0519 36.0152 28.9504C36.0387 28.9027 36.0648 28.8558 36.0908 28.8106C36.1194 28.7603 36.1488 28.7074 36.174 28.6546C36.29 28.409 36.3144 28.1293 36.3144 27.9375C36.3144 27.9332 36.3144 27.9042 36.3144 27.9042C36.3144 27.8991 36.3169 27.8948 36.3211 27.8923C36.3253 27.8897 36.3303 27.8906 36.3345 27.8931C36.3371 27.8948 36.595 28.0935 36.5732 28.4269C36.6043 28.4602 36.7967 28.6793 36.7429 28.9931C36.7555 29.0084 36.7942 29.0621 36.8228 29.1474C36.8253 29.1542 36.8211 29.161 36.8152 29.1636C36.8085 29.1661 36.8018 29.1619 36.7992 29.1559C36.7673 29.0596 36.7211 29.0058 36.7211 29.005C36.7186 29.0024 36.7177 28.9982 36.7177 28.9939C36.7766 28.6648 36.5539 28.4422 36.5522 28.4405C36.5497 28.438 36.548 28.4346 36.548 28.4303C36.5681 28.1626 36.4001 27.9844 36.3404 27.9307C36.3404 27.9332 36.3404 27.9358 36.3404 27.9366C36.3404 28.131 36.316 28.415 36.1976 28.6648C36.1723 28.7185 36.1421 28.7714 36.1135 28.8225C36.0883 28.8677 36.0623 28.9138 36.0387 28.9607C35.9891 29.0613 35.9455 29.1644 35.9076 29.2685C35.8833 29.3367 35.8631 29.3981 35.848 29.4552C35.8463 29.4612 35.8412 29.4646 35.8354 29.4646L35.8345 29.4654Z" fill="#292454"/>
<path d="M36.0582 29.7186C36.0515 29.7186 36.0456 29.7118 36.0465 29.705C36.0498 29.6385 36.0591 29.5745 36.0742 29.5157C36.149 29.2155 36.2482 29.0135 36.4045 28.7082C36.5566 28.4106 36.5162 28.2009 36.5162 28.1992C36.5145 28.1924 36.5187 28.1856 36.5263 28.1838C36.533 28.1821 36.5398 28.1864 36.5414 28.1941C36.5431 28.2026 36.5843 28.4141 36.428 28.7202C36.2725 29.0237 36.1734 29.2249 36.0994 29.5216C36.0851 29.5788 36.0759 29.641 36.0725 29.7058C36.0725 29.7126 36.0666 29.7178 36.0599 29.7178L36.0582 29.7186Z" fill="#292454"/>
<path d="M36.4278 29.3759C36.4278 29.3759 36.4261 29.3759 36.4244 29.3759C36.4177 29.3742 36.4135 29.3666 36.416 29.3597C36.4362 29.289 36.4606 29.2208 36.4875 29.1585C36.6656 28.7526 36.669 28.7313 36.6799 28.6623L36.6816 28.6495C36.6824 28.6427 36.6891 28.6375 36.6959 28.6392C36.7026 28.6401 36.7076 28.6469 36.7059 28.6537L36.7043 28.6665C36.6933 28.7382 36.6891 28.7595 36.5101 29.1687C36.4833 29.231 36.4597 29.2975 36.4396 29.3666C36.4379 29.3725 36.4328 29.3759 36.4269 29.3759H36.4278Z" fill="#292454"/>
<path d="M36.2825 31.0505C36.0926 31.0454 35.9044 31.0079 35.7203 30.9218C35.3321 30.7402 35.0396 30.3539 34.9581 29.9157C34.9497 29.8688 34.9438 29.8202 34.938 29.7733C34.9279 29.694 34.9178 29.6121 34.8951 29.5371C34.8548 29.4058 34.727 29.358 34.7254 29.358L34.5901 29.2898C34.5901 29.2898 34.5842 29.2847 34.5833 29.2813C34.5825 29.2779 34.5833 29.2736 34.585 29.2711C34.5976 29.254 34.8884 28.849 35.196 28.8345C35.4632 28.8209 35.6153 29.0733 35.7371 29.2753C35.7531 29.3018 35.7691 29.3282 35.7842 29.3529C35.8691 29.4885 35.9455 29.6147 36.0178 29.7775C36.0203 29.7844 36.0178 29.7912 36.0111 29.7946C36.0044 29.7972 35.9976 29.7946 35.9943 29.7878C35.922 29.6258 35.8464 29.5013 35.7623 29.3657C35.7464 29.341 35.7313 29.3146 35.7144 29.2873C35.5901 29.0801 35.4489 28.8456 35.196 28.8584C34.9296 28.872 34.6649 29.2046 34.6136 29.2728L34.7338 29.3333C34.738 29.335 34.8733 29.3853 34.9178 29.5286C34.9422 29.6062 34.9523 29.6889 34.9615 29.7699C34.9674 29.8168 34.9733 29.8654 34.9817 29.9106C35.0623 30.3411 35.3489 30.7197 35.7296 30.8988C36.2161 31.1264 36.7405 31.0054 37.2355 30.8613C37.3069 30.8408 37.4052 30.8203 37.501 30.8007C37.6094 30.7786 37.722 30.7555 37.7952 30.7317C37.9666 30.6754 37.991 30.6336 37.9977 30.4989C38.0027 30.388 37.9036 30.3497 37.8195 30.3369C37.5876 30.3019 37.3481 30.2977 37.1178 30.2925C37.0414 30.2908 36.9649 30.2891 36.8884 30.2866C36.8817 30.2866 36.8758 30.2806 36.8758 30.2729C36.8758 30.2661 36.8817 30.2601 36.8884 30.2601C36.9649 30.2627 37.0414 30.2644 37.1178 30.2661C37.3498 30.2712 37.5893 30.2755 37.8229 30.3104C37.9565 30.3301 38.0279 30.3974 38.0229 30.4989C38.0162 30.6524 37.9767 30.6975 37.8027 30.7547C37.7279 30.7794 37.6153 30.8024 37.5052 30.8246C37.4103 30.8442 37.3128 30.8638 37.2422 30.8843C36.9279 30.9755 36.6019 31.0574 36.2808 31.0488L36.2825 31.0505Z" fill="#292454"/>
<path d="M35.0129 29.6496C34.9675 29.6488 34.9372 29.6445 34.9339 29.6445C34.9271 29.6436 34.9221 29.6368 34.9229 29.63C34.9238 29.6232 34.9305 29.6181 34.9372 29.6189C34.9398 29.6189 35.1977 29.6505 35.3826 29.5558C35.5641 29.4637 35.6456 29.381 35.6944 29.242C35.6969 29.2352 35.7036 29.2318 35.7104 29.2344C35.7171 29.2369 35.7204 29.2437 35.7179 29.2506C35.6667 29.3972 35.5818 29.4833 35.3935 29.5788C35.2641 29.6445 35.1061 29.6522 35.0129 29.6496Z" fill="#292454"/>
<path d="M34.9917 29.7196C34.9623 29.7196 34.943 29.717 34.9405 29.717C34.9338 29.717 34.9287 29.7102 34.9287 29.7034C34.9287 29.6965 34.9346 29.6914 34.9422 29.6914C34.9447 29.6914 35.2035 29.7136 35.3934 29.6292C35.5783 29.5465 35.6783 29.4518 35.727 29.312C35.7296 29.3052 35.7363 29.3018 35.743 29.3043C35.7497 29.3069 35.7531 29.3137 35.7506 29.3205C35.6993 29.468 35.5951 29.5669 35.4035 29.6522C35.2573 29.717 35.0783 29.7221 34.9917 29.7196Z" fill="#292454"/>
<path d="M35.0143 29.7861C34.9765 29.7852 34.9521 29.7827 34.9488 29.7827C34.9421 29.7827 34.937 29.7758 34.937 29.769C34.937 29.7622 34.9437 29.7571 34.9505 29.7571C34.9538 29.7571 35.2631 29.7844 35.4479 29.6889C35.6345 29.5925 35.7253 29.5038 35.7715 29.3708C35.774 29.364 35.7807 29.3606 35.7874 29.3632C35.7942 29.3657 35.7975 29.3725 35.795 29.3794C35.7471 29.5166 35.6496 29.613 35.4589 29.711C35.3185 29.7835 35.116 29.7886 35.0126 29.7852L35.0143 29.7861Z" fill="#292454"/>
<path d="M34.8052 29.4024C34.8052 29.4024 34.7985 29.4007 34.7959 29.3981C34.7917 29.393 34.7917 29.3845 34.7976 29.3802C34.8438 29.341 34.8665 29.2966 34.8657 29.2497C34.8648 29.1568 34.7716 29.0809 34.7707 29.0801C34.7657 29.0758 34.7648 29.0673 34.769 29.0622C34.7732 29.0571 34.7817 29.0553 34.7867 29.0605C34.7909 29.0639 34.8892 29.1449 34.8909 29.2497C34.8909 29.3043 34.8657 29.3546 34.8136 29.3998C34.8111 29.4024 34.8077 29.4032 34.8052 29.4032V29.4024Z" fill="#292454"/>
<path d="M34.6018 29.277C34.6018 29.277 34.7421 29.1636 34.8732 29.2122C34.8732 29.2122 34.764 29.3154 34.6018 29.277Z" fill="white"/>
<path d="M34.6666 29.2982C34.6456 29.2982 34.6229 29.2948 34.5994 29.2897C34.5943 29.2889 34.591 29.2846 34.5901 29.2803C34.5893 29.2752 34.5901 29.271 34.5943 29.2676C34.6002 29.2624 34.7414 29.1499 34.8775 29.201C34.8817 29.2028 34.8851 29.2062 34.8859 29.2104C34.8868 29.2147 34.8859 29.219 34.8826 29.2224C34.8784 29.2258 34.796 29.3025 34.6666 29.2991V29.2982ZM34.6347 29.2701C34.7355 29.2838 34.8128 29.2411 34.8464 29.2172C34.7616 29.1985 34.6759 29.2437 34.6347 29.2701Z" fill="#292454"/>
<path d="M35.254 29.0715C35.2557 28.9999 35.2003 28.9402 35.1297 28.9385C35.0591 28.9368 35.0003 28.9931 34.9986 29.0647C34.9969 29.1363 35.0524 29.196 35.1229 29.1977C35.1935 29.1994 35.2524 29.1431 35.254 29.0715Z" fill="white"/>
<path d="M35.1221 29.2105C35.0448 29.2079 34.9835 29.1423 34.9851 29.0638C34.9868 28.9854 35.0524 28.9231 35.1297 28.9248C35.207 28.9274 35.2683 28.9931 35.2667 29.0715C35.265 29.1499 35.1994 29.2122 35.1221 29.2105ZM35.1288 28.9504C35.065 28.9487 35.012 28.9999 35.0104 29.0638C35.0087 29.1278 35.0591 29.1823 35.1221 29.184C35.1851 29.1857 35.2389 29.1346 35.2406 29.0706C35.2423 29.0067 35.1919 28.9521 35.1288 28.9504Z" fill="#292454"/>
<path d="M35.1876 29.1039C35.1893 29.0553 35.1514 29.0152 35.1035 29.0135C35.0556 29.0118 35.0161 29.0501 35.0145 29.0987C35.0128 29.1473 35.0506 29.1874 35.0985 29.1891C35.1464 29.1908 35.1859 29.1525 35.1876 29.1039Z" fill="#292454"/>
<path d="M35.9362 29.6487C35.8934 29.6461 35.8388 29.6086 35.7959 29.5719C35.885 29.7254 35.874 29.8047 35.8732 29.809L35.8715 29.8192H35.8606C35.7875 29.8226 35.7085 29.7698 35.6514 29.7195C35.7127 29.8499 35.6858 29.9488 35.685 29.9539L35.6824 29.9633H35.6724C35.569 29.9599 35.5026 29.8891 35.4631 29.8243C35.4833 29.9573 35.4413 30.046 35.4387 30.0503L35.4345 30.0597L35.4245 30.0571C35.3379 30.0315 35.2875 29.9608 35.2589 29.8951C35.2572 30.046 35.2001 30.1074 35.1967 30.11L35.1908 30.1168L35.1833 30.1134C35.1194 30.0861 35.0833 30.0204 35.0631 29.9539C35.0597 30.0017 35.0497 30.0511 35.0278 30.0972L35.0051 30.0861C35.0682 29.9565 35.0253 29.7791 35.0253 29.7774L35.0371 29.7749H35.0387H35.0623C35.0623 29.7774 35.064 30.0239 35.185 30.0869C35.2018 30.0631 35.2522 29.9761 35.2278 29.7988C35.2278 29.7953 35.227 29.7928 35.2261 29.7902C35.2261 29.786 35.2253 29.7817 35.2236 29.7774C35.2236 29.774 35.2236 29.7715 35.2219 29.7681C35.2219 29.7664 35.2219 29.7646 35.2219 29.7646L35.2303 29.7629L35.2471 29.7612C35.2471 29.7612 35.2471 29.7638 35.248 29.7672C35.248 29.7698 35.2488 29.7732 35.2497 29.7766C35.2497 29.7766 35.2497 29.7774 35.2497 29.7783C35.2589 29.8303 35.2976 29.9855 35.4219 30.0307C35.4345 29.9966 35.4707 29.8772 35.4102 29.722L35.4177 29.7195L35.4287 29.7143L35.4337 29.7126L35.4413 29.7109C35.4413 29.7109 35.4993 29.9258 35.664 29.9386C35.6698 29.9036 35.6808 29.7774 35.5698 29.6368L35.5892 29.6206C35.5892 29.6206 35.7287 29.7902 35.8488 29.7962C35.848 29.7646 35.8346 29.664 35.7161 29.4986L35.7354 29.4824C35.7354 29.4824 35.8623 29.6206 35.9379 29.6248L35.9362 29.6504V29.6487Z" fill="#292454"/>
<path d="M35.0515 29.7732H35.0388L35.0506 29.7706C35.0506 29.7706 35.0506 29.7723 35.0515 29.7732Z" fill="#292454"/>
<path d="M35.041 29.7732L35.0364 29.7755V29.7732H35.041Z" fill="#292454"/>
<path d="M35.434 29.7101V29.7111L35.428 29.7133L35.434 29.7101Z" fill="#292454"/>
<path d="M35.4288 29.7126L35.417 29.7178V29.7161L35.4297 29.7126H35.4288Z" fill="#292454"/>
<path d="M35.6583 29.9489L35.6438 29.9565C35.6438 29.9565 35.6438 29.9565 35.6438 29.9557L35.6592 29.9489H35.6583Z" fill="#292454"/>
<path d="M35.9387 29.9122C35.911 29.9114 35.8849 29.8952 35.8623 29.8756C35.9286 30.0248 35.9051 30.1501 35.9034 30.1569L35.9009 30.1689L35.8891 30.1672C35.8101 30.1569 35.7421 30.0913 35.6984 30.0367C35.7328 30.1799 35.6917 30.2976 35.69 30.3036L35.6858 30.3155L35.674 30.3104C35.5791 30.2712 35.5202 30.2038 35.4841 30.1416C35.5034 30.2763 35.4648 30.3803 35.4631 30.3863L35.458 30.3982L35.4463 30.394C35.3312 30.3488 35.2681 30.243 35.2362 30.162C35.2429 30.2328 35.2362 30.3326 35.1757 30.4144L35.1555 30.3991C35.2522 30.2686 35.1959 30.081 35.195 30.0793L35.2076 30.0751C35.2051 30.0657 35.2043 30.0597 35.2043 30.058L35.2295 30.0529C35.2295 30.0529 35.2723 30.2874 35.4429 30.365C35.4555 30.3223 35.49 30.1791 35.4261 30.0282L35.4337 30.0248C35.4312 30.0162 35.4303 30.0111 35.4303 30.0094L35.4547 30.0043C35.4547 30.0043 35.4942 30.2013 35.6698 30.2814C35.6816 30.2396 35.7101 30.1015 35.6454 29.9591C35.6454 29.9574 35.6446 29.9566 35.6438 29.9566L35.6572 29.9489L35.6656 29.9446C35.6656 29.9446 35.6656 29.9455 35.6664 29.9463C35.6774 29.9668 35.7665 30.116 35.8799 30.1399C35.8841 30.0972 35.8925 29.954 35.795 29.8065L35.816 29.792C35.816 29.792 35.8186 29.7963 35.8202 29.798L35.8253 29.7946C35.8421 29.8218 35.8984 29.89 35.9446 29.8858L35.9463 29.9114H35.9379L35.9387 29.9122Z" fill="#292454"/>
<path d="M35.6663 29.9446L35.6572 29.9488L35.6663 29.9437V29.9446Z" fill="#292454"/>
<path d="M35.9876 29.8423L35.9632 29.8346C35.9826 29.7741 35.9002 29.6615 35.8674 29.6231L35.8859 29.6061C35.891 29.612 36.0145 29.7561 35.9868 29.8423H35.9876Z" fill="#292454"/>
<path d="M35.4681 30.7427L35.4438 30.735C35.5093 30.5253 35.3959 30.3692 35.395 30.3675L35.4152 30.3522C35.4202 30.359 35.5379 30.521 35.4681 30.7427Z" fill="#292454"/>
<path d="M35.2254 30.3044L35.2002 30.3027C35.2002 30.3087 35.1892 30.4494 35.2531 30.5509L35.2741 30.5372C35.2153 30.4434 35.2254 30.3061 35.2254 30.3044Z" fill="#292454"/>
<path d="M36.1144 30.1373L36.0942 30.1526C36.1505 30.2285 36.153 30.3138 36.1522 30.3436C36.0304 30.3436 35.9261 30.2379 35.874 30.1748C35.8707 30.1705 35.8673 30.1671 35.864 30.1629C35.848 30.1424 35.8396 30.1288 35.8388 30.1288L35.8346 30.1313C35.8295 30.1262 35.8245 30.1211 35.8186 30.116L35.8026 30.1356C35.8169 30.1475 35.8287 30.1603 35.8396 30.1739C35.843 30.1782 35.8463 30.1833 35.8505 30.1884C35.9354 30.3061 35.9228 30.4664 35.9169 30.5124C35.732 30.4673 35.6707 30.2899 35.6698 30.2882L35.6606 30.2916C35.6606 30.2916 35.6564 30.2839 35.6547 30.2797L35.6329 30.2916C35.7329 30.4766 35.7051 30.6071 35.6934 30.6438C35.5144 30.5832 35.4211 30.3658 35.4203 30.3632L35.3967 30.3735C35.4009 30.3828 35.4993 30.6131 35.6967 30.6719L35.7077 30.6753L35.7119 30.6651C35.7144 30.66 35.7556 30.5636 35.7077 30.4067C35.7505 30.4613 35.8194 30.5201 35.9236 30.5414L35.9362 30.544L35.9388 30.5312C35.9404 30.5235 35.964 30.3897 35.9161 30.2618C35.974 30.3155 36.053 30.3684 36.143 30.3709C36.1488 30.3709 36.1556 30.3709 36.1623 30.3709H36.1732L36.1749 30.3598C36.1749 30.3547 36.1883 30.2422 36.1127 30.1398L36.1144 30.1373Z" fill="#292454"/>
<path d="M35.4901 30.6157H35.4648C35.4648 30.7539 35.5615 30.8314 35.5657 30.8349L35.5808 30.8144C35.5808 30.8144 35.4901 30.7411 35.4901 30.6157Z" fill="#292454"/>
<path d="M36.5405 30.5568V30.5423C36.5405 30.5423 36.5136 30.255 36.2985 30.197L36.2918 30.2217C36.4623 30.2678 36.5044 30.4733 36.5128 30.5296C36.2917 30.5176 36.1497 30.3735 36.1228 30.3445L36.1153 30.3394L36.1128 30.3514C36.1069 30.3462 36.1018 30.3411 36.0959 30.336L36.0808 30.3565C36.1875 30.4383 36.2018 30.6123 36.2044 30.66C36.0581 30.6617 35.959 30.556 35.9581 30.5551C35.943 30.5364 35.9245 30.5202 35.9035 30.5074L35.8909 30.5296C36.0069 30.5986 36.0237 30.8058 36.0262 30.8646C35.8985 30.8374 35.8069 30.7461 35.7959 30.735C35.764 30.6643 35.7245 30.6225 35.722 30.6199L35.7043 30.6378C35.7043 30.6378 35.8228 30.7615 35.8094 30.9491L35.8346 30.9508C35.8396 30.8885 35.8304 30.8331 35.8161 30.7862C35.8607 30.8229 35.9388 30.8757 36.038 30.8919L36.0523 30.8945V30.8791C36.0523 30.8706 36.0514 30.7325 35.9993 30.6208C36.043 30.6506 36.1086 30.683 36.1909 30.6856C36.2002 30.6856 36.2094 30.6856 36.2186 30.6856H36.2304V30.6728C36.2304 30.6651 36.2304 30.5278 36.1665 30.4187C36.2371 30.4758 36.3623 30.5517 36.5279 30.556H36.5422L36.5405 30.5568Z" fill="#292454"/>
<path d="M36.3531 30.4963L36.343 30.5194C36.4808 30.5825 36.4976 30.7504 36.5001 30.7973C36.2749 30.7999 36.1816 30.6797 36.1808 30.6788C36.1757 30.6728 36.1715 30.6669 36.1665 30.6618L36.148 30.6788C36.264 30.8101 36.2648 30.9679 36.2623 31.0122C36.1463 31.0003 36.0186 30.8655 36.0178 30.8647L35.9993 30.8826C36.0052 30.8886 36.1438 31.0352 36.2732 31.0395H36.285L36.2867 31.0284C36.2867 31.0216 36.3026 30.8911 36.2304 30.7547C36.2808 30.7871 36.3606 30.8203 36.4757 30.8238C36.4884 30.8238 36.501 30.8238 36.5136 30.8238H36.5253V30.811C36.5253 30.8016 36.5295 30.5773 36.3531 30.4972V30.4963Z" fill="#292454"/>
<path d="M36.9053 30.967C36.8642 30.8902 36.8003 30.8433 36.8003 30.8425L36.8154 30.822C36.8154 30.822 36.8843 30.8732 36.928 30.955L36.9062 30.967H36.9053Z" fill="#292454"/>
<path d="M36.9035 30.5663L36.9136 30.5628L36.9119 30.5526C36.9102 30.5441 36.8775 30.348 36.6909 30.2704L36.6817 30.2943C36.8312 30.3557 36.8758 30.5049 36.885 30.5458C36.7228 30.5987 36.5304 30.5032 36.5287 30.5023L36.5178 30.5253C36.5178 30.5253 36.5228 30.5279 36.5287 30.5304L36.5262 30.5407C36.7548 30.6038 36.7976 30.828 36.8044 30.8817C36.6472 30.9005 36.4867 30.8007 36.485 30.7999L36.4758 30.8144C36.4674 30.8058 36.4607 30.8007 36.4598 30.7999L36.4438 30.8203C36.4438 30.8203 36.5464 30.9039 36.5733 31.025L36.5976 31.019C36.5791 30.938 36.5321 30.8741 36.4976 30.8365C36.5438 30.8613 36.643 30.9065 36.7514 30.9099C36.7741 30.9099 36.7968 30.9099 36.8203 30.9056L36.8312 30.9039V30.892C36.8312 30.892 36.8153 30.6848 36.6523 30.5722C36.6859 30.5799 36.7237 30.5867 36.7632 30.5876C36.8094 30.5893 36.8573 30.5833 36.9035 30.5663Z" fill="#292454"/>
<path d="M37.2496 30.5731L37.2589 30.5671L37.2547 30.556C37.2496 30.5441 37.1387 30.2695 36.9673 30.2644V30.2908C37.1051 30.2951 37.2059 30.5049 37.2286 30.5552C37.0622 30.6515 36.9085 30.5304 36.9068 30.5296L36.8984 30.5398L36.8866 30.5432C36.8883 30.5483 36.9001 30.5577 36.9135 30.5662C36.8975 30.5603 36.8807 30.5552 36.8631 30.5535L36.8597 30.579C37.0286 30.6012 37.1169 30.8314 37.1362 30.8894C36.937 30.9261 36.7942 30.7513 36.7933 30.7496L36.7832 30.7572L36.7715 30.7624C36.7715 30.7624 36.8925 30.915 37.0723 30.9201C37.0992 30.9201 37.127 30.9184 37.1555 30.9116L37.169 30.9082L37.1656 30.8954C37.1622 30.8851 37.1034 30.6839 36.969 30.5944C37.0017 30.6072 37.0404 30.6183 37.0849 30.62C37.1362 30.6217 37.1933 30.6097 37.2513 30.5731H37.2496Z" fill="#292454"/>
<path d="M37.1044 30.7538L37.0842 30.7691C37.0876 30.7734 37.1607 30.868 37.2691 30.8714C37.2868 30.8714 37.3044 30.8697 37.3237 30.8655L37.3178 30.8408C37.1968 30.8723 37.1052 30.7555 37.1044 30.7538Z" fill="#292454"/>
<path d="M37.56 30.5491L37.5709 30.544L37.5659 30.5321C37.4423 30.2601 37.202 30.2694 37.1995 30.2694V30.295C37.1995 30.295 37.4205 30.2865 37.5381 30.5312C37.4969 30.5491 37.3541 30.602 37.2356 30.5508L37.2306 30.5645C37.2222 30.5628 37.2171 30.5628 37.2163 30.5619L37.2146 30.5875C37.2146 30.5875 37.3936 30.6028 37.4633 30.8237L37.4852 30.8151C37.4465 30.6924 37.3759 30.6293 37.3171 30.5969C37.3247 30.5969 37.3322 30.5986 37.3398 30.5986C37.4532 30.602 37.5549 30.5517 37.56 30.5491Z" fill="#292454"/>
<path d="M37.8606 30.5858L37.8732 30.5816L37.869 30.5688C37.8648 30.5568 37.7665 30.278 37.5396 30.2823V30.3079C37.7219 30.3044 37.8186 30.5099 37.8413 30.5645C37.6825 30.608 37.5446 30.5423 37.543 30.5423L37.5388 30.5517C37.5085 30.5492 37.4867 30.5517 37.4841 30.5517L37.4867 30.5773C37.4867 30.5773 37.6522 30.5619 37.7203 30.6856C37.7102 30.7035 37.6673 30.7632 37.5488 30.793L37.5547 30.8177C37.7077 30.7794 37.7446 30.6933 37.7455 30.6898L37.748 30.6839L37.7455 30.6788C37.7287 30.6455 37.7068 30.6216 37.6825 30.6029C37.6925 30.6037 37.7026 30.6046 37.7135 30.6046C37.7581 30.6063 37.8093 30.6012 37.8614 30.585L37.8606 30.5858Z" fill="#292454"/>
<path d="M38.0093 30.4323L37.9866 30.4204C37.9681 30.463 37.8605 30.4929 37.821 30.5014L37.8252 30.5295C37.8252 30.5295 37.8286 30.5295 37.8303 30.5287L37.8286 30.5313C37.8286 30.5313 37.9303 30.5841 37.9563 30.66L37.9799 30.6506C37.958 30.5884 37.8958 30.5423 37.8622 30.521C37.9101 30.5074 37.9883 30.4792 38.0084 30.4341L38.0093 30.4323Z" fill="#292454"/>
<path d="M37.7211 30.6967L37.7102 30.7197C37.7102 30.7197 37.7581 30.7427 37.8077 30.7444C37.8237 30.7444 37.8405 30.7435 37.8564 30.7376L37.8489 30.7129C37.7934 30.7308 37.722 30.6967 37.7211 30.6958V30.6967Z" fill="#292454"/>
<path d="M37.5909 29.0672C37.5909 29.0672 37.6405 29.4082 37.3691 29.6547C37.3691 29.6547 37.3943 30.0631 36.8926 30.2745C36.8926 30.2745 36.5355 30.3598 35.8934 30.0546C35.8901 30.0528 35.9111 29.9898 35.9128 29.9855C35.9321 29.9258 35.9581 29.8687 35.9884 29.8141C35.9884 29.8133 35.9892 29.8124 35.9901 29.8115C36.1069 29.6001 36.2976 29.4517 36.496 29.3264C36.5951 29.2633 36.6993 29.2053 36.806 29.1542C36.8077 29.1542 36.8086 29.1525 36.8094 29.1525C36.9145 29.1021 37.0254 29.0638 37.1296 29.0109C37.3582 28.895 37.5582 28.7005 37.7145 28.4976C37.7178 28.4934 37.7363 28.4737 37.7363 28.4695C37.7405 28.4848 37.822 28.8105 37.5909 29.068V29.0672Z" fill="#71C9ED"/>
<path d="M36.7253 30.2976C36.5589 30.2933 36.2765 30.2498 35.8883 30.0657C35.8765 30.0606 35.8757 30.0563 35.9009 29.9813C35.9202 29.9224 35.9463 29.8636 35.9782 29.8056C36.1043 29.578 36.3169 29.4236 36.4883 29.3153C36.5875 29.2523 36.6917 29.1943 36.7992 29.1423C36.8497 29.1175 36.9018 29.0962 36.953 29.0749C37.0093 29.051 37.0681 29.0272 37.1236 28.999C37.3791 28.8694 37.5808 28.6503 37.7043 28.4891C37.7043 28.4883 37.7068 28.4857 37.7093 28.4832C37.7127 28.4798 37.7211 28.4695 37.7236 28.4661C37.7245 28.4618 37.7278 28.4576 37.7329 28.4559C37.7396 28.4542 37.7463 28.4576 37.748 28.4644C37.7505 28.4746 37.8354 28.808 37.6043 29.0706C37.6093 29.1184 37.6303 29.4305 37.3816 29.6598C37.3816 29.7135 37.3673 30.0878 36.8976 30.2857C36.8908 30.2874 36.832 30.3002 36.7244 30.2976H36.7253ZM35.9076 30.0461C36.532 30.3411 36.8866 30.2626 36.89 30.2618C37.3749 30.0572 37.3564 29.659 37.3564 29.6556C37.3564 29.6513 37.3581 29.6479 37.3606 29.6453C37.6228 29.4074 37.5791 29.0723 37.5782 29.0689C37.5782 29.0655 37.5782 29.0613 37.5816 29.0587C37.7724 28.8455 37.7446 28.5829 37.7295 28.4994C37.7295 28.4994 37.7287 28.5002 37.7278 28.5011C37.7261 28.5028 37.7245 28.5045 37.7245 28.5053C37.5992 28.669 37.395 28.8907 37.1354 29.0229C37.0791 29.051 37.0202 29.0758 36.9631 29.0996C36.9127 29.1209 36.8606 29.1423 36.811 29.1661C36.7043 29.2181 36.6009 29.2753 36.5026 29.3375C36.3337 29.4441 36.1244 29.5959 36.0009 29.8184C35.9698 29.8747 35.9438 29.9327 35.9253 29.9898C35.916 30.0171 35.9101 30.0367 35.9076 30.0469V30.0461Z" fill="#292454"/>
<path d="M36.1278 30.1662C36.1278 30.1662 36.1253 30.1662 36.1236 30.1662C36.1169 30.1637 36.1136 30.156 36.1161 30.15C36.1169 30.1466 36.2404 29.8235 36.4959 29.6214C36.7522 29.4185 36.9665 29.3145 37.2942 29.1618C37.6153 29.0126 37.7161 28.8097 37.7169 28.8071C37.7203 28.8012 37.7279 28.7977 37.7337 28.8012C37.7396 28.8046 37.743 28.8122 37.7396 28.8182C37.7354 28.8267 37.6346 29.0314 37.3052 29.1849C36.9791 29.3366 36.7657 29.4398 36.5119 29.641C36.2623 29.8388 36.1413 30.156 36.1396 30.1586C36.1379 30.1637 36.1329 30.1671 36.1278 30.1671V30.1662Z" fill="#292454"/>
<path d="M36.3683 30.2431C36.3683 30.2431 36.3641 30.2431 36.3616 30.2414C36.3557 30.238 36.3541 30.2294 36.3574 30.2235C36.3599 30.2192 36.6381 29.7784 37.0726 29.5422C37.1398 29.5055 37.1969 29.4748 37.2465 29.4484C37.5154 29.3035 37.5381 29.2915 37.5751 29.231C37.5785 29.225 37.5869 29.2233 37.5927 29.2267C37.5986 29.2301 37.6003 29.2387 37.5969 29.2446C37.5558 29.3111 37.5339 29.3231 37.2591 29.4706C37.2095 29.497 37.1524 29.5277 37.0852 29.5644C36.6566 29.7971 36.3818 30.232 36.3793 30.2371C36.3768 30.2414 36.3726 30.2431 36.3683 30.2431Z" fill="#292454"/>
<path d="M36.6631 30.2942C36.6631 30.2942 36.6581 30.2933 36.6555 30.2916C36.6497 30.2874 36.6488 30.2797 36.653 30.2737C36.6547 30.2712 36.8278 30.0418 36.9808 29.9088C37.0505 29.8482 37.1303 29.7996 37.2009 29.7562C37.2665 29.7161 37.3228 29.682 37.3597 29.6453C37.3648 29.6402 37.3732 29.6402 37.3774 29.6453C37.3824 29.6504 37.3824 29.6581 37.3774 29.6632C37.3387 29.7016 37.2808 29.7365 37.2135 29.7775C37.1438 29.8201 37.0648 29.8679 36.9967 29.9275C36.8463 30.0589 36.6749 30.2865 36.6732 30.2891C36.6707 30.2925 36.6665 30.2942 36.6631 30.2942Z" fill="#292454"/>
<path d="M38.2765 27.8351C38.2765 27.957 38.1824 28.0534 38.0588 28.0534C37.9353 28.0534 37.8403 27.9579 37.8403 27.8351C37.8403 27.7123 37.937 27.6202 38.0588 27.6202C38.1807 27.6202 38.2765 27.7157 38.2765 27.8351ZM37.895 27.8351C37.895 27.9306 37.9647 28.0073 38.0605 28.0073C38.1563 28.0073 38.2219 27.9315 38.2219 27.8368C38.2219 27.7422 38.1529 27.6637 38.0588 27.6637C37.9647 27.6637 37.895 27.7413 37.895 27.836V27.8351ZM38.0252 27.9477H37.9765V27.7328C37.9958 27.7285 38.0227 27.726 38.058 27.726C38.0983 27.726 38.116 27.7328 38.1319 27.7413C38.1437 27.7507 38.1529 27.7677 38.1529 27.7882C38.1529 27.8121 38.1345 27.83 38.1092 27.8385V27.8411C38.1303 27.8487 38.142 27.8649 38.1479 27.8939C38.1546 27.9263 38.158 27.94 38.163 27.9477H38.1101C38.1034 27.94 38.1 27.9204 38.0933 27.8948C38.0891 27.8709 38.0765 27.8607 38.0496 27.8607H38.026V27.9477H38.0252ZM38.0269 27.8257H38.0504C38.0773 27.8257 38.1 27.8163 38.1 27.7942C38.1 27.7746 38.0857 27.7609 38.0546 27.7609C38.042 27.7609 38.0328 27.7626 38.0277 27.7635V27.8249L38.0269 27.8257Z" fill="#242657"/>
</g>
<defs>
<clipPath id="clip0_795_64209">
<rect width="14.9582" height="6.64809" fill="white" transform="translate(23.3184 27.6202)"/>
</clipPath>
</defs>
</svg>
