<svg width="30" height="30" viewBox="0 0 30 30" fill="none" xmlns="http://www.w3.org/2000/svg">
<rect width="30" height="30" rx="15" fill="white"/>
<path d="M13.5715 10.4285H16.4286C16.4286 10.0497 16.2781 9.68629 16.0102 9.41838C15.7423 9.15047 15.379 8.99997 15.0001 8.99997C14.6212 8.99997 14.2578 9.15047 13.9899 9.41838C13.722 9.68629 13.5715 10.0497 13.5715 10.4285ZM12.7144 10.4285C12.7144 9.82233 12.9552 9.24095 13.3838 8.81229C13.8125 8.38364 14.3939 8.14282 15.0001 8.14282C15.6063 8.14282 16.1877 8.38364 16.6163 8.81229C17.045 9.24095 17.2858 9.82233 17.2858 10.4285H20.8572C20.9709 10.4285 21.0799 10.4737 21.1603 10.5541C21.2406 10.6344 21.2858 10.7434 21.2858 10.8571C21.2858 10.9708 21.2406 11.0798 21.1603 11.1602C21.0799 11.2405 20.9709 11.2857 20.8572 11.2857H20.1086L19.4132 19.6303C19.3626 20.2373 19.0857 20.8032 18.6375 21.2156C18.1892 21.6281 17.6024 21.8571 16.9932 21.8571H13.0069C12.3978 21.8571 11.8109 21.6281 11.3626 21.2156C10.9144 20.8032 10.6375 20.2373 10.5869 19.6303L9.8915 11.2857H9.14293C9.02926 11.2857 8.92025 11.2405 8.83988 11.1602C8.75951 11.0798 8.71436 10.9708 8.71436 10.8571C8.71436 10.7434 8.75951 10.6344 8.83988 10.5541C8.92025 10.4737 9.02926 10.4285 9.14293 10.4285H12.7144ZM11.4412 19.5588C11.4739 19.9516 11.653 20.3178 11.943 20.5847C12.233 20.8517 12.6128 20.9999 13.0069 21H16.9932C17.3874 20.9999 17.7671 20.8517 18.0571 20.5847C18.3471 20.3178 18.5262 19.9516 18.5589 19.5588L19.2492 11.2857H10.7515L11.4412 19.5588ZM13.7144 13.2857C13.828 13.2857 13.937 13.3308 14.0174 13.4112C14.0978 13.4916 14.1429 13.6006 14.1429 13.7143V18.5714C14.1429 18.6851 14.0978 18.7941 14.0174 18.8744C13.937 18.9548 13.828 19 13.7144 19C13.6007 19 13.4917 18.9548 13.4113 18.8744C13.3309 18.7941 13.2858 18.6851 13.2858 18.5714V13.7143C13.2858 13.6006 13.3309 13.4916 13.4113 13.4112C13.4917 13.3308 13.6007 13.2857 13.7144 13.2857ZM16.7144 13.7143C16.7144 13.6006 16.6692 13.4916 16.5888 13.4112C16.5085 13.3308 16.3994 13.2857 16.2858 13.2857C16.1721 13.2857 16.0631 13.3308 15.9827 13.4112C15.9024 13.4916 15.8572 13.6006 15.8572 13.7143V18.5714C15.8572 18.6851 15.9024 18.7941 15.9827 18.8744C16.0631 18.9548 16.1721 19 16.2858 19C16.3994 19 16.5085 18.9548 16.5888 18.8744C16.6692 18.7941 16.7144 18.6851 16.7144 18.5714V13.7143Z" fill="#4F4D8B"/>
</svg>
