<svg width="312" height="50" viewBox="0 0 312 50" fill="none" xmlns="http://www.w3.org/2000/svg">
<rect x="0.5" y="0.5" width="311" height="49" rx="7.5" stroke="#292454"/>
<path d="M73.04 30V18.784H80.624V20.32H74.96V23.552H80.16V25.104H74.96V28.448H80.624V30H73.04ZM81.9711 21.824H83.6831C83.7951 22.16 83.8591 22.496 83.9071 22.832C84.5151 22.16 85.3631 21.696 86.3391 21.696C88.0351 21.696 89.1711 22.912 89.1711 24.752V30H87.2831V24.96C87.2831 23.872 86.7391 23.216 85.8431 23.216C84.7231 23.216 83.9551 24 83.9551 25.296V30H82.0831V24.24C82.0831 23.024 82.0671 22.464 81.9711 21.824ZM91.3664 27.552V23.216H90.1664V22.016L91.3664 21.824L91.8944 19.68H93.2384V21.824H94.9504V23.264H93.2384V27.504C93.2384 28.16 93.4784 28.672 94.2784 28.672C94.5184 28.672 94.7904 28.64 95.2544 28.544V30.032C94.9024 30.112 94.4224 30.16 94.0384 30.16C92.1824 30.16 91.3664 28.928 91.3664 27.552ZM96.2479 25.904C96.2479 23.424 97.8959 21.68 100.248 21.68C102.6 21.68 104.248 23.424 104.248 25.904V26.384H98.1519C98.2959 27.76 99.0959 28.592 100.248 28.592C101.192 28.592 101.944 28.08 102.248 27.216L104.008 27.616C103.56 29.104 102.152 30.128 100.248 30.128C97.8959 30.128 96.2479 28.384 96.2479 25.904ZM100.248 23.216C99.1919 23.216 98.4559 23.904 98.2159 25.04H102.296C102.072 23.904 101.304 23.216 100.248 23.216ZM105.502 21.824H107.214C107.326 22.16 107.39 22.496 107.438 22.832C107.998 22.16 108.734 21.696 109.646 21.696L109.838 23.28C108.398 23.12 107.486 24.064 107.486 25.584V30H105.614V24.24C105.614 23.024 105.598 22.464 105.502 21.824ZM115.177 30V18.784H117.049V30H115.177ZM126.498 25.904C126.498 28.384 124.834 30.128 122.498 30.128C120.162 30.128 118.498 28.384 118.498 25.904C118.498 23.408 120.162 21.68 122.498 21.68C124.834 21.68 126.498 23.408 126.498 25.904ZM120.386 25.904C120.386 27.568 121.202 28.624 122.498 28.624C123.794 28.624 124.626 27.568 124.626 25.904C124.626 24.256 123.794 23.216 122.498 23.216C121.202 23.216 120.386 24.256 120.386 25.904ZM127.654 25.904C127.654 23.408 129.318 21.68 131.654 21.68C133.654 21.68 135.078 22.96 135.414 24.32L133.59 24.736C133.334 23.792 132.598 23.216 131.654 23.216C130.358 23.216 129.542 24.256 129.542 25.904C129.542 27.552 130.358 28.592 131.654 28.592C132.582 28.592 133.318 28.032 133.606 27.12L135.414 27.552C135.078 28.848 133.654 30.128 131.654 30.128C129.318 30.128 127.654 28.384 127.654 25.904ZM143.476 30H141.796C141.748 29.808 141.62 29.2 141.588 29.008C141.012 29.696 140.148 30.144 139.22 30.144C137.508 30.144 136.404 29.152 136.404 27.616C136.404 26.208 137.716 25.28 139.86 25.024L141.492 24.832V24.528C141.492 23.744 140.916 23.216 140.148 23.216C139.396 23.216 138.788 23.616 138.612 24.256L136.804 23.952C137.14 22.592 138.42 21.68 140.18 21.68C142.052 21.68 143.364 22.896 143.364 24.752V27.6C143.364 28.816 143.396 29.36 143.476 30ZM139.604 28.64C140.772 28.64 141.492 27.856 141.492 26.672V26.08L139.94 26.256C138.916 26.384 138.292 26.832 138.292 27.536C138.292 28.192 138.804 28.64 139.604 28.64ZM145.726 27.552V23.216H144.526V22.016L145.726 21.824L146.254 19.68H147.598V21.824H149.31V23.264H147.598V27.504C147.598 28.16 147.838 28.672 148.638 28.672C148.878 28.672 149.15 28.64 149.614 28.544V30.032C149.262 30.112 148.782 30.16 148.398 30.16C146.542 30.16 145.726 28.928 145.726 27.552ZM150.911 30V21.824H152.783V30H150.911ZM150.799 20.624V18.656H152.895V20.624H150.799ZM162.232 25.904C162.232 28.384 160.568 30.128 158.232 30.128C155.896 30.128 154.232 28.384 154.232 25.904C154.232 23.408 155.896 21.68 158.232 21.68C160.568 21.68 162.232 23.408 162.232 25.904ZM156.12 25.904C156.12 27.568 156.936 28.624 158.232 28.624C159.528 28.624 160.36 27.568 160.36 25.904C160.36 24.256 159.528 23.216 158.232 23.216C156.936 23.216 156.12 24.256 156.12 25.904ZM163.581 21.824H165.293C165.405 22.16 165.469 22.496 165.517 22.832C166.125 22.16 166.973 21.696 167.949 21.696C169.645 21.696 170.781 22.912 170.781 24.752V30H168.893V24.96C168.893 23.872 168.349 23.216 167.453 23.216C166.333 23.216 165.565 24 165.565 25.296V30H163.693V24.24C163.693 23.024 163.677 22.464 163.581 21.824ZM183.479 25.296V30H181.591V24.96C181.591 23.808 181.015 23.2 180.199 23.2C179.239 23.2 178.455 23.952 178.455 25.296V30H176.583V24.24C176.583 23.024 176.567 22.464 176.471 21.824H178.183C178.295 22.16 178.359 22.496 178.407 22.832C179.031 22.112 179.879 21.696 180.775 21.696C181.815 21.696 182.679 22.208 183.127 23.12C183.799 22.128 184.663 21.696 185.783 21.696C187.367 21.696 188.503 22.864 188.503 24.752V30H186.615V24.96C186.615 23.808 186.039 23.2 185.223 23.2C184.263 23.2 183.479 23.952 183.479 25.296ZM196.867 30H195.187C195.139 29.808 195.011 29.2 194.979 29.008C194.403 29.696 193.539 30.144 192.611 30.144C190.899 30.144 189.795 29.152 189.795 27.616C189.795 26.208 191.107 25.28 193.251 25.024L194.883 24.832V24.528C194.883 23.744 194.307 23.216 193.539 23.216C192.787 23.216 192.179 23.616 192.003 24.256L190.195 23.952C190.531 22.592 191.811 21.68 193.571 21.68C195.443 21.68 196.755 22.896 196.755 24.752V27.6C196.755 28.816 196.787 29.36 196.867 30ZM192.995 28.64C194.163 28.64 194.883 27.856 194.883 26.672V26.08L193.331 26.256C192.307 26.384 191.683 26.832 191.683 27.536C191.683 28.192 192.195 28.64 192.995 28.64ZM198.409 21.824H200.121C200.233 22.16 200.297 22.496 200.345 22.832C200.953 22.16 201.801 21.696 202.777 21.696C204.473 21.696 205.609 22.912 205.609 24.752V30H203.721V24.96C203.721 23.872 203.177 23.216 202.281 23.216C201.161 23.216 200.393 24 200.393 25.296V30H198.521V24.24C198.521 23.024 198.505 22.464 198.409 21.824ZM214.248 30H212.536C212.424 29.664 212.36 29.328 212.312 28.992C211.704 29.664 210.856 30.128 209.88 30.128C208.184 30.128 207.048 28.928 207.048 27.072V21.824H208.936V26.88C208.936 27.968 209.48 28.624 210.376 28.624C211.496 28.624 212.264 27.824 212.264 26.528V21.824H214.136V27.584C214.136 28.816 214.152 29.36 214.248 30ZM222.664 30H220.984C220.936 29.808 220.808 29.2 220.776 29.008C220.2 29.696 219.336 30.144 218.408 30.144C216.696 30.144 215.592 29.152 215.592 27.616C215.592 26.208 216.904 25.28 219.048 25.024L220.68 24.832V24.528C220.68 23.744 220.104 23.216 219.336 23.216C218.584 23.216 217.976 23.616 217.8 24.256L215.992 23.952C216.328 22.592 217.608 21.68 219.368 21.68C221.24 21.68 222.552 22.896 222.552 24.752V27.6C222.552 28.816 222.584 29.36 222.664 30ZM218.792 28.64C219.96 28.64 220.68 27.856 220.68 26.672V26.08L219.128 26.256C218.104 26.384 217.48 26.832 217.48 27.536C217.48 28.192 217.992 28.64 218.792 28.64ZM224.318 30V18.784H226.19V30H224.318ZM227.943 30V18.784H229.815V30H227.943ZM234.24 30L230.992 21.824H232.912L235.12 27.648L237.28 21.824H239.184L235.728 30.752C235.216 32.048 234.592 33.456 232.592 33.456C232.16 33.456 231.616 33.392 231.184 33.248V31.712C231.888 31.92 232.208 31.968 232.512 31.968C233.44 31.968 233.808 31.168 234.096 30.4L234.24 30Z" fill="#292454"/>
</svg>
