<svg width="30" height="30" viewBox="0 0 30 30" fill="none" xmlns="http://www.w3.org/2000/svg">
<circle cx="15" cy="15.0002" r="15" fill="white"/>
<path d="M14.9999 20.2802C15.6003 20.2802 16.0871 19.7935 16.0871 19.193C16.0871 18.5925 15.6003 18.1057 14.9999 18.1057C14.3994 18.1057 13.9126 18.5925 13.9126 19.193C13.9126 19.7935 14.3994 20.2802 14.9999 20.2802Z" fill="#4F4D8B"/>
<path d="M15.0001 16.7082H14.9932C14.8981 16.7073 14.8042 16.6878 14.7167 16.6506C14.6292 16.6134 14.5499 16.5593 14.4833 16.4915C14.4167 16.4236 14.3642 16.3433 14.3287 16.2551C14.2932 16.1669 14.2755 16.0726 14.2765 15.9775C14.2851 15.0292 15.065 14.0519 15.7528 13.1899C15.8946 13.0122 16.0307 12.8425 16.1482 12.685C16.2418 12.5491 16.2951 12.3895 16.302 12.2246C16.3089 12.0597 16.269 11.8962 16.187 11.7529C16.081 11.5319 15.9176 11.3434 15.714 11.2069C15.5103 11.0705 15.2738 10.9911 15.0291 10.9772C14.1913 10.9772 13.5065 11.4808 13.5065 12.0772C13.5065 12.2691 13.4302 12.4532 13.2945 12.5889C13.1588 12.7246 12.9747 12.8008 12.7828 12.8008C12.5908 12.8008 12.4068 12.7246 12.271 12.5889C12.1353 12.4532 12.0591 12.2691 12.0591 12.0772C12.0591 10.672 13.3797 9.52979 15.003 9.52979H15.0725C15.5811 9.54877 16.0749 9.70621 16.5007 9.98514C16.9264 10.2641 17.2679 10.6539 17.4885 11.1126C17.691 11.4949 17.7817 11.9265 17.75 12.3579C17.7184 12.7894 17.5657 13.2031 17.3096 13.5517C17.1839 13.7202 17.0386 13.902 16.8869 14.0925C16.4238 14.6714 15.729 15.5398 15.729 15.9908C15.7272 16.1825 15.6494 16.3657 15.5128 16.5001C15.3762 16.6346 15.1918 16.7094 15.0001 16.7082Z" fill="#4F4D8B"/>
</svg>
