<svg width="32" height="32" viewBox="0 0 32 32" fill="none" xmlns="http://www.w3.org/2000/svg">
<g clip-path="url(#clip0_795_8896)">
<path d="M31.2535 16.2994C31.2535 14.9884 31.1471 14.0317 30.9169 13.0396H15.9463V18.9569H24.7337C24.5566 20.4274 23.5999 22.642 21.4739 24.1301L21.4441 24.3282L26.1775 27.9952L26.5054 28.0279C29.5172 25.2463 31.2535 21.1537 31.2535 16.2994Z" fill="#4285F4"/>
<path d="M15.9464 31.8901C20.2515 31.8901 23.8657 30.4727 26.5056 28.0279L21.474 24.1301C20.1276 25.0691 18.3204 25.7246 15.9464 25.7246C11.7299 25.7246 8.15112 22.9432 6.8754 19.0986L6.68841 19.1145L1.76651 22.9236L1.70215 23.1025C4.32419 28.3112 9.71009 31.8901 15.9464 31.8901Z" fill="#34A853"/>
<path d="M6.87597 19.0986C6.53936 18.1065 6.34455 17.0434 6.34455 15.945C6.34455 14.8465 6.53936 13.7835 6.85826 12.7914L6.84934 12.5801L1.86577 8.70984L1.70272 8.7874C0.622045 10.9489 0.00195312 13.3761 0.00195312 15.945C0.00195312 18.5139 0.622045 20.941 1.70272 23.1025L6.87597 19.0986Z" fill="#FBBC05"/>
<path d="M15.9464 6.16537C18.9405 6.16537 20.9602 7.45869 22.1118 8.53948L26.6118 4.14571C23.8481 1.57679 20.2515 0 15.9464 0C9.71009 0 4.32419 3.57875 1.70215 8.78742L6.85769 12.7915C8.15113 8.94693 11.7299 6.16537 15.9464 6.16537Z" fill="#EB4335"/>
</g>
<defs>
<clipPath id="clip0_795_8896">
<rect width="31.2704" height="32" fill="white"/>
</clipPath>
</defs>
</svg>
