<svg width="30" height="30" viewBox="0 0 30 30" fill="none" xmlns="http://www.w3.org/2000/svg">
<circle cx="15" cy="15.0002" r="15" fill="white"/>
<path d="M21.6668 10.1668V13.5668C21.6668 14.4135 21.3868 15.1268 20.8868 15.6202C20.3935 16.1202 19.6802 16.4001 18.8335 16.4001V17.6068C18.8335 18.0601 18.3268 18.3335 17.9535 18.0802L17.3068 17.6535C17.3668 17.4468 17.3935 17.2201 17.3935 16.9801V14.2668C17.3935 12.9068 16.4868 12.0002 15.1268 12.0002H10.6002C10.5068 12.0002 10.4202 12.0068 10.3335 12.0135V10.1668C10.3335 8.46683 11.4668 7.3335 13.1668 7.3335H18.8335C20.5335 7.3335 21.6668 8.46683 21.6668 10.1668Z" stroke="#4F4D8B" stroke-miterlimit="10" stroke-linecap="round" stroke-linejoin="round"/>
<path d="M17.3935 14.2669V16.9802C17.3935 17.2202 17.3668 17.4469 17.3068 17.6536C17.0602 18.6336 16.2468 19.2469 15.1268 19.2469H13.3135L11.3002 20.5869C11.0002 20.7936 10.6002 20.5736 10.6002 20.2136V19.2469C9.92016 19.2469 9.3535 19.0202 8.96016 18.6269C8.56016 18.2269 8.3335 17.6602 8.3335 16.9802V14.2669C8.3335 13.0003 9.12016 12.1269 10.3335 12.0136C10.4202 12.0069 10.5068 12.0002 10.6002 12.0002H15.1268C16.4868 12.0002 17.3935 12.9069 17.3935 14.2669Z" stroke="#4F4D8B" stroke-miterlimit="10" stroke-linecap="round" stroke-linejoin="round"/>
</svg>
