<svg width="24" height="24" viewBox="0 0 24 24" fill="none" xmlns="http://www.w3.org/2000/svg">
<g clip-path="url(#clip0_6387_62240)">
<path d="M21.8756 19.6157C21.9567 19.3274 21.8486 19.075 21.7495 18.8137C21.6954 18.6875 21.6053 18.5884 21.5062 18.4983C21.2358 18.255 20.9294 18.0657 20.623 17.8675C19.9741 17.4439 19.2983 17.0744 18.6043 16.732C18.334 16.5968 18.0006 16.5697 17.7933 16.3174C17.7933 16.3084 17.7662 16.2994 17.7482 16.2994C17.559 16.3084 17.4058 16.1822 17.2345 16.1282C17.0363 16.0651 16.829 15.993 16.6488 15.8848C16.5046 15.8037 16.3514 15.7497 16.1982 15.6686C16.045 15.5965 15.8738 15.5694 15.7566 15.4252C15.6485 15.2901 15.4502 15.4072 15.324 15.3081C15.297 15.2901 15.261 15.2901 15.261 15.245C15.279 15.236 15.288 15.209 15.306 15.209C15.6575 15.1279 15.9639 14.9296 16.2432 14.7223C16.5767 14.47 16.8831 14.1816 17.0543 13.7851C17.1354 13.5868 17.2165 13.3886 17.2976 13.1903C17.3247 13.1182 17.3607 13.0551 17.4328 13.0011C17.7662 12.7668 17.9735 12.4333 18.1267 12.0638C18.2709 11.7214 18.352 11.3519 18.3881 10.9824C18.4061 10.7932 18.5683 10.6219 18.4421 10.4147C18.4151 10.3606 18.5142 10.2975 18.4602 10.2344C18.352 10.1173 18.4331 10.0362 18.5052 9.94605C18.7125 9.65768 18.8657 9.33325 18.9468 8.98179C19.0639 8.4591 18.9738 7.94543 18.7666 7.47681C18.6494 7.22448 18.6224 7.0082 18.7215 6.75587C18.8116 6.50354 18.8116 6.23318 18.8296 5.96283C18.8567 5.53927 18.8657 5.11572 18.9648 4.70117C18.9828 4.63809 18.9919 4.57501 18.9288 4.52995C18.8747 4.48489 18.8116 4.47588 18.7485 4.51192C18.6945 4.54797 18.6945 4.61105 18.7035 4.66512C18.7395 4.77327 18.6764 4.86338 18.6404 4.96251C18.4872 5.36805 18.2078 5.69247 17.9645 6.03492C17.6941 6.41342 17.3517 6.71081 16.9822 6.99017C16.9101 7.04425 16.847 7.10733 16.7389 7.10733C16.793 6.80994 16.838 6.53958 16.784 6.2512C16.7569 6.10702 16.7119 5.9448 16.7659 5.7916C16.9732 5.16979 16.82 4.61105 16.4866 4.07936C16.4415 4.00726 16.4145 3.95319 16.4235 3.87208C16.4505 3.33137 16.3604 2.79968 16.2883 2.26798C16.2613 2.08774 16.1982 1.91652 16.1171 1.7543C16.0991 1.70924 16.054 1.65517 15.9909 1.6732C15.9278 1.69122 15.9459 1.74529 15.9459 1.79035C15.9459 2.03367 15.8918 2.25897 15.8107 2.48426C15.7386 2.70956 15.6395 2.92584 15.5403 3.14212C15.3691 3.49359 15.1889 3.85406 14.9365 4.16046C14.8104 4.30465 14.7112 4.46686 14.5941 4.62006C14.2246 5.11572 13.8191 5.57532 13.3324 5.97184C13.0981 6.16109 12.8368 6.31429 12.6025 6.50354C12.233 6.80093 11.8725 7.10733 11.5391 7.44978C11.3318 7.65705 11.1155 7.85531 10.9443 8.08962C10.6289 8.5312 10.3225 8.9908 10.1152 9.49546C9.91694 9.99111 9.74572 10.4958 9.75473 11.0365C9.75473 11.3068 9.71868 11.5682 9.75473 11.8385C9.77275 12.0278 9.70967 12.208 9.66461 12.4153C9.51141 12.2891 9.37623 12.172 9.23204 12.0638C8.94367 11.8476 8.69133 11.5772 8.41197 11.3429C8.14161 11.1176 7.85323 10.9283 7.57387 10.7301C7.02415 10.3606 6.4564 10.0452 5.79854 9.91902C5.58225 9.88297 5.36597 9.81088 5.14067 9.85594C4.77119 9.93704 4.43775 10.0993 4.14937 10.3426C3.68977 10.7301 3.30226 11.1897 2.90574 11.6403C2.67143 11.9016 2.47317 12.19 2.13072 12.3162C2.04962 12.3432 2.04962 12.4333 2.05863 12.4964C2.06764 12.5775 2.13974 12.5865 2.20282 12.5685C2.59934 12.5054 2.97784 12.6316 3.33831 12.7217C4.07728 12.92 4.70811 13.3255 5.23079 13.8932C5.33893 14.0194 5.47411 14.1275 5.57324 14.2537C5.8436 14.6142 6.11395 14.9747 6.32122 15.3802C6.42937 15.5875 6.57356 15.7767 6.55553 16.029C6.55553 16.0741 6.58257 16.1192 6.62763 16.1462C6.67269 16.1732 6.69071 16.2093 6.70873 16.2543C6.94304 16.8311 7.17735 17.4078 7.34857 18.0116C7.3666 18.0657 7.38462 18.1198 7.41165 18.1648C7.673 18.6244 7.89829 19.1021 8.22272 19.5256C8.30383 19.6248 8.22272 19.7329 8.2858 19.805C8.3579 19.8771 8.48406 19.8591 8.55616 19.9672C8.65529 20.1204 8.78145 20.2556 8.89861 20.3908C8.99774 20.5079 9.06082 20.6882 9.26809 20.6701C9.28611 20.6701 9.30414 20.6972 9.32216 20.7062C9.64659 20.9855 10.0251 21.1928 10.3856 21.4181C10.737 21.6344 11.0975 21.8236 11.494 21.9588C12.2961 22.2292 13.1252 22.3463 13.9723 22.3373C14.0714 22.3373 14.1795 22.3373 14.2787 22.3013C14.4859 22.2202 14.7022 22.1841 14.9185 22.1391C15.5674 22.0219 16.1261 21.6885 16.7389 21.4812C17.0723 21.3731 17.3877 21.2469 17.7212 21.1297C17.8564 21.0847 18.0006 21.0937 18.1357 21.0486C18.6134 20.9044 19.1 20.7873 19.6047 20.7963C19.884 20.7963 20.1544 20.7873 20.4337 20.7602C20.659 20.7332 20.8843 20.7602 21.1186 20.7152C21.2989 20.6791 21.425 20.58 21.5512 20.4538C21.6594 20.3367 21.7134 20.1835 21.8035 20.0573C21.8756 19.9582 21.9658 19.8591 21.8576 19.7239C21.8396 19.6968 21.8486 19.6428 21.8576 19.6067L21.8756 19.6157ZM20.4698 17.9936C20.2896 18.1468 20.1003 18.2279 19.875 18.291C19.848 18.0297 19.839 17.7863 19.7488 17.525C20.0012 17.6962 20.2265 17.8404 20.4608 17.9936H20.4698ZM18.7125 19.1832C18.6945 18.9579 18.7575 18.7416 18.6945 18.5073C18.8026 18.4622 18.8747 18.5073 18.9558 18.5073C19.127 18.4803 19.1721 18.4262 19.091 18.273C19.0459 18.1739 19.0009 18.0747 18.9738 17.9666C18.9558 17.8945 18.9648 17.8404 19.0369 17.8224C19.2081 17.7683 19.3523 17.6422 19.5416 17.6241C19.875 18.1919 19.3703 19.1922 18.7125 19.1922V19.1832ZM19.5326 17.4078C19.3523 17.4709 19.1901 17.516 19.0459 17.6061C18.9648 17.6602 18.9198 17.6061 18.9107 17.516C18.9107 17.3718 18.9107 17.2186 18.8387 17.0564C19.118 17.1195 19.3073 17.2637 19.5326 17.4078ZM18.7936 18.0567C18.8657 18.0837 18.8477 18.1468 18.8657 18.1919C18.8837 18.2369 18.8657 18.273 18.8116 18.273C18.7666 18.273 18.7035 18.255 18.7215 18.1919C18.7305 18.1468 18.7395 18.0837 18.7936 18.0567ZM18.6314 16.9753C18.7846 17.3358 18.7395 17.8945 18.3881 18.1648C18.2889 18.2369 18.1808 18.282 18.0726 18.318C17.9825 18.3541 17.9194 18.318 17.9194 18.2099C17.9194 18.0387 17.9014 17.8675 17.8203 17.7052C17.9104 17.6422 17.9645 17.7052 18.0276 17.7052C18.1628 17.7052 18.2168 17.6241 18.1538 17.507C18.1267 17.4619 18.0907 17.4349 18.0726 17.3898C18.0366 17.3267 18.0366 17.2546 18.1177 17.2366C18.2979 17.2006 18.3881 17.0564 18.5052 16.9482C18.5683 16.8852 18.6043 16.8852 18.6404 16.9753H18.6314ZM18.5593 19.7329C18.5413 19.787 18.4782 19.814 18.4241 19.778C18.37 19.7509 18.4151 19.7149 18.4241 19.6788C18.4511 19.6428 18.4782 19.6067 18.5142 19.5437C18.5593 19.6248 18.5683 19.6788 18.5503 19.7329H18.5593ZM17.8924 16.9212C17.9375 16.5968 17.9104 16.6328 18.1988 16.732C18.2709 16.759 18.343 16.795 18.4331 16.8221C18.307 16.9302 18.2078 17.0564 18.0366 17.0564C17.9014 17.0564 17.8834 17.0384 17.9014 16.9122L17.8924 16.9212ZM17.8383 17.3718C17.8383 17.3718 17.8654 17.4259 17.8834 17.4529C17.8293 17.489 17.7933 17.4799 17.7572 17.4439C17.7212 17.3988 17.7122 17.3538 17.7572 17.3267C17.8023 17.2907 17.8203 17.3538 17.8383 17.3808V17.3718ZM17.1985 19.1742C17.0994 19.2282 16.9822 19.2733 16.8651 19.2913C16.6217 19.3184 16.5136 19.2282 16.5857 19.0029C16.6488 18.8047 16.6308 18.5974 16.6758 18.3721C16.7299 18.3901 16.7569 18.4082 16.784 18.4172C16.847 18.4352 16.9101 18.4352 16.9552 18.3811C17.0093 18.318 16.9642 18.264 16.9372 18.2099C16.9191 18.1739 16.8921 18.1468 16.8741 18.1108C16.847 18.0657 16.847 18.0116 16.9101 18.0026C17.1264 17.9486 17.3157 17.8404 17.4959 17.7052C17.559 17.6512 17.595 17.7052 17.6221 17.7503C17.7212 17.9035 17.7662 18.0747 17.7482 18.2459C17.7032 18.6335 17.559 18.9759 17.1985 19.1832V19.1742ZM17.6761 19.1201C17.6761 19.1201 17.604 19.1201 17.595 19.0931C17.577 19.03 17.6221 19.0029 17.6941 18.9669C17.7122 19.03 17.7302 19.084 17.6761 19.1201ZM17.6401 16.4616C17.7302 16.5157 17.7482 16.6058 17.7482 16.6869C17.7392 17.0834 17.604 17.4259 17.2616 17.6602C17.2255 17.6872 17.1805 17.7052 17.1354 17.7233C17.0543 17.7593 16.9552 17.7954 16.8831 17.7503C16.811 17.6962 16.8741 17.6061 16.8831 17.534C16.9101 17.3718 16.9101 17.2186 16.8741 17.0654C16.847 16.9302 16.856 16.9212 16.9912 16.9212C17.2075 16.9212 17.2345 16.8671 17.1444 16.6869C17.0723 16.5337 17.0093 16.3895 16.9642 16.1912C17.2345 16.2453 17.4418 16.3625 17.6401 16.4706V16.4616ZM16.9281 16.6869C16.829 16.7229 16.7659 16.6869 16.7028 16.6418C16.7119 16.5607 16.7569 16.4886 16.829 16.4977C16.9281 16.4977 16.9191 16.6058 16.9281 16.6869ZM15.8647 16.2814C16.054 16.2543 16.072 16.2183 15.9819 16.0651C15.9188 15.9569 15.8828 15.8398 15.8557 15.6956C15.9909 15.6956 16.09 15.7587 16.1982 15.7947C16.3514 15.8578 16.4956 15.9479 16.6398 16.02C16.793 16.1011 16.82 16.1642 16.7299 16.3084C16.6398 16.4526 16.5406 16.5788 16.4415 16.7139C16.3694 16.8041 16.2793 16.8581 16.1621 16.8852C15.9549 16.9392 15.8557 16.8671 15.8197 16.6599C15.8017 16.5427 15.7836 16.4256 15.7746 16.3264C15.8107 16.2904 15.8377 16.2994 15.8647 16.2904V16.2814ZM15.7386 17.7233C15.7386 17.7233 15.7836 17.7413 15.8107 17.7413C15.9639 17.7683 16.0179 17.7142 15.9729 17.561C15.9278 17.4078 15.8828 17.2637 15.8287 17.0924C15.9819 17.0564 16.1081 17.0924 16.2252 17.0384C16.3334 16.9933 16.4325 16.9302 16.5316 16.8761C16.847 17.2727 16.7299 17.6331 16.5496 17.9576C16.5226 18.0116 16.4776 18.0387 16.4235 18.0657C16.3784 18.0837 16.3514 18.1108 16.3244 18.1648C16.2252 18.3811 15.9368 18.5614 15.7115 18.5523C15.5674 18.5523 15.5493 18.5163 15.5583 18.3721C15.5674 18.2009 15.6124 18.0297 15.5764 17.8584C15.5493 17.7323 15.6034 17.7052 15.7206 17.7323L15.7386 17.7233ZM16.1351 19.6157C15.9188 19.832 15.6575 19.9131 15.3691 19.9312C15.1889 19.9402 15.1438 19.8771 15.1979 19.7059C15.2519 19.5437 15.2159 19.3724 15.306 19.2012C15.3691 19.2192 15.4232 19.2282 15.4772 19.2553C15.5403 19.2823 15.6034 19.2733 15.6485 19.2192C15.6845 19.1742 15.6755 19.1111 15.6485 19.066C15.6034 18.9939 15.5674 18.9308 15.5674 18.8497C15.5674 18.7957 15.5854 18.7416 15.6395 18.7506C15.9008 18.7867 16.081 18.6064 16.2973 18.5163C16.4415 18.4532 16.4866 18.4622 16.4776 18.6154C16.4595 18.9759 16.4325 19.3454 16.1441 19.6248L16.1351 19.6157ZM16.4145 19.787C16.4145 19.787 16.3964 19.823 16.3874 19.823C16.3334 19.823 16.2523 19.823 16.2432 19.778C16.2162 19.6969 16.2973 19.6608 16.3514 19.6248C16.3964 19.6788 16.4055 19.7419 16.4145 19.796V19.787ZM14.2967 20.3187C14.0173 20.3367 13.9272 20.2646 13.8912 19.9852C13.8821 19.9131 13.8912 19.841 13.9092 19.7599C13.9993 19.7509 14.0894 19.8951 14.1795 19.787C14.2697 19.6788 14.1345 19.5887 14.1435 19.4716C14.4409 19.4265 14.7833 19.5617 15.0447 19.2463C15.1258 19.832 14.7833 20.2916 14.2967 20.3187ZM14.9636 20.3006C14.9636 20.3006 14.9455 20.3367 14.9185 20.3277C14.8915 20.3187 14.8554 20.3097 14.8464 20.2736C14.8464 20.2376 14.8644 20.2195 14.9095 20.2195C14.9546 20.2195 14.9636 20.2646 14.9636 20.3006ZM11.449 19.5617C11.4309 19.4625 11.467 19.4355 11.5751 19.4806C11.6202 19.4986 11.6562 19.5256 11.7013 19.5437C11.7463 19.5617 11.8004 19.6067 11.8545 19.5437C11.8995 19.4986 11.9266 19.4445 11.8995 19.3724C11.8725 19.3003 11.8365 19.2282 11.8094 19.1561C11.7734 19.021 11.7824 19.012 11.9266 19.012C11.9716 19.012 12.0167 19.012 12.0527 19.012C12.1969 19.012 12.3231 19.012 12.4493 18.9669C12.5394 18.9308 12.5935 18.9669 12.6205 19.075C12.7286 19.5346 12.3411 20.0663 11.8635 20.1024C11.7824 20.1024 11.7103 20.0844 11.6292 20.0573C11.467 20.0033 11.458 19.9942 11.476 19.823C11.476 19.7239 11.476 19.6338 11.467 19.5437L11.449 19.5617ZM11.3138 19.1652C11.2687 19.1652 11.2237 19.1652 11.1876 19.2102C11.0614 19.3904 10.8902 19.3274 10.737 19.2913C10.5297 19.2372 10.4577 19.0931 10.4757 18.8858C10.4757 18.8137 10.4847 18.7416 10.4937 18.6695C10.6018 18.6425 10.6649 18.6965 10.737 18.7326C10.8001 18.7596 10.8632 18.7686 10.9173 18.7326C10.9803 18.6875 10.9353 18.6154 10.9173 18.5614C10.9173 18.5614 10.9173 18.5433 10.9082 18.5433C10.8902 18.4622 10.7821 18.3901 10.8271 18.309C10.8632 18.2279 10.9623 18.1829 11.0344 18.1198C11.0885 18.0837 11.6202 18.1198 11.6652 18.1739C11.7373 18.2459 11.7554 18.3451 11.7554 18.4352C11.7554 18.6605 11.6833 18.8678 11.5481 19.048C11.485 19.1291 11.4219 19.1922 11.3138 19.1832V19.1652ZM11.3769 20.4899C11.3769 20.4899 11.3318 20.5169 11.3138 20.5079C11.2146 20.4538 11.2327 20.3908 11.3228 20.3097C11.3408 20.3818 11.3588 20.4358 11.3769 20.4899ZM7.39363 15.4703C7.54683 15.5514 7.59189 15.5244 7.61893 15.3441C7.61893 15.3261 7.61893 15.3081 7.61893 15.2991C7.61893 15.2811 7.63695 15.272 7.64596 15.254C7.79916 15.2901 7.96138 15.3261 8.1326 15.3171C8.26778 15.3171 8.2858 15.3532 8.29481 15.4973C8.29481 15.5965 8.26778 15.6866 8.2047 15.7587C8.07853 15.8939 7.9794 16.0651 7.7541 16.0471C7.68201 16.0471 7.673 16.1462 7.58288 16.1552C7.34857 16.1732 7.1413 16.1282 6.96106 15.975C6.88897 15.9209 6.86193 15.8398 6.94304 15.7767C7.06019 15.6686 7.09624 15.5244 7.15031 15.3712C7.24944 15.3892 7.31253 15.4433 7.37561 15.4793L7.39363 15.4703ZM7.27648 15.1549C7.27648 15.1549 7.2945 15.1098 7.32154 15.1188C7.35758 15.1188 7.3666 15.1459 7.37561 15.1819C7.37561 15.209 7.37561 15.227 7.33956 15.218C7.31253 15.209 7.28549 15.1909 7.27648 15.1639V15.1549ZM8.79948 15.1819C8.79948 15.1819 8.77244 15.1279 8.75442 15.1008C8.72738 15.0467 8.70035 15.0017 8.74541 14.9476C8.79046 14.8845 8.86256 14.8935 8.91663 14.9116C9.06983 14.9566 9.22303 14.9747 9.37623 14.9116C9.42129 14.8935 9.46635 14.9026 9.49339 14.9566C9.52943 15.0377 9.57449 15.1098 9.58351 15.1999C9.59252 15.4613 9.52042 15.7046 9.42129 15.9299C9.26809 16.2724 8.62825 16.3895 8.33086 16.1642C8.26778 16.1192 8.21371 16.0561 8.29481 15.993C8.44802 15.8578 8.49307 15.6776 8.52912 15.4973C8.54715 15.4973 8.55616 15.4883 8.56517 15.4973C8.65529 15.5154 8.73639 15.6055 8.82651 15.4973C8.91663 15.3892 8.86256 15.2901 8.80849 15.1909L8.79948 15.1819ZM10.2143 14.9296C10.1512 14.8034 10.0972 14.6773 10.0251 14.5331C10.2414 14.479 10.4757 14.5871 10.6559 14.4159C10.728 14.6232 10.8091 14.8124 10.8542 15.0107C10.9082 15.236 10.728 15.5694 10.4937 15.6776C10.3135 15.7587 10.1152 15.7947 9.91694 15.7677C9.73671 15.7407 9.69165 15.6866 9.74572 15.5154C9.79078 15.3622 9.79979 15.209 9.76374 15.0377C9.88991 15.0197 9.962 15.0738 10.0341 15.1098C10.0972 15.1459 10.1603 15.1459 10.2143 15.1008C10.2774 15.0467 10.2414 14.9837 10.2143 14.9296ZM10.3405 13.4336C10.4126 13.4517 10.4667 13.4967 10.4757 13.5418C10.5297 13.749 10.5388 13.9653 10.6109 14.1636C10.6289 14.2357 10.5658 14.2537 10.5207 14.2898C10.3585 14.3889 10.2233 14.2898 10.0521 14.2717C10.1512 14.0284 10.0972 13.8121 10.0521 13.5598C10.1963 13.5868 10.3315 13.6139 10.3495 13.4246L10.3405 13.4336ZM10.4847 12.7938C10.5117 12.938 10.4937 13.0732 10.4847 13.2173C10.2143 13.0371 10.2143 12.983 10.4847 12.7938ZM11.0074 15.9389C11.0074 15.9389 10.9533 15.8758 10.9353 15.8398C10.9082 15.7857 10.8542 15.7226 10.9082 15.6686C10.9533 15.6235 11.0254 15.6235 11.0885 15.6505C11.1786 15.6776 11.2507 15.7497 11.3588 15.7407C11.503 15.7226 11.5301 15.8037 11.5391 15.9209C11.5751 16.1913 11.4129 16.3625 11.2507 16.5427C11.0614 16.741 10.8271 16.777 10.5748 16.75C10.5027 16.75 10.4486 16.7139 10.4847 16.6238C10.5658 16.4075 10.5478 16.1913 10.4577 15.9389C10.6289 15.984 10.7641 16.02 10.8902 16.0921C10.9443 16.1192 10.9984 16.1101 11.0344 16.0561C11.0705 16.002 11.0344 15.966 10.9984 15.9299L11.0074 15.9389ZM11.7103 15.7947C11.6833 15.6505 11.7013 15.6235 11.8365 15.6145C12.1429 15.6145 12.4493 15.5424 12.7827 15.5604C12.7827 15.7497 12.7467 15.9029 12.6836 16.0561C12.5484 16.3715 12.2871 16.4796 11.9716 16.5157C11.9446 16.5157 11.9086 16.5157 11.8725 16.5157C11.5841 16.5157 11.5931 16.5247 11.7013 16.2543C11.7644 16.1011 11.7373 15.9479 11.7103 15.7857V15.7947ZM13.6208 11.8656C13.4135 12.154 13.2333 12.4604 13.044 12.7577C12.9269 12.938 12.8908 13.1543 12.8368 13.3615C12.7557 13.6409 12.6746 13.9203 12.6295 14.2086C12.5754 14.506 12.5484 14.8034 12.5123 15.1008C12.5123 15.1549 12.5123 15.209 12.5123 15.263C12.5123 15.3532 12.4583 15.3892 12.3772 15.3982C12.278 15.3982 12.26 15.3351 12.26 15.254C12.251 15.0197 12.278 14.7764 12.3051 14.5421C12.3682 14.0014 12.4583 13.4607 12.6926 12.956C13.035 12.217 13.4766 11.5502 14.1165 11.0275C15.0447 10.2705 16.0179 9.58558 16.9822 8.88266C17.3247 8.63934 17.6401 8.36898 17.9285 8.06258C17.9465 8.04456 17.9735 8.02654 17.9915 8.00851C17.9285 8.17974 17.8203 8.31491 17.6941 8.42306C17.2165 8.81056 16.7569 9.2161 16.2793 9.6036C15.8017 9.9821 15.315 10.3516 14.8194 10.7211C14.3868 11.0545 13.9542 11.3879 13.6298 11.8566L13.6208 11.8656ZM14.3508 11.9196C14.0894 12.0548 13.8731 12.172 13.5667 12.2621C13.6298 12.163 13.6568 12.1089 13.6929 12.0548C13.7019 12.0368 13.738 12.0098 13.747 12.0098C13.9633 12.1179 14.1165 11.8926 14.3598 11.9196H14.3508ZM12.8638 16.4526C12.8638 16.4526 12.8458 16.4256 12.8368 16.4075C12.8097 16.3535 12.7647 16.2994 12.8278 16.2363C12.8818 16.1822 12.9269 16.2183 12.981 16.2363C13.1252 16.2994 13.2603 16.2543 13.3955 16.2093C13.5036 16.1732 13.5397 16.2093 13.5757 16.2904C13.6118 16.3535 13.6208 16.4256 13.6208 16.4977C13.6118 16.7139 13.5848 16.9212 13.4946 17.1195C13.3955 17.3448 13.2153 17.4709 12.972 17.516C12.9359 17.516 12.8908 17.516 12.8548 17.534C12.5935 17.5791 12.5754 17.561 12.5844 17.2907C12.5935 17.1645 12.5664 17.0384 12.5394 16.9212C12.5214 16.8311 12.5394 16.777 12.6475 16.8041C12.7557 16.8311 12.8908 16.9032 12.972 16.768C13.0531 16.6418 12.9089 16.5517 12.8638 16.4526ZM12.972 15.6145C12.972 15.5424 13.044 15.5334 13.0981 15.5334C13.2513 15.5334 13.4135 15.5334 13.5667 15.5334C13.5667 15.8848 13.3775 16.0831 13.0801 16.0471C13.0531 16.0471 12.999 16.0471 12.99 16.029C12.9179 15.8939 12.99 15.7587 12.981 15.6145H12.972ZM14.0534 15.9029C13.792 15.6596 13.8101 15.5875 14.1435 15.4703C14.4679 15.3622 14.6391 15.4703 14.6752 15.8128C14.7022 16.0471 14.6752 16.2814 14.5761 16.5067C14.4769 16.741 14.2787 16.8401 14.0444 16.8942C13.9723 16.9122 13.9002 16.8942 13.8371 16.8581C13.747 16.8041 13.8371 16.732 13.8191 16.6689C13.8191 16.5337 13.801 16.3985 13.783 16.2633C13.765 16.1732 13.783 16.1192 13.8912 16.1372C13.9182 16.1372 13.9542 16.1372 13.9813 16.1372C14.0444 16.1372 14.1074 16.1011 14.1255 16.038C14.1435 15.975 14.0894 15.9479 14.0444 15.9029H14.0534ZM17.0273 11.1266C16.6037 11.397 16.2072 11.6943 15.8738 12.0638C15.5403 12.4333 15.2519 12.8389 14.9906 13.2624C14.7743 13.6049 14.6572 13.9924 14.4679 14.3438C14.3508 14.5691 14.3327 14.8395 14.2697 15.0918C14.2516 15.1729 14.2426 15.245 14.1435 15.263C14.0624 15.2811 14.0263 15.263 14.0444 15.1729C14.0984 14.8935 14.1525 14.6142 14.2336 14.3438C14.3417 13.9834 14.495 13.6319 14.6572 13.2894C14.7473 13.1002 14.8284 12.9019 14.9546 12.7217C15.3691 12.1179 15.8828 11.6313 16.4956 11.2347C16.7659 11.0635 17.0543 10.9103 17.3427 10.7571C17.3697 10.7481 17.3968 10.7211 17.4598 10.7571C17.3157 10.8923 17.1895 11.0185 17.0363 11.1086L17.0273 11.1266ZM17.3968 11.2618C17.3247 11.3068 17.2616 11.2888 17.1895 11.2708C17.2526 11.1987 17.3157 11.0906 17.3968 11.2618ZM16.9191 11.5231C16.9191 11.5231 16.8561 11.5682 16.82 11.5682C16.811 11.5682 16.802 11.5502 16.793 11.5502C16.82 11.5141 16.847 11.4871 16.8921 11.4871C16.9191 11.4871 16.9372 11.4961 16.9191 11.5321V11.5231ZM14.7112 16.6689C14.7743 16.759 14.8284 16.8221 14.8374 16.9122C14.6812 16.8822 14.6391 16.8011 14.7112 16.6689ZM13.8731 17.0834C13.9993 17.0834 14.1255 17.0564 14.2516 17.0384C14.3778 17.0113 14.4589 17.0834 14.4859 17.1916C14.549 17.489 14.54 17.7683 14.3327 18.0387C14.1885 18.2279 14.0263 18.3631 13.801 18.4352C13.5938 18.5073 13.4045 18.4983 13.1972 18.4082C13.2423 18.3 13.2874 18.2099 13.3054 18.1198C13.3234 18.0297 13.3054 17.9305 13.3054 17.8404C13.4045 17.7773 13.4766 17.8584 13.5487 17.8765C13.6659 17.9125 13.738 17.8494 13.7109 17.7323C13.6929 17.6602 13.6659 17.5791 13.6388 17.507C13.6028 17.4169 13.6118 17.3448 13.6569 17.2546C13.7019 17.1555 13.765 17.0924 13.8821 17.0834H13.8731ZM13.3504 17.5791C13.3504 17.5791 13.3865 17.534 13.4135 17.525C13.4586 17.507 13.4856 17.534 13.4946 17.5791C13.4946 17.6061 13.5127 17.6422 13.4586 17.6512C13.4135 17.6331 13.3595 17.6512 13.3504 17.5881V17.5791ZM12.2961 18.8407C12.1969 18.8497 12.1068 18.8407 12.0257 18.7867C11.9716 18.7596 11.9446 18.7236 11.9536 18.6605C11.9807 18.5073 11.9897 18.3541 12.0077 18.1919C12.1068 18.1648 12.1969 18.1919 12.2961 18.2099C12.3591 18.2279 12.4222 18.2099 12.4673 18.1558C12.5214 18.0837 12.4583 18.0387 12.4222 17.9936C12.3862 17.9395 12.2961 17.9035 12.3501 17.8134C12.3952 17.7413 12.4673 17.7413 12.5394 17.7503C12.6565 17.7503 12.7737 17.7503 12.8908 17.7503C13.044 17.7503 13.1161 17.8224 13.1252 17.9756C13.1252 18.0116 13.1252 18.0567 13.1161 18.0927C12.999 18.4442 12.7376 18.7957 12.2961 18.8407ZM13.026 18.8137C13.026 18.8137 12.99 18.8588 12.9539 18.8407C12.9269 18.8227 12.8999 18.8047 12.9269 18.7686C12.9449 18.7416 12.9629 18.7146 12.999 18.7326C13.026 18.7506 13.026 18.7867 13.026 18.8137ZM12.5664 16.5517C12.5664 16.5517 12.6025 16.4886 12.6385 16.4796C12.6746 16.4706 12.6926 16.4886 12.7016 16.5247C12.7016 16.5788 12.6836 16.5968 12.6385 16.5968C12.6115 16.5968 12.5664 16.5878 12.5664 16.5517ZM11.6742 16.8401C11.6742 16.8401 11.6562 16.795 11.6472 16.768C11.8184 16.7049 11.9897 16.7229 12.1609 16.6869C12.215 16.6689 12.242 16.7049 12.269 16.75C12.4673 17.0474 12.4042 17.4619 12.1339 17.7052C11.9626 17.8584 11.7824 17.9395 11.5661 17.9486C11.485 17.9486 11.4129 17.9395 11.3318 17.9125C11.2597 17.8855 11.2507 17.8404 11.2687 17.7863C11.3408 17.543 11.3769 17.2997 11.3318 17.0474C11.3138 16.9482 11.3678 16.9392 11.4399 16.9843C11.458 16.9933 11.476 17.0113 11.494 17.0294C11.5571 17.0744 11.6292 17.0744 11.6923 17.0203C11.7644 16.9573 11.6923 16.9122 11.6652 16.8581L11.6742 16.8401ZM9.97101 14.8575C9.8809 14.8305 9.79979 14.8034 9.70066 14.7764C9.77275 14.7043 9.8088 14.5962 9.89892 14.6232C9.97101 14.6412 9.98003 14.7403 9.97101 14.8575ZM9.82682 15.975C9.92595 15.993 10.0251 16.002 10.1062 15.975C10.2504 15.9389 10.2864 16.02 10.3315 16.1192C10.3675 16.2003 10.3765 16.2904 10.3765 16.4256C10.3675 16.6418 10.2684 16.8671 10.0431 17.0203C9.90793 17.1105 9.75473 17.1826 9.60153 17.2366C9.47536 17.2727 9.34019 17.2817 9.20501 17.2366C9.06983 17.1916 9.01576 17.0834 9.06082 16.9392C9.07884 16.8671 9.10588 16.786 9.1239 16.7139C9.14193 16.6328 9.07884 16.5157 9.18699 16.4886C9.30414 16.4526 9.43932 16.4436 9.55647 16.5157C9.56548 16.5157 9.58351 16.5337 9.59252 16.5427C9.63758 16.5788 9.67362 16.5878 9.71868 16.5427C9.76374 16.4977 9.77275 16.4526 9.73671 16.3895C9.70066 16.3264 9.6556 16.2724 9.63758 16.2003C9.57449 16.02 9.66461 15.9209 9.84485 15.966L9.82682 15.975ZM10.0251 17.3898C10.0251 17.3898 9.98003 17.4259 9.95299 17.4169C9.92595 17.4078 9.88991 17.3898 9.89892 17.3538C9.89892 17.3177 9.93497 17.2997 9.962 17.2997C9.99805 17.3087 10.0161 17.3448 10.0251 17.3898ZM8.61924 13.6319C8.439 13.8211 8.04248 13.8392 7.81719 13.5958C8.04248 13.3255 8.33086 13.1182 8.53813 12.8028C8.79948 13.0732 8.83552 13.4066 8.61924 13.6229V13.6319ZM7.83521 13.9203C7.92533 13.8932 8.00644 13.9383 8.08754 13.9653C8.17766 13.9924 8.27679 14.0104 8.36691 13.9834C8.49307 13.9383 8.55616 13.9924 8.60122 14.1095C8.70936 14.3799 8.77244 14.6322 8.56517 14.8845C8.33086 15.1729 7.8262 15.1999 7.61893 14.9296C7.59189 14.8935 7.54683 14.8575 7.56486 14.8034C7.68201 14.5962 7.56486 14.4069 7.54683 14.2086C7.54683 14.1816 7.5198 14.1546 7.54683 14.1095C7.66399 14.1185 7.71806 14.2988 7.84422 14.1906C7.90731 14.1456 7.90731 14.1366 7.83521 13.9293V13.9203ZM7.88928 16.5517C7.91632 16.4886 7.96138 16.4977 7.99742 16.5247C8.02446 16.5427 8.0515 16.5607 8.06952 16.5878C8.11458 16.6328 8.15964 16.6959 8.23173 16.6509C8.2858 16.6148 8.30383 16.5517 8.2858 16.4796C8.27679 16.4436 8.24976 16.4075 8.2858 16.3535C8.47505 16.3985 8.6643 16.4977 8.87157 16.4706C8.92564 16.4706 8.95268 16.4977 8.95268 16.5607C8.91663 16.8671 8.79046 17.1014 8.49307 17.2276C8.19568 17.3448 7.92533 17.3087 7.673 17.1105C7.61893 17.0744 7.61893 17.0294 7.65497 16.9933C7.7541 16.8581 7.8262 16.7139 7.88928 16.5607V16.5517ZM8.45703 17.7323C8.5111 17.5881 8.55616 17.5701 8.68232 17.6422C8.70035 17.6512 8.71837 17.6692 8.73639 17.6872C8.79046 17.7233 8.84454 17.7233 8.8896 17.6872C8.93465 17.6512 8.94367 17.5971 8.92564 17.543C8.89861 17.4619 8.82651 17.3988 8.86256 17.2727C9.0428 17.3358 9.18698 17.4529 9.37623 17.4799C9.49339 17.498 9.55647 17.6962 9.5024 17.8404C9.45734 17.9576 9.38525 18.0657 9.29513 18.1468C9.05181 18.3541 8.78145 18.4893 8.44802 18.3721C8.24975 18.309 8.24074 18.255 8.32185 18.0747C8.37592 17.9576 8.42098 17.8404 8.46604 17.7233L8.45703 17.7323ZM9.39426 18.5523C9.31315 18.5253 9.24106 18.5253 9.25007 18.4352C9.25007 18.4082 9.28612 18.3811 9.32216 18.3811C9.42129 18.3991 9.39426 18.4803 9.40327 18.5523H9.39426ZM9.09687 19.3364C9.21402 19.1561 9.15995 18.9489 9.20501 18.7596C9.20501 18.7416 9.22303 18.7326 9.23204 18.7236C9.34019 18.7236 9.39426 18.7957 9.47536 18.8497C9.51141 18.8768 9.55647 18.9038 9.60153 18.8678C9.6556 18.8317 9.66461 18.7867 9.6556 18.7236C9.63758 18.6064 9.53845 18.5163 9.55647 18.3721C9.75473 18.4352 9.94398 18.4803 10.1513 18.4803C10.2053 18.4803 10.2324 18.5073 10.2594 18.5523C10.3225 18.6965 10.3675 18.8407 10.2954 19.0029C10.2143 19.2012 10.1062 19.3724 9.94398 19.4986C9.70066 19.6878 9.39426 19.6428 9.14193 19.4265C9.10588 19.3995 9.07884 19.3544 9.10588 19.3274L9.09687 19.3364ZM9.74572 18.1829C9.64659 18.1198 9.57449 18.0657 9.64659 17.9395C9.70967 17.8224 9.68263 17.6962 9.70967 17.561C9.86287 17.561 9.98003 17.5971 10.0792 17.6872C10.1422 17.7413 10.2053 17.7503 10.2684 17.6872C10.3405 17.6241 10.3405 17.552 10.2774 17.4799C10.2594 17.4619 10.2504 17.4439 10.2324 17.4259C10.1062 17.1916 10.2053 17.0113 10.4757 16.9933C10.6379 16.9933 10.7911 16.9753 10.9443 16.9392C11.0795 16.9032 11.1155 16.9663 11.1426 17.0654C11.3228 17.5881 10.8812 18.2459 10.3315 18.282C10.1242 18.3 9.91694 18.3 9.72769 18.1919L9.74572 18.1829ZM10.701 18.4893C10.701 18.4893 10.6018 18.4893 10.6018 18.4172C10.6018 18.3991 10.6379 18.3901 10.6469 18.3811C10.701 18.3811 10.728 18.4082 10.737 18.4442C10.737 18.4712 10.737 18.4983 10.701 18.4893ZM12.5214 20.2466C12.6025 20.2376 12.6565 20.2826 12.7196 20.3097C12.7827 20.3367 12.8278 20.3006 12.8638 20.2646C12.9089 20.2285 12.8999 20.1745 12.8728 20.1384C12.8278 20.0573 12.7647 19.9852 12.7917 19.8771C13.0621 19.8771 13.3234 19.8951 13.5577 19.7419C13.6388 19.6969 13.6659 19.7239 13.7019 19.796C13.8461 20.1384 13.6839 20.562 13.3414 20.7062C13.1882 20.7693 13.026 20.8053 12.8548 20.8053C12.6385 20.8053 12.5123 20.6701 12.5123 20.4629C12.5123 20.3908 12.4853 20.3187 12.5123 20.2556L12.5214 20.2466ZM13.783 20.571C13.783 20.571 13.8101 20.6161 13.8191 20.6521C13.8191 20.6972 13.792 20.7062 13.765 20.7062C13.7289 20.7062 13.7019 20.6791 13.7109 20.6431C13.7109 20.607 13.738 20.562 13.783 20.58V20.571ZM13.0531 19.6788C13.0531 19.6788 12.972 19.6698 12.9179 19.6518C12.8278 19.6248 12.7827 19.5707 12.8097 19.4716C12.8458 19.3634 12.8638 19.2643 12.8458 19.1471C12.8278 19.039 12.8818 19.012 12.99 19.048C13.0531 19.066 13.1071 19.1021 13.1612 19.1291C13.2153 19.1471 13.2784 19.1561 13.3144 19.1021C13.3595 19.057 13.3324 19.0029 13.3054 18.9489C13.2693 18.8858 13.2333 18.8317 13.1972 18.7596C13.1792 18.7146 13.1612 18.6695 13.1972 18.6244C13.2333 18.5884 13.2693 18.6154 13.3054 18.6244C13.4316 18.6695 13.5577 18.6695 13.7019 18.6244C13.9002 18.5523 14.0083 18.6515 13.9813 18.8588C13.9272 19.2643 13.4766 19.6608 13.044 19.6608L13.0531 19.6788ZM14.8825 19.2012C14.6572 19.3454 14.4138 19.3093 14.1795 19.2012C14.1435 19.1832 14.1074 19.1652 14.1345 19.1111C14.1976 18.9579 14.1976 18.7867 14.2066 18.6244C14.3147 18.6154 14.3868 18.6605 14.4679 18.6875C14.531 18.7055 14.5941 18.6875 14.6391 18.6335C14.6932 18.5794 14.6391 18.5253 14.6211 18.4803C14.5851 18.3901 14.522 18.318 14.504 18.2189C14.4859 18.1108 14.558 17.9936 14.6572 18.0026C14.7473 18.0026 14.8284 18.0207 14.9185 18.0207C14.9996 18.0207 15.0717 17.9846 15.1348 17.9395C15.2069 17.8945 15.279 17.8494 15.3691 17.7863C15.4412 17.8945 15.4772 18.0026 15.4682 18.1108C15.4502 18.5614 15.27 18.9308 14.8825 19.1832V19.2012ZM15.6575 17.1014C15.5493 17.4799 15.261 17.6962 14.9095 17.8224C14.7653 17.8765 14.7022 17.8134 14.7112 17.6692C14.7293 17.4799 14.7112 17.2907 14.7112 17.1014C14.8194 17.1014 14.9095 17.1375 14.9906 17.1735C15.0447 17.1916 15.0987 17.1826 15.1438 17.1375C15.1979 17.0834 15.1438 17.0384 15.1258 16.9933C15.0266 16.8311 14.9275 16.6779 14.8734 16.4886C14.9726 16.4256 15.0807 16.3805 15.2069 16.3805C15.324 16.3805 15.4232 16.3264 15.5133 16.2453C15.7025 16.5157 15.7386 16.8041 15.6575 17.1105V17.1014ZM15.5674 15.5244C15.6485 15.5514 15.6304 15.6235 15.6124 15.6866C15.5223 16.038 15.3691 16.1732 15.0086 16.2093C14.8734 16.2273 14.8644 16.2093 14.8644 16.0651C14.9185 15.8668 14.8644 15.6686 14.7833 15.4793C14.7473 15.3712 14.7653 15.3351 14.8825 15.3351C15.1258 15.3441 15.3421 15.4433 15.5583 15.5244H15.5674ZM16.5496 14.0374C16.4595 14.1546 16.3784 14.2627 16.3334 14.3979C16.2973 14.5151 16.2162 14.5781 16.072 14.6232C16.1892 14.0735 16.5406 13.722 16.9281 13.3976C16.847 13.6409 16.7028 13.8392 16.5496 14.0374ZM17.7662 12.4694C17.3968 13.0011 16.784 13.1543 16.2523 13.4336C16.3514 13.4246 16.4415 13.4156 16.5496 13.3976C16.5677 13.5057 16.4685 13.5328 16.4235 13.5778C16.1982 13.8572 15.9909 14.1366 15.8918 14.488C15.8557 14.6142 15.7476 14.6953 15.7296 14.8305C15.7296 14.8665 15.6935 14.8755 15.6665 14.8935C15.3871 15.0197 15.0897 15.0738 14.7563 15.1639C14.8554 15.0017 15.0176 14.9747 15.1078 14.8034C14.9726 14.8575 14.8825 14.9026 14.7383 14.9656C14.8825 14.7133 15.1168 14.6502 15.261 14.479C15.0357 14.5421 14.8284 14.6592 14.6301 14.7764C14.7743 14.47 15.1258 14.3979 15.3781 14.1366C15.1348 14.1636 14.9996 14.2898 14.8194 14.3528C14.9726 14.0194 15.3511 13.9473 15.6304 13.677C15.3601 13.695 15.1979 13.8572 14.9906 13.9383C14.9726 13.8572 15.0266 13.8302 15.0717 13.7941C15.297 13.6589 15.5133 13.5147 15.7476 13.4066C15.8287 13.3705 15.9278 13.3435 15.9909 13.2264C15.6485 13.2804 15.3961 13.4877 15.0897 13.5778C15.3961 13.3165 15.7566 13.1453 16.0991 12.929C15.8017 12.956 15.5583 13.1182 15.27 13.2354C15.333 13.0101 15.4953 12.929 15.6575 12.8479C15.8017 12.7668 15.9549 12.7127 16.1081 12.6406C16.1531 12.6226 16.2162 12.6045 16.2342 12.5234C16.081 12.5505 15.9639 12.6226 15.7656 12.6226C16.054 12.4153 16.3604 12.3522 16.6398 12.208C16.4866 12.1359 16.3604 12.2531 16.1802 12.226C16.4505 12.0638 16.7119 11.9827 16.9912 11.8746C16.847 11.8295 16.7389 11.8475 16.6308 11.8926C16.5226 11.9287 16.4055 11.9647 16.2793 12.0008C16.3244 11.8475 16.4325 11.8836 16.5226 11.8566C16.6217 11.8205 16.7028 11.7574 16.793 11.7214C16.8831 11.6853 16.9732 11.6853 17.0723 11.6583C17.1715 11.6313 17.2706 11.5952 17.3607 11.5682C17.3877 11.4781 17.2796 11.5411 17.2796 11.4781C17.3697 11.406 17.4869 11.397 17.604 11.3699C17.6671 11.3609 17.7302 11.3159 17.6221 11.2528C17.55 11.2167 17.586 11.1717 17.6221 11.1536C17.7032 11.1266 17.7933 11.1086 17.8744 11.0906C17.9375 11.0815 18.0006 11.0906 18.0456 11.0275C18.0456 10.9554 17.9645 10.9734 17.9194 10.9283C18.0186 10.8112 18.1447 10.7842 18.307 10.7571C18.2799 11.3879 18.0997 11.9557 17.7482 12.4604L17.7662 12.4694ZM18.2349 10.6129C18.2709 10.5498 18.307 10.5048 18.379 10.4958C18.4061 10.631 18.334 10.631 18.2349 10.6129ZM18.8387 7.93642C18.8657 8.13468 18.9288 8.33294 18.9107 8.54922C18.8657 9.0629 18.7035 9.5225 18.3881 9.92803C18.361 9.96408 18.334 10.0181 18.2979 10.0362C17.9285 10.1804 17.613 10.4237 17.2616 10.6039C16.5136 10.9824 15.8377 11.4691 15.2519 12.0909C14.9095 12.4513 14.7022 12.8749 14.4769 13.2985C14.2877 13.6589 14.1885 14.0464 14.0444 14.4249C13.9993 14.5511 13.9723 14.6863 13.9542 14.8215C13.9362 14.9476 13.9182 15.0738 13.8641 15.1909C13.8281 15.2901 13.774 15.3261 13.6569 15.3351C13.4316 15.3441 13.2063 15.4162 12.9629 15.3712C13.026 15.1909 13.2153 15.1279 13.3144 14.9747C13.2063 14.9296 13.1432 15.0287 13.017 15.0558C13.1432 14.8755 13.2964 14.7764 13.4496 14.6142C13.1882 14.6232 13.0891 14.8575 12.8638 14.9206C13.035 14.6232 13.3324 14.497 13.5307 14.2357C13.3955 14.2357 13.3414 14.3078 13.2784 14.3618C13.1972 14.4159 13.1252 14.47 13.044 14.5331C12.972 14.5871 12.8908 14.6502 12.8188 14.7043C12.7917 14.6322 12.7286 14.5601 12.8638 14.5421C12.8818 14.5421 12.8999 14.5421 12.9089 14.5241C13.0801 14.3078 13.3144 14.1546 13.5036 13.9563C13.3595 13.9743 13.2603 14.0554 13.1522 14.1275C13.044 14.2086 12.9359 14.2807 12.8278 14.3618C12.7827 14.2988 12.8278 14.2357 12.8278 14.1816C12.8278 14.1546 12.8458 14.1095 12.8818 14.1275C13.017 14.1996 13.044 14.0825 13.0981 14.0194C13.2243 13.8842 13.3685 13.7761 13.5217 13.686C13.6028 13.6409 13.6839 13.5958 13.756 13.4877C13.5217 13.4697 13.4135 13.6679 13.2423 13.704C13.2663 13.6319 13.3535 13.5358 13.5036 13.4156C13.6118 13.3255 13.7199 13.2444 13.8191 13.1453C13.5848 13.2173 13.3865 13.3525 13.2063 13.5057C13.1161 13.5057 13.0981 13.6139 12.999 13.6139C12.9539 13.5418 13.008 13.4787 13.035 13.4066C13.1071 13.4156 13.1342 13.5057 13.2063 13.5057C13.1792 13.3976 13.2603 13.3435 13.3234 13.2985C13.5127 13.1543 13.7019 13.0191 13.8912 12.8749C13.9182 12.8479 13.9633 12.8389 13.9633 12.7577C13.6298 12.8479 13.3955 13.0822 13.1071 13.2354C13.0621 13.1543 13.1071 13.1182 13.1522 13.0732C13.4316 12.8659 13.7019 12.6586 14.0083 12.4874C14.0534 12.4604 14.1074 12.4423 14.1255 12.3612C13.9633 12.3612 13.8461 12.4694 13.7199 12.5324C13.5938 12.5955 13.4856 12.6857 13.3414 12.7127C13.3144 12.6406 13.3414 12.5955 13.3865 12.5685C13.7109 12.3883 14.0353 12.217 14.3598 12.0458C14.4229 12.0098 14.531 12.0098 14.4499 11.8926C14.4229 11.8475 14.495 11.8385 14.522 11.8295C14.6301 11.7755 14.7563 11.7484 14.8554 11.6132C14.5941 11.6132 14.3958 11.7664 14.1705 11.7755C14.1074 11.8205 14.0263 11.8205 13.9542 11.8025C14.0263 11.6853 14.0263 11.6853 14.1705 11.7755C14.1615 11.7124 14.2246 11.7124 14.2606 11.6943C14.4319 11.6223 14.6121 11.5502 14.7833 11.4781C14.8374 11.451 14.9095 11.451 14.9455 11.3429C14.6842 11.3429 14.4589 11.451 14.2246 11.4871C14.54 11.1807 14.9546 11.1176 15.3601 11.0545C15.1618 10.9914 15.0627 10.9914 14.7923 11.0275C15.1168 10.7751 15.5403 10.8292 15.9008 10.685C15.6935 10.6129 15.4863 10.7301 15.27 10.667C15.5764 10.4958 15.9278 10.5228 16.2793 10.3966C16.045 10.2885 15.8467 10.4237 15.6124 10.3786C15.9188 10.1443 16.2793 10.1443 16.6037 10.0542C16.5767 9.94605 16.4866 10.0001 16.4505 9.96408C16.4325 9.93704 16.4415 9.93704 16.4505 9.92803C16.5947 9.86495 16.7659 9.901 16.9011 9.80187C16.856 9.70273 16.7569 9.78384 16.6668 9.71175C16.9101 9.57657 17.1805 9.63064 17.4148 9.53151C17.2255 9.46843 17.0273 9.53151 16.811 9.48645C16.9552 9.37831 17.1084 9.37831 17.2526 9.35127C17.3877 9.32424 17.55 9.37831 17.7122 9.25214C17.5319 9.19807 17.3877 9.23412 17.2345 9.20708C17.4598 9.08092 17.7122 9.11697 17.9375 9.03586C17.8383 8.93673 17.7122 9.03586 17.6311 8.91871C17.7933 8.79254 18.0276 8.85562 18.2078 8.72045C18.0546 8.67539 17.9194 8.71143 17.7572 8.69341C17.9375 8.57626 18.1177 8.54021 18.2979 8.51317C18.325 8.51317 18.361 8.51317 18.3971 8.51317C18.4511 8.51317 18.5232 8.50416 18.5232 8.44108C18.5232 8.36898 18.4421 8.38701 18.3881 8.38701C18.307 8.38701 18.2168 8.41404 18.1177 8.36898C18.2889 8.24282 18.4692 8.20677 18.6584 8.18875C18.7035 8.18875 18.7666 8.17974 18.7575 8.11665C18.7485 8.06258 18.6854 8.06258 18.6404 8.06258C18.5503 8.06258 18.4692 8.10764 18.379 8.08061C18.4602 7.93642 18.6134 7.95444 18.7395 7.91839C18.7846 7.90037 18.8116 7.94543 18.8206 7.99049L18.8387 7.93642ZM18.6314 7.73816C18.5863 7.66606 18.7395 7.65705 18.6764 7.58496C18.6494 7.5399 18.5953 7.50385 18.6584 7.43175C18.8116 7.67507 18.8116 7.6931 18.6314 7.73816ZM17.5229 7.42274C17.4418 7.26053 17.3066 7.30559 17.1985 7.25152C17.3787 7.13436 17.595 7.17041 17.8023 7.0893C17.6761 6.99017 17.559 6.99017 17.4058 7.01721C17.586 6.82796 17.8564 6.91808 18.0186 6.73784C17.9104 6.67476 17.8203 6.73784 17.7122 6.67476C17.9014 6.53057 18.1628 6.56662 18.37 6.40441C18.2258 6.34132 18.1087 6.40441 17.9825 6.40441C18.0276 6.3233 18.0817 6.28725 18.1538 6.26923C18.2258 6.24219 18.2979 6.21516 18.379 6.18812C18.4331 6.1701 18.4962 6.15207 18.4782 6.07998C18.4602 6.0169 18.3971 6.04393 18.361 6.03492C18.334 6.03492 18.316 6.03492 18.2889 6.02591C18.316 5.89974 18.4602 5.91777 18.5232 5.84567C18.5773 5.78259 18.5863 5.65642 18.7305 5.67445C18.7305 5.80963 18.7395 5.93579 18.7305 6.07097C18.6945 6.37737 18.6674 6.67476 18.5683 6.97215C18.5322 7.08029 18.4421 7.25152 18.37 7.34164C18.0006 7.81926 17.586 8.26084 17.1084 8.63033C16.3784 9.19807 15.6124 9.71175 14.8825 10.2885C14.4409 10.631 13.9903 10.9644 13.5848 11.3609C13.3775 11.5682 13.2063 11.8115 13.0621 12.0548C12.8728 12.3702 12.6655 12.6766 12.5304 13.0371C12.3141 13.6229 12.1969 14.2177 12.1339 14.8575C12.1158 15.0017 12.1339 15.1459 12.1339 15.2901C12.1339 15.3892 12.0798 15.4252 11.9807 15.4433C11.8455 15.4613 11.7103 15.4613 11.5841 15.5154C11.5841 15.3712 11.7103 15.2901 11.7013 15.1639C11.6202 15.1639 11.6022 15.272 11.521 15.263C11.521 15.1369 11.5931 15.0287 11.6562 14.8755C11.449 14.9837 11.3859 15.1729 11.2417 15.2901C11.1696 15.218 11.1516 15.1549 11.1966 15.0558C11.2777 14.9116 11.3678 14.7674 11.458 14.6322C11.503 14.5691 11.5661 14.5151 11.5391 14.4069C11.3228 14.488 11.2597 14.7403 11.0705 14.8755C11.0975 14.6052 11.3138 14.443 11.3949 14.1636C11.1786 14.2627 11.1065 14.4339 10.9623 14.5601C11.0614 14.2357 11.3138 14.0284 11.4039 13.731C11.2237 13.8211 11.1155 13.9924 10.9533 14.1546C10.9533 13.9473 11.0885 13.8662 11.1696 13.7581C11.2597 13.6499 11.3318 13.5328 11.467 13.3886C11.2327 13.4517 11.1426 13.6319 10.9533 13.7581C11.0344 13.5868 11.1335 13.4967 11.2237 13.4156C11.3138 13.3345 11.3949 13.2264 11.503 13.1543C11.5661 13.1182 11.6022 13.0551 11.6112 12.956C11.476 12.9921 11.3949 13.0912 11.2958 13.1633C11.1966 13.2354 11.1065 13.3255 11.0074 13.4156C10.9623 13.3345 11.0254 13.3075 11.0614 13.2714C11.2146 13.1272 11.3498 12.956 11.521 12.8208C11.5661 12.7848 11.6112 12.7397 11.6292 12.6586C11.4219 12.6766 11.3228 12.8479 11.1876 12.956C11.0524 13.0641 10.9353 13.1903 10.8001 13.2894C10.9443 12.8839 11.3408 12.7127 11.6022 12.4063C11.4039 12.4784 11.2327 12.5955 11.0434 12.6947C11.1155 12.5234 11.2597 12.4243 11.3949 12.3162C11.5301 12.208 11.6833 12.1359 11.7914 11.9827C11.6923 11.9106 11.6112 12.0368 11.5391 11.9827C11.5391 11.9196 11.6022 11.9196 11.6472 11.9016C11.7103 11.8746 11.7824 11.8566 11.8455 11.8385C11.8815 11.8205 11.9266 11.8025 11.9086 11.7574C11.8905 11.7124 11.8455 11.7214 11.8094 11.7304C11.6022 11.8025 11.3949 11.8746 11.1876 11.9467C11.1426 11.9647 11.1065 12.0008 11.0344 11.9737C11.0614 11.8385 11.1606 11.7664 11.2687 11.7214C11.458 11.6493 11.6562 11.5772 11.8545 11.5231C11.9356 11.4961 12.0077 11.4781 12.0437 11.3879C11.8184 11.3429 11.6382 11.4871 11.3859 11.4961C11.6562 11.2798 11.9807 11.2798 12.242 11.1356C12.1969 11.0545 12.1158 11.1176 12.0618 11.0725C12.1429 11.0365 12.215 11.0004 12.3141 10.9554C12.1609 10.8653 11.9987 10.9554 11.8274 10.9193C11.9897 10.8112 12.1429 10.8112 12.278 10.7661C12.4493 10.7121 12.6565 10.7301 12.7827 10.5679C12.8368 10.5048 12.9449 10.5679 13.017 10.4958C12.8368 10.3786 12.6295 10.4868 12.3952 10.4147C12.7016 10.3696 12.972 10.3336 13.2513 10.2885C13.1732 10.2284 12.972 10.1984 12.6475 10.1984C12.99 9.97309 13.4225 10.0722 13.801 9.901C13.5217 9.79285 13.2513 9.94605 12.9449 9.89198C13.1342 9.7478 13.3324 9.73878 13.5217 9.71175C13.7109 9.68471 13.8912 9.69372 14.0984 9.69372C13.9362 9.54953 13.9362 9.54953 13.6478 9.54052C13.4946 9.54052 13.3414 9.59459 13.1792 9.55855C13.6028 9.38732 14.0534 9.38732 14.495 9.3693C14.4048 9.27918 14.2877 9.28819 14.1885 9.26116C14.0894 9.24313 13.9813 9.24313 13.8461 9.24313C14.0353 9.10795 14.2246 9.10795 14.4048 9.10795C14.5941 9.10795 14.7833 9.13499 14.9996 9.10795C14.8374 8.97278 14.6572 9.00882 14.495 8.96377C14.6211 8.88266 14.6211 8.89167 15.0176 8.87365C15.1979 8.87365 15.3781 8.90068 15.5674 8.84661C15.4682 8.74748 15.4682 8.74748 15.2339 8.73847C15.1078 8.73847 14.9816 8.73847 14.8554 8.72045C14.9906 8.60329 15.1438 8.64835 15.288 8.66637C15.4322 8.6844 15.5854 8.71143 15.7566 8.66637C15.6124 8.47713 15.3601 8.6123 15.2069 8.4591C15.4682 8.38701 15.7386 8.48614 15.9999 8.39602C15.9819 8.28788 15.8828 8.32393 15.8467 8.27887C15.8467 8.26084 15.8467 8.25183 15.8738 8.25183C16.081 8.24282 16.2883 8.27887 16.5046 8.23381C16.4145 8.08061 16.2523 8.13468 16.1351 8.05357H16.7659C16.6668 7.9274 16.5767 7.91839 16.4866 7.90938C16.3964 7.90938 16.2973 7.89136 16.2072 7.88235C16.1712 7.88235 16.1441 7.85531 16.1712 7.81926C16.1802 7.80124 16.2162 7.7742 16.2252 7.78322C16.3784 7.90938 16.5226 7.74717 16.6668 7.7742C16.802 7.79223 16.9372 7.7742 17.0723 7.7742C17.0994 7.7742 17.1354 7.7742 17.1534 7.71112C17.0633 7.63903 16.9552 7.63903 16.847 7.63001C16.7479 7.63001 16.6488 7.63001 16.5587 7.60298C16.5587 7.55792 16.5767 7.5399 16.6037 7.5399C16.9191 7.57594 17.1985 7.38669 17.55 7.44978L17.5229 7.42274ZM10.8812 12.2351C10.9082 12.172 10.8812 12.0999 10.9533 12.0819C10.9893 12.0819 11.0074 12.1089 11.0074 12.1449C11.0074 12.217 10.9533 12.226 10.8722 12.2351H10.8812ZM11.2597 12.0368C11.2597 12.0368 11.3228 11.9917 11.3678 12.0368C11.3228 12.0548 11.2958 12.0728 11.2597 12.0819C11.2597 12.0638 11.2507 12.0458 11.2597 12.0368ZM12.0347 9.77483C11.9176 10.0181 11.7914 10.2525 11.6833 10.4958C11.6382 10.5859 11.5841 10.658 11.521 10.7121C11.4399 10.676 11.485 10.6219 11.494 10.5859C11.6833 9.97309 11.9176 9.37831 12.269 8.8376C12.3411 8.72045 12.4222 8.6123 12.5033 8.51317C12.8999 8.08061 13.2423 7.61199 13.6929 7.22448C13.9272 7.02622 14.1255 6.79191 14.3508 6.58464C14.6842 6.27824 15.0176 5.98085 15.3691 5.66544C15.3961 5.74654 15.3511 5.77358 15.324 5.80963C14.9005 6.24219 14.4769 6.68377 14.0534 7.11634C13.8191 7.35065 13.5487 7.5399 13.3144 7.78322C13.1071 7.99049 12.9359 8.23381 12.7917 8.47713C12.5394 8.90068 12.269 9.32424 12.0527 9.77483H12.0347ZM12.6385 9.23412C12.6385 9.23412 12.5844 9.28819 12.5484 9.27918C12.5484 9.27918 12.5304 9.25214 12.5394 9.24313C12.5394 9.20708 12.5754 9.18906 12.6115 9.19807C12.6295 9.19807 12.6565 9.19807 12.6475 9.23412H12.6385ZM12.3591 10.1083C12.4493 10.0452 12.4763 10.1083 12.5123 10.1714C12.4853 10.1804 12.4763 10.1984 12.4583 10.1984C12.4042 10.1984 12.3501 10.2254 12.3051 10.1804C12.278 10.1533 12.3231 10.1263 12.3501 10.1083H12.3591ZM12.6746 9.85594C12.7286 9.79285 12.7827 9.73878 12.8458 9.85594C12.7917 9.901 12.7376 9.91001 12.6746 9.901C12.6746 9.88297 12.6746 9.86495 12.6746 9.85594ZM14.1165 8.90068C14.1705 8.8376 14.2066 8.75649 14.2967 8.81056C14.3147 8.81056 14.3237 8.85562 14.3147 8.87365C14.2606 8.96377 14.1795 8.89167 14.1165 8.90068ZM15.9459 7.35065C15.8377 7.48583 15.7025 7.59397 15.5764 7.72013C15.4592 7.83729 15.3331 7.94543 15.2159 8.06258C15.0897 8.18875 14.9455 8.26084 14.7743 8.31491C15.1979 7.78322 15.7656 7.43175 16.2523 6.97215C16.2252 7.1614 16.045 7.22448 15.9459 7.35065ZM16.5136 7.07128C16.5857 7.18844 16.5677 7.28757 16.4685 7.35966C16.2793 7.48583 16.09 7.60298 15.8918 7.72013M16.5046 4.32267C16.6938 4.56599 16.6308 4.61105 16.3784 4.62908C16.3784 4.51192 16.4685 4.43983 16.5046 4.32267ZM16.5857 4.75524C16.6578 4.71919 16.7028 4.73722 16.7209 4.82734C16.7659 5.12473 16.7749 5.42212 16.6758 5.71951C16.5136 6.22417 16.1982 6.6297 15.8197 6.98116C15.7656 7.02622 15.6755 7.04425 15.7386 7.1614C15.7656 7.20646 15.6755 7.24251 15.6395 7.27855C15.3871 7.51286 15.0987 7.71112 14.8554 7.97246C14.7473 8.08962 14.6572 8.23381 14.522 8.3059C14.3057 8.43207 14.1976 8.65736 13.9813 8.78353C13.765 8.90969 13.5577 9.02685 13.3414 9.144C13.2513 9.19807 13.1612 9.24313 13.0891 9.31523C12.8638 9.53151 12.5574 9.60361 12.3051 9.77483C12.4312 9.44139 12.8188 9.44139 13.035 9.2161C12.9359 9.09894 12.8458 9.25214 12.7467 9.17104C12.8728 9.02685 13.035 8.97278 13.1792 8.90068C13.2243 8.87365 13.2693 8.86463 13.3144 8.84661C13.3685 8.82859 13.4316 8.80155 13.3955 8.72946C13.3685 8.67539 13.3144 8.70242 13.2693 8.72045C13.1792 8.75649 13.0801 8.80155 12.972 8.84661C13.026 8.70242 13.1432 8.67539 13.2423 8.63033C13.3504 8.58527 13.4586 8.54021 13.5667 8.48614C13.5938 8.47713 13.6208 8.45009 13.6118 8.41404C13.5938 8.35997 13.5577 8.378 13.5217 8.39602C13.3595 8.45009 13.1972 8.49515 13.008 8.54922C13.0531 8.35096 13.2513 8.43207 13.3414 8.32393C13.4225 8.21578 13.6028 8.2248 13.738 8.17072C13.8641 8.12567 14.0083 8.11665 14.1074 8.00851C13.8461 7.98148 13.6028 8.06258 13.3414 8.08061C13.6388 7.97246 13.9092 7.80124 14.2156 7.72914C14.2967 7.71112 14.3688 7.68409 14.4409 7.65705C14.4769 7.63903 14.513 7.61199 14.495 7.56693C14.4769 7.51286 14.4409 7.5399 14.4048 7.54891C14.2967 7.57594 14.1795 7.60298 14.0624 7.61199C14.2516 7.43175 14.549 7.45879 14.7743 7.28757C14.6752 7.21547 14.5761 7.32361 14.4859 7.25152C14.6211 7.19745 14.7473 7.14338 14.8734 7.09832C14.9275 7.08029 15.0086 7.05326 14.9906 6.99919C14.9365 6.84599 15.0627 6.855 15.1348 6.81895C15.2069 6.7829 15.315 6.79191 15.315 6.65674C15.1168 6.67476 14.9185 6.69278 14.7293 6.77389C14.8194 6.62069 14.8194 6.62069 14.9636 6.62069C14.9996 6.62069 15.0447 6.62069 15.0807 6.60267C15.2159 6.53958 15.3601 6.49452 15.5043 6.44947C15.5674 6.43144 15.6214 6.40441 15.6214 6.3233C15.4592 6.27824 15.306 6.38638 15.1168 6.35935C15.2069 6.26022 15.2429 6.11603 15.3961 6.23318C15.4232 6.2512 15.4772 6.2512 15.5043 6.21516C15.6214 6.08899 15.7836 6.07097 15.9278 6.0169C16.024 5.98085 16.039 5.91476 15.9729 5.81864C16.054 5.78259 16.1261 5.73753 16.2072 5.70148C16.2523 5.68346 16.2973 5.65642 16.2883 5.60235C16.2793 5.53026 16.2162 5.56631 16.1712 5.56631C16.1351 5.56631 16.0991 5.56631 16.054 5.57532C16.081 5.49421 16.1531 5.49421 16.1982 5.46718C16.2432 5.44014 16.2883 5.43113 16.3334 5.41311C16.3964 5.38607 16.4595 5.35903 16.4415 5.27793C16.4235 5.16979 16.3244 5.29595 16.2883 5.23287C16.3244 5.13374 16.4325 5.12473 16.5136 5.08868C16.5587 5.06164 16.6308 5.06164 16.6037 4.98054C16.5767 4.90844 16.5136 4.92647 16.4595 4.94449C16.3694 4.96251 16.2793 4.98054 16.1892 4.98955C16.3244 4.90844 16.4595 4.82734 16.5947 4.75524H16.5857ZM15.6665 5.70148C15.6935 5.62038 15.7206 5.57532 15.8017 5.60235C15.8107 5.60235 15.8287 5.62939 15.8197 5.6384C15.7927 5.71951 15.7296 5.69247 15.6665 5.70148ZM15.9729 5.26892C15.9729 5.26892 16.027 5.20583 16.072 5.23287C16.09 5.25089 16.1171 5.2599 16.1261 5.27793C16.1261 5.32299 16.09 5.34101 16.054 5.35002C16.018 5.35903 15.9819 5.36805 15.9459 5.37706C15.9188 5.31398 15.9459 5.28694 15.9729 5.2599V5.26892ZM16.1351 2.15984C16.2793 2.4392 16.2703 2.45723 16.027 2.53833C16.063 2.39414 16.0991 2.286 16.1351 2.15984ZM10.1152 12.154C10.1783 11.9827 10.3135 11.8656 10.4396 11.7394C10.4667 11.7124 10.5117 11.6853 10.4847 11.6403C10.4486 11.5772 10.4036 11.6313 10.3675 11.6403C10.3045 11.6763 10.2774 11.7755 10.1603 11.7574C10.2594 11.5862 10.4306 11.4871 10.5388 11.3159C10.3675 11.2798 10.3135 11.46 10.1693 11.4691C10.2324 11.2708 10.4306 11.1717 10.5027 10.9914C10.3405 11.0365 10.2233 11.1536 10.0882 11.2347C10.1963 10.9914 10.4396 10.8653 10.6018 10.658C10.4306 10.658 10.3225 10.7932 10.1603 10.8743C10.1963 10.685 10.3495 10.5949 10.4577 10.4868C10.5658 10.3786 10.6829 10.2795 10.8091 10.1623C10.707 10.1623 10.5177 10.2675 10.2414 10.4778C10.2684 10.3426 10.2774 10.3516 10.4847 10.1894C10.5928 10.1083 10.737 10.0542 10.8452 9.91001C10.6018 9.92803 10.4396 10.0542 10.2594 10.1443C10.3225 10.0181 10.4486 9.96408 10.5297 9.86495C10.6109 9.77483 10.8001 9.79285 10.8091 9.6036C10.6649 9.66669 10.5388 9.71175 10.3765 9.78384C10.5478 9.48645 10.8722 9.40535 11.0705 9.144C10.7911 9.2161 10.6109 9.39633 10.3765 9.49546C10.3675 9.36029 10.4306 9.28819 10.5297 9.22511C10.71 9.10795 10.9082 9.02685 11.1065 8.94574C11.2237 8.89167 11.3048 8.81056 11.3859 8.69341C11.2327 8.65736 11.1966 8.81958 11.0885 8.82859C10.9894 8.8376 10.8902 8.88266 10.7911 8.90068C11.0164 8.63934 11.3678 8.56724 11.6562 8.39602C11.512 8.33294 11.512 8.33294 11.2687 8.43207C11.1426 8.48614 11.0254 8.56724 10.8812 8.56724C11.1516 8.31491 11.521 8.25183 11.8004 8.03555C11.5661 8.00851 11.3769 8.13468 11.1696 8.17974C11.458 7.94543 11.8274 7.88235 12.1879 7.6931C11.9626 7.64804 11.8274 7.73816 11.6652 7.73816C11.9266 7.55792 12.26 7.55792 12.5394 7.37768C12.3952 7.28757 12.269 7.42274 12.1339 7.36867C12.3321 7.22448 12.5844 7.23349 12.7827 7.10733C12.6926 6.97215 12.5754 7.10733 12.4763 7.05326C12.5394 6.98116 12.6385 6.98116 12.7106 6.95413C12.8097 6.92709 12.9089 6.90907 13.008 6.88203C13.035 6.88203 13.0711 6.86401 13.0891 6.83697C13.2333 6.66575 13.2333 6.66575 13.3775 6.60267C13.3865 6.60267 13.3955 6.58464 13.4225 6.54859C13.3324 6.49452 13.2243 6.54859 13.1161 6.51255C13.3234 6.35034 13.6028 6.42243 13.801 6.26022C13.6929 6.13405 13.5577 6.26923 13.4496 6.20615C13.6388 6.07998 13.8731 6.11603 14.0804 6.02591C13.9993 5.89974 13.8731 5.98085 13.765 5.92678C13.8731 5.82765 14.0263 5.81864 14.1435 5.75555C14.2156 5.71951 14.3508 5.74654 14.3237 5.58433C14.3237 5.55729 14.4138 5.53026 14.4589 5.51224C14.531 5.4852 14.6121 5.4852 14.6572 5.39508C14.549 5.34101 14.4499 5.40409 14.3508 5.39508C14.3508 5.39508 14.3417 5.39508 14.3327 5.39508C14.2787 5.41311 14.2246 5.45816 14.1525 5.42212C14.2156 5.35903 14.2787 5.39508 14.3327 5.39508C14.3327 5.39508 14.3417 5.39508 14.3508 5.39508C14.3598 5.32299 14.4229 5.29595 14.4859 5.27793C14.5941 5.24188 14.6932 5.19682 14.7923 5.16077C14.8374 5.14275 14.8915 5.13374 14.8915 5.07066C14.8915 4.98955 14.8104 5.01658 14.7653 4.98054C14.8734 4.86338 15.0447 4.84536 15.1618 4.72821C15.0176 4.62908 14.9095 4.78228 14.7833 4.72821C14.9546 4.55698 15.2249 4.57501 15.3961 4.41279C15.324 4.3407 15.2339 4.43082 15.1618 4.35872C15.324 4.23256 15.5403 4.22354 15.7206 4.07034C15.5854 4.01627 15.4863 4.05232 15.3601 4.07034C15.5133 3.87208 15.7566 3.86307 15.9278 3.69185C15.7836 3.6558 15.7025 3.74592 15.5854 3.71888C15.6395 3.62876 15.7206 3.61975 15.7927 3.5837C15.8647 3.54766 15.9368 3.52062 16.0089 3.47556C16.027 3.46655 16.045 3.43952 16.036 3.41248C16.036 3.38544 16.0089 3.37643 15.9819 3.37643C15.9188 3.37643 15.8557 3.41248 15.7836 3.37643C15.8647 3.23224 16.054 3.23224 16.1441 3.09707C16.072 3.00695 15.9909 3.09707 15.9098 3.05201C15.9368 2.89881 16.1081 2.92584 16.1802 2.83572C16.1021 2.7396 16.1081 2.65248 16.1982 2.57438C16.2703 2.60142 16.2523 2.6645 16.2613 2.70956C16.2973 3.11509 16.3964 3.52062 16.2973 3.93517C16.2342 4.20552 16.1351 4.45785 15.9188 4.65611C15.7927 4.78228 15.6935 4.94449 15.5854 5.08868C15.306 5.46718 14.9365 5.75555 14.5941 6.07097C14.2246 6.42243 13.8371 6.75587 13.4766 7.12535C13.1252 7.47681 12.8007 7.85531 12.4673 8.22479C12.1609 8.56724 11.9536 8.95475 11.7463 9.36029C11.449 9.95507 11.2777 10.5769 11.1065 11.2167C11.0614 11.3879 10.9623 11.5502 10.8812 11.7124C10.7731 11.9377 10.6739 12.172 10.6379 12.4243C10.6289 12.5054 10.6018 12.5685 10.5027 12.5865C10.4036 12.6045 10.3315 12.7037 10.2143 12.7127C10.1873 12.5415 10.3856 12.4694 10.3946 12.2981C10.2233 12.3252 10.1332 12.4874 9.95299 12.5324C10.0701 12.3162 10.2684 12.208 10.3675 12.0188C10.2594 11.9557 10.2324 12.1179 10.1242 12.0819L10.1152 12.154ZM9.43932 12.4153C9.43932 12.4153 9.5024 12.4153 9.52042 12.4333C9.62856 12.5415 9.73671 12.6586 9.82682 12.7938C9.84485 12.8298 9.85386 12.8659 9.84485 12.9109C9.74572 13.3345 9.54746 13.4787 9.11489 13.4517C9.03378 13.4517 8.9707 13.4156 8.98872 13.3165C9.00675 13.2444 8.9707 13.1723 8.96169 13.1092C8.94367 13.0191 8.86256 12.92 9.03378 12.8659C9.08785 12.8479 9.06983 12.7668 9.05181 12.7127C9.03378 12.6496 8.9707 12.5955 8.9707 12.5144C9.1239 12.4874 9.29513 12.5234 9.4303 12.4243L9.43932 12.4153ZM8.96169 11.9917C9.09687 12.0368 9.18699 12.1449 9.28612 12.2531C9.24106 12.3072 9.196 12.2981 9.15995 12.2981C8.84454 12.3252 8.82651 12.2981 8.96169 11.9917ZM8.86256 14.1005C8.86256 14.1005 8.92564 14.1005 8.95268 14.1095C9.02477 14.1366 9.09687 14.1996 9.15995 14.1095C9.21402 14.0284 9.15995 13.9563 9.1239 13.8932C9.08785 13.8211 9.02477 13.7581 9.01576 13.6499C9.25908 13.677 9.48438 13.6499 9.70066 13.5508C9.74572 13.5328 9.79078 13.5508 9.82682 13.5958C9.8809 13.686 9.94398 13.7671 9.94398 13.8752C9.94398 14.2988 9.63758 14.8215 9.10588 14.7944C8.93465 14.7944 8.91663 14.7764 8.92564 14.6052C8.92564 14.443 8.84454 14.2988 8.86256 14.1185V14.1005ZM2.62638 12.217C2.75254 12.0638 2.87871 11.9106 3.01388 11.7574C3.08598 11.6763 3.1761 11.6132 3.23918 11.5231C3.31127 11.424 3.35633 11.424 3.44645 11.5231C3.54558 11.6313 3.62669 11.7574 3.65372 11.9557C3.43744 11.8836 3.29325 12.0368 3.11301 12.0638C2.94179 12.0819 2.81562 12.217 2.65341 12.2621L2.62638 12.226V12.217ZM3.4825 12.5685C3.35633 12.5415 3.22116 12.5054 3.04092 12.4694C3.2572 12.3432 3.45546 12.3342 3.6357 12.2621C3.68977 12.2441 3.71681 12.2891 3.72582 12.3432C3.73483 12.4874 3.61768 12.5955 3.4825 12.5685ZM5.3119 13.713C4.89736 13.3075 4.42874 12.974 3.90605 12.7217C3.87001 12.7037 3.81594 12.6947 3.84297 12.6226C3.9421 12.3342 3.90605 12.0458 3.77989 11.7755C3.70779 11.6223 3.67175 11.442 3.52756 11.3249C3.4825 11.2888 3.49151 11.2438 3.52756 11.1987C3.54558 11.1717 3.56361 11.1446 3.59064 11.1266C3.93309 10.7661 4.27554 10.4057 4.73514 10.1804C4.94241 10.0812 5.1587 10.0091 5.45609 10.0091C5.75348 10.0902 6.12296 10.1173 6.47443 10.2705C6.75379 10.3876 7.02415 10.5048 7.27648 10.667C7.49276 10.8022 7.70003 10.9374 7.91632 11.0815C8.10557 11.2077 8.07853 11.2077 8.03347 11.424C7.9794 11.7034 7.84422 11.9377 7.70003 12.181C7.45671 12.5865 7.15031 12.929 6.7628 13.2083C6.42035 13.4697 6.03285 13.6319 5.62731 13.7851C5.47411 13.8392 5.42004 13.8031 5.32091 13.713H5.3119ZM5.55522 13.9203C6.93403 13.6049 7.7541 12.6676 8.25877 11.415C8.3579 11.415 8.41197 11.4781 8.46604 11.5411C8.49307 11.5682 8.50209 11.6042 8.48406 11.6493C8.33086 11.9287 8.24074 12.226 8.06051 12.4964C7.79015 12.9019 7.46573 13.2534 7.04217 13.5057C6.80786 13.6499 6.59158 13.8211 6.34826 13.9473C6.20407 14.0194 6.05988 14.0735 5.90668 14.1005C5.72644 14.1366 5.67237 14.1005 5.56423 13.9203H5.55522ZM5.90668 14.3799C5.86162 14.2807 5.96075 14.2717 6.00581 14.2627C6.44739 14.1636 6.79885 13.8932 7.15031 13.6319C7.24944 13.5598 7.37561 13.5147 7.46573 13.4246C7.77213 13.1182 8.09655 12.8298 8.29481 12.4333C8.41197 12.208 8.54715 11.9917 8.64628 11.7484C8.71837 11.7935 8.77244 11.8115 8.74541 11.9016C8.52011 12.5595 8.1326 13.0912 7.59189 13.5238C7.28549 13.7671 6.9881 14.0284 6.64565 14.2267C6.4564 14.3348 6.25814 14.4069 6.05988 14.479C5.96075 14.5151 5.9247 14.461 5.89767 14.3889L5.90668 14.3799ZM6.22209 14.6322C6.56454 14.506 6.85292 14.3168 7.15031 14.1275C7.20438 14.0915 7.24043 14.1095 7.26747 14.1546C7.45671 14.3979 7.42067 14.8034 7.1413 14.9566C6.77182 15.1549 6.47443 15.0648 6.22209 14.6322ZM6.70873 15.7497C6.6096 15.5604 6.51948 15.3802 6.41134 15.1459C6.60059 15.2811 6.77182 15.254 6.93403 15.254C7.00612 15.254 7.05118 15.2901 7.02415 15.3532C6.96106 15.5064 6.89798 15.6686 6.71774 15.7497H6.70873ZM7.15031 16.8491C7.09624 16.7049 7.04217 16.5697 6.97909 16.4346C6.94304 16.3715 6.89798 16.2994 6.92502 16.2183C7.00612 16.1913 7.04217 16.2633 7.09624 16.2814C7.23142 16.3354 7.3666 16.3715 7.50177 16.3805C7.63996 16.3925 7.68501 16.4646 7.63695 16.5968C7.59189 16.7139 7.54683 16.8311 7.4477 16.9212C7.33055 17.0203 7.20438 16.9933 7.15031 16.8491ZM7.60992 18.1288C7.57387 18.0387 7.52881 17.9576 7.49276 17.8675C7.43869 17.7233 7.40264 17.5701 7.34857 17.3988C7.43869 17.4259 7.47474 17.4709 7.50177 17.525C7.53782 17.5881 7.59189 17.5971 7.63695 17.552C7.69102 17.516 7.69102 17.4619 7.63695 17.4078C7.60992 17.3808 7.58288 17.3448 7.55584 17.2997C7.75411 17.3538 7.93434 17.4529 8.1326 17.4709C8.21371 17.4709 8.2047 17.543 8.22272 17.5971C8.27679 17.8314 8.03347 18.1919 7.79916 18.2279C7.70003 18.2459 7.62794 18.2099 7.59189 18.1198L7.60992 18.1288ZM7.94335 18.5253C7.94335 18.5253 7.88928 18.5073 7.88027 18.4803C7.87126 18.4442 7.89829 18.4442 7.91632 18.4442C7.95236 18.4442 7.97039 18.4442 7.9794 18.5073C7.9794 18.5073 7.9794 18.5343 7.94335 18.5343V18.5253ZM8.44802 19.5346C8.30383 19.3093 8.1326 19.1021 8.01545 18.8588C8.00644 18.8407 7.99742 18.8137 8.02446 18.7867C8.10557 18.8137 8.17766 18.9489 8.27679 18.8497C8.38493 18.7416 8.24074 18.6605 8.18667 18.5253C8.44802 18.6244 8.67331 18.6515 8.90762 18.5974C8.99774 18.7596 9.00675 18.9308 8.97971 19.1021C8.94367 19.3364 8.79046 19.4716 8.5922 19.5707C8.53813 19.5977 8.48406 19.5977 8.44802 19.5346ZM9.75473 20.6161C9.68263 20.7062 9.61054 20.6972 9.52943 20.6251C9.38524 20.4989 9.21402 20.4178 9.09687 20.2646C9.05181 20.2105 8.96169 20.2376 8.91663 20.1655C8.82651 20.0393 8.73639 19.9131 8.64628 19.787C8.83252 19.6308 8.9677 19.6698 9.05181 19.9041C8.97971 19.9402 8.92564 19.832 8.84454 19.8861C8.91663 19.9672 9.00675 20.0303 9.09687 20.0844C9.15094 20.1114 9.20501 20.1294 9.25007 20.0844C9.28612 20.0393 9.30414 19.9942 9.26809 19.9312C9.24106 19.8951 9.21402 19.8591 9.21402 19.787C9.42129 19.8501 9.62856 19.8681 9.82682 19.787C9.89892 19.7599 9.92595 19.823 9.95299 19.8681C10.0611 20.0303 10.0251 20.3277 9.87188 20.5079C9.83584 20.553 9.79078 20.58 9.75473 20.6251V20.6161ZM10.0611 20.7783C10.0611 20.7783 10.0251 20.8053 10.0071 20.7963C9.97101 20.7783 9.93497 20.7602 9.95299 20.7062C9.95299 20.6882 9.97101 20.6611 10.0071 20.6611C10.0431 20.6882 10.0701 20.7242 10.0611 20.7783ZM10.8452 21.364C10.8001 21.4091 10.746 21.4091 10.692 21.3731C10.5658 21.2919 10.4216 21.2469 10.3135 21.1297C10.4306 21.0036 10.4396 20.9946 10.3405 20.8684C10.2954 20.8143 10.2324 20.7693 10.2594 20.6701C10.4757 20.7332 10.701 20.7963 10.9263 20.7062C11.0074 20.6701 11.0614 20.7332 11.0614 20.8233C11.0705 21.0306 10.9803 21.2018 10.8452 21.355V21.364ZM10.8902 20.4809C10.719 20.571 10.4036 20.535 10.2594 20.4088C10.2053 20.3637 10.1693 20.3097 10.1873 20.2195C10.2053 20.1294 10.1963 20.0303 10.1963 19.9402C10.1963 19.805 10.2414 19.778 10.3585 19.823C10.3946 19.841 10.4216 19.8681 10.4577 19.8861C10.5117 19.9131 10.5658 19.9221 10.6109 19.8861C10.6649 19.832 10.6469 19.7689 10.6109 19.7149C10.5568 19.6338 10.4757 19.5617 10.4396 19.4175C10.692 19.5436 10.9173 19.5977 11.1606 19.5166C11.2327 19.4896 11.2597 19.5436 11.2777 19.5977C11.3678 19.8951 11.1606 20.3547 10.8812 20.4899L10.8902 20.4809ZM11.2146 21.0486C11.2146 21.0486 11.2327 20.9765 11.2507 20.9315C11.2958 20.7602 11.2958 20.7512 11.476 20.7963C11.5481 20.8143 11.6202 20.8323 11.6742 20.7602C11.7283 20.6882 11.6742 20.6251 11.6292 20.571C11.5751 20.4899 11.5301 20.4088 11.5481 20.2736C11.7554 20.3367 11.9356 20.3457 12.1158 20.2556C12.224 20.2015 12.2871 20.2646 12.2961 20.3637C12.3321 20.598 12.3231 20.8233 12.1429 21.0036C12.0257 21.1297 11.8995 21.2469 11.7373 21.328C11.6292 21.3821 11.521 21.3731 11.4129 21.355C11.2507 21.319 11.1876 21.1928 11.2237 21.0396L11.2146 21.0486ZM12.0978 21.9408C11.8365 21.8597 11.5751 21.7966 11.3408 21.6344C11.6382 21.6164 11.8815 21.4992 12.1158 21.328C12.2961 21.5443 12.1879 21.7335 12.0978 21.9408ZM12.4132 20.9946C12.4403 21.0666 12.4853 21.1207 12.4763 21.2198C12.3952 21.2649 12.3321 21.2018 12.269 21.1658C12.2961 21.1027 12.3231 21.0396 12.4132 20.9946ZM13.5217 21.2559C13.3865 21.6434 13.2243 21.8867 12.8007 21.9768C12.7286 21.9949 12.6565 22.0039 12.5935 21.9768C12.3501 21.8597 12.3501 21.9138 12.4132 21.6614C12.4222 21.5983 12.4312 21.5353 12.4312 21.4812C12.4493 21.4812 12.4583 21.4542 12.4763 21.4632C12.7827 21.4902 12.8007 21.4722 12.6836 21.1838C12.6655 21.1478 12.6655 21.1117 12.6565 21.0757C12.7106 21.0216 12.7827 21.0216 12.8368 21.0126C12.99 21.0036 13.1342 20.9765 13.2693 20.9225C13.4406 20.8684 13.5127 20.9225 13.5307 21.1027C13.5307 21.1568 13.5397 21.2199 13.5307 21.2649L13.5217 21.2559ZM14.2787 22.094C14.2066 22.112 14.1435 22.13 14.0714 22.1391C13.783 22.1751 13.774 22.1661 13.6028 21.8327C13.9182 21.8777 14.1705 21.7786 14.4048 21.6164C14.4319 21.6885 14.4589 21.7425 14.4679 21.7966C14.504 21.9768 14.4589 22.0489 14.2787 22.103V22.094ZM13.5757 21.5803C13.6839 21.3911 13.747 21.1928 13.7199 20.9855C13.765 20.9315 13.8101 20.9495 13.8641 20.9495C14.0083 20.9495 14.0534 20.8954 14.0263 20.7422C14.0173 20.6701 13.9362 20.607 13.9813 20.5169C14.1615 20.4899 14.3508 20.544 14.54 20.4809C14.6121 20.4538 14.6301 20.5169 14.6482 20.571C14.7022 20.7783 14.6662 20.9765 14.558 21.1658C14.3598 21.5172 14.0444 21.7335 13.5938 21.5803H13.5757ZM15.6485 21.5803C15.6124 21.7065 15.5313 21.7786 15.3871 21.8146C15.1618 21.8777 14.9365 21.9228 14.7022 21.9859C14.6211 21.8507 14.6932 21.7155 14.6391 21.5893C14.7293 21.5353 14.7833 21.5983 14.8464 21.6164C14.9636 21.6434 15.0266 21.6074 15.0176 21.4902C15.0086 21.3911 15.0537 21.3731 15.1168 21.3731C15.315 21.3731 15.5043 21.319 15.6755 21.1478C15.7115 21.337 15.6755 21.4542 15.6395 21.5713L15.6485 21.5803ZM15.2429 21.1748C14.9816 21.2108 14.8104 21.0576 14.8194 20.7963C14.8194 20.7512 14.8194 20.6972 14.8194 20.6521C14.8194 20.58 14.8554 20.535 14.9455 20.562C15.0447 20.598 15.1528 20.6611 15.2249 20.562C15.288 20.4719 15.1979 20.3818 15.1708 20.3006C15.1078 20.1204 15.1168 20.1114 15.2429 20.1204C15.5043 20.1204 15.6665 20.0844 15.8377 20.0303C15.9909 19.9762 15.9999 19.9852 16.036 20.1474C16.09 20.4088 16.027 20.6341 15.8377 20.8233C15.6665 20.9946 15.5043 21.1568 15.2429 21.1838V21.1748ZM16.5136 21.364C16.3334 21.4091 16.1802 21.5082 16.0089 21.5713C15.9639 21.5893 15.9278 21.6164 15.8647 21.6164C15.8287 21.5263 15.8647 21.4361 15.8647 21.346C15.8647 21.2379 15.8918 21.1928 16.0179 21.2289C16.2072 21.2829 16.2613 21.2108 16.1982 21.0216C16.1802 20.9585 16.1621 20.9044 16.1261 20.8233C16.3334 20.7963 16.5316 20.8053 16.7028 20.7062C16.7569 20.6701 16.811 20.6882 16.838 20.7783C16.9101 21.0847 16.802 21.301 16.5046 21.3731L16.5136 21.364ZM16.6488 20.4989C16.5496 20.544 16.4505 20.607 16.3334 20.598C16.2523 20.598 16.1802 20.58 16.2162 20.4719C16.2613 20.3277 16.2252 20.1745 16.2432 20.0123C16.3424 19.9942 16.4145 20.0393 16.4956 20.0573C16.6127 20.0753 16.6668 20.0123 16.6398 19.8951C16.6217 19.823 16.5947 19.7419 16.5767 19.6698C16.5677 19.6067 16.5677 19.5436 16.5587 19.4625C16.802 19.4896 17.0363 19.4265 17.2616 19.3184C17.3517 19.832 17.0994 20.3187 16.6488 20.4989ZM17.1354 20.4899C17.1444 20.4088 17.2165 20.3727 17.2796 20.3277C17.2796 20.4538 17.2315 20.5079 17.1354 20.4899ZM18.1808 20.571C18.1628 20.6701 17.9645 20.9225 17.8744 20.9225C17.6311 20.9315 17.4148 21.0306 17.1985 21.1297C17.1715 21.1387 17.1354 21.1387 17.0813 21.1478C17.0813 21.0757 17.0813 21.0306 17.0904 20.9855C17.1024 20.8113 17.1895 20.7452 17.3517 20.7873C17.4779 20.8143 17.5409 20.7693 17.5229 20.6431C17.5229 20.544 17.4779 20.4448 17.4689 20.3367C17.4508 20.1745 17.4689 20.1474 17.613 20.1294C17.7572 20.1114 17.8924 20.1024 18.0096 19.9942C18.0636 19.9492 18.1087 19.9942 18.1177 20.0393C18.1447 20.2105 18.1988 20.3818 18.1718 20.553L18.1808 20.571ZM18.1808 19.6067C18.0186 19.7419 17.8564 19.8861 17.6401 19.9312C17.4869 19.9582 17.4779 19.9582 17.4869 19.805C17.4869 19.7599 17.4869 19.7149 17.4959 19.6608C17.4959 19.6248 17.4959 19.5977 17.4959 19.5617C17.4959 19.3995 17.577 19.3184 17.7392 19.3184C17.9645 19.3184 17.9915 19.2913 17.9285 19.075C17.8924 18.9489 17.8834 18.8137 17.8654 18.6785C17.8564 18.5974 17.8834 18.5704 17.9645 18.5523C18.0997 18.5343 18.2258 18.4893 18.352 18.4532C18.4241 18.4262 18.4782 18.4532 18.4962 18.5253C18.5142 18.5884 18.5413 18.6515 18.5322 18.7056C18.5142 19.039 18.4782 19.3724 18.1898 19.6067H18.1808ZM19.2532 20.4268C19.1451 20.553 18.8296 20.6611 18.6134 20.6521C18.5953 20.6521 18.5593 20.6341 18.5322 20.6431C18.3881 20.6701 18.379 20.598 18.379 20.4809C18.379 20.3727 18.379 20.2646 18.361 20.1474C18.352 20.0303 18.3971 19.9942 18.5052 19.9942C18.8387 19.9762 18.8387 19.9762 18.7485 19.6698C18.6855 19.4535 18.7035 19.4175 18.9288 19.3634C19.0639 19.3364 19.1811 19.2733 19.2983 19.2192C19.3794 19.1832 19.4154 19.2012 19.4424 19.2733C19.4515 19.3003 19.4785 19.3274 19.4785 19.3634C19.5236 19.7419 19.5326 20.1204 19.2622 20.4358L19.2532 20.4268ZM19.6587 18.8227C19.7398 18.8407 19.7218 18.9038 19.7038 18.9489C19.6677 19.021 19.6047 18.9939 19.5416 18.9849C19.5416 18.9038 19.6047 18.8588 19.6587 18.8137V18.8227ZM19.6317 20.2466C19.7038 20.2826 19.7038 20.3547 19.7849 20.4358C19.6347 20.4178 19.5836 20.3547 19.6317 20.2466ZM19.6858 19.7599C19.7038 19.6157 19.7128 19.4806 19.6497 19.3454C19.6047 19.2553 19.6497 19.2102 19.7398 19.1922C19.7759 19.1922 19.8209 19.1922 19.857 19.1742C19.9471 19.1471 19.9832 19.075 19.9561 18.9849C19.9471 18.9308 19.9111 18.8858 19.884 18.8317C19.7939 18.6244 19.8209 18.5704 20.0282 18.4893C20.0823 18.4712 20.1273 18.4442 20.1724 18.4172C20.2175 18.3991 20.2535 18.3721 20.2986 18.3451C20.641 18.6335 20.632 18.9759 20.5149 19.3454C20.4788 19.4716 20.4157 19.5887 20.3617 19.7149C20.2805 19.9131 20.1093 19.9672 19.9291 20.0033C19.7398 20.0483 19.6587 19.9582 19.6768 19.7599H19.6858ZM20.6861 20.2826C20.6681 20.3727 20.623 20.4178 20.5509 20.4629C20.3617 20.58 20.0102 20.5079 19.9201 20.3367C19.884 20.2646 19.893 20.1925 19.9741 20.1925C20.2535 20.1925 20.4157 20.0303 20.5689 19.832C20.5689 19.823 20.596 19.823 20.623 19.805C20.6681 19.9582 20.7221 20.1114 20.6771 20.2826H20.6861ZM20.6771 18.4532C20.641 18.3541 20.8303 18.2189 20.9384 18.282C21.1277 18.3811 21.3349 18.4803 21.4791 18.6785C21.2448 18.7596 21.0646 18.9038 20.8122 18.9399C20.7582 18.7776 20.7311 18.6064 20.6771 18.4532ZM20.8303 20.553C20.8303 20.4719 20.8573 20.4178 20.9024 20.3818C20.9384 20.3547 21.3259 20.3367 21.416 20.3547C21.2538 20.5169 21.0556 20.535 20.8303 20.553ZM21.7134 19.5437C21.7405 20.0213 21.4341 20.1384 21.0285 20.1565C20.9114 20.1565 20.8573 20.0934 20.8573 19.9852C20.8573 19.9312 20.8573 19.8771 20.8573 19.823C20.8393 19.6428 20.8393 19.6338 21.0105 19.6428C21.0736 19.6428 21.1186 19.6248 21.1457 19.5707C21.1727 19.5166 21.1547 19.4716 21.1186 19.4175C20.9294 19.1742 20.9384 19.1742 21.1997 19.048C21.2809 19.0029 21.362 18.9579 21.4431 18.9038C21.5422 18.8317 21.5963 18.8768 21.6323 18.9759C21.6954 19.1381 21.7585 19.3003 21.7224 19.4806C21.7224 19.5076 21.7224 19.5346 21.7224 19.5527L21.7134 19.5437Z" fill="#58595B"/>
<path d="M5.65498 10.4237C5.48375 10.2344 5.2945 10.1173 5.01514 10.1984C4.6096 10.3065 4.3753 10.5589 4.25814 10.9554C4.12296 11.451 4.46541 11.8205 4.97909 11.8025C5.39363 11.7935 5.83521 11.2528 5.8262 10.8292C5.79015 10.694 5.76312 10.5408 5.66399 10.4237H5.65498ZM5.59189 11.1176C5.5198 11.2618 5.47474 11.415 5.30351 11.4961C5.35759 10.7481 5.04217 10.658 4.55553 10.7571C4.70873 10.4687 4.97909 10.3606 5.28549 10.4327C5.42968 10.4687 5.54683 10.5228 5.60992 10.658C5.68201 10.8112 5.673 10.9554 5.60992 11.1176H5.59189Z" fill="#58595B"/>
</g>
<defs>
<clipPath id="clip0_6387_62240">
<rect width="19.8621" height="20.6821" fill="white" transform="translate(2.06836 1.65517)"/>
</clipPath>
</defs>
</svg>
