<svg width="24" height="24" viewBox="0 0 24 24" fill="none" xmlns="http://www.w3.org/2000/svg">
<path d="M21 11.2818V5.71818C21 4.49091 20.4729 4 19.1635 4H15.8365C14.5271 4 14 4.49091 14 5.71818V11.2818C14 12.5091 14.5271 13 15.8365 13H19.1635C20.4729 13 21 12.5091 21 11.2818Z" stroke="#999999" stroke-width="1.5" stroke-linecap="round" stroke-linejoin="round"/>
<path d="M21 19.25V17.75C21 16.5 20.4729 16 19.1635 16H15.8365C14.5271 16 14 16.5 14 17.75V19.25C14 20.5 14.5271 21 15.8365 21H19.1635C20.4729 21 21 20.5 21 19.25Z" stroke="#999999" stroke-width="1.5" stroke-linecap="round" stroke-linejoin="round"/>
<path d="M11 13.7182V19.2818C11 20.5091 10.3976 21 8.90118 21H5.09882C3.60235 21 3 20.5091 3 19.2818V13.7182C3 12.4909 3.60235 12 5.09882 12H8.90118C10.3976 12 11 12.4909 11 13.7182Z" stroke="#999999" stroke-width="1.5" stroke-linecap="round" stroke-linejoin="round"/>
<path d="M11 5.75V7.25C11 8.5 10.3976 9 8.90118 9H5.09882C3.60235 9 3 8.5 3 7.25V5.75C3 4.5 3.60235 4 5.09882 4H8.90118C10.3976 4 11 4.5 11 5.75Z" stroke="#999999" stroke-width="1.5" stroke-linecap="round" stroke-linejoin="round"/>
</svg>
