<svg width="24" height="24" viewBox="0 0 24 24" fill="none" xmlns="http://www.w3.org/2000/svg">
<path d="M12 22C17.5228 22 22 17.5228 22 12C22 6.47715 17.5228 2 12 2C6.47715 2 2 6.47715 2 12C2 17.5228 6.47715 22 12 22Z" fill="#58595B"/>
<path d="M11.9987 20.7917C16.8542 20.7917 20.7904 16.8555 20.7904 12C20.7904 7.1445 16.8542 3.20833 11.9987 3.20833C7.1432 3.20833 3.20703 7.1445 3.20703 12C3.20703 16.8555 7.1432 20.7917 11.9987 20.7917Z" fill="white"/>
<path d="M8.14952 11.7083C8.19953 11.9083 8.13286 12.1417 8.12452 12.3667C8.12452 12.4083 8.09952 12.4417 8.08286 12.4833C8.03286 12.6167 8.01619 12.7583 7.95786 12.8833C7.88286 13.025 7.74952 13.1167 7.65786 13.2417C7.55786 13.375 7.42452 13.4667 7.27452 13.5417C7.23286 13.5667 7.17452 13.575 7.13286 13.5917C7.11619 13.5917 7.09119 13.5917 7.09119 13.6C7.04119 13.725 6.93286 13.6667 6.84952 13.6833C6.75786 13.7 6.66619 13.75 6.56619 13.7333H6.54952C6.41619 13.825 6.26619 13.7417 6.12452 13.75C6.04952 13.75 5.97452 13.7583 5.90786 13.7083C5.85786 13.675 5.81619 13.6833 5.76619 13.7083C5.69119 13.75 5.60786 13.7083 5.58286 13.6333C5.57452 13.6 5.56619 13.5833 5.53286 13.5667C5.29952 13.425 5.16619 13.2 5.04119 12.9667C5.00786 12.9 4.96619 12.8417 4.95786 12.7667C4.95786 12.7333 4.92452 12.7167 4.89119 12.7083C4.81619 12.6917 4.79952 12.6417 4.82452 12.575C4.84119 12.5333 4.84119 12.5083 4.82452 12.475C4.81619 12.4583 4.80786 12.4333 4.80786 12.4167C4.80786 12.2083 4.76619 12 4.79119 11.7833C4.79119 11.7667 4.79119 11.75 4.79119 11.725C4.75786 11.5083 4.85786 11.3417 4.97452 11.175C5.00786 11.125 5.03286 11.0667 5.06619 11.0083C5.08286 10.9833 5.09119 10.95 5.12452 10.9417C5.17452 10.925 5.16619 10.8833 5.14952 10.85C5.11619 10.775 5.16619 10.7333 5.21619 10.7333C5.33286 10.7417 5.38286 10.6667 5.44952 10.6C5.59952 10.4417 5.78286 10.3333 5.99119 10.2833C6.22452 10.225 6.45786 10.175 6.69119 10.2C6.94952 10.2333 7.21619 10.275 7.42453 10.4667C7.56619 10.6 7.69119 10.7583 7.82452 10.9083C7.93286 11.0417 8.01619 11.175 8.07452 11.3333C8.11619 11.4333 8.16619 11.5333 8.15786 11.675L8.14952 11.7083ZM7.58286 13.1167C7.64119 13.1167 7.66619 13.1 7.69119 13.075C7.77452 12.975 7.85786 12.8833 7.90786 12.7583C7.94119 12.675 7.93286 12.6417 7.85786 12.6C7.70786 12.525 7.54119 12.5 7.38286 12.45C7.19952 12.4 7.00786 12.35 6.82452 12.3C6.77452 12.2833 6.74952 12.3167 6.72452 12.3417C6.69952 12.375 6.73286 12.3917 6.74952 12.4167C6.82452 12.5167 6.91619 12.6083 7.00786 12.6917C7.12453 12.8 7.22452 12.9167 7.35786 13C7.43286 13.05 7.49952 13.1083 7.56619 13.1083L7.58286 13.1167ZM6.39119 13.1667C6.39119 13.2583 6.39119 13.3667 6.40786 13.4833C6.42452 13.6083 6.45786 13.6417 6.58286 13.6167C6.67452 13.6 6.75786 13.575 6.84952 13.5667C6.93286 13.5667 6.94952 13.525 6.94119 13.4583C6.93286 13.3917 6.90786 13.325 6.87452 13.2583C6.75786 13.05 6.72452 12.8083 6.63286 12.5917C6.59952 12.5167 6.56619 12.4917 6.46619 12.5C6.37452 12.5 6.36619 12.575 6.37452 12.625C6.39952 12.8 6.39119 12.975 6.39953 13.1667H6.39119ZM6.47452 11.0083C6.47452 11.15 6.47452 11.2833 6.47452 11.425C6.47452 11.4667 6.48286 11.5083 6.53286 11.5167C6.57452 11.525 6.60786 11.5167 6.64119 11.4833C6.67453 11.4417 6.70786 11.4 6.73286 11.35C6.78286 11.25 6.79953 11.1333 6.84952 11.025C6.92453 10.8583 6.94119 10.6833 6.99119 10.5083C6.99952 10.4667 6.99119 10.425 6.94952 10.4167C6.82452 10.3833 6.69119 10.3667 6.55786 10.3667C6.54119 10.3667 6.49952 10.3667 6.50786 10.3917C6.54119 10.4667 6.48286 10.5333 6.48286 10.6083C6.48286 10.7417 6.48286 10.8667 6.48286 11L6.47452 11.0083ZM7.15786 12.0167C7.08286 12 6.99119 12.0333 6.89952 12.0333C6.83286 12.0333 6.79952 12.1167 6.84119 12.1667C6.85786 12.1833 6.88286 12.1917 6.91619 12.2C7.07452 12.25 7.23286 12.2917 7.39119 12.3417C7.56619 12.4 7.74119 12.425 7.92453 12.4167C7.99953 12.4167 8.04119 12.375 8.04119 12.3C8.04119 12.2333 8.04119 12.1583 8.05786 12.0917C8.07452 12.0083 8.04119 11.975 7.96619 11.9667C7.81619 11.95 7.66619 11.9667 7.52452 11.9833C7.40786 12 7.29119 12.025 7.15786 12.0167ZM6.29952 12.725C6.34119 12.6417 6.25786 12.5667 6.26619 12.475C6.26619 12.4333 6.21619 12.4417 6.18286 12.4333C6.14952 12.425 6.13286 12.45 6.12452 12.475C6.09952 12.5417 6.09119 12.6083 6.06619 12.6667C5.95786 12.9083 5.89119 13.1583 5.82452 13.4083C5.79952 13.5167 5.89119 13.6 5.99119 13.5667C6.03286 13.55 6.04119 13.5667 6.06619 13.5917C6.11619 13.65 6.19952 13.6583 6.26619 13.6417C6.33286 13.625 6.30786 13.5667 6.30786 13.5167C6.30786 13.475 6.30786 13.4417 6.30786 13.4C6.30786 13.175 6.31619 12.95 6.29119 12.725H6.29952ZM7.26619 11.9167C7.51619 11.9 7.76619 11.8667 8.01619 11.8333C8.04952 11.8333 8.07452 11.8083 8.07452 11.775C8.06619 11.6167 8.04119 11.4583 7.93286 11.325C7.90786 11.2917 7.86619 11.2583 7.82452 11.2917C7.71619 11.3667 7.58286 11.4167 7.47452 11.5C7.32453 11.6167 7.17453 11.7333 7.02452 11.85C7.00786 11.8583 6.97452 11.8667 6.97452 11.8917C6.97452 11.925 7.00786 11.925 7.02452 11.9333C7.07453 11.9583 7.12452 11.95 7.17452 11.9333C7.20786 11.925 7.23286 11.9167 7.25786 11.925L7.26619 11.9167ZM5.30786 12C5.26619 12 5.21619 11.9917 5.16619 12.0083C5.11619 12.025 5.06619 12.0417 5.00786 12.0417C4.93286 12.0417 4.89119 12.05 4.91619 12.1417C4.93286 12.2167 4.91619 12.3 4.93286 12.375C4.94952 12.5417 4.96619 12.55 5.12452 12.5C5.37452 12.4167 5.61619 12.35 5.84952 12.2167C5.89119 12.1917 5.88286 12.125 5.94952 12.125C6.00786 12.125 6.00786 12.075 5.97452 12.0333C5.90786 11.9583 5.81619 11.9583 5.72452 11.9667C5.59119 11.975 5.46619 12.0083 5.32452 12H5.30786ZM6.77452 11.6417C6.85786 11.6417 6.91619 11.6167 6.97452 11.5417C7.04119 11.45 7.11619 11.35 7.18286 11.2583C7.27452 11.1333 7.36619 11.0083 7.45786 10.8833C7.48286 10.8417 7.51619 10.7917 7.48286 10.75C7.40786 10.65 7.31619 10.55 7.18286 10.5083C7.14119 10.5 7.11619 10.5083 7.10786 10.55C7.09119 10.6333 7.04119 10.6917 7.01619 10.7667C6.93286 11.0333 6.81619 11.2833 6.70786 11.5417C6.68286 11.6 6.70786 11.6333 6.76619 11.6333L6.77452 11.6417ZM6.09119 11.425C6.09952 11.375 6.06619 11.3333 6.04952 11.2833C5.99952 11.05 5.94952 10.8167 5.89952 10.5833C5.88286 10.4917 5.84119 10.4833 5.76619 10.5333C5.63286 10.625 5.52452 10.7417 5.40786 10.85C5.34119 10.9083 5.36619 10.95 5.40786 10.9917C5.46619 11.05 5.53286 11.1 5.59119 11.1583C5.70786 11.2833 5.83286 11.4 5.98286 11.4917C6.05786 11.5417 6.08286 11.5167 6.08286 11.4167L6.09119 11.425ZM6.40786 10.65C6.40786 10.5667 6.34952 10.5 6.35786 10.4167C6.35786 10.3917 6.32452 10.3833 6.29952 10.3833C6.23286 10.3833 6.16619 10.4083 6.09952 10.4083C5.98286 10.4083 5.98286 10.475 5.99952 10.5583C6.04953 10.85 6.09952 11.1417 6.15786 11.425C6.16619 11.475 6.18286 11.5417 6.25786 11.5417C6.33286 11.5417 6.39119 11.5 6.39953 11.4167C6.39953 11.35 6.40786 11.275 6.40786 11.2083C6.40786 11.025 6.40786 10.8333 6.40786 10.65ZM6.04952 12.5167C6.04119 12.475 6.01619 12.45 5.97452 12.45C5.94119 12.45 5.90786 12.475 5.88286 12.5C5.79952 12.5917 5.72452 12.6917 5.63286 12.7667C5.50786 12.8667 5.39952 12.975 5.28286 13.0833C5.26619 13.1 5.24952 13.1167 5.26619 13.1417C5.34119 13.275 5.43286 13.375 5.55786 13.4583C5.59952 13.4833 5.63286 13.4833 5.65786 13.4417C5.74952 13.3 5.83286 13.15 5.87452 12.9833C5.90786 12.8417 5.94952 12.7083 6.01619 12.5833C6.02452 12.5583 6.04119 12.5333 6.04952 12.5083V12.5167ZM6.09119 12.0417C6.09119 12.1083 6.09952 12.1667 6.13286 12.2C6.20786 12.2667 6.26619 12.3417 6.38286 12.35C6.51619 12.3583 6.56619 12.3333 6.58286 12.2C6.58286 12.15 6.60786 12.125 6.65786 12.1167C6.71619 12.1167 6.74119 12.0667 6.73286 12.0167C6.71619 11.875 6.71619 11.725 6.51619 11.7167C6.51619 11.7167 6.49952 11.7083 6.49119 11.7C6.37452 11.6583 6.19119 11.7083 6.12452 11.8C6.06619 11.875 6.09952 11.975 6.08286 12.0417H6.09119ZM5.88286 11.7083C5.88286 11.7083 5.95786 11.725 5.97452 11.6833C5.99119 11.65 5.96619 11.6167 5.94119 11.6C5.73286 11.4167 5.49952 11.25 5.31619 11.0333C5.28286 10.9917 5.24119 10.9917 5.19952 11.0417C5.15786 11.1 5.12452 11.1583 5.09119 11.2167C4.99952 11.3667 5.03286 11.4417 5.20786 11.4917C5.33286 11.525 5.44119 11.5917 5.56619 11.6083C5.68286 11.625 5.77452 11.7167 5.89119 11.7167L5.88286 11.7083ZM6.91619 11.7583H6.93286C7.09952 11.75 7.20786 11.6333 7.32452 11.5417C7.45786 11.425 7.59952 11.3167 7.75786 11.2417C7.80786 11.2167 7.82452 11.1917 7.79953 11.15C7.74119 11.0583 7.69119 10.9667 7.59119 10.925C7.55786 10.9083 7.53286 10.9 7.49952 10.9417C7.44119 11.0167 7.38286 11.0833 7.32452 11.1583C7.24952 11.2667 7.17452 11.375 7.08286 11.4667C7.00786 11.5417 6.95786 11.6333 6.89952 11.7167C6.88286 11.7417 6.86619 11.7667 6.91619 11.775V11.7583ZM7.44952 13.275C7.44952 13.225 7.41619 13.1917 7.37452 13.1583C7.18286 13 6.98286 12.85 6.83286 12.65C6.81619 12.6333 6.79119 12.6167 6.76619 12.6C6.74952 12.5917 6.73286 12.5833 6.71619 12.6C6.69119 12.6167 6.69952 12.6417 6.70786 12.6583C6.76619 12.7833 6.78286 12.925 6.85786 13.0417C6.92452 13.1583 6.92452 13.2917 6.98286 13.4083C7.01619 13.4667 7.05786 13.5167 7.11619 13.475C7.19119 13.4167 7.27452 13.4083 7.34952 13.375C7.39119 13.3583 7.43286 13.3333 7.44952 13.2833V13.275ZM5.17452 12.9667C5.27452 12.9667 5.35786 12.9167 5.42452 12.8583C5.58286 12.725 5.73286 12.575 5.88286 12.4333C5.90786 12.4167 5.93286 12.3917 5.92452 12.3583C5.90786 12.3167 5.87452 12.3167 5.84119 12.3167C5.81619 12.3167 5.79119 12.325 5.76619 12.3333C5.52452 12.425 5.28286 12.525 5.04119 12.625C5.00786 12.6417 4.99952 12.65 5.01619 12.6833C5.04952 12.7583 5.08286 12.8417 5.11619 12.9167C5.13286 12.9417 5.14119 12.975 5.18286 12.9583L5.17452 12.9667ZM4.90786 11.7167C4.90786 11.8917 4.89952 11.8833 5.05786 11.875C5.07452 11.875 5.09119 11.875 5.09952 11.875C5.33286 11.925 5.56619 11.875 5.79952 11.875C5.82452 11.875 5.85786 11.8667 5.86619 11.8333C5.86619 11.7917 5.83286 11.8 5.80786 11.7917C5.57452 11.725 5.34119 11.6417 5.10786 11.5583C4.93286 11.4917 4.91619 11.5167 4.90786 11.7C4.90786 11.7 4.90786 11.7 4.90786 11.7083V11.7167Z" fill="#58595B"/>
<path d="M13.6749 11.7083C13.7249 11.9083 13.6582 12.1417 13.6499 12.3667C13.6499 12.4083 13.6249 12.4417 13.6082 12.4833C13.5582 12.6167 13.5416 12.7583 13.4832 12.8833C13.4082 13.025 13.2749 13.1167 13.1832 13.2417C13.0832 13.375 12.9499 13.4667 12.7999 13.5417C12.7582 13.5667 12.6999 13.575 12.6582 13.5917C12.6416 13.5917 12.6166 13.5917 12.6166 13.6C12.5666 13.725 12.4582 13.6667 12.3749 13.6833C12.2832 13.7 12.1916 13.75 12.0916 13.7333H12.0749C11.9416 13.825 11.7916 13.7417 11.6499 13.75C11.5749 13.75 11.4999 13.7583 11.4332 13.7083C11.3832 13.675 11.3416 13.6833 11.2916 13.7083C11.2166 13.75 11.1332 13.7083 11.1082 13.6333C11.0999 13.6 11.0916 13.5833 11.0582 13.5667C10.8249 13.425 10.6916 13.2 10.5666 12.9667C10.5332 12.9 10.4916 12.8417 10.4832 12.7667C10.4832 12.7333 10.4499 12.7167 10.4166 12.7083C10.3416 12.6917 10.3249 12.6417 10.3499 12.575C10.3666 12.5333 10.3666 12.5083 10.3499 12.475C10.3416 12.4583 10.3332 12.4333 10.3332 12.4167C10.3332 12.2083 10.2916 12 10.3166 11.7833C10.3166 11.7667 10.3166 11.75 10.3166 11.725C10.2832 11.5083 10.3832 11.3417 10.4999 11.175C10.5332 11.125 10.5582 11.0667 10.5916 11.0083C10.6082 10.9833 10.6166 10.95 10.6499 10.9417C10.6999 10.925 10.6916 10.8833 10.6749 10.85C10.6416 10.775 10.6916 10.7333 10.7416 10.7333C10.8582 10.7417 10.9082 10.6667 10.9749 10.6C11.1249 10.4417 11.3082 10.3333 11.5166 10.2833C11.7499 10.225 11.9832 10.175 12.2166 10.2C12.4749 10.2333 12.7416 10.275 12.9499 10.4667C13.0916 10.6 13.2166 10.7583 13.3499 10.9083C13.4582 11.0417 13.5416 11.175 13.5999 11.3333C13.6416 11.4333 13.6916 11.5333 13.6832 11.675L13.6749 11.7083ZM13.1082 13.1167C13.1666 13.1167 13.1916 13.1 13.2166 13.075C13.2999 12.975 13.3832 12.8833 13.4332 12.7583C13.4666 12.675 13.4582 12.6417 13.3832 12.6C13.2332 12.525 13.0666 12.5 12.9082 12.45C12.7249 12.4 12.5332 12.35 12.3499 12.3C12.2999 12.2833 12.2749 12.3167 12.2499 12.3417C12.2249 12.375 12.2582 12.3917 12.2749 12.4167C12.3499 12.5167 12.4416 12.6083 12.5332 12.6917C12.6499 12.8 12.7499 12.9167 12.8832 13C12.9582 13.05 13.0249 13.1083 13.0916 13.1083L13.1082 13.1167ZM11.9166 13.1667C11.9166 13.2583 11.9166 13.3667 11.9332 13.4833C11.9499 13.6083 11.9832 13.6417 12.1082 13.6167C12.1999 13.6 12.2832 13.575 12.3749 13.5667C12.4582 13.5667 12.4749 13.525 12.4666 13.4583C12.4582 13.3917 12.4332 13.325 12.3999 13.2583C12.2832 13.05 12.2499 12.8083 12.1582 12.5917C12.1249 12.5167 12.0916 12.4917 11.9916 12.5C11.8999 12.5 11.8916 12.575 11.8999 12.625C11.9249 12.8 11.9166 12.975 11.9249 13.1667H11.9166ZM11.9999 11.0083C11.9999 11.15 11.9999 11.2833 11.9999 11.425C11.9999 11.4667 12.0082 11.5083 12.0582 11.5167C12.0999 11.525 12.1332 11.5167 12.1666 11.4833C12.1999 11.4417 12.2332 11.4 12.2582 11.35C12.3082 11.25 12.3249 11.1333 12.3749 11.025C12.4499 10.8583 12.4666 10.6833 12.5166 10.5083C12.5249 10.4667 12.5166 10.425 12.4749 10.4167C12.3499 10.3833 12.2166 10.3667 12.0832 10.3667C12.0666 10.3667 12.0249 10.3667 12.0332 10.3917C12.0666 10.4667 12.0082 10.5333 12.0082 10.6083C12.0082 10.7417 12.0082 10.8667 12.0082 11L11.9999 11.0083ZM12.6832 12.0167C12.6082 12 12.5166 12.0333 12.4249 12.0333C12.3582 12.0333 12.3249 12.1167 12.3666 12.1667C12.3832 12.1833 12.4082 12.1917 12.4416 12.2C12.5999 12.25 12.7582 12.2917 12.9166 12.3417C13.0916 12.4 13.2666 12.425 13.4499 12.4167C13.5249 12.4167 13.5666 12.375 13.5666 12.3C13.5666 12.2333 13.5666 12.1583 13.5832 12.0917C13.5999 12.0083 13.5666 11.975 13.4916 11.9667C13.3416 11.95 13.1916 11.9667 13.0499 11.9833C12.9332 12 12.8166 12.025 12.6832 12.0167ZM11.8249 12.725C11.8666 12.6417 11.7832 12.5667 11.7916 12.475C11.7916 12.4333 11.7416 12.4417 11.7082 12.4333C11.6749 12.425 11.6582 12.45 11.6499 12.475C11.6249 12.5417 11.6166 12.6083 11.5916 12.6667C11.4832 12.9083 11.4166 13.1583 11.3499 13.4083C11.3249 13.5167 11.4166 13.6 11.5166 13.5667C11.5582 13.55 11.5666 13.5667 11.5916 13.5917C11.6416 13.65 11.7249 13.6583 11.7916 13.6417C11.8582 13.625 11.8332 13.5667 11.8332 13.5167C11.8332 13.475 11.8332 13.4417 11.8332 13.4C11.8332 13.175 11.8416 12.95 11.8166 12.725H11.8249ZM12.7916 11.9167C13.0416 11.9 13.2916 11.8667 13.5416 11.8333C13.5749 11.8333 13.5999 11.8083 13.5999 11.775C13.5916 11.6167 13.5666 11.4583 13.4582 11.325C13.4332 11.2917 13.3916 11.2583 13.3499 11.2917C13.2416 11.3667 13.1082 11.4167 12.9999 11.5C12.8499 11.6167 12.6999 11.7333 12.5499 11.85C12.5332 11.8583 12.4999 11.8667 12.4999 11.8917C12.4999 11.925 12.5332 11.925 12.5499 11.9333C12.5999 11.9583 12.6499 11.95 12.6999 11.9333C12.7332 11.925 12.7582 11.9167 12.7832 11.925L12.7916 11.9167ZM10.8332 12C10.7916 12 10.7416 11.9917 10.6916 12.0083C10.6416 12.025 10.5916 12.0417 10.5332 12.0417C10.4582 12.0417 10.4166 12.05 10.4416 12.1417C10.4582 12.2167 10.4416 12.3 10.4582 12.375C10.4749 12.5417 10.4916 12.55 10.6499 12.5C10.8999 12.4167 11.1416 12.35 11.3749 12.2167C11.4166 12.1917 11.4082 12.125 11.4749 12.125C11.5332 12.125 11.5332 12.075 11.4999 12.0333C11.4332 11.9583 11.3416 11.9583 11.2499 11.9667C11.1166 11.975 10.9916 12.0083 10.8499 12H10.8332ZM12.2999 11.6417C12.3832 11.6417 12.4416 11.6167 12.4999 11.5417C12.5666 11.45 12.6416 11.35 12.7082 11.2583C12.7999 11.1333 12.8916 11.0083 12.9832 10.8833C13.0082 10.8417 13.0416 10.7917 13.0082 10.75C12.9332 10.65 12.8416 10.55 12.7082 10.5083C12.6666 10.5 12.6416 10.5083 12.6332 10.55C12.6166 10.6333 12.5666 10.6917 12.5416 10.7667C12.4582 11.0333 12.3416 11.2833 12.2332 11.5417C12.2082 11.6 12.2332 11.6333 12.2916 11.6333L12.2999 11.6417ZM11.6166 11.425C11.6249 11.375 11.5916 11.3333 11.5749 11.2833C11.5249 11.05 11.4749 10.8167 11.4249 10.5833C11.4082 10.4917 11.3666 10.4833 11.2916 10.5333C11.1582 10.625 11.0499 10.7417 10.9332 10.85C10.8666 10.9083 10.8916 10.95 10.9332 10.9917C10.9916 11.05 11.0582 11.1 11.1166 11.1583C11.2332 11.2833 11.3582 11.4 11.5082 11.4917C11.5832 11.5417 11.6082 11.5167 11.6082 11.4167L11.6166 11.425ZM11.9332 10.65C11.9332 10.5667 11.8749 10.5 11.8832 10.4167C11.8832 10.3917 11.8499 10.3833 11.8249 10.3833C11.7582 10.3833 11.6916 10.4083 11.6249 10.4083C11.5082 10.4083 11.5082 10.475 11.5249 10.5583C11.5749 10.85 11.6249 11.1417 11.6832 11.425C11.6916 11.475 11.7082 11.5417 11.7832 11.5417C11.8582 11.5417 11.9166 11.5 11.9249 11.4167C11.9249 11.35 11.9332 11.275 11.9332 11.2083C11.9332 11.025 11.9332 10.8333 11.9332 10.65ZM11.5749 12.5167C11.5666 12.475 11.5416 12.45 11.4999 12.45C11.4666 12.45 11.4332 12.475 11.4082 12.5C11.3249 12.5917 11.2499 12.6917 11.1582 12.7667C11.0332 12.8667 10.9249 12.975 10.8082 13.0833C10.7916 13.1 10.7749 13.1167 10.7916 13.1417C10.8666 13.275 10.9582 13.375 11.0832 13.4583C11.1249 13.4833 11.1582 13.4833 11.1832 13.4417C11.2749 13.3 11.3582 13.15 11.3999 12.9833C11.4332 12.8417 11.4749 12.7083 11.5416 12.5833C11.5499 12.5583 11.5666 12.5333 11.5749 12.5083V12.5167ZM11.6166 12.0417C11.6166 12.1083 11.6249 12.1667 11.6582 12.2C11.7332 12.2667 11.7916 12.3417 11.9082 12.35C12.0416 12.3583 12.0916 12.3333 12.1082 12.2C12.1082 12.15 12.1332 12.125 12.1832 12.1167C12.2416 12.1167 12.2666 12.0667 12.2582 12.0167C12.2416 11.875 12.2416 11.725 12.0416 11.7167C12.0416 11.7167 12.0249 11.7083 12.0166 11.7C11.8999 11.6583 11.7166 11.7083 11.6499 11.8C11.5916 11.875 11.6249 11.975 11.6082 12.0417H11.6166ZM11.4082 11.7083C11.4082 11.7083 11.4832 11.725 11.4999 11.6833C11.5166 11.65 11.4916 11.6167 11.4666 11.6C11.2582 11.4167 11.0249 11.25 10.8416 11.0333C10.8082 10.9917 10.7666 10.9917 10.7249 11.0417C10.6832 11.1 10.6499 11.1583 10.6166 11.2167C10.5249 11.3667 10.5582 11.4417 10.7332 11.4917C10.8582 11.525 10.9666 11.5917 11.0916 11.6083C11.2082 11.625 11.2999 11.7167 11.4166 11.7167L11.4082 11.7083ZM12.4416 11.7583H12.4582C12.6249 11.75 12.7332 11.6333 12.8499 11.5417C12.9832 11.425 13.1249 11.3167 13.2832 11.2417C13.3332 11.2167 13.3499 11.1917 13.3249 11.15C13.2666 11.0583 13.2166 10.9667 13.1166 10.925C13.0832 10.9083 13.0582 10.9 13.0249 10.9417C12.9666 11.0167 12.9082 11.0833 12.8499 11.1583C12.7749 11.2667 12.6999 11.375 12.6082 11.4667C12.5332 11.5417 12.4832 11.6333 12.4249 11.7167C12.4082 11.7417 12.3916 11.7667 12.4416 11.775V11.7583ZM12.9749 13.275C12.9749 13.225 12.9416 13.1917 12.8999 13.1583C12.7082 13 12.5082 12.85 12.3582 12.65C12.3416 12.6333 12.3166 12.6167 12.2916 12.6C12.2749 12.5917 12.2582 12.5833 12.2416 12.6C12.2166 12.6167 12.2249 12.6417 12.2332 12.6583C12.2916 12.7833 12.3082 12.925 12.3832 13.0417C12.4499 13.1583 12.4499 13.2917 12.5082 13.4083C12.5416 13.4667 12.5832 13.5167 12.6416 13.475C12.7166 13.4167 12.7999 13.4083 12.8749 13.375C12.9166 13.3583 12.9582 13.3333 12.9749 13.2833V13.275ZM10.6999 12.9667C10.7999 12.9667 10.8832 12.9167 10.9499 12.8583C11.1082 12.725 11.2582 12.575 11.4082 12.4333C11.4332 12.4167 11.4582 12.3917 11.4499 12.3583C11.4332 12.3167 11.3999 12.3167 11.3666 12.3167C11.3416 12.3167 11.3166 12.325 11.2916 12.3333C11.0499 12.425 10.8082 12.525 10.5666 12.625C10.5332 12.6417 10.5249 12.65 10.5416 12.6833C10.5749 12.7583 10.6082 12.8417 10.6416 12.9167C10.6582 12.9417 10.6666 12.975 10.7082 12.9583L10.6999 12.9667ZM10.4332 11.7167C10.4332 11.8917 10.4249 11.8833 10.5832 11.875C10.5999 11.875 10.6166 11.875 10.6249 11.875C10.8582 11.925 11.0916 11.875 11.3249 11.875C11.3499 11.875 11.3832 11.8667 11.3916 11.8333C11.3916 11.7917 11.3582 11.8 11.3332 11.7917C11.0999 11.725 10.8666 11.6417 10.6332 11.5583C10.4582 11.4917 10.4416 11.5167 10.4332 11.7C10.4332 11.7 10.4332 11.7 10.4332 11.7083V11.7167Z" fill="#58595B"/>
<path d="M19.2921 11.7083C19.3421 11.9083 19.2754 12.1417 19.2671 12.3667C19.2671 12.4083 19.2421 12.4417 19.2254 12.4833C19.1754 12.6167 19.1588 12.7583 19.1004 12.8833C19.0254 13.025 18.8921 13.1167 18.8004 13.2417C18.7004 13.375 18.5671 13.4667 18.4171 13.5417C18.3754 13.5667 18.3171 13.575 18.2754 13.5917C18.2588 13.5917 18.2338 13.5917 18.2338 13.6C18.1838 13.725 18.0754 13.6667 17.9921 13.6833C17.9004 13.7 17.8088 13.75 17.7088 13.7333H17.6921C17.5588 13.825 17.4088 13.7417 17.2671 13.75C17.1921 13.75 17.1171 13.7583 17.0504 13.7083C17.0004 13.675 16.9588 13.6833 16.9088 13.7083C16.8338 13.75 16.7504 13.7083 16.7254 13.6333C16.7171 13.6 16.7088 13.5833 16.6754 13.5667C16.4421 13.425 16.3088 13.2 16.1838 12.9667C16.1504 12.9 16.1088 12.8417 16.1004 12.7667C16.1004 12.7333 16.0671 12.7167 16.0338 12.7083C15.9588 12.6917 15.9421 12.6417 15.9671 12.575C15.9838 12.5333 15.9838 12.5083 15.9671 12.475C15.9588 12.4583 15.9504 12.4333 15.9504 12.4167C15.9504 12.2083 15.9088 12 15.9338 11.7833C15.9338 11.7667 15.9338 11.75 15.9338 11.725C15.9004 11.5083 16.0004 11.3417 16.1171 11.175C16.1504 11.125 16.1754 11.0667 16.2088 11.0083C16.2254 10.9833 16.2338 10.95 16.2671 10.9417C16.3171 10.925 16.3088 10.8833 16.2921 10.85C16.2588 10.775 16.3088 10.7333 16.3588 10.7333C16.4754 10.7417 16.5254 10.6667 16.5921 10.6C16.7421 10.4417 16.9254 10.3333 17.1338 10.2833C17.3671 10.225 17.6004 10.175 17.8338 10.2C18.0921 10.2333 18.3588 10.275 18.5671 10.4667C18.7088 10.6 18.8338 10.7583 18.9671 10.9083C19.0754 11.0417 19.1588 11.175 19.2171 11.3333C19.2588 11.4333 19.3088 11.5333 19.3004 11.675L19.2921 11.7083ZM18.7254 13.1167C18.7838 13.1167 18.8088 13.1 18.8338 13.075C18.9171 12.975 19.0004 12.8833 19.0504 12.7583C19.0838 12.675 19.0754 12.6417 19.0004 12.6C18.8504 12.525 18.6838 12.5 18.5254 12.45C18.3421 12.4 18.1504 12.35 17.9671 12.3C17.9171 12.2833 17.8921 12.3167 17.8671 12.3417C17.8421 12.375 17.8754 12.3917 17.8921 12.4167C17.9671 12.5167 18.0588 12.6083 18.1504 12.6917C18.2671 12.8 18.3671 12.9167 18.5004 13C18.5754 13.05 18.6421 13.1083 18.7088 13.1083L18.7254 13.1167ZM17.5338 13.1667C17.5338 13.2583 17.5338 13.3667 17.5504 13.4833C17.5671 13.6083 17.6004 13.6417 17.7254 13.6167C17.8171 13.6 17.9004 13.575 17.9921 13.5667C18.0754 13.5667 18.0921 13.525 18.0838 13.4583C18.0754 13.3917 18.0504 13.325 18.0171 13.2583C17.9004 13.05 17.8671 12.8083 17.7754 12.5917C17.7421 12.5167 17.7088 12.4917 17.6088 12.5C17.5171 12.5 17.5088 12.575 17.5171 12.625C17.5421 12.8 17.5338 12.975 17.5421 13.1667H17.5338ZM17.6171 11.0083C17.6171 11.15 17.6171 11.2833 17.6171 11.425C17.6171 11.4667 17.6254 11.5083 17.6754 11.5167C17.7171 11.525 17.7504 11.5167 17.7838 11.4833C17.8171 11.4417 17.8504 11.4 17.8754 11.35C17.9254 11.25 17.9421 11.1333 17.9921 11.025C18.0671 10.8583 18.0838 10.6833 18.1338 10.5083C18.1421 10.4667 18.1338 10.425 18.0921 10.4167C17.9671 10.3833 17.8338 10.3667 17.7004 10.3667C17.6838 10.3667 17.6421 10.3667 17.6504 10.3917C17.6838 10.4667 17.6254 10.5333 17.6254 10.6083C17.6254 10.7417 17.6254 10.8667 17.6254 11L17.6171 11.0083ZM18.3004 12.0167C18.2254 12 18.1338 12.0333 18.0421 12.0333C17.9754 12.0333 17.9421 12.1167 17.9838 12.1667C18.0004 12.1833 18.0254 12.1917 18.0588 12.2C18.2171 12.25 18.3754 12.2917 18.5338 12.3417C18.7088 12.4 18.8838 12.425 19.0671 12.4167C19.1421 12.4167 19.1838 12.375 19.1838 12.3C19.1838 12.2333 19.1838 12.1583 19.2004 12.0917C19.2171 12.0083 19.1838 11.975 19.1088 11.9667C18.9588 11.95 18.8088 11.9667 18.6671 11.9833C18.5504 12 18.4338 12.025 18.3004 12.0167ZM17.4421 12.725C17.4838 12.6417 17.4004 12.5667 17.4088 12.475C17.4088 12.4333 17.3588 12.4417 17.3254 12.4333C17.2921 12.425 17.2754 12.45 17.2671 12.475C17.2421 12.5417 17.2338 12.6083 17.2088 12.6667C17.1004 12.9083 17.0338 13.1583 16.9671 13.4083C16.9421 13.5167 17.0338 13.6 17.1338 13.5667C17.1754 13.55 17.1838 13.5667 17.2088 13.5917C17.2588 13.65 17.3421 13.6583 17.4088 13.6417C17.4754 13.625 17.4504 13.5667 17.4504 13.5167C17.4504 13.475 17.4504 13.4417 17.4504 13.4C17.4504 13.175 17.4588 12.95 17.4338 12.725H17.4421ZM18.4088 11.9167C18.6588 11.9 18.9088 11.8667 19.1588 11.8333C19.1921 11.8333 19.2171 11.8083 19.2171 11.775C19.2088 11.6167 19.1838 11.4583 19.0754 11.325C19.0504 11.2917 19.0088 11.2583 18.9671 11.2917C18.8588 11.3667 18.7254 11.4167 18.6171 11.5C18.4671 11.6167 18.3171 11.7333 18.1671 11.85C18.1504 11.8583 18.1171 11.8667 18.1171 11.8917C18.1171 11.925 18.1504 11.925 18.1671 11.9333C18.2171 11.9583 18.2671 11.95 18.3171 11.9333C18.3504 11.925 18.3754 11.9167 18.4004 11.925L18.4088 11.9167ZM16.4504 12C16.4088 12 16.3588 11.9917 16.3088 12.0083C16.2588 12.025 16.2088 12.0417 16.1504 12.0417C16.0754 12.0417 16.0338 12.05 16.0588 12.1417C16.0754 12.2167 16.0588 12.3 16.0754 12.375C16.0921 12.5417 16.1088 12.55 16.2671 12.5C16.5171 12.4167 16.7588 12.35 16.9921 12.2167C17.0338 12.1917 17.0254 12.125 17.0921 12.125C17.1504 12.125 17.1504 12.075 17.1171 12.0333C17.0504 11.9583 16.9588 11.9583 16.8671 11.9667C16.7338 11.975 16.6088 12.0083 16.4671 12H16.4504ZM17.9171 11.6417C18.0004 11.6417 18.0588 11.6167 18.1171 11.5417C18.1838 11.45 18.2588 11.35 18.3254 11.2583C18.4171 11.1333 18.5088 11.0083 18.6004 10.8833C18.6254 10.8417 18.6588 10.7917 18.6254 10.75C18.5504 10.65 18.4588 10.55 18.3254 10.5083C18.2838 10.5 18.2588 10.5083 18.2504 10.55C18.2338 10.6333 18.1838 10.6917 18.1588 10.7667C18.0754 11.0333 17.9588 11.2833 17.8504 11.5417C17.8254 11.6 17.8504 11.6333 17.9088 11.6333L17.9171 11.6417ZM17.2338 11.425C17.2421 11.375 17.2088 11.3333 17.1921 11.2833C17.1421 11.05 17.0921 10.8167 17.0421 10.5833C17.0254 10.4917 16.9838 10.4833 16.9088 10.5333C16.7754 10.625 16.6671 10.7417 16.5504 10.85C16.4838 10.9083 16.5088 10.95 16.5504 10.9917C16.6088 11.05 16.6754 11.1 16.7338 11.1583C16.8504 11.2833 16.9754 11.4 17.1254 11.4917C17.2004 11.5417 17.2254 11.5167 17.2254 11.4167L17.2338 11.425ZM17.5504 10.65C17.5504 10.5667 17.4921 10.5 17.5004 10.4167C17.5004 10.3917 17.4671 10.3833 17.4421 10.3833C17.3754 10.3833 17.3088 10.4083 17.2421 10.4083C17.1254 10.4083 17.1254 10.475 17.1421 10.5583C17.1921 10.85 17.2421 11.1417 17.3004 11.425C17.3088 11.475 17.3254 11.5417 17.4004 11.5417C17.4754 11.5417 17.5338 11.5 17.5421 11.4167C17.5421 11.35 17.5504 11.275 17.5504 11.2083C17.5504 11.025 17.5504 10.8333 17.5504 10.65ZM17.1921 12.5167C17.1838 12.475 17.1588 12.45 17.1171 12.45C17.0838 12.45 17.0504 12.475 17.0254 12.5C16.9421 12.5917 16.8671 12.6917 16.7754 12.7667C16.6504 12.8667 16.5421 12.975 16.4254 13.0833C16.4088 13.1 16.3921 13.1167 16.4088 13.1417C16.4838 13.275 16.5754 13.375 16.7004 13.4583C16.7421 13.4833 16.7754 13.4833 16.8004 13.4417C16.8921 13.3 16.9754 13.15 17.0171 12.9833C17.0504 12.8417 17.0921 12.7083 17.1588 12.5833C17.1671 12.5583 17.1838 12.5333 17.1921 12.5083V12.5167ZM17.2338 12.0417C17.2338 12.1083 17.2421 12.1667 17.2754 12.2C17.3504 12.2667 17.4088 12.3417 17.5254 12.35C17.6588 12.3583 17.7088 12.3333 17.7254 12.2C17.7254 12.15 17.7504 12.125 17.8004 12.1167C17.8588 12.1167 17.8838 12.0667 17.8754 12.0167C17.8588 11.875 17.8588 11.725 17.6588 11.7167C17.6588 11.7167 17.6421 11.7083 17.6338 11.7C17.5171 11.6583 17.3338 11.7083 17.2671 11.8C17.2088 11.875 17.2421 11.975 17.2254 12.0417H17.2338ZM17.0254 11.7083C17.0254 11.7083 17.1004 11.725 17.1171 11.6833C17.1338 11.65 17.1088 11.6167 17.0838 11.6C16.8754 11.4167 16.6421 11.25 16.4588 11.0333C16.4254 10.9917 16.3838 10.9917 16.3421 11.0417C16.3004 11.1 16.2671 11.1583 16.2338 11.2167C16.1421 11.3667 16.1754 11.4417 16.3504 11.4917C16.4754 11.525 16.5838 11.5917 16.7088 11.6083C16.8254 11.625 16.9171 11.7167 17.0338 11.7167L17.0254 11.7083ZM18.0588 11.7583H18.0754C18.2421 11.75 18.3504 11.6333 18.4671 11.5417C18.6004 11.425 18.7421 11.3167 18.9004 11.2417C18.9504 11.2167 18.9671 11.1917 18.9421 11.15C18.8838 11.0583 18.8338 10.9667 18.7338 10.925C18.7004 10.9083 18.6754 10.9 18.6421 10.9417C18.5838 11.0167 18.5254 11.0833 18.4671 11.1583C18.3921 11.2667 18.3171 11.375 18.2254 11.4667C18.1504 11.5417 18.1004 11.6333 18.0421 11.7167C18.0254 11.7417 18.0088 11.7667 18.0588 11.775V11.7583ZM18.5921 13.275C18.5921 13.225 18.5588 13.1917 18.5171 13.1583C18.3254 13 18.1254 12.85 17.9754 12.65C17.9588 12.6333 17.9338 12.6167 17.9088 12.6C17.8921 12.5917 17.8754 12.5833 17.8588 12.6C17.8338 12.6167 17.8421 12.6417 17.8504 12.6583C17.9088 12.7833 17.9254 12.925 18.0004 13.0417C18.0671 13.1583 18.0671 13.2917 18.1254 13.4083C18.1588 13.4667 18.2004 13.5167 18.2588 13.475C18.3338 13.4167 18.4171 13.4083 18.4921 13.375C18.5338 13.3583 18.5754 13.3333 18.5921 13.2833V13.275ZM16.3171 12.9667C16.4171 12.9667 16.5004 12.9167 16.5671 12.8583C16.7254 12.725 16.8754 12.575 17.0254 12.4333C17.0504 12.4167 17.0754 12.3917 17.0671 12.3583C17.0504 12.3167 17.0171 12.3167 16.9838 12.3167C16.9588 12.3167 16.9338 12.325 16.9088 12.3333C16.6671 12.425 16.4254 12.525 16.1838 12.625C16.1504 12.6417 16.1421 12.65 16.1588 12.6833C16.1921 12.7583 16.2254 12.8417 16.2588 12.9167C16.2754 12.9417 16.2838 12.975 16.3254 12.9583L16.3171 12.9667ZM16.0504 11.7167C16.0504 11.8917 16.0421 11.8833 16.2004 11.875C16.2171 11.875 16.2338 11.875 16.2421 11.875C16.4754 11.925 16.7088 11.875 16.9421 11.875C16.9671 11.875 17.0004 11.8667 17.0088 11.8333C17.0088 11.7917 16.9754 11.8 16.9504 11.7917C16.7171 11.725 16.4838 11.6417 16.2504 11.5583C16.0754 11.4917 16.0588 11.5167 16.0504 11.7C16.0504 11.7 16.0504 11.7 16.0504 11.7083V11.7167Z" fill="#58595B"/>
</svg>
