<svg width="30" height="30" viewBox="0 0 30 30" fill="none" xmlns="http://www.w3.org/2000/svg">
<circle cx="15" cy="15.0002" r="15" fill="white"/>
<path d="M13.9934 8.4885L10.6668 9.74183C9.9001 10.0285 9.27344 10.9352 9.27344 11.7485V16.7018C9.27344 17.4885 9.79344 18.5218 10.4268 18.9952L13.2934 21.1352C14.2334 21.8418 15.7801 21.8418 16.7201 21.1352L19.5868 18.9952C20.2201 18.5218 20.7401 17.4885 20.7401 16.7018V11.7485C20.7401 10.9285 20.1134 10.0218 19.3468 9.73516L16.0201 8.4885C15.4534 8.28183 14.5468 8.28183 13.9934 8.4885Z" stroke="#4F4D8B" stroke-linecap="round" stroke-linejoin="round"/>
<path d="M14.9998 15.3337C15.7362 15.3337 16.3332 14.7367 16.3332 14.0003C16.3332 13.2639 15.7362 12.667 14.9998 12.667C14.2635 12.667 13.6665 13.2639 13.6665 14.0003C13.6665 14.7367 14.2635 15.3337 14.9998 15.3337Z" stroke="#4F4D8B" stroke-miterlimit="10" stroke-linecap="round" stroke-linejoin="round"/>
<path d="M15 15.3335V17.3335" stroke="#4F4D8B" stroke-miterlimit="10" stroke-linecap="round" stroke-linejoin="round"/>
</svg>
