<svg width="24" height="24" viewBox="0 0 24 24" fill="none" xmlns="http://www.w3.org/2000/svg">
<g clip-path="url(#clip0_6311_65168)">
<path d="M4.21931 19.7807C5.23131 20.7927 6.40465 21.5847 7.71731 22.1347C9.07398 22.7067 10.5113 23 12 23C13.4886 23 14.926 22.7067 16.2826 22.1347C17.5953 21.5773 18.7686 20.7853 19.7806 19.7807C20.7926 18.7687 21.5846 17.5953 22.1346 16.2827C22.7066 14.926 23 13.4887 23 12C23 10.812 22.8093 9.64599 22.4426 8.53132C22.3253 8.17199 21.9366 7.97399 21.5773 8.09866C21.218 8.21599 21.02 8.60466 21.1446 8.96399C21.4673 9.93932 21.636 10.9587 21.636 12C21.636 14.574 20.6313 16.9867 18.82 18.8053C17.0013 20.624 14.5813 21.6213 12.0146 21.6213C9.44798 21.6213 7.02798 20.6167 5.20931 18.8053C3.39065 16.9867 2.39332 14.5667 2.39332 12C2.39332 9.43332 3.39798 7.01332 5.20931 5.19466C7.02798 3.37599 9.44798 2.37866 12.0146 2.37866C13.694 2.37866 15.3513 2.81866 16.8033 3.65466C17.1333 3.84532 17.5513 3.72799 17.742 3.39799C17.9326 3.06799 17.8153 2.64999 17.4853 2.45932C15.828 1.50599 13.936 1.00732 12.0146 1.00732C10.5333 1.00732 9.08865 1.30066 7.73198 1.87266C6.41931 2.42999 5.24598 3.22199 4.23398 4.22666C3.22198 5.23866 2.42998 6.41199 1.87998 7.72466C1.30798 9.08132 1.01465 10.5187 1.01465 12.0073C1.01465 13.496 1.30798 14.9333 1.87998 16.29C2.43732 17.6027 3.22931 18.776 4.23398 19.788L4.21931 19.7807Z" fill="#39B54A"/>
<path d="M10.2032 13.5107C10.2032 13.5107 8.89782 12.682 7.32115 11.406C6.98382 11.1347 6.48515 11.1933 6.22115 11.5453C6.03049 11.7947 6.01582 12.1393 6.18449 12.4107C6.98382 13.7087 8.36249 15.7547 9.42582 17.0967C9.93182 17.7273 10.8192 17.786 11.4132 17.2287C14.7938 14.024 17.9252 9.97599 21.6798 4.38066C21.8998 4.05799 21.7898 3.61066 21.4452 3.42733C21.1812 3.28799 20.8585 3.33933 20.6532 3.55933C16.4878 7.96666 14.3538 10.064 10.2105 13.5107H10.2032Z" fill="#39B54A"/>
<path d="M16.9501 2.95058C10.1961 -0.598749 1.57948 4.68125 1.73348 12.3153C1.88748 19.8613 10.4895 24.7673 17.1041 21.1739C21.4088 18.8346 23.5061 13.5546 22.0028 8.89792" stroke="#39B54A" stroke-width="0.25" stroke-miterlimit="10"/>
<path d="M7.35059 12.5647C8.31125 13.6501 9.27192 14.7427 10.2253 15.8281C13.7526 12.0441 17.2726 8.26007 20.7999 4.47607" stroke="#39B54A" stroke-width="0.25" stroke-miterlimit="10"/>
</g>
<defs>
<clipPath id="clip0_6311_65168">
<rect width="22" height="22" fill="white" transform="translate(1 1)"/>
</clipPath>
</defs>
</svg>
