<svg width="24" height="24" viewBox="0 0 24 24" fill="none" xmlns="http://www.w3.org/2000/svg">
<path d="M13.8165 10.6145H21.9304V15.2757H13.8165C12.5626 15.2757 11.5449 14.258 11.5449 13.0041V12.886C11.5449 11.6321 12.5626 10.6145 13.8165 10.6145Z" stroke="#59595B" stroke-width="0.5" stroke-miterlimit="10"/>
<path d="M14.083 13.9491C14.7103 13.9491 15.2188 13.4406 15.2188 12.8133C15.2188 12.186 14.7103 11.6775 14.083 11.6775C13.4558 11.6775 12.9473 12.186 12.9473 12.8133C12.9473 13.4406 13.4558 13.9491 14.083 13.9491Z" stroke="#59595B" stroke-width="0.5" stroke-miterlimit="10"/>
<path d="M20.6586 15.412C20.6586 16.475 20.6586 17.5472 20.6586 18.6103C20.6586 19.6098 19.8409 20.4275 18.8414 20.4275H3.29499C2.61353 20.4275 2.06836 19.8733 2.06836 19.2009V6.01686C2.06836 5.01738 2.88611 4.19963 3.88559 4.19963H16.1247C17.0787 4.19963 18.0873 4.09968 19.0322 4.1542C19.1231 4.1542 19.3048 4.18145 19.4684 4.30866C19.9954 4.72662 19.7319 5.86239 19.641 6.11681L19.5411 6.39848" stroke="#59595B" stroke-width="0.5" stroke-miterlimit="10"/>
<path d="M19.7059 4.79024H5.40428C4.94089 4.79024 4.45024 4.79024 3.96867 4.79024C3.6234 4.79024 3.18726 4.84475 2.99645 5.17186C2.74204 5.59891 3.01462 6.11682 3.35081 6.40757C3.65974 6.66199 4.11405 6.56204 4.48658 6.56204H15.1628C15.8806 6.56204 16.5984 6.58021 17.3072 6.56204C18.025 6.53478 18.7337 6.25311 19.4606 6.3894C20.5963 6.60747 20.3147 8.00674 20.3238 8.86084C20.3238 9.45144 20.3056 10.042 20.2692 10.6236" stroke="#59595B" stroke-width="0.5" stroke-miterlimit="10"/>
<mask id="mask0_6387_72600" style="mask-type:luminance" maskUnits="userSpaceOnUse" x="2" y="15" width="19" height="6">
<path d="M2.57931 15.4574H20.1156C20.37 15.4574 20.5699 15.6664 20.5699 15.9117V18.6466C20.5699 19.6007 19.7976 20.3639 18.8526 20.3639H3.19717C2.60657 20.3639 2.125 19.8823 2.125 19.2917V15.9117C2.125 15.6573 2.33398 15.4574 2.57931 15.4574Z" fill="white"/>
</mask>
<g mask="url(#mask0_6387_72600)">
<path d="M10.3122 18.9192C10.3122 18.9919 10.2486 19.0555 10.1669 19.0555C10.0851 19.0555 10.0215 18.9919 10.0215 18.9192C10.0215 18.8465 10.0851 18.7829 10.1669 18.7829C10.2486 18.7829 10.3122 18.8465 10.3122 18.9192Z" fill="#59595B"/>
<path d="M7.09349 18.9192C7.09349 18.9919 7.02989 19.0555 6.94811 19.0555C6.86634 19.0555 6.80273 18.9919 6.80273 18.9192C6.80273 18.8465 6.86634 18.7829 6.94811 18.7829C7.02989 18.7829 7.09349 18.8465 7.09349 18.9192Z" fill="#59595B"/>
<path d="M3.75951 18.9192C3.75951 18.9919 3.6959 19.0555 3.61413 19.0555C3.53235 19.0555 3.46875 18.9919 3.46875 18.9192C3.46875 18.8465 3.53235 18.7829 3.61413 18.7829C3.6959 18.7829 3.75951 18.8465 3.75951 18.9192Z" fill="#59595B"/>
<path d="M13.5193 19.0373C13.5193 19.11 13.4557 19.1736 13.3739 19.1736C13.2921 19.1736 13.2285 19.11 13.2285 19.0373C13.2285 18.9646 13.2921 18.901 13.3739 18.901C13.4557 18.901 13.5193 18.9646 13.5193 19.0373Z" fill="#59595B"/>
<path d="M16.7263 18.9192C16.7263 18.9919 16.6627 19.0555 16.5809 19.0555C16.4991 19.0555 16.4355 18.9919 16.4355 18.9192C16.4355 18.8465 16.4991 18.7829 16.5809 18.7829C16.6627 18.7829 16.7263 18.8465 16.7263 18.9192Z" fill="#59595B"/>
<path d="M20.0603 18.9192C20.0603 18.9919 19.9967 19.0555 19.9149 19.0555C19.8331 19.0555 19.7695 18.9919 19.7695 18.9192C19.7695 18.8465 19.8331 18.7829 19.9149 18.7829C19.9967 18.7829 20.0603 18.8465 20.0603 18.9192Z" fill="#59595B"/>
<path d="M3.7686 20.8909L3.67773 20.8091C3.85037 20.6092 4.34102 20.1458 5.11335 20.0913C6.08557 20.0186 6.7216 20.6637 6.83972 20.7909L6.74886 20.8727C6.63982 20.7546 6.04014 20.1458 5.12243 20.2185C4.39554 20.273 3.93215 20.7092 3.7686 20.8909Z" fill="#59595B"/>
<path d="M7.01274 20.8909L6.92188 20.8091C7.09451 20.6092 7.58516 20.1458 8.35749 20.0913C9.32971 20.0186 9.96574 20.6637 10.0839 20.7909L9.993 20.8727C9.88396 20.7546 9.27519 20.1458 8.36658 20.2185C7.63968 20.273 7.17629 20.7092 7.01274 20.8909Z" fill="#59595B"/>
<path d="M10.21 20.8909L10.1191 20.8091C10.2918 20.6092 10.7824 20.1458 11.5548 20.0913C12.527 20.0186 13.163 20.6637 13.2811 20.7909L13.1903 20.8727C13.0812 20.7546 12.4815 20.1458 11.5638 20.2185C10.8369 20.273 10.3736 20.7092 10.21 20.8909Z" fill="#59595B"/>
<path d="M16.5085 20.8636C16.3995 20.7455 15.7907 20.1549 14.873 20.2094C14.0825 20.2549 13.6191 20.7001 13.501 20.8364L13.4102 20.7546C13.5374 20.6092 14.028 20.1367 14.873 20.0822C15.8452 20.0277 16.4813 20.6547 16.5994 20.7819L16.5085 20.8636Z" fill="#59595B"/>
<path d="M16.6709 20.8909L16.5801 20.8091C16.7709 20.6001 17.2888 20.1276 18.1156 20.0822C19.0788 20.0368 19.7239 20.6546 19.842 20.7819L19.7512 20.8636C19.6421 20.7455 19.0333 20.164 18.1156 20.2094C17.3161 20.2458 16.7981 20.7455 16.6619 20.8909H16.6709Z" fill="#59595B"/>
<path d="M23.0136 20.8727C22.8955 20.7546 22.2777 20.1549 21.3509 20.2094C20.9692 20.2276 20.4241 20.3639 19.9698 20.8636L19.9153 20.8273L19.8789 20.7819C20.3605 20.2458 20.942 20.1095 21.3418 20.0913C22.3231 20.0368 22.9773 20.6637 23.0954 20.7909L23.0045 20.8727H23.0136Z" fill="#59595B"/>
<path d="M3.1689 20.4548L3.05078 20.4093C3.15982 20.1458 3.41423 19.9732 3.6959 19.9641C3.96848 19.9641 4.2229 20.1095 4.3501 20.3457L4.24107 20.4002C4.14112 20.2004 3.92305 20.0731 3.6959 20.0822C3.45966 20.0822 3.25068 20.2367 3.15982 20.4548H3.1689Z" fill="#59595B"/>
<path d="M2.78677 20.2821L2.67773 20.2276C2.67773 20.2276 2.96849 19.637 3.58635 19.5643C4.04975 19.5098 4.51314 19.7551 4.74938 20.1822L4.64035 20.2458C4.43136 19.8641 4.0134 19.6461 3.60452 19.6915C3.05027 19.7551 2.80494 20.2639 2.79585 20.2821H2.78677Z" fill="#59595B"/>
<path d="M2.19692 20.1912L2.08789 20.1367C2.08789 20.1367 2.51494 19.2009 3.48716 19.0827C4.23223 18.9919 4.95912 19.4008 5.30439 20.1095L5.19536 20.164C4.87734 19.5098 4.19588 19.1282 3.50533 19.2099C2.6058 19.319 2.22418 20.1549 2.20601 20.1912H2.19692Z" fill="#59595B"/>
<path d="M6.39351 20.4275L6.27539 20.3821C6.38442 20.1186 6.63884 19.9459 6.92051 19.9368C7.18401 19.9368 7.44751 20.0822 7.57471 20.3185L7.46568 20.373C7.36573 20.1731 7.14766 20.0459 6.92051 20.055C6.68427 20.055 6.47529 20.2094 6.38442 20.4275H6.39351Z" fill="#59595B"/>
<path d="M6.01333 20.273L5.9043 20.2185C5.9043 20.2185 6.18597 19.6188 6.81291 19.5461C7.28539 19.4916 7.75787 19.746 7.98503 20.1913L7.87599 20.2458C7.6761 19.846 7.24905 19.6188 6.83109 19.6643C6.27683 19.7279 6.0315 20.2458 6.02242 20.264L6.01333 20.273Z" fill="#59595B"/>
<path d="M5.4313 20.1731L5.32227 20.1276C5.57668 19.5461 6.10368 19.1372 6.71245 19.0646C7.44843 18.9737 8.19349 19.4098 8.51151 20.1186L8.40248 20.1731C8.10263 19.5189 7.41208 19.11 6.73062 19.1918C6.16728 19.2554 5.67663 19.637 5.44039 20.1822L5.4313 20.1731Z" fill="#59595B"/>
<path d="M9.62007 20.4457L9.50195 20.4002C9.61099 20.1367 9.8654 19.9641 10.1471 19.955C10.4197 19.955 10.6741 20.1004 10.8013 20.3366L10.6922 20.3912C10.5923 20.1913 10.3833 20.0641 10.1471 20.0731C9.91083 20.0731 9.70185 20.2276 9.61099 20.4457H9.62007Z" fill="#59595B"/>
<path d="M9.23989 20.2821L9.13086 20.2276C9.13086 20.2276 9.42162 19.637 10.0486 19.5643C10.512 19.5098 10.9572 19.7551 11.1934 20.1731L11.0844 20.2367C10.8754 19.8642 10.4756 19.6461 10.0667 19.6915C9.50339 19.7551 9.25806 20.2639 9.24898 20.2821H9.23989Z" fill="#59595B"/>
<path d="M11.6369 20.1731C11.328 19.5189 10.6375 19.1191 9.956 19.2009C9.08372 19.3099 8.7021 20.1367 8.69302 20.1731L8.58398 20.1186C8.58398 20.1186 9.00195 19.1918 9.94691 19.0737C10.6829 18.9828 11.428 19.4099 11.7551 20.1095L11.646 20.164L11.6369 20.1731Z" fill="#59595B"/>
<path d="M12.8544 20.4002L12.7363 20.3548C12.8454 20.0913 13.0998 19.9187 13.3814 19.9096C13.654 19.9096 13.9084 20.055 14.0356 20.2912L13.9266 20.3457C13.8267 20.1458 13.6086 20.0186 13.3814 20.0277C13.1452 20.0277 12.9362 20.1822 12.8454 20.4002H12.8544Z" fill="#59595B"/>
<path d="M12.4743 20.2639L12.3652 20.2185C12.5288 19.8369 12.8831 19.5734 13.2829 19.528C13.7736 19.4735 14.2461 19.746 14.4551 20.2094L14.346 20.2639C14.1552 19.8551 13.7282 19.6007 13.292 19.6552C12.9377 19.6915 12.6287 19.9368 12.4743 20.273V20.2639Z" fill="#59595B"/>
<path d="M11.8837 20.164L11.7656 20.1186C12.02 19.528 12.5561 19.1191 13.1649 19.0464C13.91 18.9555 14.6641 19.4007 14.9821 20.1186L14.8731 20.1731C14.5732 19.5007 13.8736 19.0918 13.1831 19.1736C12.6197 19.2372 12.12 19.6279 11.8837 20.1731V20.164Z" fill="#59595B"/>
<path d="M16.1435 20.4184L16.0254 20.373C16.1344 20.1095 16.3888 19.9368 16.6705 19.9277C16.9431 19.9277 17.1975 20.0731 17.3247 20.3094L17.2157 20.3639C17.1157 20.164 16.8977 20.0368 16.6705 20.0459C16.4343 20.0459 16.2253 20.2003 16.1344 20.4184H16.1435Z" fill="#59595B"/>
<path d="M15.7536 20.2912L15.6445 20.2367C15.6445 20.2367 15.9353 19.6279 16.5622 19.5371C17.0529 19.4644 17.5435 19.7188 17.798 20.164L17.6889 20.2276C17.4618 19.8278 17.0165 19.6007 16.5804 19.6552C16.0171 19.737 15.7627 20.264 15.7536 20.2821V20.2912Z" fill="#59595B"/>
<path d="M18.168 20.164C17.8591 19.4916 17.1776 19.0918 16.4689 19.1736C15.5875 19.2736 15.1878 20.1004 15.1696 20.1277L15.0605 20.0732C15.0605 20.0732 15.5058 19.1554 16.4507 19.0464C17.2049 18.9646 17.9409 19.3826 18.268 20.1095L18.1589 20.164H18.168Z" fill="#59595B"/>
<path d="M19.3974 20.4184L19.2793 20.373C19.3883 20.1095 19.6427 19.9368 19.9244 19.9277C20.197 19.9277 20.4514 20.0731 20.5786 20.3094L20.4696 20.3639C20.3696 20.164 20.1516 20.0368 19.9244 20.0459C19.6882 20.0459 19.4792 20.2003 19.3883 20.4184H19.3974Z" fill="#59595B"/>
<path d="M19.0419 20.2912L18.9238 20.2458C19.0692 19.8551 19.4145 19.5825 19.8143 19.537C20.2777 19.4825 20.7411 19.746 20.941 20.1822L20.8319 20.2367C20.6593 19.846 20.2413 19.6097 19.8324 19.6642C19.4781 19.7097 19.1782 19.9459 19.0419 20.2912Z" fill="#59595B"/>
<path d="M18.445 20.1458L18.3359 20.0913C18.3359 20.0913 18.763 19.1645 19.717 19.0464C20.4621 18.9555 21.189 19.3735 21.5252 20.0822L21.4161 20.1367C21.0981 19.4734 20.4258 19.0918 19.7352 19.1736C18.8538 19.2826 18.4722 20.1095 18.4541 20.1458H18.445Z" fill="#59595B"/>
<path d="M7.01274 20.8909L6.92188 20.8091C7.09451 20.6092 7.58516 20.1458 8.35749 20.0913C9.32971 20.0186 9.96574 20.6637 10.0839 20.7909L9.993 20.8727C9.88396 20.7546 9.27519 20.1458 8.36658 20.2185C7.63968 20.273 7.17629 20.7092 7.01274 20.8909Z" fill="#59595B"/>
<path d="M3.1689 20.4548L3.05078 20.4093C3.15982 20.1458 3.41423 19.9732 3.6959 19.9641C3.96848 19.9641 4.2229 20.1095 4.3501 20.3457L4.24107 20.4002C4.14112 20.2004 3.92305 20.0731 3.6959 20.0822C3.45966 20.0822 3.25068 20.2367 3.15982 20.4548H3.1689Z" fill="#59595B"/>
<path d="M6.39351 20.4275L6.27539 20.3821C6.38442 20.1186 6.63884 19.9459 6.92051 19.9368C7.18401 19.9368 7.44751 20.0822 7.57471 20.3185L7.46568 20.373C7.36573 20.1731 7.14766 20.0459 6.92051 20.055C6.68427 20.055 6.47529 20.2094 6.38442 20.4275H6.39351Z" fill="#59595B"/>
<path d="M3.63124 20.9091C3.51312 20.7819 2.89526 20.164 1.93213 20.2276C1.13255 20.2821 0.614638 20.7819 0.51469 20.8818L0.423828 20.8C0.523776 20.691 1.07803 20.1549 1.92305 20.1004C2.93161 20.0368 3.5949 20.691 3.71302 20.8182L3.62216 20.9L3.63124 20.9091Z" fill="#59595B"/>
<path d="M3.83177 17.2201C3.83177 17.2928 3.76817 17.3564 3.68639 17.3564C3.60462 17.3564 3.54102 17.2928 3.54102 17.2201C3.54102 17.1474 3.60462 17.0838 3.68639 17.0838C3.76817 17.0838 3.83177 17.1474 3.83177 17.2201Z" fill="#59595B"/>
<path d="M7.05834 17.1928C7.05834 17.2655 6.99473 17.3291 6.91296 17.3291C6.83118 17.3291 6.76758 17.2655 6.76758 17.1928C6.76758 17.1201 6.83118 17.0565 6.91296 17.0565C6.99473 17.0565 7.05834 17.1201 7.05834 17.1928Z" fill="#59595B"/>
<path d="M10.24 17.1837C10.24 17.2564 10.1764 17.32 10.0946 17.32C10.0128 17.32 9.94922 17.2564 9.94922 17.1837C9.94922 17.111 10.0128 17.0474 10.0946 17.0474C10.1764 17.0474 10.24 17.111 10.24 17.1837Z" fill="#59595B"/>
<path d="M13.5193 17.1747C13.5193 17.2473 13.4557 17.3109 13.3739 17.3109C13.2921 17.3109 13.2285 17.2473 13.2285 17.1747C13.2285 17.102 13.2921 17.0384 13.3739 17.0384C13.4557 17.0384 13.5193 17.102 13.5193 17.1747Z" fill="#59595B"/>
<path d="M16.8181 17.1837C16.8181 17.2564 16.7545 17.32 16.6727 17.32C16.5909 17.32 16.5273 17.2564 16.5273 17.1837C16.5273 17.111 16.5909 17.0474 16.6727 17.0474C16.7545 17.0474 16.8181 17.111 16.8181 17.1837Z" fill="#59595B"/>
<path d="M20.0603 17.1837C20.0603 17.2564 19.9967 17.32 19.9149 17.32C19.8331 17.32 19.7695 17.2564 19.7695 17.1837C19.7695 17.111 19.8331 17.0474 19.9149 17.0474C19.9967 17.0474 20.0603 17.111 20.0603 17.1837Z" fill="#59595B"/>
<path d="M5.43138 19.9459C5.43138 20.0186 5.36778 20.0822 5.286 20.0822C5.20423 20.0822 5.14062 20.0186 5.14062 19.9459C5.14062 19.8732 5.20423 19.8096 5.286 19.8096C5.36778 19.8096 5.43138 19.8732 5.43138 19.9459Z" fill="#59595B"/>
<path d="M5.73886 19.5552C5.67526 19.5007 5.52988 19.3917 5.32999 19.3735C5.03014 19.3372 4.81207 19.5007 4.75756 19.5461L4.67578 19.4462C4.76664 19.3735 5.01197 19.2099 5.33907 19.2463C5.57531 19.2735 5.73886 19.3917 5.82064 19.4553L5.73886 19.5461V19.5552Z" fill="#59595B"/>
<path d="M6.13992 19.2826C6.05815 19.1918 5.74922 18.9101 5.27674 18.8919C4.73157 18.8738 4.40446 19.2009 4.34086 19.2645L4.25 19.1827C4.3136 19.11 4.66796 18.7556 5.27674 18.7738C5.78556 18.792 6.10358 19.0737 6.2217 19.2009L6.13084 19.2826H6.13992Z" fill="#59595B"/>
<path d="M3.7686 19.1464L3.67773 19.0646C3.85037 18.8647 4.34102 18.4013 5.11335 18.3468C6.08557 18.2741 6.7216 18.9192 6.83972 19.0464L6.74886 19.1282C6.63982 19.0101 6.04014 18.4013 5.12243 18.474C4.39554 18.5285 3.93215 18.9646 3.7686 19.1464Z" fill="#59595B"/>
<path d="M8.66576 19.9641C8.66576 20.0368 8.60215 20.1004 8.52038 20.1004C8.4386 20.1004 8.375 20.0368 8.375 19.9641C8.375 19.8914 8.4386 19.8278 8.52038 19.8278C8.60215 19.8278 8.66576 19.8914 8.66576 19.9641Z" fill="#59595B"/>
<path d="M8.97519 19.5552C8.91159 19.5007 8.76621 19.3917 8.56631 19.3735C8.27556 19.3372 8.0484 19.5007 7.99388 19.5461L7.91211 19.4462C8.00297 19.3735 8.2483 19.2099 8.5754 19.2463C8.79347 19.2735 8.95702 19.3735 9.05697 19.4553L8.97519 19.5461V19.5552Z" fill="#59595B"/>
<path d="M9.37498 19.2826C9.2932 19.1918 8.98427 18.9101 8.51179 18.8919C8.00297 18.8738 7.67586 19.1736 7.585 19.2645L7.49414 19.1736C7.59409 19.0737 7.95753 18.7466 8.51179 18.7647C9.02062 18.7829 9.34772 19.0646 9.45675 19.1918L9.36589 19.2736L9.37498 19.2826Z" fill="#59595B"/>
<path d="M7.01274 19.1464L6.92188 19.0646C7.09451 18.8647 7.58516 18.4013 8.35749 18.3468C9.32971 18.2741 9.96574 18.9192 10.0839 19.0464L9.993 19.1282C9.88396 19.0101 9.27519 18.4013 8.36658 18.474C7.63968 18.5285 7.17629 18.9646 7.01274 19.1464Z" fill="#59595B"/>
<path d="M11.8181 19.9732C11.8181 20.0459 11.7545 20.1095 11.6727 20.1095C11.5909 20.1095 11.5273 20.0459 11.5273 19.9732C11.5273 19.9005 11.5909 19.8369 11.6727 19.8369C11.7545 19.8369 11.8181 19.9005 11.8181 19.9732Z" fill="#59595B"/>
<path d="M12.1837 19.5552C12.1201 19.5007 11.9747 19.3917 11.7748 19.3735C11.5749 19.3462 11.4023 19.4008 11.2478 19.528L11.2024 19.4825L11.166 19.428C11.3477 19.2826 11.5567 19.219 11.793 19.2463C12.0292 19.2736 12.1928 19.3917 12.2745 19.4553L12.1928 19.5461L12.1837 19.5552Z" fill="#59595B"/>
<path d="M12.582 19.2826C12.5002 19.1918 12.1913 18.9101 11.7188 18.8919C11.21 18.8738 10.8829 19.1736 10.792 19.2645L10.7012 19.1736C10.8011 19.0737 11.1646 18.7466 11.7188 18.7647C12.2276 18.7829 12.5547 19.0646 12.6638 19.1918L12.5729 19.2736L12.582 19.2826Z" fill="#59595B"/>
<path d="M10.21 19.1464L10.1191 19.0646C10.2918 18.8647 10.7824 18.4013 11.5548 18.3468C12.527 18.2741 13.163 18.9192 13.2811 19.0464L13.1903 19.1282C13.0812 19.0101 12.4815 18.4013 11.5638 18.474C10.8369 18.5285 10.3736 18.9646 10.21 19.1464Z" fill="#59595B"/>
<path d="M15.1365 19.9641C15.1365 20.0368 15.0729 20.1004 14.9911 20.1004C14.9093 20.1004 14.8457 20.0368 14.8457 19.9641C14.8457 19.8914 14.9093 19.8278 14.9911 19.8278C15.0729 19.8278 15.1365 19.8914 15.1365 19.9641Z" fill="#59595B"/>
<path d="M15.4908 19.5552C15.409 19.4825 15.2727 19.3917 15.0819 19.3735C14.7912 19.3372 14.564 19.5007 14.5095 19.5461L14.4277 19.4462C14.5186 19.3735 14.7639 19.2099 15.091 19.2463C15.3091 19.2735 15.4726 19.3735 15.5726 19.4553L15.4908 19.5461V19.5552Z" fill="#59595B"/>
<path d="M15.8906 19.2826C15.8088 19.1918 15.4999 18.9101 15.0274 18.8919C14.5277 18.8738 14.1915 19.1736 14.1006 19.2645L14.0098 19.1736C14.1097 19.0737 14.4822 18.7466 15.0274 18.7647C15.5362 18.7829 15.8633 19.0646 15.9724 19.1918L15.8815 19.2736L15.8906 19.2826Z" fill="#59595B"/>
<path d="M16.5085 19.1282C16.3995 19.01 15.7907 18.4194 14.873 18.474C14.1189 18.5194 13.6646 18.9374 13.501 19.1191L13.4102 19.0373C13.5828 18.8465 14.0644 18.4013 14.8639 18.3558C15.8362 18.3013 16.4722 18.9283 16.5903 19.0555L16.4995 19.1373L16.5085 19.1282Z" fill="#59595B"/>
<path d="M18.3786 19.9641C18.3786 20.0368 18.315 20.1004 18.2333 20.1004C18.1515 20.1004 18.0879 20.0368 18.0879 19.9641C18.0879 19.8914 18.1515 19.8278 18.2333 19.8278C18.315 19.8278 18.3786 19.8914 18.3786 19.9641Z" fill="#59595B"/>
<path d="M18.7447 19.5552C18.6629 19.4825 18.5267 19.3917 18.3358 19.3735C18.0451 19.3372 17.8179 19.5007 17.7634 19.5461L17.6816 19.4462C17.7725 19.3735 18.0178 19.2099 18.3449 19.2463C18.563 19.2735 18.7265 19.3735 18.8265 19.4553L18.7447 19.5461V19.5552Z" fill="#59595B"/>
<path d="M19.1426 19.2826C19.0608 19.1918 18.7519 18.9101 18.2794 18.8919C17.7796 18.8738 17.4434 19.1736 17.3526 19.2645L17.2617 19.1736C17.3617 19.0737 17.7342 18.7466 18.2794 18.7647C18.7882 18.7829 19.1153 19.0646 19.2243 19.1918L19.1335 19.2736L19.1426 19.2826Z" fill="#59595B"/>
<path d="M19.7519 19.1282C19.6429 19.01 19.0341 18.4285 18.1164 18.474C17.3713 18.5103 16.917 18.8919 16.708 19.1191L16.6172 19.0373C16.8353 18.8011 17.3259 18.3922 18.1073 18.3558C19.0523 18.3104 19.6701 18.8737 19.8337 19.0555L19.7428 19.1372L19.7519 19.1282Z" fill="#59595B"/>
<path d="M22.3789 19.2826C22.2971 19.1918 21.9882 18.9101 21.5157 18.8919C21.0069 18.8738 20.6798 19.1736 20.5889 19.2645L20.498 19.1736C20.598 19.0737 20.9614 18.7466 21.5157 18.7647C22.0336 18.7829 22.3698 19.0918 22.4607 19.1918L22.3698 19.2736L22.3789 19.2826Z" fill="#59595B"/>
<path d="M19.9346 19.1554L19.8438 19.0737C20.2345 18.6375 20.7705 18.3831 21.3521 18.3558C22.3334 18.3013 22.9876 18.9283 23.1057 19.0555L23.0148 19.1373C22.8967 19.0191 22.2788 18.4194 21.3521 18.474C20.8069 18.5012 20.2981 18.7466 19.9255 19.1554H19.9346Z" fill="#59595B"/>
<path d="M2.18919 20.0277C2.18919 20.1004 2.12559 20.164 2.04382 20.164C1.96204 20.164 1.89844 20.1004 1.89844 20.0277C1.89844 19.955 1.96204 19.8914 2.04382 19.8914C2.12559 19.8914 2.18919 19.955 2.18919 20.0277Z" fill="#59595B"/>
<path d="M3.1689 18.7102L3.05078 18.6648C3.15982 18.4013 3.41423 18.2287 3.6959 18.2196C3.96848 18.2196 4.2229 18.365 4.3501 18.6012L4.24107 18.6557C4.14112 18.4558 3.92305 18.3286 3.6959 18.3377C3.45966 18.3377 3.25068 18.4922 3.15982 18.7102H3.1689Z" fill="#59595B"/>
<path d="M2.78677 18.5467L2.67773 18.4921C2.67773 18.4921 2.96849 17.9015 3.58635 17.8288C4.04975 17.7743 4.51314 18.0197 4.74938 18.4467L4.64035 18.5103C4.43136 18.1287 4.0134 17.9106 3.60452 17.9561C3.05027 18.0197 2.80494 18.5285 2.79585 18.5467H2.78677Z" fill="#59595B"/>
<path d="M2.19692 18.4467L2.08789 18.3922C2.08789 18.3922 2.51494 17.4563 3.48716 17.3382C4.23223 17.2473 4.95912 17.6562 5.30439 18.3649L5.19536 18.4195C4.87734 17.7652 4.19588 17.3836 3.50533 17.4654C2.6058 17.5744 2.22418 18.4104 2.20601 18.4467H2.19692Z" fill="#59595B"/>
<path d="M6.39351 18.692L6.27539 18.6466C6.38442 18.3831 6.63884 18.2105 6.92051 18.2014C7.18401 18.2014 7.44751 18.3468 7.57471 18.583L7.46568 18.6375C7.36573 18.4376 7.14766 18.3104 6.92051 18.3195C6.68427 18.3195 6.47529 18.474 6.38442 18.692H6.39351Z" fill="#59595B"/>
<path d="M6.01333 18.5285L5.9043 18.474C5.9043 18.474 6.18597 17.8743 6.81291 17.8016C7.28539 17.7471 7.75787 18.0015 7.98503 18.4467L7.87599 18.5012C7.6761 18.1015 7.24905 17.8743 6.83109 17.9197C6.27683 17.9833 6.0315 18.5012 6.02242 18.5194L6.01333 18.5285Z" fill="#59595B"/>
<path d="M5.4313 18.4376L5.32227 18.3922C5.57668 17.8107 6.10368 17.4018 6.71245 17.3291C7.44843 17.2383 8.19349 17.6744 8.51151 18.3831L8.40248 18.4376C8.10263 17.7834 7.41208 17.3746 6.73062 17.4563C6.16728 17.5199 5.67663 17.9016 5.44039 18.4467L5.4313 18.4376Z" fill="#59595B"/>
<path d="M9.62007 18.7102L9.50195 18.6648C9.61099 18.4013 9.8654 18.2287 10.1471 18.2196C10.4197 18.2196 10.6741 18.365 10.8013 18.6012L10.6922 18.6557C10.5923 18.4558 10.3833 18.3286 10.1471 18.3377C9.91083 18.3377 9.70185 18.4922 9.61099 18.7102H9.62007Z" fill="#59595B"/>
<path d="M9.23989 18.5467L9.13086 18.4921C9.13086 18.4921 9.42162 17.9015 10.0486 17.8289C10.512 17.7743 10.9572 18.0197 11.1934 18.4376L11.0844 18.5012C10.8754 18.1287 10.4756 17.9106 10.0667 17.9561C9.51248 18.0197 9.25806 18.5285 9.24898 18.5467H9.23989Z" fill="#59595B"/>
<path d="M11.6369 18.4376C11.328 17.7834 10.6375 17.3836 9.956 17.4654C9.08372 17.5744 8.7021 18.4013 8.69302 18.4376L8.58398 18.3831C8.58398 18.3831 9.00195 17.4563 9.94691 17.3382C10.6829 17.2473 11.428 17.6744 11.7551 18.374L11.646 18.4285L11.6369 18.4376Z" fill="#59595B"/>
<path d="M12.8544 18.6648L12.7363 18.6194C12.8454 18.3559 13.0998 18.1832 13.3814 18.1741C13.654 18.1741 13.9084 18.3195 14.0356 18.5558L13.9266 18.6103C13.8267 18.4104 13.6086 18.2832 13.3814 18.2923C13.1452 18.2923 12.9362 18.4467 12.8454 18.6648H12.8544Z" fill="#59595B"/>
<path d="M12.4743 18.5285L12.3652 18.4831C12.5288 18.1014 12.8831 17.8379 13.2829 17.7925C13.7645 17.738 14.2461 18.0197 14.4551 18.474L14.346 18.5285C14.1552 18.1196 13.7282 17.8652 13.292 17.9197C12.9377 17.9561 12.6287 18.2014 12.4743 18.5376V18.5285Z" fill="#59595B"/>
<path d="M11.8837 18.4194L11.7656 18.374C12.02 17.7834 12.5561 17.3745 13.1649 17.3018C13.91 17.211 14.6641 17.6562 14.9821 18.374L14.8731 18.4285C14.5732 17.7562 13.8736 17.3473 13.1831 17.4291C12.6197 17.4927 12.12 17.8834 11.8837 18.4285V18.4194Z" fill="#59595B"/>
<path d="M16.1435 18.683L16.0254 18.6375C16.1344 18.374 16.3888 18.2014 16.6705 18.1923C16.9431 18.1923 17.1975 18.3377 17.3247 18.5739L17.2157 18.6284C17.1157 18.4285 16.8977 18.3013 16.6705 18.3104C16.4343 18.3104 16.2253 18.4649 16.1344 18.683H16.1435Z" fill="#59595B"/>
<path d="M15.7536 18.5467L15.6445 18.4922C15.6445 18.4922 15.9353 17.8834 16.5622 17.7925C17.0529 17.7198 17.5435 17.9742 17.798 18.4195L17.6889 18.4831C17.4618 18.0833 17.0165 17.8561 16.5804 17.9106C16.0171 17.9924 15.7627 18.5194 15.7536 18.5376V18.5467Z" fill="#59595B"/>
<path d="M18.168 18.4285C17.8591 17.7562 17.1776 17.3564 16.4689 17.4381C15.5875 17.5381 15.1878 18.3649 15.1696 18.3922L15.0605 18.3377C15.0605 18.3377 15.5058 17.42 16.4507 17.3109C17.2049 17.2292 17.9409 17.6471 18.268 18.374L18.1589 18.4285H18.168Z" fill="#59595B"/>
<path d="M19.3974 18.683L19.2793 18.6375C19.3883 18.374 19.6427 18.2014 19.9244 18.1923C20.197 18.1923 20.4514 18.3377 20.5786 18.5739L20.4696 18.6284C20.3696 18.4285 20.1607 18.3013 19.9244 18.3104C19.6882 18.3104 19.4792 18.4649 19.3883 18.683H19.3974Z" fill="#59595B"/>
<path d="M19.0419 18.5467L18.9238 18.5012C19.0692 18.1105 19.4145 17.838 19.8143 17.7925C20.2777 17.738 20.7411 18.0015 20.941 18.4376L20.8319 18.4922C20.6593 18.1014 20.2413 17.8652 19.8324 17.9197C19.4781 17.9652 19.1782 18.2014 19.0419 18.5467Z" fill="#59595B"/>
<path d="M18.445 18.4013L18.3359 18.3468C18.3359 18.3468 18.763 17.42 19.717 17.3018C20.4621 17.211 21.189 17.629 21.5252 18.3377L21.4161 18.3922C21.0981 17.7289 20.4258 17.3473 19.7352 17.4291C18.8538 17.5381 18.4722 18.3649 18.4541 18.4013H18.445Z" fill="#59595B"/>
<path d="M13.5193 17.1747C13.5193 17.2473 13.4557 17.3109 13.3739 17.3109C13.2921 17.3109 13.2285 17.2473 13.2285 17.1747C13.2285 17.102 13.2921 17.0384 13.3739 17.0384C13.4557 17.0384 13.5193 17.102 13.5193 17.1747Z" fill="#59595B"/>
<path d="M20.0603 17.1837C20.0603 17.2564 19.9967 17.32 19.9149 17.32C19.8331 17.32 19.7695 17.2564 19.7695 17.1837C19.7695 17.111 19.8331 17.0474 19.9149 17.0474C19.9967 17.0474 20.0603 17.111 20.0603 17.1837Z" fill="#59595B"/>
<path d="M5.73886 19.5552C5.67526 19.5007 5.52988 19.3917 5.32999 19.3735C5.03014 19.3372 4.81207 19.5007 4.75756 19.5461L4.67578 19.4462C4.76664 19.3735 5.01197 19.2099 5.33907 19.2463C5.57531 19.2735 5.73886 19.3917 5.82064 19.4553L5.73886 19.5461V19.5552Z" fill="#59595B"/>
<path d="M7.01274 19.1464L6.92188 19.0646C7.09451 18.8647 7.58516 18.4013 8.35749 18.3468C9.32971 18.2741 9.96574 18.9192 10.0839 19.0464L9.993 19.1282C9.88396 19.0101 9.27519 18.4013 8.36658 18.474C7.63968 18.5285 7.17629 18.9646 7.01274 19.1464Z" fill="#59595B"/>
<path d="M3.1689 18.7102L3.05078 18.6648C3.15982 18.4013 3.41423 18.2287 3.6959 18.2196C3.96848 18.2196 4.2229 18.365 4.3501 18.6012L4.24107 18.6557C4.14112 18.4558 3.92305 18.3286 3.6959 18.3377C3.45966 18.3377 3.25068 18.4922 3.15982 18.7102H3.1689Z" fill="#59595B"/>
<path d="M6.39351 18.692L6.27539 18.6466C6.38442 18.3831 6.63884 18.2105 6.92051 18.2014C7.18401 18.2014 7.44751 18.3468 7.57471 18.583L7.46568 18.6375C7.36573 18.4376 7.14766 18.3104 6.92051 18.3195C6.68427 18.3195 6.47529 18.474 6.38442 18.692H6.39351Z" fill="#59595B"/>
<path d="M1.57914 19.5916L1.48828 19.5007C1.53371 19.4553 1.78812 19.2281 2.14249 19.2645C2.34238 19.2917 2.5241 19.4008 2.60588 19.4735L2.5241 19.5643C2.4605 19.5098 2.30604 19.4099 2.1334 19.3917C1.83356 19.3553 1.61549 19.5552 1.57914 19.5916Z" fill="#59595B"/>
<path d="M2.9531 19.3008C2.87133 19.21 2.5624 18.9283 2.08992 18.9101C1.58109 18.8919 1.25399 19.1918 1.16313 19.2826L1.07227 19.1918C1.17221 19.0918 1.53566 18.7647 2.08992 18.7829C2.59874 18.8011 2.92584 19.0828 3.03488 19.21L2.94402 19.2917L2.9531 19.3008Z" fill="#59595B"/>
<path d="M3.63192 19.1827C3.5138 19.0555 2.88686 18.4285 1.93281 18.4921C1.16957 18.5376 0.660748 19.0101 0.524455 19.1554L0.433594 19.0737C0.578972 18.9192 1.11506 18.4195 1.92372 18.374C2.93229 18.3104 3.59558 18.9737 3.72278 19.1009L3.63192 19.1827Z" fill="#59595B"/>
<path d="M2.04297 20.2276C1.92485 20.2276 1.83398 20.1367 1.83398 20.0277C1.83398 19.9187 1.92485 19.8278 2.04297 19.8278C2.16109 19.8278 2.25195 19.9187 2.25195 20.0277C2.25195 20.1367 2.16109 20.2276 2.04297 20.2276ZM2.04297 19.955C1.99754 19.955 1.96119 19.9914 1.96119 20.0277C1.96119 20.0641 1.99754 20.1004 2.04297 20.1004C2.0884 20.1004 2.12474 20.0641 2.12474 20.0277C2.12474 19.9914 2.0884 19.955 2.04297 19.955Z" fill="#59595B"/>
<path d="M5.42357 18.2105C5.42357 18.2832 5.35997 18.3468 5.27819 18.3468C5.19642 18.3468 5.13281 18.2832 5.13281 18.2105C5.13281 18.1378 5.19642 18.0742 5.27819 18.0742C5.35997 18.0742 5.42357 18.1378 5.42357 18.2105Z" fill="#59595B"/>
<path d="M5.73886 17.8107C5.67526 17.7562 5.52988 17.6471 5.32999 17.629C5.03014 17.5926 4.81207 17.7562 4.75756 17.8016L4.67578 17.7016C4.74847 17.6471 5.00288 17.4654 5.33907 17.5017C5.57531 17.529 5.73886 17.6471 5.82064 17.7107L5.73886 17.8016V17.8107Z" fill="#59595B"/>
<path d="M6.1412 17.5472C6.05942 17.4563 5.75049 17.1746 5.27801 17.1565C4.71467 17.1383 4.36939 17.5017 4.33305 17.5381L4.24219 17.4563C4.30579 17.3836 4.67832 17.0111 5.2871 17.0293C5.79592 17.0474 6.11394 17.3291 6.23206 17.4563L6.1412 17.5381V17.5472Z" fill="#59595B"/>
<path d="M3.7686 17.4109L3.67773 17.3291C3.85037 17.1292 4.34102 16.6658 5.11335 16.6113C6.08557 16.5386 6.7216 17.1837 6.83972 17.3109L6.74886 17.3927C6.63982 17.2746 6.04014 16.6658 5.12243 16.7385C4.39554 16.793 3.93215 17.2292 3.7686 17.4109Z" fill="#59595B"/>
<path d="M8.68334 18.2468C8.68334 18.3195 8.61973 18.3831 8.53796 18.3831C8.45618 18.3831 8.39258 18.3195 8.39258 18.2468C8.39258 18.1741 8.45618 18.1105 8.53796 18.1105C8.61973 18.1105 8.68334 18.1741 8.68334 18.2468Z" fill="#59595B"/>
<path d="M8.97519 17.8107C8.91159 17.7562 8.76621 17.6471 8.56631 17.629C8.27556 17.5926 8.0484 17.7562 7.99388 17.8016L7.91211 17.7016C7.9848 17.6471 8.23921 17.4654 8.5754 17.5017C8.79347 17.529 8.95702 17.629 9.05697 17.7107L8.97519 17.8016V17.8107Z" fill="#59595B"/>
<path d="M9.37498 17.5472C9.2932 17.4563 8.98427 17.1746 8.51179 17.1565C8.00297 17.1383 7.67586 17.4381 7.585 17.529L7.49414 17.4381C7.59409 17.3382 7.95753 17.0111 8.51179 17.0293C9.02062 17.0474 9.34772 17.3291 9.45675 17.4563L9.36589 17.5381L9.37498 17.5472Z" fill="#59595B"/>
<path d="M7.01274 17.4109L6.92188 17.3291C7.09451 17.1292 7.58516 16.6658 8.35749 16.6113C9.32971 16.5386 9.96574 17.1837 10.0839 17.3109L9.993 17.3927C9.88396 17.2746 9.27519 16.6658 8.36658 16.7385C7.63968 16.793 7.17629 17.2292 7.01274 17.4109Z" fill="#59595B"/>
<path d="M11.8845 18.2196C11.8845 18.2922 11.8209 18.3559 11.7391 18.3559C11.6574 18.3559 11.5938 18.2922 11.5938 18.2196C11.5938 18.1469 11.6574 18.0833 11.7391 18.0833C11.8209 18.0833 11.8845 18.1469 11.8845 18.2196Z" fill="#59595B"/>
<path d="M12.1843 17.8107C12.1207 17.7562 11.9753 17.6471 11.7754 17.6289C11.5755 17.6108 11.3847 17.6653 11.2302 17.7834L11.1484 17.6835C11.3302 17.5381 11.5482 17.4745 11.7845 17.5017C12.0207 17.529 12.1843 17.6471 12.266 17.7107L12.1843 17.8016V17.8107Z" fill="#59595B"/>
<path d="M12.582 17.5472C12.5002 17.4563 12.1913 17.1746 11.7188 17.1565C11.21 17.1383 10.8829 17.4381 10.792 17.529L10.7012 17.4381C10.8011 17.3382 11.1646 17.0111 11.7188 17.0293C12.2276 17.0474 12.5547 17.3291 12.6638 17.4563L12.5729 17.5381L12.582 17.5472Z" fill="#59595B"/>
<path d="M10.21 17.4109L10.1191 17.3291C10.2918 17.1292 10.7824 16.6658 11.5548 16.6113C12.527 16.5386 13.163 17.1837 13.2811 17.3109L13.1903 17.3927C13.0812 17.2746 12.4815 16.6658 11.5638 16.7385C10.8369 16.793 10.3736 17.2292 10.21 17.4109Z" fill="#59595B"/>
<path d="M15.1365 18.2286C15.1365 18.3013 15.0729 18.3649 14.9911 18.3649C14.9093 18.3649 14.8457 18.3013 14.8457 18.2286C14.8457 18.1559 14.9093 18.0923 14.9911 18.0923C15.0729 18.0923 15.1365 18.1559 15.1365 18.2286Z" fill="#59595B"/>
<path d="M15.4908 17.8107C15.409 17.738 15.2727 17.6471 15.0819 17.6289C14.7912 17.5926 14.564 17.7561 14.5095 17.8016L14.4277 17.7016C14.5186 17.6289 14.7639 17.4654 15.091 17.5017C15.3091 17.529 15.4726 17.6289 15.5726 17.7107L15.4908 17.8016V17.8107Z" fill="#59595B"/>
<path d="M15.8906 17.5472C15.8088 17.4563 15.4999 17.1746 15.0274 17.1565C14.5277 17.1383 14.1915 17.4381 14.1006 17.529L14.0098 17.4381C14.1097 17.3382 14.4822 17.0111 15.0274 17.0293C15.5362 17.0474 15.8633 17.3291 15.9724 17.4563L15.8815 17.5381L15.8906 17.5472Z" fill="#59595B"/>
<path d="M13.501 17.3927L13.4102 17.3109C13.7918 16.893 14.3097 16.6386 14.873 16.6113C15.8452 16.5568 16.4813 17.1837 16.5994 17.3109L16.5085 17.3927C16.3995 17.2746 15.7907 16.684 14.873 16.7385C14.1552 16.7839 13.7009 17.1746 13.501 17.4018V17.3927Z" fill="#59595B"/>
<path d="M18.3786 18.2286C18.3786 18.3013 18.315 18.3649 18.2333 18.3649C18.1515 18.3649 18.0879 18.3013 18.0879 18.2286C18.0879 18.1559 18.1515 18.0923 18.2333 18.0923C18.315 18.0923 18.3786 18.1559 18.3786 18.2286Z" fill="#59595B"/>
<path d="M18.7429 17.8107C18.6611 17.738 18.5248 17.6471 18.334 17.6289C18.1977 17.6108 17.9887 17.6289 17.7888 17.8016L17.7434 17.7561L17.707 17.7016C17.9433 17.5108 18.1886 17.4836 18.3521 17.5017C18.5702 17.529 18.7338 17.6289 18.8337 17.7107L18.7519 17.8016L18.7429 17.8107Z" fill="#59595B"/>
<path d="M19.1426 17.5472C19.0608 17.4563 18.7519 17.1746 18.2794 17.1565C17.7796 17.1383 17.4434 17.4381 17.3526 17.529L17.2617 17.4381C17.3617 17.3382 17.7342 17.0111 18.2794 17.0293C18.7882 17.0474 19.1153 17.3291 19.2243 17.4563L19.1335 17.5381L19.1426 17.5472Z" fill="#59595B"/>
<path d="M16.7002 17.3927L16.6094 17.3109C16.7911 17.111 17.2999 16.6476 18.1177 16.6113C19.0626 16.5659 19.6805 17.1292 19.844 17.3109L19.7532 17.3927C19.6442 17.2746 19.0354 16.6931 18.1177 16.7385C17.3454 16.7749 16.8638 17.211 16.6912 17.4018L16.7002 17.3927Z" fill="#59595B"/>
<path d="M22.3789 17.5472C22.2971 17.4563 21.9882 17.1746 21.5157 17.1565C21.0069 17.1383 20.6798 17.4381 20.5889 17.529L20.498 17.4381C20.598 17.3382 20.9614 17.0111 21.5157 17.0293C22.0336 17.0474 22.3698 17.3564 22.4607 17.4563L22.3698 17.5381L22.3789 17.5472Z" fill="#59595B"/>
<path d="M19.9151 17.4109L19.8242 17.3291C20.0059 17.1292 20.5239 16.6567 21.3507 16.6113C22.3138 16.5568 22.9317 17.1383 23.1043 17.3109L23.0135 17.3927C22.8953 17.2746 22.2775 16.684 21.3507 16.7294C20.5602 16.7748 20.0786 17.2201 19.906 17.4109H19.9151Z" fill="#59595B"/>
<path d="M2.19701 18.2286C2.19701 18.3013 2.1334 18.3649 2.05163 18.3649C1.96985 18.3649 1.90625 18.3013 1.90625 18.2286C1.90625 18.1559 1.96985 18.0923 2.05163 18.0923C2.1334 18.0923 2.19701 18.1559 2.19701 18.2286Z" fill="#59595B"/>
<path d="M3.1689 16.9747L3.05078 16.9293C3.15982 16.6658 3.41423 16.4932 3.6959 16.4841C3.96848 16.4841 4.2229 16.6295 4.3501 16.8657L4.24107 16.9202C4.14112 16.7203 3.92305 16.5931 3.6959 16.6022C3.45966 16.6022 3.25068 16.7567 3.15982 16.9747H3.1689Z" fill="#59595B"/>
<path d="M2.78677 16.8112L2.67773 16.7567C2.67773 16.7567 2.96849 16.1661 3.58635 16.0934C4.04975 16.0389 4.51314 16.2842 4.74938 16.7112L4.64035 16.7748C4.43136 16.3932 4.0134 16.1752 3.60452 16.2206C3.05027 16.2842 2.80494 16.793 2.79585 16.8112H2.78677Z" fill="#59595B"/>
<path d="M2.19692 16.7113L2.08789 16.6567C2.08789 16.6567 2.51494 15.7209 3.48716 15.6027C4.23223 15.5119 4.95912 15.9208 5.30439 16.6295L5.19536 16.684C4.87734 16.0298 4.19588 15.6482 3.50533 15.7299C2.6058 15.839 2.22418 16.6749 2.20601 16.7113H2.19692Z" fill="#59595B"/>
<path d="M6.39351 16.9475L6.27539 16.9021C6.38442 16.6386 6.63884 16.4659 6.92051 16.4568C7.18401 16.4568 7.44751 16.6022 7.57471 16.8385L7.46568 16.893C7.36573 16.6931 7.14766 16.5659 6.92051 16.575C6.68427 16.575 6.47529 16.7294 6.38442 16.9475H6.39351Z" fill="#59595B"/>
<path d="M6.01333 16.793L5.9043 16.7385C5.9043 16.7385 6.18597 16.1388 6.81291 16.0661C7.28539 16.0116 7.75787 16.266 7.98503 16.7112L7.87599 16.7658C7.6761 16.366 7.24905 16.1388 6.83109 16.1842C6.27683 16.2478 6.0315 16.7658 6.02242 16.7839L6.01333 16.793Z" fill="#59595B"/>
<path d="M5.4313 16.6931L5.32227 16.6476C5.57668 16.0661 6.10368 15.6573 6.71245 15.5846C7.44843 15.4937 8.19349 15.9298 8.51151 16.6386L8.40248 16.6931C8.10263 16.0389 7.41208 15.63 6.73062 15.7118C6.16728 15.7754 5.67663 16.157 5.44039 16.7022L5.4313 16.6931Z" fill="#59595B"/>
<path d="M9.62007 16.9657L9.50195 16.9202C9.61099 16.6567 9.8654 16.4841 10.1471 16.475C10.4197 16.475 10.6741 16.6204 10.8013 16.8566L10.6922 16.9111C10.5923 16.7112 10.3833 16.584 10.1471 16.5931C9.91083 16.5931 9.70185 16.7476 9.61099 16.9657H9.62007Z" fill="#59595B"/>
<path d="M9.23989 16.8021L9.13086 16.7476C9.13086 16.7476 9.42162 16.157 10.0486 16.0843C10.512 16.0298 10.9572 16.2751 11.1934 16.6931L11.0844 16.7567C10.8754 16.3841 10.4756 16.1661 10.0667 16.2115C9.51248 16.2751 9.25806 16.7839 9.24898 16.8021H9.23989Z" fill="#59595B"/>
<path d="M11.6369 16.6931C11.328 16.0389 10.6375 15.6391 9.956 15.7208C9.08372 15.8299 8.7021 16.6567 8.69302 16.6931L8.58398 16.6385C8.58398 16.6385 9.00195 15.7118 9.94691 15.5936C10.6829 15.5028 11.428 15.9298 11.7551 16.6295L11.646 16.684L11.6369 16.6931Z" fill="#59595B"/>
<path d="M12.8544 16.9202L12.7363 16.8748C12.8454 16.6113 13.0998 16.4387 13.3814 16.4296C13.654 16.4296 13.9084 16.5749 14.0356 16.8112L13.9266 16.8657C13.8267 16.6658 13.6086 16.5386 13.3814 16.5477C13.1452 16.5477 12.9362 16.7022 12.8454 16.9202H12.8544Z" fill="#59595B"/>
<path d="M12.4743 16.7839L12.3652 16.7385C12.5288 16.3569 12.8831 16.0934 13.2829 16.0479C13.7645 15.9934 14.2461 16.2751 14.4551 16.7294L14.346 16.7839C14.1552 16.3751 13.7282 16.1206 13.292 16.1752C12.9377 16.2115 12.6287 16.4568 12.4743 16.793V16.7839Z" fill="#59595B"/>
<path d="M11.8837 16.684L11.7656 16.6386C12.02 16.048 12.5561 15.6391 13.1649 15.5664C13.91 15.4755 14.6641 15.9207 14.9821 16.6386L14.8731 16.6931C14.5732 16.0207 13.8736 15.6118 13.1831 15.6936C12.6197 15.7572 12.12 16.1479 11.8837 16.6931V16.684Z" fill="#59595B"/>
<path d="M16.1435 16.9384L16.0254 16.893C16.1344 16.6295 16.3888 16.4568 16.6705 16.4478C16.9431 16.4478 17.1975 16.5931 17.3247 16.8294L17.2157 16.8839C17.1157 16.684 16.8977 16.5568 16.6705 16.5659C16.4343 16.5659 16.2253 16.7203 16.1344 16.9384H16.1435Z" fill="#59595B"/>
<path d="M15.7536 16.8112L15.6445 16.7567C15.6445 16.7567 15.9353 16.1479 16.5622 16.057C17.0529 15.9843 17.5435 16.2388 17.798 16.684L17.6889 16.7476C17.4618 16.3478 17.0165 16.1206 16.5804 16.1752C16.0171 16.2569 15.7627 16.7839 15.7536 16.8021V16.8112Z" fill="#59595B"/>
<path d="M18.168 16.684C17.8591 16.0116 17.1776 15.6118 16.4689 15.6936C15.5875 15.7935 15.1878 16.6204 15.1696 16.6476L15.0605 16.5931C15.0605 16.5931 15.5058 15.6754 16.4507 15.5664C17.2049 15.4846 17.9409 15.9026 18.268 16.6295L18.1589 16.684H18.168Z" fill="#59595B"/>
<path d="M19.3974 16.9384L19.2793 16.893C19.3883 16.6295 19.6427 16.4568 19.9244 16.4478C20.197 16.4478 20.4514 16.5931 20.5786 16.8294L20.4696 16.8839C20.3696 16.684 20.1607 16.5568 19.9244 16.5659C19.6882 16.5659 19.4792 16.7203 19.3883 16.9384H19.3974Z" fill="#59595B"/>
<path d="M19.0419 16.8112L18.9238 16.7658C19.0692 16.3751 19.4145 16.1025 19.8143 16.057C20.2777 16.0025 20.7411 16.266 20.941 16.7022L20.8319 16.7567C20.6593 16.366 20.2413 16.1297 19.8324 16.1843C19.4781 16.2297 19.1782 16.4659 19.0419 16.8112Z" fill="#59595B"/>
<path d="M18.445 16.6658L18.3359 16.6113C18.3359 16.6113 18.763 15.6845 19.717 15.5664C20.4621 15.4755 21.189 15.8935 21.5252 16.6022L21.4161 16.6567C21.0981 15.9935 20.4258 15.6118 19.7352 15.6936C18.8538 15.8026 18.4722 16.6295 18.4541 16.6658H18.445Z" fill="#59595B"/>
<path d="M5.73886 17.8107C5.67526 17.7562 5.52988 17.6471 5.32999 17.629C5.03014 17.5926 4.81207 17.7562 4.75756 17.8016L4.67578 17.7016C4.74847 17.6471 5.00288 17.4654 5.33907 17.5017C5.57531 17.529 5.73886 17.6471 5.82064 17.7107L5.73886 17.8016V17.8107Z" fill="#59595B"/>
<path d="M7.01274 17.4109L6.92188 17.3291C7.09451 17.1292 7.58516 16.6658 8.35749 16.6113C9.32971 16.5386 9.96574 17.1837 10.0839 17.3109L9.993 17.3927C9.88396 17.2746 9.27519 16.6658 8.36658 16.7385C7.63968 16.793 7.17629 17.2292 7.01274 17.4109Z" fill="#59595B"/>
<path d="M3.1689 16.9747L3.05078 16.9293C3.15982 16.6658 3.41423 16.4932 3.6959 16.4841C3.96848 16.4841 4.2229 16.6295 4.3501 16.8657L4.24107 16.9202C4.14112 16.7203 3.92305 16.5931 3.6959 16.6022C3.45966 16.6022 3.25068 16.7567 3.15982 16.9747H3.1689Z" fill="#59595B"/>
<path d="M6.39351 16.9475L6.27539 16.9021C6.38442 16.6386 6.63884 16.4659 6.92051 16.4568C7.18401 16.4568 7.44751 16.6022 7.57471 16.8385L7.46568 16.893C7.36573 16.6931 7.14766 16.5659 6.92051 16.575C6.68427 16.575 6.47529 16.7294 6.38442 16.9475H6.39351Z" fill="#59595B"/>
<path d="M1.57914 17.8561L1.48828 17.7652C1.55188 17.7016 1.79721 17.4926 2.14249 17.529C2.33329 17.5472 2.47867 17.6471 2.56953 17.7198L2.48776 17.8106C2.41507 17.747 2.29695 17.6744 2.1334 17.6471C1.83356 17.6108 1.61549 17.8106 1.57914 17.847V17.8561Z" fill="#59595B"/>
<path d="M2.9531 17.5653C2.87133 17.4745 2.5624 17.1928 2.08992 17.1746C1.58109 17.1565 1.25399 17.4563 1.16313 17.5472L1.07227 17.4563C1.17221 17.3563 1.53566 17.0292 2.08992 17.0474C2.59874 17.0656 2.92584 17.3473 3.03488 17.4745L2.94402 17.5562L2.9531 17.5653Z" fill="#59595B"/>
<path d="M3.63184 17.4472C3.51372 17.32 2.88677 16.6931 1.93273 16.7567C1.0968 16.8112 0.560715 17.3473 0.497112 17.4109L0.40625 17.3291C0.469853 17.2655 1.0332 16.6931 1.92364 16.6385C2.9322 16.5749 3.59549 17.2382 3.7227 17.3654L3.63184 17.4472Z" fill="#59595B"/>
</g>
</svg>
