<svg width="41" height="41" viewBox="0 0 41 41" fill="none" xmlns="http://www.w3.org/2000/svg">
<path opacity="0.5" d="M20.5 41C31.8218 41 41 31.8218 41 20.5C41 9.17816 31.8218 0 20.5 0C9.17816 0 0 9.17816 0 20.5C0 31.8218 9.17816 41 20.5 41Z" fill="#71C9ED"/>
<path d="M12.4324 28.1313C16.7882 28.1016 23.8131 28.0817 28.0995 27.9924C29.4787 28.1115 30.6594 26.9208 30.5007 25.5416L30.4908 24.4998C30.4511 22.4161 30.4213 18.229 30.4213 16.1453V15.6195C30.4412 14.528 29.4688 13.5656 28.3773 13.5854C25.5991 13.5755 18.5246 13.5358 15.8456 13.4961L13.7521 13.4663H12.7102C11.6982 13.3572 10.7159 13.9228 10.3686 14.8852C10.1305 15.421 10.2595 16.3438 10.2098 16.9193L10.1602 21.0965L10.1404 25.2737C9.93202 26.6827 10.9441 28.1512 12.4423 28.1313H12.4324ZM12.4324 28.1313C10.9342 28.1611 9.89233 26.6926 10.0908 25.2737L10.0709 21.0965L10.0213 16.9193C10.061 16.2942 9.89233 15.4111 10.1305 14.8058C10.4579 13.7342 11.6089 13.0397 12.7102 13.129L13.7521 13.1191L15.8456 13.0893C18.4949 13.0397 25.6388 13.0099 28.3773 13C30.074 13.0099 31.1754 14.528 30.977 16.1553L30.9571 20.3325L30.9075 24.5097V25.5516C30.977 26.6529 30.2725 27.8138 29.191 28.1512C28.5857 28.3893 27.6927 28.2405 27.0676 28.2603C23.2972 28.2107 16.2822 28.1412 12.4423 28.1412L12.4324 28.1313Z" fill="#292454"/>
<path d="M27.5825 19.0227C28.3961 19.0227 29.051 18.3678 29.051 17.5542C29.051 16.7406 28.3961 16.0857 27.5825 16.0857H25.6775C24.8639 16.0857 24.209 16.7406 24.209 17.5542C24.209 18.3678 24.8639 19.0227 25.6775 19.0227H27.5825Z" fill="#292454"/>
<path d="M27.5826 19.0227C28.7434 19.0524 29.4678 17.574 28.7137 16.691C28.3862 16.2643 27.8505 16.0956 27.3047 16.1552H25.6775C24.5761 16.1254 23.8617 17.5145 24.5464 18.3976C24.854 18.8441 25.4096 19.0425 25.9454 19.0028H27.5726L27.5826 19.0227ZM27.5826 19.0227H25.9553C24.7845 19.2509 23.7228 17.961 24.2884 16.8596C24.5364 16.3338 25.102 15.9865 25.6775 15.9865H27.3047C27.8505 15.9468 28.4756 16.175 28.7931 16.6413C29.5174 17.5839 28.7633 19.0723 27.5826 19.0326V19.0227Z" fill="#292454"/>
<path d="M15.7561 22.7039H13.9007C13.0871 22.6146 11.4995 23.2199 11.6682 21.8705C11.6682 21.414 11.6484 20.4813 11.6484 20.015C11.6384 19.8761 11.6484 19.6578 11.7774 19.5189C11.8865 19.3701 12.0651 19.2808 12.2536 19.2808C13.4939 19.3006 14.7044 19.2609 15.9744 19.3701C16.3217 19.499 16.3316 19.9059 16.3118 20.2134L16.2919 21.1362V22.059C16.3416 22.3666 16.0935 22.7039 15.7661 22.694L15.7561 22.7039ZM15.7561 22.7039C16.0836 22.7039 16.3217 22.3765 16.2622 22.0689V21.1461L16.2423 20.2234C16.2423 19.9356 16.2523 19.5883 15.9347 19.4792C14.9128 19.4296 13.3153 19.509 12.2536 19.499C11.9956 19.499 11.7873 19.7372 11.8369 20.0348C11.8369 20.4913 11.827 21.424 11.817 21.8903C11.8071 22.188 11.7773 22.5055 12.0849 22.6345C13.2756 22.7337 14.5357 22.694 15.7661 22.7138L15.7561 22.7039Z" fill="#292454"/>
<path opacity="0.3" d="M15.7561 22.7039H13.9007C13.0871 22.6146 11.4995 23.2199 11.6682 21.8705C11.6682 21.414 11.6484 20.4813 11.6484 20.015C11.6384 19.8761 11.6484 19.6578 11.7774 19.5189C11.8865 19.3701 12.0651 19.2808 12.2536 19.2808C13.4939 19.3006 14.7044 19.2609 15.9744 19.3701C16.3217 19.499 16.3316 19.9059 16.3118 20.2134L16.2919 21.1362V22.059C16.3416 22.3666 16.0935 22.7039 15.7661 22.694L15.7561 22.7039ZM15.7561 22.7039C16.0836 22.7039 16.3217 22.3765 16.2622 22.0689V21.1461L16.2423 20.2234C16.2423 19.9356 16.2523 19.5883 15.9347 19.4792C14.9128 19.4296 13.3153 19.509 12.2536 19.499C11.9956 19.499 11.7873 19.7372 11.8369 20.0348C11.8369 20.4913 11.827 21.424 11.817 21.8903C11.8071 22.188 11.7773 22.5055 12.0849 22.6345C13.2756 22.7337 14.5357 22.694 15.7661 22.7138L15.7561 22.7039Z" fill="#292454"/>
<path d="M11.7383 16.4431C12.0062 16.4034 12.2741 16.3835 12.542 16.3538V16.5423C12.2741 16.5125 12.0062 16.4927 11.7383 16.453V16.4431Z" fill="#292454"/>
<path d="M13.3359 16.2942C13.6038 16.2744 13.8717 16.2644 14.1396 16.2545V16.6216C13.8717 16.6216 13.6038 16.6018 13.3359 16.5819V16.2843V16.2942Z" fill="#292454"/>
<path d="M14.9336 16.2446L15.7373 16.2546V16.6415H14.9336V16.2446Z" fill="#292454"/>
<path d="M16.54 16.2745L17.3338 16.3241V16.5623L16.54 16.6119V16.2745Z" fill="#292454"/>
<path d="M18.1387 16.3936C18.2776 16.4035 18.4066 16.4233 18.5455 16.4432C18.4066 16.463 18.2776 16.4829 18.1387 16.4928V16.3936Z" fill="#292454"/>
</svg>
