<svg width="41" height="41" viewBox="0 0 41 41" fill="none" xmlns="http://www.w3.org/2000/svg">
<path opacity="0.5" d="M20.5 41C31.8218 41 41 31.8218 41 20.5C41 9.17816 31.8218 0 20.5 0C9.17816 0 0 9.17816 0 20.5C0 31.8218 9.17816 41 20.5 41Z" fill="#71C9ED"/>
<path d="M24.0843 22.5435C23.8379 22.4942 23.6309 22.3464 23.4042 22.2379C23.0789 22.0704 22.7241 21.9028 22.3496 21.9028C21.9652 21.9028 21.6301 22.1295 21.4231 22.4252C20.8711 23.0856 20.8219 23.7558 21.4625 24.3767C22.0046 24.8893 22.7241 25.1455 23.3845 25.4708C23.6013 25.5693 23.828 25.6975 24.0547 25.727C24.2518 25.7566 24.5771 25.6876 24.7742 25.6679C25.5134 25.5792 27.0017 25.4018 27.741 25.3229L29.2194 25.1652C29.6925 25.116 30.1853 25.0174 30.4908 24.6231C31.1216 23.8642 30.9147 22.6026 29.9783 22.1985C29.5249 22.0014 29.0124 22.0408 28.5295 22.0901L27.0412 22.2478C26.5483 22.3069 25.2966 22.4449 24.8136 22.4942C24.5968 22.5139 24.2913 22.573 24.0744 22.5435H24.0843ZM24.0843 22.5435C24.3011 22.573 24.6067 22.5139 24.8235 22.4942C25.2966 22.4351 26.5582 22.2774 27.0412 22.2182L28.5196 22.031C29.0124 21.9718 29.5348 21.9225 30.0177 22.1098C31.1906 22.5829 31.3286 24.2585 30.343 25.0075C30.0276 25.2441 29.6136 25.3131 29.249 25.3525L27.7705 25.5201C27.0313 25.5989 25.543 25.7665 24.8038 25.8355C24.5771 25.8453 24.2716 25.9143 24.0449 25.8749C23.7787 25.8256 23.5718 25.6975 23.3352 25.5891C22.6748 25.2441 21.9553 24.9583 21.4132 24.426C20.7627 23.7755 20.8219 23.0757 21.4132 22.4055C21.6301 22.1098 21.9849 21.8733 22.3693 21.8831C22.7438 21.8831 23.0987 22.0605 23.4239 22.2281C23.6408 22.3365 23.8576 22.4843 24.104 22.5336L24.0843 22.5435Z" fill="#292454"/>
<path d="M30.9342 23.3024C30.8061 22.7405 30.4907 22.1886 29.9585 21.9323C29.6726 21.7845 29.3572 21.8141 29.0517 21.8338C28.5786 21.8732 28.1153 21.9718 27.6422 22.021C26.5482 22.159 25.188 22.3167 24.094 22.4251H24.0743H24.0546C23.7687 22.2773 23.4928 22.1295 23.2069 21.9816C22.8127 21.6859 22.2607 21.8042 21.8369 21.9816C22.2607 21.7451 22.8324 21.5972 23.2661 21.8929C23.5125 22.0013 23.8377 22.159 24.1137 22.2872H24.0743C25.1585 22.1393 26.5186 21.9718 27.6127 21.8436C28.0956 21.7943 28.5589 21.7056 29.0418 21.6761C29.2882 21.6761 29.5346 21.6564 29.7811 21.7253C29.9289 21.7746 30.1162 21.8732 30.2443 21.9816C30.6583 22.3069 30.8751 22.8095 30.9441 23.3221L30.9342 23.3024Z" fill="#292454"/>
<path d="M28.057 23.5488C28.057 24.4556 29.1609 24.8695 29.772 24.219C30.1268 23.8543 30.1268 23.2334 29.772 22.8687C29.1609 22.2182 28.0669 22.642 28.057 23.5389V23.5488ZM28.057 23.5488C28.057 22.6124 29.2003 22.0999 29.8903 22.7504C30.4718 23.2925 30.2747 24.2979 29.5157 24.564C28.8159 24.8301 28.0373 24.2782 28.057 23.5389V23.5488Z" fill="#292454"/>
<path d="M28.6286 25.3229C28.6581 25.6876 28.668 26.0522 28.6877 26.4169C28.7074 26.7126 28.5596 27.0083 28.323 27.1956C28.2442 27.2547 28.1653 27.3138 28.0668 27.3533H28.0766C27.8401 27.4715 27.5641 27.4321 27.3078 27.373C27.1403 27.3434 26.8742 27.304 26.6672 27.2646C26.0167 27.1463 25.376 27.0182 24.7354 26.8506C25.6717 26.9294 26.5982 27.0576 27.5148 27.2251C27.6627 27.2448 27.8499 27.2547 27.9682 27.1956C28.116 27.1266 28.2737 27.0182 28.3723 26.89C28.4709 26.7619 28.53 26.6042 28.5399 26.4268C28.5596 26.0621 28.5793 25.6974 28.6187 25.3327L28.6286 25.3229Z" fill="#292454"/>
<path d="M24.1043 25.8256C24.1043 26.7521 24.1043 29.0289 24.1043 29.9357C24.1437 30.3595 23.9367 30.596 23.5326 30.7242C23.1778 30.8129 22.8328 30.596 22.5372 30.4482C22.202 30.2708 21.6501 30.0244 21.3051 29.8568C18.6735 28.6544 15.8053 27.4026 13.1836 26.21C12.7696 26.0227 12.3556 25.8453 11.9318 25.6679C11.301 25.4018 10.6209 25.0667 10.2661 24.4359C10.0099 24.0318 10.0099 23.5291 10 23.0659C10.0296 22.8786 10.0296 17.6745 10.0197 17.2901V12.1944C10.0394 11.9874 10.1478 11.7804 10.3351 11.672C10.3647 11.6523 10.3844 11.6425 10.4238 11.6326H10.4041C10.5618 11.5439 10.7786 11.5735 10.9265 11.5735C11.0448 11.5735 11.1236 11.6227 11.2222 11.6622C11.4686 11.7607 11.7643 11.9283 11.9713 12.0466C15.3027 13.5644 19.7478 15.5751 23.0398 17.1127C23.7101 17.4675 24.2029 18.1574 24.124 18.9361C24.124 19.6359 24.1043 21.5283 24.0944 22.2576C24.0944 21.5184 24.0747 19.6457 24.0649 18.9361C24.0846 18.5714 24.0057 18.2067 23.7988 17.9012C23.5721 17.5562 23.2468 17.2901 22.8723 17.1225C22.6456 17.024 22.2119 16.8268 21.9852 16.7283C19.0875 15.4273 14.7901 13.5151 11.8825 12.1944C11.7248 12.1057 11.5573 12.017 11.3897 11.9283C11.232 11.8593 11.0743 11.7706 10.9068 11.741C10.7984 11.741 10.6801 11.741 10.5717 11.7509C10.5421 11.7509 10.5027 11.7706 10.4928 11.7804L10.4731 11.7903C10.3154 11.8593 10.207 12.0268 10.1971 12.1944C10.1971 12.155 10.1971 17.2901 10.1971 17.2802C10.1971 17.2802 10.1971 22.3759 10.1971 22.3858C10.1676 22.8293 10.1577 23.2925 10.207 23.7361C10.2366 23.9628 10.2957 24.1599 10.4041 24.3472C10.7392 24.9385 11.37 25.2441 11.991 25.5003C12.4148 25.6778 12.8386 25.8552 13.2526 26.0523C15.8743 27.2449 18.7228 28.5459 21.3544 29.7582C21.6895 29.9258 22.2612 30.1821 22.5864 30.3595C22.8723 30.5073 23.1877 30.7143 23.5129 30.6453C23.8776 30.527 24.0747 30.3398 24.0452 29.9357C24.0452 29.0387 24.1043 26.7619 24.1142 25.8256H24.1043Z" fill="#292454"/>
<path d="M24.7644 25.7763C24.8432 26.6437 24.8531 27.5505 24.8629 28.4178C24.8629 28.6347 24.8629 29.1965 24.8629 29.4034C24.8629 29.6301 24.8235 29.8963 24.6658 30.0638C24.4391 30.3201 24.1434 30.4975 23.8379 30.6256C24.0252 30.4975 24.2026 30.3792 24.3603 30.2215C24.5081 30.0835 24.656 29.916 24.6855 29.709C24.7151 29.5316 24.6855 29.2457 24.6855 29.0683C24.6658 27.9743 24.6855 26.8605 24.7742 25.7665L24.7644 25.7763Z" fill="#292454"/>
<path d="M24.7551 22.2773C24.7256 21.134 24.7059 19.8822 24.696 18.7389C24.696 18.5812 24.696 18.2363 24.6763 18.0884C24.6073 17.7434 24.4102 17.428 24.1638 17.1816C23.9666 16.9747 23.7202 16.8367 23.4541 16.7085C19.7876 15.1512 16.1901 13.4461 12.5728 11.7705L11.8632 11.4354C11.7449 11.3763 11.6266 11.327 11.4985 11.3073C11.3704 11.2876 11.2324 11.2974 11.1239 11.3566L10.6016 11.6326L11.1141 11.327C11.2324 11.258 11.3802 11.2482 11.5083 11.2679C11.6463 11.2876 11.7745 11.327 11.8927 11.3862L12.6221 11.7016C16.2788 13.2687 19.9256 14.9738 23.533 16.5607C24.1539 16.8367 24.6862 17.3886 24.8143 18.0687C24.8439 18.2363 24.8143 18.5812 24.8143 18.7389C24.8044 19.8822 24.7847 21.134 24.7551 22.2675V22.2773Z" fill="#292454"/>
<path d="M28.6182 21.7746C28.5787 19.9217 28.559 17.8617 28.5492 15.9989C28.5492 15.8313 28.5492 15.4469 28.5393 15.2794C28.5098 14.9048 28.3422 14.5204 28.0268 14.3134C27.7804 14.1853 27.4256 14.0769 27.1102 14.0473C26.7751 13.998 26.4498 13.9291 26.1245 13.8699C23.0592 13.3574 19.3336 12.7167 16.2781 12.1648C14.918 11.9184 13.548 11.6917 12.1976 11.4059C12.1484 11.4059 12.0991 11.4059 12.0498 11.4354C12.0892 11.4059 12.1484 11.396 12.1976 11.396C13.548 11.6325 14.9278 11.8198 16.2979 12.0465C19.3631 12.5393 23.0888 13.1504 26.1541 13.6925C26.4794 13.7516 26.8046 13.8206 27.1299 13.8699C27.465 13.9192 27.81 14.0079 28.1155 14.1755C28.4802 14.4219 28.6675 14.8457 28.6872 15.2695C28.6872 15.4371 28.6872 15.8215 28.6872 15.9989C28.6675 17.8617 28.6576 19.9217 28.6182 21.7746Z" fill="#292454"/>
<path d="M28.9442 21.7451C28.9048 19.6851 28.8752 16.9845 28.8654 14.9048C28.8654 14.5401 28.6781 14.205 28.4021 13.9783C28.2149 13.8206 27.9783 13.7615 27.7418 13.7221C22.6954 12.8547 17.4321 11.9775 12.3956 11.051C12.1097 10.9722 11.8042 11.0609 11.5381 11.189C11.7943 11.0609 12.1196 10.9525 12.4054 11.0215C17.4223 11.7903 22.7742 12.6477 27.7812 13.5447C28.0375 13.5841 28.3134 13.6629 28.5204 13.8404C28.8358 14.0966 29.0428 14.4909 29.0329 14.895C29.0132 16.9746 29.0034 19.6654 28.9541 21.7352L28.9442 21.7451Z" fill="#292454"/>
<path d="M28.619 16.3537C26.8942 16.1664 25.0905 15.8707 23.3755 15.5751C22.3307 15.3878 21.286 15.2498 20.2412 15.033C23.0601 15.2597 25.8593 15.7623 28.619 16.3537Z" fill="#292454"/>
<path d="M27.6526 20.5229C27.6132 20.2075 27.6033 19.8428 27.5836 19.5274V19.3599C27.5836 18.9065 27.2091 18.463 26.7853 18.3348C26.1446 18.2166 25.4153 18.0589 24.7549 17.8716C25.366 17.9209 25.9672 18.0096 26.5684 18.1081L26.8247 18.1574C27.2978 18.2855 27.6625 18.7094 27.7216 19.1923C27.7315 19.2909 27.7216 19.4289 27.7216 19.5373C27.7019 19.8625 27.692 20.2174 27.6526 20.5426V20.5229Z" fill="#292454"/>
<path d="M28.6184 20.6904C27.9778 20.6609 27.3174 20.5722 26.6768 20.4637C26.046 20.3553 25.3856 20.2272 24.7646 20.0399C25.4053 20.0695 26.0657 20.1582 26.7063 20.2666C27.3371 20.375 27.9975 20.5032 28.6184 20.6904Z" fill="#292454"/>
<path d="M29.1408 24.633C29.7396 24.633 30.225 24.1476 30.225 23.5488C30.225 22.95 29.7396 22.4646 29.1408 22.4646C28.542 22.4646 28.0566 22.95 28.0566 23.5488C28.0566 24.1476 28.542 24.633 29.1408 24.633Z" fill="#292454"/>
<path d="M23.3252 21.6664V21.1736H23.3351L23.3252 21.6664Z" fill="#292454"/>
<path d="M23.3252 20.1681V19.1726H23.3745L23.3548 20.1681H23.3252Z" fill="#292454"/>
<path d="M23.1284 18.2167C22.9806 17.9801 22.7933 17.7633 22.5666 17.5859L22.4385 17.5366L22.4779 17.4479L22.606 17.507C22.8327 17.7041 23.0299 17.921 23.1678 18.1772L23.1087 18.2167H23.1284Z" fill="#292454"/>
<path d="M21.5319 17.1225L20.6152 16.7184L20.6645 16.6001L21.5811 17.0239L21.5319 17.1225Z" fill="#292454"/>
<path d="M19.6979 16.3045L18.7812 15.8906L18.8404 15.7625L19.757 16.1863L19.6979 16.3045Z" fill="#292454"/>
<path d="M17.8648 15.4766L16.958 15.0627L17.0171 14.9247L17.9338 15.3386L17.8648 15.4766Z" fill="#292454"/>
<path d="M16.0416 14.6486L15.125 14.2445L15.194 14.0868L16.1106 14.5008L16.0416 14.6486Z" fill="#292454"/>
<path d="M14.2086 13.8305L13.292 13.4166L13.3708 13.249L14.2776 13.663L14.2086 13.8305Z" fill="#292454"/>
<path d="M12.3755 13.0026L11.4688 12.5985H11.4983H11.4885L11.518 12.4014H11.5279L11.5575 12.4112L12.4544 12.8252L12.3755 13.0026Z" fill="#292454"/>
<path d="M10.8377 13.0322C10.7983 13.1998 10.7885 13.387 10.818 13.5546V13.5743V14.008H10.6012V13.5743V13.594C10.5815 13.387 10.5815 13.1899 10.6308 12.9928L10.8279 13.0421L10.8377 13.0322Z" fill="#292454"/>
<path d="M10.8272 15.0133L10.837 16.0088L10.6104 16.0186V15.0133H10.8272Z" fill="#292454"/>
<path d="M10.8469 17.0142L10.8568 18.0195H10.6104V17.0142H10.8469Z" fill="#292454"/>
<path d="M10.8675 19.0248V20.0301H10.631L10.6211 19.0248H10.8675Z" fill="#292454"/>
<path d="M10.8683 21.0355V22.0409H10.6515L10.6416 21.0355H10.8683Z" fill="#292454"/>
<path d="M10.8673 23.0462V23.1152C10.8377 23.4109 10.8673 23.7164 10.956 23.9924L10.7589 24.0614C10.6504 23.746 10.6209 23.4207 10.6504 23.0955V23.0265H10.8673V23.0462Z" fill="#292454"/>
<path d="M11.5381 24.7316L11.7254 24.8301H11.7352L12.435 25.1455L12.3562 25.3229L11.6564 25.0075L11.6662 25.0174L11.4297 24.8991L11.5381 24.7316Z" fill="#292454"/>
<path d="M13.3513 25.5594L14.2679 25.9636L14.1891 26.1311L13.2725 25.727L13.3513 25.5594Z" fill="#292454"/>
<path d="M15.1842 26.3777L16.1009 26.7916L16.0319 26.9395L15.1152 26.5354L15.1842 26.3777Z" fill="#292454"/>
<path d="M17.0182 27.1957L17.925 27.6096L17.8659 27.7476L16.9492 27.3435L17.0182 27.1957Z" fill="#292454"/>
<path d="M18.8413 28.0236L19.7579 28.4375L19.7086 28.5558L18.792 28.1517L18.8413 28.0236Z" fill="#292454"/>
<path d="M20.6743 28.8417L21.5909 29.2556L21.5416 29.3641L20.625 28.96L20.6743 28.8417Z" fill="#292454"/>
<path d="M22.5265 29.5612C22.8419 29.6105 23.2263 29.5218 23.3151 29.1965L23.384 29.2162C23.3446 29.3937 23.1968 29.5415 23.0292 29.6006C22.8617 29.6696 22.6842 29.6696 22.5068 29.6598V29.5612H22.5265Z" fill="#292454"/>
<path d="M23.3751 28.201L23.3652 27.1957H23.3948L23.4244 28.201H23.3751Z" fill="#292454"/>
<path d="M23.3449 26.2101L23.3252 25.7173L23.3548 26.2101H23.3449Z" fill="#292454"/>
</svg>
