<svg width="45" height="45" viewBox="0 0 45 45" fill="none" xmlns="http://www.w3.org/2000/svg">
<g filter="url(#filter0_d_795_75285)">
<circle cx="22.5" cy="22.5" r="20.5" fill="#5BCAEF" fill-opacity="0.1" shape-rendering="crispEdges"/>
</g>
<path fill-rule="evenodd" clip-rule="evenodd" d="M31.625 27.9999C31.625 29.0357 30.7857 29.8749 29.75 29.8749H16.25C15.2142 29.8749 14.375 29.0357 14.375 27.9999V17.1249C14.375 16.2966 15.0466 15.6249 15.875 15.6249H23.4391L26.4762 14.5247C26.6686 14.4546 26.8816 14.5539 26.9517 14.7456L27.2716 15.6249H28.625C29.4534 15.6249 30.125 16.2966 30.125 17.1249V17.8749C30.9534 17.8749 31.625 18.5466 31.625 19.3749V27.9999ZM15.875 16.3749C15.461 16.3749 15.125 16.7109 15.125 17.1249C15.125 17.5389 15.461 17.8749 15.875 17.8749H17.1669H17.2378C17.2426 17.8731 17.2456 17.8689 17.2505 17.8671L21.3687 16.3749H15.875ZM26.7792 16.4428L26.381 15.3463L25.6115 15.6249H25.6126L23.5449 16.3749H23.5411L19.4015 17.8749H27.2997L26.7792 16.4428ZM29.375 17.1249C29.375 16.7109 29.039 16.3749 28.625 16.3749H27.5439L28.0891 17.8749H29.375V17.1249ZM30.125 18.6249H15.875C15.6005 18.6249 15.3462 18.5458 15.125 18.4168V27.9999C15.125 28.6213 15.629 29.1249 16.25 29.1249H29.75C30.3714 29.1249 30.875 28.6213 30.875 27.9999V25.3749H29.375C28.5466 25.3749 27.875 24.7033 27.875 23.8749C27.875 23.0466 28.5466 22.3749 29.375 22.3749H30.875V19.3749C30.875 18.9609 30.539 18.6249 30.125 18.6249ZM30.875 24.6249V23.1249H29.375C28.961 23.1249 28.625 23.4609 28.625 23.8749C28.625 24.2889 28.961 24.6249 29.375 24.6249H30.875ZM29.375 23.4999H30.125V24.2499H29.375V23.4999Z" fill="#4F4D8B"/>
<defs>
<filter id="filter0_d_795_75285" x="0" y="0" width="45" height="45" filterUnits="userSpaceOnUse" color-interpolation-filters="sRGB">
<feFlood flood-opacity="0" result="BackgroundImageFix"/>
<feColorMatrix in="SourceAlpha" type="matrix" values="0 0 0 0 0 0 0 0 0 0 0 0 0 0 0 0 0 0 127 0" result="hardAlpha"/>
<feOffset/>
<feGaussianBlur stdDeviation="1"/>
<feComposite in2="hardAlpha" operator="out"/>
<feColorMatrix type="matrix" values="0 0 0 0 0 0 0 0 0 0 0 0 0 0 0 0 0 0 0.04 0"/>
<feBlend mode="normal" in2="BackgroundImageFix" result="effect1_dropShadow_795_75285"/>
<feBlend mode="normal" in="SourceGraphic" in2="effect1_dropShadow_795_75285" result="shape"/>
</filter>
</defs>
</svg>
